<svg width="1883" height="676" viewBox="0 0 1883 676" fill="none" xmlns="http://www.w3.org/2000/svg">
    <g opacity="0.4">
        <path d="M13.614 215.528C139.258 205.014 227.931 171.574 286.043 142.624C344.807 113.347 387.13 81.2314 464.465 63.9647C549.762 44.7796 605.495 53.3745 627.539 58.2092C658.101 64.924 656.201 69.4901 706.198 85.0684C802.239 114.997 820.484 101.683 863.516 121.52C934.866 154.404 913.589 204.304 988.219 259.653C1042.26 299.75 1131.74 331.655 1212.69 309.535C1288.91 288.7 1297.48 236.382 1377.68 228.957C1410.62 225.907 1438.02 232.679 1492.79 246.224C1562.99 263.49 1610.13 284.786 1629 292.268C1684.93 314.465 1775.19 328.432 1922.54 284.594"
              stroke="url(#paint0_linear_5093_5446)" stroke-miterlimit="10"/>
        <path d="M12.7703 232.449C134.308 223.375 225.169 193.101 288.557 163.095C340.05 138.385 379.322 111.295 433.443 91.9373C445.28 87.7166 457.751 83.6301 471.18 80.1001C555.806 57.8836 611.328 61.548 634.503 63.7927C665.583 66.7856 665.583 70.2005 714.582 85.3376C749.115 95.9854 773.711 102.067 792.762 106.058C825.146 112.83 841.358 113.29 866.912 126.317C876.447 131.138 885.396 137.041 893.58 143.91C931.432 175.661 929.82 215.912 992.613 258.58C1047.27 295.722 1136.16 323.809 1215.72 301.842C1222.02 300.098 1228.23 298.036 1234.33 295.665C1295.83 271.702 1309.65 229.552 1380.13 222.934C1387.56 222.225 1395.03 222.014 1402.48 222.3C1427.54 223.183 1453.44 229.437 1494.46 239.567C1562.41 256.45 1608.82 277.343 1629.64 285.612C1644.88 291.612 1660.61 296.322 1676.64 299.693C1732.12 311.512 1810.55 312.739 1920.89 282.58"
              stroke="url(#paint1_linear_5093_5446)" stroke-miterlimit="10"/>
        <path d="M11.9258 250.866C129.339 243.192 222.483 216.333 291.07 184.908C345.536 159.967 386.631 131.477 439.755 111.141C451.88 106.479 464.446 101.759 477.933 97.7112C561.887 72.4443 617.121 69.3939 641.525 70.852C672.969 72.7705 675.06 72.406 722.985 87.0826C756.54 97.3851 781.039 104.349 799.725 109.241C831.208 117.434 846.345 119.083 870.25 132.609C879.359 137.818 887.92 143.93 895.805 150.854C932.372 182.395 934.175 220.228 997.045 259.058C1052.32 293.227 1140.61 317.496 1218.79 295.683C1225.41 293.764 1231.53 291.846 1237.26 289.544C1300.71 265.14 1314.75 224.947 1382.65 218.559C1390.02 217.833 1397.42 217.596 1404.83 217.849C1430.3 218.597 1456.16 224.679 1496.18 234.712C1561.91 251.135 1607.55 271.682 1630.33 280.546C1645.45 286.492 1661.03 291.214 1676.91 294.666C1731.89 306.753 1809.96 309.304 1919.2 282.138"
              stroke="url(#paint2_linear_5093_5446)" stroke-miterlimit="10"/>
        <path d="M11.1008 270.532C124.389 264.335 219.758 240.641 293.602 208.065C350.966 182.74 393.94 152.946 446.028 131.612C458.46 126.509 471.141 121.175 484.648 116.59C567.931 88.3111 622.781 82.3828 648.508 79.1597C680.336 75.1884 684.5 75.8599 731.369 90.0761C763.984 99.9948 788.387 107.861 806.805 113.655C837.367 123.247 851.468 126.125 873.723 140.13C882.335 145.736 890.46 152.057 898.011 159.028C933.293 190.338 938.626 225.734 1001.42 260.709C1057.38 291.904 1145 312.375 1221.8 290.695C1228.36 288.777 1234.44 286.858 1240.14 284.614C1305.48 259.673 1319.82 221.514 1385.08 215.163C1392.4 214.42 1399.76 214.157 1407.11 214.377C1433.01 214.972 1458.91 220.919 1497.87 230.761C1561.34 246.704 1606.25 266.887 1630.96 276.498C1645.99 282.354 1661.44 287.08 1677.18 290.638C1731.66 302.993 1809.36 306.888 1917.49 282.695"
              stroke="url(#paint3_linear_5093_5446)" stroke-miterlimit="10"/>
        <path d="M10.2568 290.235C119.44 285.477 216.996 264.987 296.116 231.241C356.395 205.513 401.231 174.395 452.321 152.102C465.041 146.557 477.818 140.591 491.382 135.487C573.993 104.254 628.345 93.6253 655.511 87.5244C687.608 80.3108 693.881 79.3707 739.772 93.1265C771.523 102.719 795.716 111.429 813.827 118.067C843.468 129.041 856.514 133.185 877.138 147.651C885.239 153.64 892.93 160.165 900.16 167.181C934.175 198.223 943.039 231.202 1005.77 262.436C1062.43 290.638 1149.36 307.329 1224.79 285.803C1231.28 283.885 1237.32 281.966 1243 279.76C1310.26 254.301 1324.84 218.367 1387.5 211.94C1394.77 211.207 1402.07 210.918 1409.37 211.077C1435.66 211.537 1461.48 217.331 1499.54 226.981C1560.78 242.483 1604.95 262.32 1631.59 272.623C1646.52 278.422 1661.83 283.159 1677.43 286.801C1731.43 299.444 1808.77 304.643 1915.8 283.463"
              stroke="url(#paint4_linear_5093_5446)" stroke-miterlimit="10"/>
        <path d="M9.45117 302.935C114.528 299.616 214.291 282.35 298.667 247.433C361.844 221.283 408.56 188.784 458.652 165.608C471.64 159.603 484.552 153.08 498.154 147.401C580.056 113.213 633.966 97.9802 662.494 88.8672C694.879 78.5456 703.378 75.8405 748.156 89.155C772.884 96.5344 797.157 105.362 820.848 115.592C849.626 127.928 861.579 133.377 880.514 148.207C888.783 154.711 895.344 161.637 902.443 168.371C935.192 199.067 947.605 229.763 1010.23 257.159C1067.63 282.35 1153.83 295.28 1227.88 273.908C1234.31 271.99 1240.31 270.071 1245.95 267.903C1315.15 241.984 1329.98 207.95 1390.03 201.714C1397.24 200.979 1404.49 200.671 1411.73 200.793C1438.44 201.158 1464.22 206.741 1501.25 216.142C1560.24 231.144 1603.68 250.675 1632.25 261.668C1647.08 267.405 1662.27 272.148 1677.73 275.865C1731.24 288.796 1808.19 295.338 1914.13 277.131"
              stroke="url(#paint5_linear_5093_5446)" stroke-miterlimit="10"/>
        <path d="M8.56836 311.99C109.521 310.072 211.49 296.009 301.142 259.96C367.216 233.389 415.773 199.469 464.906 175.545C478.182 169.061 491.19 161.962 504.85 155.746C586.137 118.661 639.625 98.8432 669.497 86.6798C702.111 73.3461 712.817 68.78 756.559 81.6341C781.068 88.8376 804.919 98.1185 827.851 109.376C855.688 123.036 866.624 129.827 883.91 145.175C891.584 151.948 897.627 159.161 904.668 165.972C936.17 196.476 952.151 224.525 1014.62 248.296C1072.81 270.435 1158.26 279.644 1230.93 258.406C1237.28 256.488 1243.23 254.569 1248.87 252.44C1320.01 226.118 1335.14 194.04 1392.51 188.035C1399.66 187.28 1406.86 186.947 1414.05 187.037C1441.14 187.268 1466.93 192.678 1502.94 201.963C1559.69 216.525 1602.37 235.691 1632.9 247.413C1647.63 253.077 1662.69 257.825 1678 261.629C1731.03 274.848 1807.62 282.733 1912.46 267.481"
              stroke="url(#paint6_linear_5093_5446)" stroke-miterlimit="10"/>
        <path d="M7.74365 321.18C104.571 320.739 208.708 309.804 303.675 272.623C372.626 245.61 423.006 210.233 471.18 185.445C484.744 178.443 497.886 170.769 511.584 164.054C592.219 124.11 645.324 99.7836 676.48 84.4355C709.536 68.1665 722.256 61.6819 764.943 74.0755C789.275 81.2036 812.732 91.0366 834.873 103.39C861.732 118.336 871.67 126.547 887.325 142.279C894.347 149.339 899.911 156.783 906.875 163.728C937.149 193.906 956.756 219.461 1019.03 239.567C1078.03 258.618 1162.67 264.124 1233.9 243.058C1240.2 241.14 1246.11 239.221 1251.71 237.111C1324.78 210.252 1340.09 180.189 1394.93 174.222C1402.02 173.467 1409.16 173.108 1416.3 173.148C1443.81 173.148 1469.56 178.481 1504.55 187.613C1559.07 201.676 1600.99 220.535 1633.47 232.929C1648.1 238.545 1663.04 243.311 1678.21 247.202C1730.74 260.632 1806.97 269.86 1910.7 257.639"
              stroke="url(#paint7_linear_5093_5446)" stroke-miterlimit="10"/>
        <path d="M6.89941 330.408C99.6212 331.406 205.945 323.636 306.188 285.323C378.036 257.869 430.239 221.014 477.473 195.479C491.286 188.016 504.581 179.824 518.299 172.457C598.301 129.655 651.06 100.819 683.483 82.2865C716.942 63.1013 731.695 54.6599 773.346 66.593C797.493 73.6388 820.558 83.9674 841.895 97.2893C867.929 113.539 876.696 123.17 890.721 139.286C897.109 146.653 902.232 154.288 909.1 161.368C938.146 191.239 961.341 214.242 1023.42 230.741C1083.26 246.646 1167.08 248.526 1236.99 227.595C1243.23 225.676 1249.1 223.758 1254.66 221.705C1329.7 194.443 1345.22 166.298 1397.46 160.447C1404.51 159.69 1411.59 159.305 1418.68 159.296C1446.59 159.123 1472.4 164.341 1506.33 173.282C1558.59 186.884 1599.78 205.417 1634.2 218.501C1648.72 224.079 1663.53 228.875 1678.56 232.871C1730.61 246.646 1806.47 257.14 1909.11 247.912"
              stroke="url(#paint8_linear_5093_5446)" stroke-miterlimit="10"/>
        <path d="M6.05518 339.598C94.6714 341.977 203.221 337.354 308.739 297.928C383.561 270.014 437.472 231.663 483.804 205.417C497.886 197.436 511.315 188.726 525.071 180.822C604.421 135.219 656.854 101.894 690.524 80.0805C724.462 58.0752 741.192 47.6001 781.787 59.0728C805.767 66.0941 828.445 76.9668 848.935 91.2655C874.068 108.762 881.742 119.89 894.136 136.37C899.891 144.044 904.515 151.852 911.402 159.085C939.259 188.63 966.08 208.966 1027.93 221.974C1088.62 234.694 1171.59 232.986 1240.14 212.209C1246.3 210.29 1252.13 208.372 1257.68 206.453C1334.65 178.769 1350.4 152.543 1400.01 146.845C1407.02 146.048 1414.06 145.638 1421.11 145.617C1449.43 145.425 1475.14 150.356 1508.16 159.047C1558.17 172.189 1598.61 190.395 1634.99 204.17C1648.13 209.158 1662.69 214.089 1678.98 218.502C1730.53 232.545 1806.02 244.382 1907.55 238.128"
              stroke="url(#paint9_linear_5093_5446)" stroke-miterlimit="10"/>
        <path d="M5.21118 348.519C89.6258 352.356 200.382 350.898 311.214 310.379C388.837 282.004 444.609 242.118 490.058 215.182C504.389 206.683 517.973 197.474 531.767 188.994C610.541 140.59 662.686 102.795 697.469 77.7202C731.887 52.7795 750.573 40.3859 790.133 51.3982C813.972 58.4016 836.291 69.8017 855.938 85.0106C880.207 103.774 886.634 116.417 897.512 133.223C902.635 141.204 906.798 149.204 913.532 156.571C940.199 185.752 970.627 203.537 1032.23 212.976C1093.83 222.415 1175.91 217.196 1243.08 196.572C1249.18 194.654 1254.97 192.735 1260.48 190.817C1339.4 162.711 1355.39 138.403 1402.45 132.839C1409.38 132.029 1416.36 131.6 1423.34 131.554C1452.12 131.189 1477.75 135.986 1509.67 144.561C1557.46 157.224 1597.14 175.123 1635.47 189.57C1648.55 194.52 1663 199.431 1679.1 203.939C1730.15 218.252 1805.28 231.413 1905.71 228.17"
              stroke="url(#paint10_linear_5093_5446)" stroke-miterlimit="10"/>
        <path d="M4.38623 357.325C84.7528 362.639 197.6 364.27 313.747 322.676C394.324 293.899 451.765 252.382 496.332 224.832C510.932 215.796 524.668 206.107 538.539 197.052C616.699 145.827 668.576 103.62 704.452 75.1685C739.427 47.5035 760.089 32.9611 798.46 43.5322C823.937 50.5539 847.075 65.0771 862.902 78.5643C886.327 98.5552 891.68 112.752 900.87 129.885C905.321 138.173 909.043 146.365 915.681 153.885C941.178 182.663 975.155 197.8 1036.55 203.767C1098.96 209.887 1180.24 201.215 1246.03 180.744C1252.05 178.826 1257.81 176.907 1263.3 174.989C1344.16 146.441 1360.35 124.052 1404.77 118.642C1411.65 117.82 1418.57 117.365 1425.51 117.28C1454.65 116.724 1480.28 121.405 1511.3 129.808C1556.85 142.01 1595.72 159.583 1636.01 174.72C1649.03 179.613 1663.36 184.543 1679.25 189.109C1729.82 203.709 1804.59 218.194 1903.91 217.887"
              stroke="url(#paint11_linear_5093_5446)" stroke-miterlimit="10"/>
        <path d="M3.54199 366.016C79.803 372.788 194.741 377.297 316.26 334.84C399.581 305.372 458.901 262.512 502.624 234.291C517.455 224.698 531.402 214.549 545.235 204.918C622.858 150.989 674.485 104.215 711.455 72.5405C747.005 42.0745 769.432 25.4985 806.92 35.5899C831.496 42.2664 854.518 57.5569 869.982 72.0417C892.563 93.2605 896.63 108.992 904.323 126.47C908.16 135.065 911.402 143.411 917.964 151.085C942.29 179.555 979.874 191.911 1041.04 194.577C1104.35 197.321 1184.75 185.253 1249.16 164.917C1255.13 163.011 1260.84 161.093 1266.29 159.162C1349.13 130.23 1365.53 109.721 1407.34 104.465C1414.16 103.62 1421.03 103.14 1427.9 103.026C1457.45 102.316 1483.08 106.863 1513.11 115.074C1556.39 126.796 1594.55 144.14 1636.81 159.891C1649.78 164.764 1663.98 169.656 1679.69 174.299C1729.76 189.186 1804.16 204.995 1902.39 207.719"
              stroke="url(#paint12_linear_5093_5446)" stroke-miterlimit="10"/>
        <path d="M2.69775 374.573C74.8339 382.765 191.978 390.439 318.773 346.869C404.991 316.959 466.057 272.45 508.917 243.672C523.977 233.562 538.078 222.914 551.968 212.707C629.035 156.034 680.509 104.772 718.438 69.7586C754.602 36.4723 778.871 17.786 815.227 27.4361C838.921 33.7481 861.847 49.8252 876.907 65.346C898.682 87.7927 901.464 105.098 907.604 122.902C910.712 131.823 913.609 140.341 920.055 148.149C943.365 176.236 984.536 187.747 1045.45 185.157C1109.49 182.433 1189.18 169.061 1252.23 148.878C1258.14 146.973 1263.8 145.054 1269.22 143.123C1354.06 113.923 1370.64 95.1598 1409.83 90.0565C1416.61 89.2051 1423.42 88.7057 1430.25 88.5601C1460.19 87.7159 1485.88 92.0901 1514.81 100.071C1555.77 111.429 1593.26 128.561 1637.46 144.888C1650.38 149.722 1664.46 154.615 1679.96 159.334C1729.55 174.51 1803.59 191.642 1900.7 197.359"
              stroke="url(#paint13_linear_5093_5446)" stroke-miterlimit="10"/>
        <path d="M1.77686 383.033C69.8074 392.626 189.139 403.504 321.21 358.802C410.325 328.451 473.022 282.311 515.114 252.881C530.462 242.214 544.716 231.125 558.607 220.266C635.155 160.792 686.341 105.155 725.364 66.7848C762.218 30.7167 788.368 10.0351 823.707 19.2056C846.499 25.153 869.329 41.9975 884.006 58.5543C904.975 82.1905 906.414 101.069 911.114 119.179C913.532 128.427 916.045 137.098 922.395 145.079C944.458 172.783 989.044 179.613 1049.84 175.622C1114.73 171.421 1193.58 152.753 1255.24 132.724C1260.99 130.806 1266.75 128.887 1272.1 126.969C1358.88 97.3276 1375.7 80.4638 1412.29 75.5332C1419 74.6586 1425.76 74.1335 1432.53 73.96C1462.88 72.9624 1488.47 77.2023 1516.48 85.0299C1555.29 95.8311 1591.96 112.541 1638.1 129.655C1650.97 134.451 1664.96 139.247 1680.3 144.139C1729.4 159.488 1803.09 178.04 1899.02 186.75"
              stroke="url(#paint14_linear_5093_5446)" stroke-miterlimit="10"/>
        <path d="M1.02856 391.398C64.9343 402.468 186.434 416.473 323.819 370.659C415.907 339.867 480.178 292 521.426 262.052C536.927 250.809 551.47 239.298 565.36 227.902C641.505 165.896 692.365 105.501 732.27 63.8305C769.72 24.8654 797.596 2.18857 832.033 10.937C853.923 16.5199 876.696 34.1319 890.97 51.7055C911.153 76.6462 911.21 96.9825 914.472 115.439C916.141 125.031 918.309 133.837 924.544 141.972C945.494 169.291 993.61 173.205 1054.18 166.049C1119.85 158.375 1197.95 136.408 1258.21 116.513C1263.97 114.594 1269.59 112.676 1274.94 110.911C1363.67 80.8286 1380.69 65.8066 1414.69 61.0295C1421.4 60.1673 1428.14 59.655 1434.91 59.4947C1463.05 58.4347 1491.18 61.9994 1518.17 70.0465C1554.74 80.3873 1590.65 96.7714 1638.75 114.575C1651.56 119.314 1665.42 124.168 1680.52 129.079C1751.1 151.667 1823.68 167.477 1897.27 176.294"
              stroke="url(#paint15_linear_5093_5446)" stroke-miterlimit="10"/>
        <path d="M0.18457 399.705C59.9847 412.213 183.671 429.384 326.332 382.438C421.241 351.205 487.219 301.726 527.776 271.164C707.79 135.391 764.77 -16.2488 840.494 2.57183C861.483 7.7902 884.198 26.1696 898.049 44.7792C927.633 84.4925 908.985 114.613 926.827 138.787C970.569 198.069 1167.33 131.861 1277.92 94.6606C1385.74 58.3815 1389.73 46.6977 1437.15 44.7792C1519.94 41.3834 1562.97 74.6313 1680.8 113.846C1750.87 137.05 1822.74 154.376 1895.68 165.646"
              stroke="url(#paint16_linear_5093_5446)" stroke-miterlimit="10"/>
        <path d="M0.18457 405.192C61.577 418.871 181.427 434.545 317.814 389.614C411.955 358.514 475.132 308.556 518.663 276.421C692.557 148.207 746.794 9.34437 823.937 21.738C854.077 26.5727 884.677 36.2612 904.879 51.1105C944.573 80.3103 929.82 106.421 952.842 129.77C1003.24 180.917 1186.77 123.496 1292.05 89.3657C1394.62 56.0027 1398.76 46.5636 1448.89 48.4821C1532.2 51.6669 1573.27 81.0969 1684.28 118.738C1753.53 142.21 1824.85 159.11 1897.27 169.214"
              stroke="url(#paint17_linear_5093_5446)" stroke-miterlimit="10"/>
        <path d="M0.18457 410.909C102.568 434.478 209.442 429.669 309.296 397C402.67 366.054 462.93 315.578 509.55 281.889C677.094 160.907 729.546 32.7504 807.4 41.1152C846.902 45.3743 884.044 46.4487 911.709 57.672C959.173 76.8571 949.926 98.1527 978.857 120.983C1034.13 164.553 1206.2 115.343 1306.21 84.2818C1403.35 53.8349 1407.66 46.4487 1460.65 52.3961C1544.26 61.7584 1583.57 87.9654 1687.75 123.861C1756.18 147.585 1826.91 164.059 1898.78 173.013"
              stroke="url(#paint18_linear_5093_5446)" stroke-miterlimit="10"/>
        <path d="M0.18457 421.077C99.5872 444.928 203.662 440.691 300.797 408.837C393.384 378.025 450.748 327.031 500.437 291.807C661.286 177.809 712.855 73.9021 790.843 64.9426C839.631 59.3405 882.778 61.6428 918.558 68.6645C972.622 79.2547 969.476 94.3535 1004.89 116.627C1063.52 153.501 1225.67 111.831 1320.35 83.6481C1412.21 56.3093 1416.49 50.6113 1472.4 60.7411C1556.27 75.9357 1593.86 99.2457 1691.24 133.414C1758.86 157.418 1829.03 173.476 1900.36 181.262"
              stroke="url(#paint19_linear_5093_5446)" stroke-miterlimit="10"/>
        <path d="M0.18457 436.559C96.5983 460.681 197.873 456.996 292.278 425.931C384.099 395.235 438.546 343.722 491.324 306.983C645.362 199.757 696.394 105.769 774.305 94.0275C832.187 85.3174 883.296 72.0029 925.388 84.9145C983.308 102.68 985.476 103.908 1030.91 117.529C1085.56 158.988 1245.13 113.52 1334.51 88.2719C1421.04 63.9068 1425.3 59.8779 1484.16 74.3627C1568.24 95.0635 1604.12 115.86 1694.71 148.226C1761.51 172.502 1831.14 188.137 1901.91 194.75"
              stroke="url(#paint20_linear_5093_5446)" stroke-miterlimit="10"/>
        <path d="M0.18457 452.407C93.6049 476.813 192.085 473.736 283.799 443.543C374.851 413 426.363 360.912 482.25 322.676C629.323 222.031 679.78 137.098 757.672 123.63C824.82 112.042 880.687 93.6631 932.256 101.702C998.752 112.062 1004.64 107.994 1056.96 118.968C1114.3 155.861 1264.56 115.573 1348.57 93.4137C1429.77 72.0222 1434.02 69.4706 1495.82 88.5023C1580.23 114.441 1614.29 133.031 1698.11 163.555C1764.1 188.105 1833.19 203.319 1903.39 208.755"
              stroke="url(#paint21_linear_5093_5446)" stroke-miterlimit="10"/>
        <path d="M0.18457 468.56C90.5901 493.204 186.248 490.702 275.242 461.366C365.527 430.957 414.066 378.294 473.098 338.581C613.15 244.363 663.031 168.025 741.211 153.444C817.433 139.228 879.075 127.563 939.048 118.681C1013.1 107.707 1023.73 112.253 1082.94 120.599C1143.06 153.041 1284 117.913 1362.81 98.7663C1438.67 80.3486 1442.93 79.1591 1507.66 102.853C1592.23 133.818 1624.59 150.49 1701.58 179.114C1766.76 203.929 1835.33 218.723 1904.94 222.99"
              stroke="url(#paint22_linear_5093_5446)" stroke-miterlimit="10"/>
        <path d="M0.18457 484.926C71.6109 505.588 168.055 512.552 266.743 479.42C356.318 449.337 401.806 395.868 463.985 354.716C596.881 266.771 646.244 198.741 724.654 183.488C810.143 166.874 878.135 150.624 945.897 135.89C1027.05 118.221 1044.7 105.884 1108.97 122.46C1175.56 139.631 1303.43 120.542 1376.95 104.35C1447.47 88.8864 1451.77 89.0015 1519.4 117.415C1604.39 153.233 1634.82 168.217 1705.15 194.884C1748.87 211.46 1814.83 233.14 1906.59 237.437"
              stroke="url(#paint23_linear_5093_5446)" stroke-miterlimit="10"/>
        <path d="M0.18457 501.578C73.28 523.373 165.81 528.879 258.225 497.741C347.033 467.812 389.509 413.653 454.873 371.119C580.516 289.333 629.17 229.418 708.116 213.801C802.891 195.038 877.368 174.068 952.727 153.368C1041.19 129.06 1063.27 110.565 1134.99 124.59C1203.34 138.019 1322.85 123.285 1391.11 110.201C1456.34 97.6922 1460.79 98.8433 1531.16 132.264C1616.57 172.802 1645 186.289 1708.62 210.923C1751.71 227.614 1816.69 249.293 1908.15 252.171"
              stroke="url(#paint24_linear_5093_5446)" stroke-miterlimit="10"/>
        <path d="M0.18457 518.423C75.0066 541.445 163.565 545.397 249.707 516.274C337.747 486.499 377.173 431.629 445.76 387.734C564.094 311.991 612.095 260.114 691.56 244.325C795.716 223.624 876.696 197.781 959.557 171.057C1055.48 140.13 1081.86 115.899 1161 126.931C1231.22 136.715 1342.26 126.336 1405.25 116.264C1465.07 106.671 1469.81 108.877 1542.9 147.324C1628.85 192.506 1655.17 204.631 1712.09 227.173C1754.57 243.999 1818.53 265.755 1909.7 267.098"
              stroke="url(#paint25_linear_5093_5446)" stroke-miterlimit="10"/>
        <path d="M0.18457 535.517C76.599 559.633 161.34 562.146 241.188 535.038C328.462 505.396 364.798 449.759 436.647 404.578C547.594 334.783 593.639 281.582 675.022 275.079C790.402 265.85 876.082 221.744 966.387 188.976C1069.85 151.449 1104.52 102.642 1187.02 129.501C1255.93 152.006 1361.6 129.501 1419.41 122.556C1473.85 115.938 1478.88 119.065 1554.66 162.596C1641.21 212.343 1665.3 223.279 1715.57 243.653C1757.41 260.632 1820.39 282.407 1911.26 282.273"
              stroke="url(#paint26_linear_5093_5446)" stroke-miterlimit="10"/>
        <path d="M0.18457 553.167C78.2681 578.453 159.095 579.412 232.689 554.472C319.176 524.965 352.385 468.484 427.534 422.094C531.133 358.15 576.545 314.331 658.465 306.503C783.169 294.551 875.545 246.396 973.236 207.566C1084.32 163.44 1121.67 111.429 1213.05 132.743C1285.53 149.665 1381.07 133.472 1433.55 129.52C1482.64 125.818 1488.11 129.846 1566.4 178.558C1653.64 232.813 1675.43 242.655 1719.06 260.804C1760.25 277.956 1822.26 299.712 1912.83 298.1"
              stroke="url(#paint27_linear_5093_5446)" stroke-miterlimit="10"/>
        <path d="M0.18457 571.931C79.918 598.387 156.831 597.869 224.171 574.808C309.89 545.436 339.915 488.034 418.421 440.512C514.462 382.362 559.432 347.982 641.928 338.831C775.994 323.962 875.046 271.97 980.066 227.077C1098.86 176.294 1139.3 122.173 1239.07 136.907C1314.92 148.111 1400.45 138.25 1447.7 137.386C1491.41 136.581 1497.37 141.492 1578.16 195.422C1666.13 254.147 1685.6 263.011 1722.53 278.877C1763.07 296.259 1824.21 317.938 1914.38 314.849"
              stroke="url(#paint28_linear_5093_5446)" stroke-miterlimit="10"/>
        <path d="M0.18457 591.02C81.5872 618.646 154.587 616.613 215.653 595.586C300.605 566.328 327.387 507.89 409.308 459.371C497.847 406.919 542.261 382.036 625.371 371.599C768.722 353.603 874.586 297.966 986.896 247.011C1113.52 189.589 1157.38 134.144 1265.08 141.492C1344.12 146.883 1419.85 143.411 1461.84 145.694C1500.14 147.746 1506.7 153.502 1589.9 212.727C1678.71 275.903 1695.58 283.961 1726 297.391C1765.85 315.06 1825.96 336.624 1915.94 332.039"
              stroke="url(#paint29_linear_5093_5446)" stroke-miterlimit="10"/>
        <path d="M0.18457 611.797C83.2562 640.575 152.284 636.93 207.135 618.032C291.262 588.717 314.763 529.263 400.195 479.899C481.195 433.087 525.071 417.739 608.833 406.036C761.394 384.722 874.164 325.65 993.649 268.613C1127.94 204.554 1176.27 156.495 1291.02 147.746C1372.79 141.53 1439.15 150.24 1475.93 155.67C1508.87 160.543 1516.02 167.181 1601.59 231.681C1691.26 299.328 1705.53 306.504 1729.4 317.535C1768.5 335.627 1827.74 356.941 1917.41 350.879"
              stroke="url(#paint30_linear_5093_5446)" stroke-miterlimit="10"/>
        <path d="M0.18457 632.363C84.9062 662.311 150.04 657.17 198.636 640.287C281.976 611.106 302.024 550.232 391.082 500.235C464.523 459.006 507.843 453.231 592.277 440.281C754.027 415.475 873.761 353.123 1000.57 290.042C1142.72 219.307 1195.59 167.257 1317.13 153.828C1401.54 144.542 1458.66 156.763 1490.14 165.454C1517.75 173.128 1525.56 180.61 1613.41 250.463C1704.04 322.523 1715.59 328.988 1732.97 337.526C1771.18 356.289 1829.68 377.066 1919.06 369.527"
              stroke="url(#paint31_linear_5093_5446)" stroke-miterlimit="10"/>
        <path d="M0.18457 652.949C86.5177 684.049 147.91 677.43 190.118 662.542C272.614 633.496 289.151 570.895 381.969 520.572C447.851 484.849 490.595 488.725 575.739 474.528C746.583 446.038 873.377 380.52 1007.4 311.454C1157.39 234.061 1214.97 177.944 1343.14 159.891C1430.53 147.593 1478.15 163.191 1504.3 175.239C1526.61 185.522 1535 194.021 1625.17 269.246C1716.78 345.737 1725.5 351.551 1736.44 357.498C1773.41 377.623 1831.52 397.211 1920.62 388.194"
              stroke="url(#paint32_linear_5093_5446)" stroke-miterlimit="10"/>
    </g>
    <defs>
        <linearGradient id="paint0_linear_5093_5446" x1="968.075" y1="52.0488" x2="968.075" y2="316.783"
                        gradientUnits="userSpaceOnUse">
            <stop offset="0.162486" stop-color="#57E8DF"/>
            <stop offset="0.883063" stop-color="#A557CA"/>
        </linearGradient>
        <linearGradient id="paint1_linear_5093_5446" x1="966.828" y1="62.0835" x2="966.828" y2="309.578"
                        gradientUnits="userSpaceOnUse">
            <stop offset="0.162486" stop-color="#57E8DF"/>
            <stop offset="0.883063" stop-color="#A557CA"/>
        </linearGradient>
        <linearGradient id="paint2_linear_5093_5446" x1="965.562" y1="70.5508" x2="965.562" y2="303.99"
                        gradientUnits="userSpaceOnUse">
            <stop offset="0.162486" stop-color="#57E8DF"/>
            <stop offset="0.883063" stop-color="#A557CA"/>
        </linearGradient>
        <linearGradient id="paint3_linear_5093_5446" x1="964.296" y1="77.0645" x2="964.296" y2="300.414"
                        gradientUnits="userSpaceOnUse">
            <stop offset="0.162486" stop-color="#57E8DF"/>
            <stop offset="0.883063" stop-color="#A557CA"/>
        </linearGradient>
        <linearGradient id="paint4_linear_5093_5446" x1="963.03" y1="82.3633" x2="963.03" y2="297.825"
                        gradientUnits="userSpaceOnUse">
            <stop offset="0.162486" stop-color="#57E8DF"/>
            <stop offset="0.883063" stop-color="#A557CA"/>
        </linearGradient>
        <linearGradient id="paint5_linear_5093_5446" x1="961.792" y1="80.1245" x2="961.792" y2="302.935"
                        gradientUnits="userSpaceOnUse">
            <stop offset="0.162486" stop-color="#57E8DF"/>
            <stop offset="0.883063" stop-color="#A557CA"/>
        </linearGradient>
        <linearGradient id="paint6_linear_5093_5446" x1="960.516" y1="74.0122" x2="960.516" y2="311.99"
                        gradientUnits="userSpaceOnUse">
            <stop offset="0.162486" stop-color="#57E8DF"/>
            <stop offset="0.883063" stop-color="#A557CA"/>
        </linearGradient>
        <linearGradient id="paint7_linear_5093_5446" x1="959.221" y1="67.606" x2="959.221" y2="321.18"
                        gradientUnits="userSpaceOnUse">
            <stop offset="0.162486" stop-color="#57E8DF"/>
            <stop offset="0.883063" stop-color="#A557CA"/>
        </linearGradient>
        <linearGradient id="paint8_linear_5093_5446" x1="958.003" y1="61.0801" x2="958.003" y2="330.49"
                        gradientUnits="userSpaceOnUse">
            <stop offset="0.162486" stop-color="#57E8DF"/>
            <stop offset="0.883063" stop-color="#A557CA"/>
        </linearGradient>
        <linearGradient id="paint9_linear_5093_5446" x1="956.804" y1="54.3691" x2="956.804" y2="340.111"
                        gradientUnits="userSpaceOnUse">
            <stop offset="0.162486" stop-color="#57E8DF"/>
            <stop offset="0.883063" stop-color="#A557CA"/>
        </linearGradient>
        <linearGradient id="paint10_linear_5093_5446" x1="955.461" y1="47.3579" x2="955.461" y2="349.924"
                        gradientUnits="userSpaceOnUse">
            <stop offset="0.162486" stop-color="#57E8DF"/>
            <stop offset="0.883063" stop-color="#A557CA"/>
        </linearGradient>
        <linearGradient id="paint11_linear_5093_5446" x1="954.147" y1="40.0737" x2="954.147" y2="360.056"
                        gradientUnits="userSpaceOnUse">
            <stop offset="0.162486" stop-color="#57E8DF"/>
            <stop offset="0.883063" stop-color="#A557CA"/>
        </linearGradient>
        <linearGradient id="paint12_linear_5093_5446" x1="952.967" y1="32.6328" x2="952.967" y2="370.382"
                        gradientUnits="userSpaceOnUse">
            <stop offset="0.162486" stop-color="#57E8DF"/>
            <stop offset="0.883063" stop-color="#A557CA"/>
        </linearGradient>
        <linearGradient id="paint13_linear_5093_5446" x1="951.701" y1="24.8989" x2="951.701" y2="380.912"
                        gradientUnits="userSpaceOnUse">
            <stop offset="0.162486" stop-color="#57E8DF"/>
            <stop offset="0.883063" stop-color="#A557CA"/>
        </linearGradient>
        <linearGradient id="paint14_linear_5093_5446" x1="950.396" y1="17.0371" x2="950.396" y2="391.6"
                        gradientUnits="userSpaceOnUse">
            <stop offset="0.162486" stop-color="#57E8DF"/>
            <stop offset="0.883063" stop-color="#A557CA"/>
        </linearGradient>
        <linearGradient id="paint15_linear_5093_5446" x1="949.149" y1="9.06738" x2="949.149" y2="402.436"
                        gradientUnits="userSpaceOnUse">
            <stop offset="0.162486" stop-color="#57E8DF"/>
            <stop offset="0.883063" stop-color="#A557CA"/>
        </linearGradient>
        <linearGradient id="paint16_linear_5093_5446" x1="947.931" y1="0.980469" x2="947.931" y2="413.367"
                        gradientUnits="userSpaceOnUse">
            <stop offset="0.162486" stop-color="#57E8DF"/>
            <stop offset="0.883063" stop-color="#A557CA"/>
        </linearGradient>
        <linearGradient id="paint17_linear_5093_5446" x1="948.727" y1="20.9648" x2="948.727" y2="419.382"
                        gradientUnits="userSpaceOnUse">
            <stop offset="0.162486" stop-color="#57E8DF"/>
            <stop offset="0.883063" stop-color="#A557CA"/>
        </linearGradient>
        <linearGradient id="paint18_linear_5093_5446" x1="949.485" y1="40.7266" x2="949.485" y2="425.628"
                        gradientUnits="userSpaceOnUse">
            <stop offset="0.162486" stop-color="#57E8DF"/>
            <stop offset="0.883063" stop-color="#A557CA"/>
        </linearGradient>
        <linearGradient id="paint19_linear_5093_5446" x1="950.271" y1="56.0542" x2="950.271" y2="436.303"
                        gradientUnits="userSpaceOnUse">
            <stop offset="0.162486" stop-color="#57E8DF"/>
            <stop offset="0.883063" stop-color="#A557CA"/>
        </linearGradient>
        <linearGradient id="paint20_linear_5093_5446" x1="951.048" y1="65.9692" x2="951.048" y2="452.288"
                        gradientUnits="userSpaceOnUse">
            <stop offset="0.162486" stop-color="#57E8DF"/>
            <stop offset="0.883063" stop-color="#A557CA"/>
        </linearGradient>
        <linearGradient id="paint21_linear_5093_5446" x1="951.787" y1="75.6704" x2="951.787" y2="468.694"
                        gradientUnits="userSpaceOnUse">
            <stop offset="0.162486" stop-color="#57E8DF"/>
            <stop offset="0.883063" stop-color="#A557CA"/>
        </linearGradient>
        <linearGradient id="paint22_linear_5093_5446" x1="952.564" y1="84.999" x2="952.564" y2="485.369"
                        gradientUnits="userSpaceOnUse">
            <stop offset="0.162486" stop-color="#57E8DF"/>
            <stop offset="0.883063" stop-color="#A557CA"/>
        </linearGradient>
        <linearGradient id="paint23_linear_5093_5446" x1="953.389" y1="94.0518" x2="953.389" y2="502.35"
                        gradientUnits="userSpaceOnUse">
            <stop offset="0.162486" stop-color="#57E8DF"/>
            <stop offset="0.883063" stop-color="#A557CA"/>
        </linearGradient>
        <linearGradient id="paint24_linear_5093_5446" x1="954.166" y1="102.868" x2="954.166" y2="519.514"
                        gradientUnits="userSpaceOnUse">
            <stop offset="0.162486" stop-color="#57E8DF"/>
            <stop offset="0.883063" stop-color="#A557CA"/>
        </linearGradient>
        <linearGradient id="paint25_linear_5093_5446" x1="954.943" y1="111.472" x2="954.943" y2="536.909"
                        gradientUnits="userSpaceOnUse">
            <stop offset="0.162486" stop-color="#57E8DF"/>
            <stop offset="0.883063" stop-color="#A557CA"/>
        </linearGradient>
        <linearGradient id="paint26_linear_5093_5446" x1="955.72" y1="119.897" x2="955.72" y2="554.494"
                        gradientUnits="userSpaceOnUse">
            <stop offset="0.162486" stop-color="#57E8DF"/>
            <stop offset="0.883063" stop-color="#A557CA"/>
        </linearGradient>
        <linearGradient id="paint27_linear_5093_5446" x1="956.507" y1="127.811" x2="956.507" y2="572.664"
                        gradientUnits="userSpaceOnUse">
            <stop offset="0.162486" stop-color="#57E8DF"/>
            <stop offset="0.883063" stop-color="#A557CA"/>
        </linearGradient>
        <linearGradient id="paint28_linear_5093_5446" x1="957.284" y1="134.445" x2="957.284" y2="591.949"
                        gradientUnits="userSpaceOnUse">
            <stop offset="0.162486" stop-color="#57E8DF"/>
            <stop offset="0.883063" stop-color="#A557CA"/>
        </linearGradient>
        <linearGradient id="paint29_linear_5093_5446" x1="958.061" y1="140.834" x2="958.061" y2="611.56"
                        gradientUnits="userSpaceOnUse">
            <stop offset="0.162486" stop-color="#57E8DF"/>
            <stop offset="0.883063" stop-color="#A557CA"/>
        </linearGradient>
        <linearGradient id="paint30_linear_5093_5446" x1="958.799" y1="145.598" x2="958.799" y2="632.806"
                        gradientUnits="userSpaceOnUse">
            <stop offset="0.162486" stop-color="#57E8DF"/>
            <stop offset="0.883063" stop-color="#A557CA"/>
        </linearGradient>
        <linearGradient id="paint31_linear_5093_5446" x1="959.624" y1="150.504" x2="959.624" y2="653.902"
                        gradientUnits="userSpaceOnUse">
            <stop offset="0.162486" stop-color="#57E8DF"/>
            <stop offset="0.883063" stop-color="#A557CA"/>
        </linearGradient>
        <linearGradient id="paint32_linear_5093_5446" x1="960.401" y1="155.403" x2="960.401" y2="675.009"
                        gradientUnits="userSpaceOnUse">
            <stop offset="0.162486" stop-color="#57E8DF"/>
            <stop offset="0.883063" stop-color="#A557CA"/>
        </linearGradient>
    </defs>
</svg>
