<svg width="1328" height="720" viewBox="0 0 1328 720" fill="none" xmlns="http://www.w3.org/2000/svg">
<rect x="0.118164" y="83.6152" width="12.6797" height="358.068" fill="#2B365A"/>
<rect x="0.118164" y="490.535" width="12.6797" height="190.705" fill="#2B365A"/>
<rect x="91.708" y="520.49" width="12.6797" height="193.225" fill="#2B365A"/>
<rect x="4.1084" y="547.244" width="12.6797" height="100.279" transform="rotate(-90 4.1084 547.244)" fill="#2B365A"/>
<rect x="0.118164" y="676.559" width="12.6797" height="42.8184" fill="#2B365A"/>
<rect x="7.05957" y="719.377" width="12.6797" height="129.244" transform="rotate(-90 7.05957 719.377)" fill="#2B365A"/>
<rect x="136.304" y="719.377" width="12.6797" height="52.7949" transform="rotate(-90 136.304 719.377)" fill="#8B98C3"/>
<rect x="309.267" y="719.377" width="12.6797" height="54.3281" transform="rotate(-90 309.267 719.377)" fill="#8B98C3"/>
<rect x="391.202" y="719.377" width="12.6797" height="50.9209" transform="rotate(-90 391.202 719.377)" fill="#8B98C3"/>
<rect x="476.67" y="719.377" width="12.6797" height="52.4883" transform="rotate(-90 476.67 719.377)" fill="#8B98C3"/>
<rect x="569.833" y="719.377" width="12.6797" height="47.9238" transform="rotate(-90 569.833 719.377)" fill="#8B98C3"/>
<rect x="805.438" y="719.377" width="12.6797" height="69.0332" transform="rotate(-90 805.438 719.377)" fill="#8B98C3"/>
<rect x="905.366" y="719.377" width="12.6797" height="39.4316" transform="rotate(-90 905.366 719.377)" fill="#8B98C3"/>
<rect x="360.134" y="719.377" width="12.6797" height="31.0683" transform="rotate(-90 360.134 719.377)" fill="#2B365A"/>
<rect x="188.798" y="719.377" width="12.6797" height="89.0898" transform="rotate(-90 188.798 719.377)" fill="#2B365A"/>
<rect x="442.123" y="719.377" width="12.6797" height="34.5469" transform="rotate(-90 442.123 719.377)" fill="#2B365A"/>
<rect x="274.72" y="719.377" width="12.6797" height="34.5469" transform="rotate(-90 274.72 719.377)" fill="#2B365A"/>
<rect x="529.158" y="719.377" width="12.6797" height="40.6758" transform="rotate(-90 529.158 719.377)" fill="#2B365A"/>
<rect x="617.757" y="719.377" width="12.6797" height="33.9512" transform="rotate(-90 617.757 719.377)" fill="#2B365A"/>
<rect x="874.472" y="719.377" width="12.6797" height="30.8945" transform="rotate(-90 874.472 719.377)" fill="#2B365A"/>
<rect x="944.798" y="719.377" width="12.6797" height="51.3945" transform="rotate(-90 944.798 719.377)" fill="#2B365A"/>
<rect x="626.384" y="719.377" width="26.1875" height="19.6719" transform="rotate(-90 626.384 719.377)" fill="#2B365A"/>
<rect x="0.118164" y="0.529297" width="12.6797" height="36.1973" fill="#2B365A"/>
<rect x="631.868" y="9.56055" width="12.6797" height="167.765" fill="#2B365A"/>
<rect x="610.128" y="144.545" width="34.4199" height="32.7803" fill="#2B365A"/>
<rect x="610.128" y="144.545" width="21.7402" height="61.791" fill="#2B365A"/>
<rect x="0.118164" y="13.209" width="12.6797" height="120.748" transform="rotate(-90 0.118164 13.209)" fill="#2B365A"/>
<rect x="642.39" y="177.326" width="12.6797" height="14.6836" transform="rotate(-90 642.39 177.326)" fill="#2B365A"/>
<rect x="644.798" y="177.326" width="12.6797" height="12.2754" transform="rotate(-90 644.798 177.326)" fill="#2B365A"/>
<rect x="613.656" y="365.904" width="12.6797" height="18.2119" transform="rotate(-90 613.656 365.904)" fill="#2B365A"/>
<rect x="269.057" y="223.553" width="25.5684" height="18.323" transform="rotate(-90 269.057 223.553)" fill="#2B365A"/>
<rect x="700.036" y="177.326" width="12.6797" height="34.1191" transform="rotate(-90 700.036 177.326)" fill="#2B365A"/>
<rect x="787.038" y="177.326" width="12.6797" height="34.9375" transform="rotate(-90 787.038 177.326)" fill="#2B365A"/>
<rect x="875.179" y="177.326" width="12.6797" height="28.043" transform="rotate(-90 875.179 177.326)" fill="#2B365A"/>
<rect x="956.425" y="177.326" width="12.6797" height="40.5547" transform="rotate(-90 956.425 177.326)" fill="#2B365A"/>
<rect x="964.569" y="191.745" width="27.0981" height="25.2231" transform="rotate(-90 964.569 191.745)" fill="#2B365A"/>
<rect x="796.798" y="191.745" width="27.0981" height="15.418" transform="rotate(-90 796.798 191.745)" fill="#2B365A"/>
<rect x="1050.18" y="177.326" width="12.6797" height="28.043" transform="rotate(-90 1050.18 177.326)" fill="#2B365A"/>
<rect x="1127.17" y="177.326" width="12.6797" height="183.885" transform="rotate(-90 1127.17 177.326)" fill="#2B365A"/>
<rect x="1315.2" y="260.619" width="12.6797" height="121.089" fill="#2B365A"/>
<rect x="1315.2" y="173.685" width="12.6797" height="39.8965" fill="#2B365A"/>
<rect x="1315.2" y="433.808" width="12.6797" height="39.8965" fill="#2B365A"/>
<rect x="1315.2" y="516.693" width="12.6797" height="202.684" fill="#2B365A"/>
<rect x="1303" y="628.641" width="12.6797" height="90.7363" fill="#2B365A"/>
<rect x="1259.59" y="711.828" width="22.8745" height="68.1592" transform="rotate(-90 1259.59 711.828)" fill="#2B365A"/>
<rect x="1259.59" y="646.385" width="17.7441" height="67.5703" transform="rotate(-90 1259.59 646.385)" fill="#2B365A"/>
<rect x="1126.59" y="719.377" width="12.6797" height="197.758" transform="rotate(-90 1126.59 719.377)" fill="#2B365A"/>
<rect x="657.073" y="177.326" width="12.6797" height="42.9629" transform="rotate(-90 657.073 177.326)" fill="#8B98C3"/>
<rect x="733.835" y="177.326" width="12.6797" height="53.2031" transform="rotate(-90 733.835 177.326)" fill="#8B98C3"/>
<rect x="821.976" y="177.326" width="12.6797" height="53.2031" transform="rotate(-90 821.976 177.326)" fill="#8B98C3"/>
<rect x="903.222" y="177.326" width="12.6797" height="53.2031" transform="rotate(-90 903.222 177.326)" fill="#8B98C3"/>
<rect x="996.979" y="177.326" width="12.6797" height="53.2031" transform="rotate(-90 996.979 177.326)" fill="#8B98C3"/>
<rect x="1078.23" y="177.326" width="12.6797" height="53.2031" transform="rotate(-90 1078.23 177.326)" fill="#8B98C3"/>
<rect x="1315.2" y="208.52" width="12.6797" height="52.0996" fill="#8B98C3"/>
<rect x="1315.2" y="381.708" width="12.6797" height="52.0996" fill="#8B98C3"/>
<rect x="1315.2" y="464.593" width="12.6797" height="52.0996" fill="#8B98C3"/>
<rect x="605.403" y="22.3242" width="18.2324" height="26.4648" transform="rotate(-90 605.403 22.3242)" fill="#2B365A"/>
<rect x="443.772" y="22.3242" width="21.7949" height="34.6367" transform="rotate(-90 443.772 22.3242)" fill="#2B365A"/>
<rect x="249.618" y="13.209" width="12.6797" height="46.7637" transform="rotate(-90 249.618 13.209)" fill="#2B365A"/>
<rect x="336.212" y="13.209" width="12.6797" height="46.7637" transform="rotate(-90 336.212 13.209)" fill="#2B365A"/>
<rect x="265.519" y="22.3242" width="21.7949" height="21.8613" transform="rotate(-90 265.519 22.3242)" fill="#2B365A"/>
<rect x="90.1318" y="22.3242" width="21.7949" height="21.8613" transform="rotate(-90 90.1318 22.3242)" fill="#2B365A"/>
<rect x="0.118164" y="22.3242" width="18.2324" height="26.4648" transform="rotate(-90 0.118164 22.3242)" fill="#2B365A"/>
<rect x="446.215" y="713.037" width="19.8477" height="26.3652" transform="rotate(-90 446.215 713.037)" fill="#2B365A"/>
<rect x="285.37" y="713.037" width="19.8477" height="13.248" transform="rotate(-90 285.37 713.037)" fill="#2B365A"/>
<rect x="1301.93" y="195.559" width="30.9121" height="25.9512" transform="rotate(-90 1301.93 195.559)" fill="#2B365A"/>
<rect x="887.827" y="423.65" width="248.51" height="4.87305" transform="rotate(-90 887.827 423.65)" fill="#2B365A"/>
<rect x="634.732" y="697.384" width="226.516" height="4.87305" transform="rotate(-90 634.732 697.384)" fill="#2B365A"/>
<rect x="544.296" y="713.037" width="242.168" height="4.87305" transform="rotate(-90 544.296 713.037)" fill="#2B365A"/>
<rect x="459.396" y="713.037" width="242.168" height="4.87305" transform="rotate(-90 459.396 713.037)" fill="#2B365A"/>
<rect x="373.231" y="713.037" width="242.168" height="4.87305" transform="rotate(-90 373.231 713.037)" fill="#2B365A"/>
<rect x="718.495" y="713.037" width="242.168" height="4.87305" transform="rotate(-90 718.495 713.037)" fill="#2B365A"/>
<rect x="888.931" y="713.037" width="242.168" height="4.87305" transform="rotate(-90 888.931 713.037)" fill="#2B365A"/>
<rect x="1060.71" y="713.037" width="242.168" height="4.87305" transform="rotate(-90 1060.71 713.037)" fill="#2B365A"/>
<rect x="1210.46" y="555.772" width="170.763" height="4.87305" transform="rotate(-90 1210.46 555.772)" fill="#2B365A"/>
<rect x="1210.46" y="600.657" width="19.5986" height="4.87305" transform="rotate(-90 1210.46 600.657)" fill="#2B365A"/>
<rect x="1060.71" y="713.037" width="199.298" height="11.7894" transform="rotate(-90 1060.71 713.037)" fill="#2B365A"/>
<rect x="1148.5" y="713.037" width="199.298" height="11.7894" transform="rotate(-90 1148.5 713.037)" fill="#2B365A"/>
<rect x="1084.45" y="523.262" width="15.5825" height="9.52277" transform="rotate(180 1084.45 523.262)" fill="#2B365A"/>
<rect x="1152.52" y="523.262" width="25.9282" height="9.52277" transform="rotate(180 1152.52 523.262)" fill="#2B365A"/>
<rect x="718.441" y="369.489" width="198.808" height="4.87305" transform="rotate(-90 718.441 369.489)" fill="#2B365A"/>
<rect x="718.441" y="424.797" width="31.6196" height="4.87305" transform="rotate(-90 718.441 424.797)" fill="#2B365A"/>
<rect x="801.038" y="423.65" width="248.51" height="4.87305" transform="rotate(-90 801.038 423.65)" fill="#2B365A"/>
<rect x="1061.89" y="426.088" width="250.947" height="4.87305" transform="rotate(-90 1061.89 426.088)" fill="#2B365A"/>
<rect x="974.266" y="426.088" width="250.947" height="4.87305" transform="rotate(-90 974.266 426.088)" fill="#2B365A"/>
<rect x="1151.6" y="416.759" width="241.618" height="4.87305" transform="rotate(-90 1151.6 416.759)" fill="#2B365A"/>
<rect x="626.995" y="421.215" width="100.434" height="4.87305" fill="#2B365A"/>
<rect x="452.697" y="420.996" width="55.122" height="4.87305" fill="#2B365A"/>
<rect x="507.819" y="353.225" width="43.5376" height="4.87305" transform="rotate(90 507.819 353.225)" fill="#2B365A"/>
<rect x="472.125" y="353.225" width="36.0308" height="4.87305" transform="rotate(90 472.125 353.225)" fill="#2B365A"/>
<rect x="446.472" y="340.083" width="18.0151" height="4.87305" transform="rotate(90 446.472 340.083)" fill="#2B365A"/>
<rect x="309.271" y="340.083" width="46.7363" height="4.87305" transform="rotate(90 309.271 340.083)" fill="#2B365A"/>
<rect x="390.698" y="386.819" width="36.0308" height="4.87305" transform="rotate(90 390.698 386.819)" fill="#2B365A"/>
<rect x="285.045" y="355.983" width="69.8862" height="4.87305" transform="rotate(90 285.045 355.983)" fill="#2B365A"/>
<rect x="285.045" y="465.398" width="5.4707" height="4.87305" transform="rotate(90 285.045 465.398)" fill="#2B365A"/>
<rect x="309.271" y="360.856" width="28.6273" height="4.87305" transform="rotate(-180 309.271 360.856)" fill="#2B365A"/>
<rect x="115.499" y="358.098" width="107.706" height="4.87305" transform="rotate(-180 115.499 358.098)" fill="#2B365A"/>
<rect x="505.371" y="358.098" width="63.7715" height="4.87305" transform="rotate(-180 505.371 358.098)" fill="#2B365A"/>
<rect x="444.035" y="344.956" width="139.637" height="4.87305" transform="rotate(-180 444.035 344.956)" fill="#2B365A"/>
<rect x="467.252" y="389.255" width="162.854" height="4.87305" transform="rotate(-180 467.252 389.255)" fill="#2B365A"/>
<rect x="431.555" y="425.869" width="107.373" height="4.87305" transform="rotate(-180 431.555 425.869)" fill="#2B365A"/>
<rect x="304.398" y="425.869" width="24.2262" height="4.87305" transform="rotate(-180 304.398 425.869)" fill="#2B365A"/>
<rect x="750.925" y="421.215" width="110.162" height="4.87305" fill="#2B365A"/>
<rect x="884.503" y="421.215" width="20.1758" height="4.87305" fill="#2B365A"/>
<rect x="924.853" y="421.215" width="108.801" height="4.87305" fill="#2B365A"/>
<rect x="1188.25" y="352.444" width="126.956" height="4.87305" fill="#2B365A"/>
<rect x="1152.52" y="352.444" width="10.4908" height="4.87305" fill="#2B365A"/>
<rect x="1094.64" y="411.886" width="61.8345" height="4.87305" fill="#2B365A"/>
<rect x="1212.9" y="445.053" width="110.497" height="4.87305" fill="#2B365A"/>
<rect x="1212.9" y="475.742" width="48.7597" height="4.87305" fill="#2B365A"/>
<rect x="1212.9" y="504.64" width="48.7597" height="4.87305" fill="#2B365A"/>
<rect x="1212.9" y="533.538" width="62.2237" height="4.87305" fill="#2B365A"/>
<rect x="1297.78" y="533.538" width="26.1007" height="4.87305" fill="#2B365A"/>
<rect x="1210.46" y="595.784" width="111.083" height="4.87305" fill="#2B365A"/>
<rect x="1064.33" y="411.886" width="7.91119" height="4.87305" fill="#2B365A"/>
<rect x="1056.76" y="421.215" width="7.91119" height="4.87305" fill="#2B365A"/>
<rect x="983.792" y="693.189" width="26.1875" height="29.6055" transform="rotate(90 983.792 693.189)" fill="#2B365A"/>
<rect x="452.646" y="197.984" width="146.266" height="4.87305" transform="rotate(-90 452.646 197.984)" fill="#2B365A"/>
<rect x="357.284" y="228.426" width="37.584" height="4.87305" transform="rotate(-90 357.284 228.426)" fill="#2B365A"/>
<rect x="184.806" y="223.553" width="223.023" height="4.87305" transform="rotate(-90 184.806 223.553)" fill="#2B365A"/>
<rect width="13.645" height="4.87305" transform="matrix(-1.19249e-08 1 1 1.19249e-08 72.8198 225.989)" fill="#2B365A"/>
<rect x="72.8198" y="356.693" width="93.1562" height="4.87305" transform="rotate(-90 72.8198 356.693)" fill="#2B365A"/>
<rect x="217.349" y="223.553" width="144.809" height="4.87305" fill="#2B365A"/>
<rect x="313.064" y="228.229" width="65.4912" height="2.8328" transform="rotate(90 313.064 228.229)" fill="#C7D1F1"/>
<rect x="613.656" y="356.078" width="65.4912" height="2.8328" transform="rotate(-180 613.656 356.078)" fill="#C7D1F1"/>
<rect x="510.882" y="192.151" width="39.3119" height="2.8328" transform="rotate(-180 510.882 192.151)" fill="#C7D1F1"/>
<rect x="307.231" y="276.396" width="63.687" height="2.8328" transform="rotate(90 307.231 276.396)" fill="#C7D1F1"/>
<rect x="571.506" y="361.911" width="63.687" height="2.8328" transform="rotate(-180 571.506 361.911)" fill="#C7D1F1"/>
<rect x="494.911" y="197.984" width="63.687" height="2.8328" transform="rotate(-180 494.911 197.984)" fill="#C7D1F1"/>
<rect x="364.496" y="188.47" width="93.0231" height="9.51514" fill="#2B365A"/>
<rect x="12.7979" y="223.553" width="144.809" height="4.87305" fill="#2B365A"/>
<rect x="182.146" y="223.553" width="11.3574" height="4.87305" fill="#2B365A"/>
<rect x="507.497" y="140.168" width="130.607" height="4.87305" transform="rotate(-90 507.497 140.168)" fill="#2B365A"/>
<rect x="626.995" y="425.988" width="225.58" height="4.87305" transform="rotate(-90 626.995 425.988)" fill="#2B365A"/>
<rect x="507.497" y="197.985" width="32.75" height="4.87305" transform="rotate(-90 507.497 197.985)" fill="#2B365A"/>
<rect x="616.481" y="197.984" width="105.6" height="4.87305" transform="rotate(180 616.481 197.984)" fill="#2B365A"/>
<rect x="244.949" y="475.742" width="105.955" height="4.87305" transform="rotate(180 244.949 475.742)" fill="#2B365A"/>
<rect x="115.499" y="475.742" width="11.6901" height="4.87305" transform="rotate(180 115.499 475.742)" fill="#2B365A"/>
<rect x="138.994" y="475.742" width="23.495" height="4.87305" transform="rotate(180 138.994 475.742)" fill="#C7D1F1"/>
<rect x="268.444" y="475.742" width="23.495" height="4.87305" transform="rotate(180 268.444 475.742)" fill="#C7D1F1"/>
<rect x="324.182" y="425.869" width="20.0343" height="4.87305" transform="rotate(180 324.182 425.869)" fill="#C7D1F1"/>
<rect x="452.697" y="425.869" width="21.142" height="4.87305" transform="rotate(180 452.697 425.869)" fill="#C7D1F1"/>
<rect x="280.172" y="465.398" width="34.0581" height="4.87305" transform="rotate(-90 280.172 465.398)" fill="#C7D1F1"/>
<rect x="103.809" y="408.289" width="26.2607" height="4.87305" transform="rotate(-90 103.809 408.289)" fill="#C7D1F1"/>
<rect x="72.8198" y="263.537" width="23.9028" height="4.87305" transform="rotate(-90 72.8198 263.537)" fill="#C7D1F1"/>
<rect x="452.646" y="51.7188" width="24.7788" height="4.87305" transform="rotate(-90 452.646 51.7188)" fill="#C7D1F1"/>
<rect x="507.497" y="165.235" width="25.0669" height="4.87305" transform="rotate(-90 507.497 165.235)" fill="#C7D1F1"/>
<rect x="157.606" y="223.553" width="24.5391" height="4.87305" fill="#C7D1F1"/>
<rect x="192.81" y="223.553" width="24.5391" height="4.87305" fill="#C7D1F1"/>
<rect x="723.314" y="368.638" width="24.5391" height="4.87305" transform="rotate(90 723.314 368.638)" fill="#C7D1F1"/>
<rect x="103.809" y="381.922" width="26.2607" height="4.87305" transform="rotate(-90 103.809 381.922)" fill="#2B365A"/>
<rect x="446.913" y="475.742" width="24.5494" height="4.87305" transform="rotate(180 446.913 475.742)" fill="#C7D1F1"/>
<rect x="534.267" y="475.742" width="24.5494" height="4.87305" transform="rotate(180 534.267 475.742)" fill="#C7D1F1"/>
<rect x="574.507" y="475.742" width="24.5494" height="4.87305" transform="rotate(180 574.507 475.742)" fill="#C7D1F1"/>
<rect x="754.5" y="475.742" width="24.5494" height="4.87305" transform="rotate(180 754.5 475.742)" fill="#C7D1F1"/>
<rect x="714.521" y="475.742" width="27.5604" height="4.87305" transform="rotate(180 714.521 475.742)" fill="#C7D1F1"/>
<rect x="884.503" y="475.742" width="23.4159" height="4.87305" transform="rotate(180 884.503 475.742)" fill="#C7D1F1"/>
<rect x="926.521" y="475.742" width="23.4159" height="4.87305" transform="rotate(180 926.521 475.742)" fill="#C7D1F1"/>
<rect x="1056.76" y="475.742" width="23.4159" height="4.87305" transform="rotate(180 1056.76 475.742)" fill="#C7D1F1"/>
<rect x="1126.59" y="518.612" width="42.1426" height="4.87305" transform="rotate(180 1126.59 518.612)" fill="#C7D1F1"/>
<rect x="1056.76" y="426.087" width="23.4159" height="4.87305" transform="rotate(180 1056.76 426.087)" fill="#C7D1F1"/>
<rect x="1094.64" y="416.759" width="22.404" height="4.87305" transform="rotate(180 1094.64 416.759)" fill="#C7D1F1"/>
<rect x="1188.25" y="357.317" width="25.2339" height="4.87305" transform="rotate(180 1188.25 357.317)" fill="#C7D1F1"/>
<rect x="1235.23" y="400.446" width="15.8798" height="4.87305" transform="rotate(180 1235.23 400.446)" fill="#C7D1F1"/>
<rect x="1265.08" y="400.446" width="15.8798" height="4.87305" transform="rotate(180 1265.08 400.446)" fill="#C7D1F1"/>
<rect x="1210.46" y="385.01" width="21.7979" height="4.87305" transform="rotate(-90 1210.46 385.01)" fill="#C7D1F1"/>
<rect x="1261.66" y="471.193" width="18.5669" height="4.87305" transform="rotate(-90 1261.66 471.193)" fill="#C7D1F1"/>
<rect x="1261.66" y="502.625" width="18.5669" height="4.87305" transform="rotate(-90 1261.66 502.625)" fill="#C7D1F1"/>
<rect x="1261.66" y="531.933" width="18.5669" height="4.87305" transform="rotate(-90 1261.66 531.933)" fill="#C7D1F1"/>
<rect x="1261.66" y="628.641" width="19.8892" height="4.87305" transform="rotate(-90 1261.66 628.641)" fill="#C7D1F1"/>
<rect x="1259.59" y="688.953" width="42.3887" height="43.4082" transform="rotate(-90 1259.59 688.953)" fill="#C7D1F1"/>
<rect x="1210.46" y="581.059" width="25.2861" height="4.87305" transform="rotate(-90 1210.46 581.059)" fill="#C7D1F1"/>
<rect x="884.503" y="426.087" width="23.4159" height="4.87305" transform="rotate(180 884.503 426.087)" fill="#C7D1F1"/>
<rect x="750.845" y="426.087" width="23.4159" height="4.87305" transform="rotate(180 750.845 426.087)" fill="#C7D1F1"/>
<rect x="924.853" y="426.087" width="20.1737" height="4.87305" transform="rotate(180 924.853 426.087)" fill="#C7D1F1"/>
<rect x="103.809" y="561.838" width="155.087" height="4.87305" transform="rotate(-90 103.809 561.838)" fill="#2B365A"/>
<rect x="422.939" y="475.742" width="96.9556" height="4.87305" transform="rotate(180 422.939 475.742)" fill="#2B365A"/>
<rect x="509.717" y="475.742" width="63.2452" height="4.87305" transform="rotate(180 509.717 475.742)" fill="#2B365A"/>
<rect x="688.243" y="475.742" width="114.319" height="4.87305" transform="rotate(180 688.243 475.742)" fill="#2B365A"/>
<rect x="549.169" y="475.742" width="15.9186" height="4.87305" transform="rotate(180 549.169 475.742)" fill="#2B365A"/>
<rect x="729.95" y="475.742" width="18.4401" height="4.87305" transform="rotate(180 729.95 475.742)" fill="#2B365A"/>
<rect x="861.087" y="475.742" width="107.869" height="4.87305" transform="rotate(180 861.087 475.742)" fill="#2B365A"/>
<rect x="903.104" y="475.742" width="18.6017" height="4.87305" transform="rotate(180 903.104 475.742)" fill="#2B365A"/>
<rect x="1033.65" y="475.742" width="108.801" height="4.87305" transform="rotate(180 1033.65 475.742)" fill="#2B365A"/>
<rect x="1065.53" y="475.742" width="9.65253" height="4.87305" transform="rotate(180 1065.53 475.742)" fill="#2B365A"/>
<rect x="1261.66" y="485.164" width="13.9705" height="4.87305" transform="rotate(-90 1261.66 485.164)" fill="#2B365A"/>
<rect x="1235.23" y="395.573" width="13.9705" height="4.87305" fill="#2B365A"/>
<rect x="1210.46" y="395.573" width="8.88745" height="4.87305" fill="#2B365A"/>
<rect x="1265.08" y="395.573" width="8.88745" height="4.87305" fill="#2B365A"/>
<rect x="1269.09" y="446.771" width="51.1973" height="4.87305" transform="rotate(-90 1269.09 446.771)" fill="#2B365A"/>
<rect x="1239.77" y="446.771" width="51.1973" height="4.87305" transform="rotate(-90 1239.77 446.771)" fill="#2B365A"/>
<rect x="1284.47" y="376.317" width="21.4365" height="4.87305" transform="rotate(-90 1284.47 376.317)" fill="#2B365A"/>
<rect x="1210.46" y="363.212" width="7.81201" height="4.87305" transform="rotate(-90 1210.46 363.212)" fill="#2B365A"/>
<rect x="1261.66" y="514.062" width="13.9705" height="4.87305" transform="rotate(-90 1261.66 514.062)" fill="#2B365A"/>
<rect x="1261.66" y="609.754" width="11.9204" height="4.87305" transform="rotate(-90 1261.66 609.754)" fill="#2B365A"/>
<rect x="1261.66" y="452.626" width="5.85529" height="4.87305" transform="rotate(-90 1261.66 452.626)" fill="#2B365A"/>
<rect x="1261.66" y="535.975" width="5.85529" height="4.87305" transform="rotate(-90 1261.66 535.975)" fill="#2B365A"/>
<rect x="289.426" y="704.879" width="234.011" height="4.87305" transform="rotate(-90 289.426 704.879)" fill="#2B365A"/>
<rect x="452.646" y="27.375" width="17.8145" height="4.87305" transform="rotate(-90 452.646 27.375)" fill="#2B365A"/>
<rect x="601.356" y="13.209" width="12.6797" height="43.1914" transform="rotate(-90 601.356 13.209)" fill="#2B365A"/>
<rect x="180.806" y="13.209" width="12.6797" height="8.87305" transform="rotate(-90 180.806 13.209)" fill="#2B365A"/>
<rect x="120.866" y="13.209" width="12.6797" height="59.9395" transform="rotate(-90 120.866 13.209)" fill="#8B98C4"/>
<rect x="0.118164" y="36.7266" width="12.6797" height="46.8887" fill="#8B98C4"/>
<rect x="0.118164" y="441.684" width="12.6797" height="49.9941" fill="#8B98C4"/>
<rect x="189.679" y="13.209" width="12.6797" height="59.9395" transform="rotate(-90 189.679 13.209)" fill="#8B98C4"/>
<rect x="296.382" y="13.209" width="12.6797" height="51.1055" transform="rotate(-90 296.382 13.209)" fill="#8B98C4"/>
<rect x="369.964" y="13.209" width="12.6797" height="73.8086" transform="rotate(-90 369.964 13.209)" fill="#8B98C4"/>
<rect x="478.409" y="13.209" width="12.6797" height="29.0879" transform="rotate(-90 478.409 13.209)" fill="#8B98C4"/>
<rect x="527.257" y="13.209" width="12.6797" height="74.0996" transform="rotate(-90 527.257 13.209)" fill="#8B98C4"/>
<rect x="507.497" y="13.209" width="12.6797" height="19.7598" transform="rotate(-90 507.497 13.209)" fill="#2B365A"/>
<rect x="357.284" y="11.4258" width="12.6797" height="186.559" fill="#2B365A"/>
<rect x="651.708" y="719.377" width="12.6797" height="52.4883" transform="rotate(-90 651.708 719.377)" fill="#8B98C3"/>
<rect x="732.794" y="719.377" width="12.6797" height="52.4883" transform="rotate(-90 732.794 719.377)" fill="#8B98C3"/>
<rect x="783.972" y="719.377" width="12.6797" height="33.9512" transform="rotate(-90 783.972 719.377)" fill="#2B365A"/>
<rect x="704.196" y="719.377" width="12.6797" height="28.5977" transform="rotate(-90 704.196 719.377)" fill="#2B365A"/>
<rect x="792.599" y="719.377" width="26.1875" height="19.6719" transform="rotate(-90 792.599 719.377)" fill="#2B365A"/>
<rect x="996.192" y="719.377" width="12.6797" height="52.4883" transform="rotate(-90 996.192 719.377)" fill="#8B98C3"/>
<rect x="1084.45" y="719.377" width="12.6797" height="52.4883" transform="rotate(-90 1084.45 719.377)" fill="#8B98C3"/>
<rect x="1048.68" y="719.377" width="12.6797" height="35.7695" transform="rotate(-90 1048.68 719.377)" fill="#2B365A"/>
<rect x="285.045" y="425.869" width="5.4707" height="4.87305" transform="rotate(90 285.045 425.869)" fill="#2B365A"/>
<rect x="302.45" y="475.742" width="33.9683" height="4.87305" transform="rotate(180 302.45 475.742)" fill="#2B365A"/>
<rect x="325.983" y="475.742" width="23.495" height="4.87305" transform="rotate(180 325.983 475.742)" fill="#C7D1F1"/>
<path d="M1252.49 428.28C1252.49 425.766 1254.53 423.729 1257.04 423.729C1259.56 423.729 1261.59 425.766 1261.59 428.28V433.864C1261.59 434.692 1260.92 435.364 1260.09 435.364H1253.99C1253.16 435.364 1252.49 434.692 1252.49 433.864V428.28Z" fill="#F3F6FF" stroke="#8A8A8A"/>
<path d="M1252.49 435.917C1252.49 435.641 1252.71 435.417 1252.99 435.417H1261.09C1261.37 435.417 1261.59 435.641 1261.59 435.917V436.7C1261.59 436.976 1261.37 437.2 1261.09 437.2H1252.99C1252.71 437.2 1252.49 436.976 1252.49 436.7V435.917Z" fill="#F3F6FF" stroke="#8A8A8A"/>
<path d="M1251.45 439.721C1251.45 438.34 1252.57 437.221 1253.95 437.221H1260.13C1261.51 437.221 1262.63 438.34 1262.63 439.721V441.041C1262.63 441.869 1261.96 442.541 1261.13 442.541H1252.95C1252.12 442.541 1251.45 441.869 1251.45 441.041V439.721Z" fill="#F3F6FF" stroke="#8A8A8A"/>
<circle cx="1257.04" cy="439.88" r="0.5" fill="#D9D9D9" stroke="#8A8A8A" stroke-width="0.534302"/>
<path d="M1222.63 428.28C1222.63 425.767 1224.67 423.729 1227.18 423.729C1229.69 423.729 1231.73 425.767 1231.73 428.28V433.864C1231.73 434.693 1231.06 435.364 1230.23 435.364H1224.13C1223.3 435.364 1222.63 434.693 1222.63 433.864V428.28Z" fill="#F3F6FF" stroke="#8A8A8A"/>
<path d="M1222.63 435.917C1222.63 435.641 1222.85 435.417 1223.13 435.417H1231.23C1231.51 435.417 1231.73 435.641 1231.73 435.917V436.701C1231.73 436.977 1231.51 437.201 1231.23 437.201H1223.13C1222.85 437.201 1222.63 436.977 1222.63 436.701V435.917Z" fill="#F3F6FF" stroke="#8A8A8A"/>
<path d="M1221.59 439.722C1221.59 438.341 1222.71 437.222 1224.09 437.222H1230.27C1231.65 437.222 1232.77 438.341 1232.77 439.722V441.041C1232.77 441.869 1232.1 442.541 1231.27 442.541H1223.09C1222.26 442.541 1221.59 441.869 1221.59 441.041V439.722Z" fill="#F3F6FF" stroke="#8A8A8A"/>
<circle cx="1227.18" cy="439.881" r="0.5" fill="#D9D9D9" stroke="#8A8A8A" stroke-width="0.534302"/>
<path d="M1232.18 458.717C1234.69 458.717 1236.73 460.754 1236.73 463.268C1236.73 465.782 1234.69 467.819 1232.18 467.819L1226.6 467.819C1225.77 467.819 1225.1 467.148 1225.1 466.319L1225.1 460.217C1225.1 459.388 1225.77 458.717 1226.6 458.717L1232.18 458.717Z" fill="#F3F6FF" stroke="#8A8A8A"/>
<path d="M1224.54 458.717C1224.82 458.717 1225.04 458.941 1225.04 459.217L1225.04 467.319C1225.04 467.596 1224.82 467.819 1224.54 467.819L1223.76 467.819C1223.48 467.819 1223.26 467.596 1223.26 467.319L1223.26 459.217C1223.26 458.941 1223.48 458.717 1223.76 458.717L1224.54 458.717Z" fill="#F3F6FF" stroke="#8A8A8A"/>
<path d="M1220.74 457.677C1222.12 457.677 1223.24 458.796 1223.24 460.177L1223.24 466.359C1223.24 467.74 1222.12 468.859 1220.74 468.859L1219.42 468.859C1218.59 468.859 1217.92 468.188 1217.92 467.359L1217.92 459.177C1217.92 458.348 1218.59 457.677 1219.42 457.677L1220.74 457.677Z" fill="#F3F6FF" stroke="#8A8A8A"/>
<circle cx="1220.58" cy="463.268" r="0.5" transform="rotate(90 1220.58 463.268)" fill="#D9D9D9" stroke="#8A8A8A" stroke-width="0.534302"/>
<path d="M1232.18 488.024C1234.69 488.024 1236.73 490.062 1236.73 492.575C1236.73 495.089 1234.69 497.127 1232.18 497.127L1226.6 497.127C1225.77 497.127 1225.1 496.455 1225.1 495.627L1225.1 489.524C1225.1 488.695 1225.77 488.024 1226.6 488.024L1232.18 488.024Z" fill="#F3F6FF" stroke="#8A8A8A"/>
<path d="M1224.54 488.024C1224.82 488.024 1225.04 488.248 1225.04 488.524L1225.04 496.627C1225.04 496.903 1224.82 497.127 1224.54 497.127L1223.76 497.127C1223.48 497.127 1223.26 496.903 1223.26 496.627L1223.26 488.524C1223.26 488.248 1223.48 488.024 1223.76 488.024L1224.54 488.024Z" fill="#F3F6FF" stroke="#8A8A8A"/>
<path d="M1220.74 486.984C1222.12 486.984 1223.24 488.103 1223.24 489.484L1223.24 495.666C1223.24 497.047 1222.12 498.166 1220.74 498.166L1219.42 498.166C1218.59 498.166 1217.92 497.495 1217.92 496.666L1217.92 488.484C1217.92 487.655 1218.59 486.984 1219.42 486.984L1220.74 486.984Z" fill="#F3F6FF" stroke="#8A8A8A"/>
<circle cx="1220.58" cy="492.575" r="0.5" transform="rotate(90 1220.58 492.575)" fill="#D9D9D9" stroke="#8A8A8A" stroke-width="0.534302"/>
<path d="M1232.18 517.332C1234.69 517.332 1236.73 519.369 1236.73 521.883C1236.73 524.397 1234.69 526.434 1232.18 526.434L1226.6 526.434C1225.77 526.434 1225.1 525.763 1225.1 524.934L1225.1 518.832C1225.1 518.003 1225.77 517.332 1226.6 517.332L1232.18 517.332Z" fill="#F3F6FF" stroke="#8A8A8A"/>
<path d="M1224.54 517.332C1224.82 517.332 1225.04 517.555 1225.04 517.832L1225.04 525.934C1225.04 526.21 1224.82 526.434 1224.54 526.434L1223.76 526.434C1223.48 526.434 1223.26 526.21 1223.26 525.934L1223.26 517.832C1223.26 517.555 1223.48 517.332 1223.76 517.332L1224.54 517.332Z" fill="#F3F6FF" stroke="#8A8A8A"/>
<path d="M1220.74 516.292C1222.12 516.292 1223.24 517.411 1223.24 518.792L1223.24 524.974C1223.24 526.355 1222.12 527.474 1220.74 527.474L1219.42 527.474C1218.59 527.474 1217.92 526.802 1217.92 525.974L1217.92 517.792C1217.92 516.963 1218.59 516.292 1219.42 516.292L1220.74 516.292Z" fill="#F3F6FF" stroke="#8A8A8A"/>
<circle cx="1220.58" cy="521.883" r="0.5" transform="rotate(90 1220.58 521.883)" fill="#D9D9D9" stroke="#8A8A8A" stroke-width="0.534302"/>
<path d="M1265.48 671.509V670.456H1265.75C1266.15 670.456 1266.45 670.33 1266.67 670.078C1266.89 669.825 1267.05 669.418 1267.14 668.854C1267.24 668.291 1267.31 667.545 1267.34 666.615L1267.51 662.054H1273.27V671.509H1272.12V663.07H1268.6L1268.45 666.837C1268.41 667.828 1268.32 668.671 1268.18 669.367C1268.03 670.062 1267.78 670.593 1267.42 670.959C1267.05 671.326 1266.52 671.509 1265.83 671.509H1265.48ZM1276.5 669.902L1279.91 664.418H1281.17V671.509H1280.08V666.024L1276.68 671.509H1275.41V664.418H1276.5V669.902ZM1286.05 673.928V662.054H1287.14V673.928H1286.05ZM1286.05 671.657C1285.57 671.657 1285.13 671.57 1284.74 671.398C1284.34 671.223 1284 670.975 1283.72 670.655C1283.44 670.332 1283.22 669.945 1283.06 669.496C1282.91 669.047 1282.83 668.548 1282.83 668C1282.83 667.446 1282.91 666.945 1283.06 666.495C1283.22 666.043 1283.44 665.655 1283.72 665.332C1284 665.009 1284.34 664.761 1284.74 664.589C1285.13 664.413 1285.57 664.326 1286.05 664.326H1286.38V671.657H1286.05ZM1286.05 670.678H1286.23V665.304H1286.05C1285.68 665.304 1285.37 665.378 1285.1 665.526C1284.83 665.67 1284.61 665.869 1284.44 666.121C1284.26 666.371 1284.13 666.657 1284.05 666.98C1283.96 667.303 1283.92 667.643 1283.92 668C1283.92 668.474 1284 668.914 1284.15 669.321C1284.3 669.727 1284.53 670.055 1284.85 670.304C1285.16 670.553 1285.56 670.678 1286.05 670.678ZM1287.14 671.657H1286.8V664.326H1287.14C1287.62 664.326 1288.05 664.413 1288.45 664.589C1288.84 664.761 1289.18 665.009 1289.46 665.332C1289.75 665.655 1289.96 666.043 1290.12 666.495C1290.27 666.945 1290.35 667.446 1290.35 668C1290.35 668.548 1290.27 669.047 1290.12 669.496C1289.96 669.945 1289.75 670.332 1289.46 670.655C1289.18 670.975 1288.84 671.223 1288.45 671.398C1288.05 671.57 1287.62 671.657 1287.14 671.657ZM1287.14 670.678C1287.5 670.678 1287.82 670.607 1288.08 670.465C1288.35 670.321 1288.57 670.124 1288.74 669.875C1288.92 669.622 1289.05 669.336 1289.13 669.016C1289.22 668.693 1289.26 668.354 1289.26 668C1289.26 667.526 1289.18 667.085 1289.03 666.675C1288.88 666.266 1288.65 665.935 1288.34 665.683C1288.02 665.43 1287.62 665.304 1287.14 665.304H1286.95V670.678H1287.14ZM1291.09 665.434V664.418H1296.85V665.434H1294.52V671.509H1293.43V665.434H1291.09Z" fill="black"/>
<path d="M1079.94 563.819V562.766H1080.22C1080.61 562.766 1080.92 562.64 1081.14 562.388C1081.35 562.135 1081.51 561.728 1081.61 561.164C1081.7 560.601 1081.77 559.855 1081.8 558.925L1081.97 554.364H1087.73V563.819H1086.59V555.38H1083.06L1082.91 559.147C1082.88 560.138 1082.79 560.981 1082.64 561.677C1082.5 562.372 1082.24 562.903 1081.88 563.269C1081.52 563.636 1080.99 563.819 1080.29 563.819H1079.94ZM1092.85 563.967C1092.16 563.967 1091.57 563.816 1091.08 563.514C1090.58 563.209 1090.2 562.785 1089.94 562.24C1089.67 561.692 1089.54 561.055 1089.54 560.329C1089.54 559.602 1089.67 558.962 1089.94 558.408C1090.2 557.851 1090.58 557.417 1091.05 557.106C1091.53 556.793 1092.09 556.636 1092.73 556.636C1093.1 556.636 1093.47 556.697 1093.83 556.82C1094.19 556.943 1094.52 557.143 1094.81 557.42C1095.11 557.694 1095.34 558.057 1095.52 558.51C1095.69 558.962 1095.78 559.519 1095.78 560.181V560.643H1090.32V559.701H1094.67C1094.67 559.301 1094.59 558.944 1094.43 558.63C1094.28 558.316 1094.05 558.068 1093.76 557.887C1093.47 557.705 1093.13 557.614 1092.73 557.614C1092.3 557.614 1091.93 557.722 1091.61 557.937C1091.29 558.15 1091.05 558.427 1090.88 558.768C1090.71 559.11 1090.63 559.476 1090.63 559.867V560.495C1090.63 561.03 1090.72 561.484 1090.91 561.857C1091.09 562.226 1091.35 562.508 1091.69 562.702C1092.02 562.892 1092.41 562.988 1092.85 562.988C1093.13 562.988 1093.39 562.948 1093.62 562.868C1093.85 562.785 1094.06 562.662 1094.23 562.499C1094.39 562.332 1094.53 562.126 1094.62 561.88L1095.67 562.175C1095.56 562.532 1095.37 562.846 1095.11 563.117C1094.85 563.385 1094.53 563.594 1094.14 563.745C1093.76 563.893 1093.33 563.967 1092.85 563.967ZM1100.32 563.967C1099.65 563.967 1099.08 563.81 1098.6 563.496C1098.12 563.182 1097.75 562.749 1097.49 562.198C1097.24 561.648 1097.11 561.018 1097.11 560.31C1097.11 559.59 1097.24 558.955 1097.5 558.404C1097.77 557.85 1098.14 557.417 1098.62 557.106C1099.1 556.793 1099.66 556.636 1100.3 556.636C1100.8 556.636 1101.25 556.728 1101.65 556.913C1102.05 557.097 1102.38 557.356 1102.63 557.688C1102.89 558.021 1103.05 558.408 1103.11 558.852H1102.02C1101.94 558.528 1101.75 558.242 1101.46 557.993C1101.18 557.74 1100.8 557.614 1100.32 557.614C1099.89 557.614 1099.52 557.725 1099.2 557.947C1098.89 558.165 1098.64 558.475 1098.46 558.875C1098.28 559.272 1098.2 559.738 1098.2 560.273C1098.2 560.821 1098.28 561.298 1098.45 561.705C1098.63 562.111 1098.88 562.426 1099.19 562.651C1099.51 562.876 1099.89 562.988 1100.32 562.988C1100.6 562.988 1100.86 562.939 1101.09 562.84C1101.32 562.742 1101.52 562.6 1101.68 562.415C1101.84 562.231 1101.95 562.009 1102.02 561.751H1103.11C1103.05 562.169 1102.89 562.546 1102.65 562.882C1102.41 563.214 1102.09 563.479 1101.7 563.676C1101.3 563.87 1100.84 563.967 1100.32 563.967ZM1104.14 557.744V556.728H1109.9V557.744H1107.58V563.819H1106.49V557.744H1104.14ZM1116.24 559.775V560.79H1112.32V559.775H1116.24ZM1112.58 556.728V563.819H1111.49V556.728H1112.58ZM1117.07 556.728V563.819H1115.98V556.728H1117.07ZM1120.15 562.212L1123.56 556.728H1124.82V563.819H1123.73V558.334L1120.33 563.819H1119.06V556.728H1120.15V562.212ZM1132.39 556.728V562.803H1133.39V566.109H1132.3V563.819H1126.82V556.728H1127.91V562.803H1131.3V556.728H1132.39ZM1137.15 563.985C1136.7 563.985 1136.3 563.9 1135.93 563.731C1135.56 563.559 1135.27 563.311 1135.06 562.988C1134.84 562.662 1134.74 562.268 1134.74 561.806C1134.74 561.4 1134.82 561.071 1134.98 560.818C1135.14 560.563 1135.35 560.363 1135.62 560.218C1135.88 560.073 1136.18 559.966 1136.5 559.895C1136.83 559.821 1137.16 559.763 1137.49 559.719C1137.92 559.664 1138.27 559.622 1138.53 559.595C1138.81 559.564 1139 559.513 1139.13 559.442C1139.25 559.372 1139.31 559.249 1139.31 559.073V559.036C1139.31 558.581 1139.19 558.227 1138.94 557.974C1138.69 557.722 1138.32 557.596 1137.82 557.596C1137.3 557.596 1136.89 557.71 1136.6 557.937C1136.3 558.165 1136.09 558.408 1135.97 558.667L1134.94 558.298C1135.12 557.867 1135.37 557.531 1135.68 557.291C1135.99 557.048 1136.33 556.879 1136.69 556.783C1137.06 556.685 1137.43 556.636 1137.78 556.636C1138.01 556.636 1138.27 556.663 1138.57 556.719C1138.87 556.771 1139.15 556.88 1139.43 557.046C1139.71 557.213 1139.94 557.463 1140.13 557.799C1140.31 558.134 1140.4 558.584 1140.4 559.147V563.819H1139.31V562.859H1139.26C1139.19 563.013 1139.06 563.177 1138.89 563.353C1138.72 563.528 1138.49 563.677 1138.2 563.8C1137.92 563.923 1137.57 563.985 1137.15 563.985ZM1137.32 563.006C1137.75 563.006 1138.11 562.922 1138.41 562.752C1138.71 562.583 1138.93 562.365 1139.08 562.097C1139.24 561.829 1139.31 561.548 1139.31 561.252V560.255C1139.27 560.31 1139.17 560.361 1139.01 560.407C1138.86 560.45 1138.68 560.489 1138.47 560.523C1138.27 560.553 1138.08 560.581 1137.89 560.606C1137.7 560.627 1137.55 560.646 1137.43 560.661C1137.15 560.698 1136.88 560.758 1136.64 560.841C1136.39 560.921 1136.2 561.043 1136.05 561.206C1135.9 561.366 1135.82 561.584 1135.82 561.861C1135.82 562.24 1135.96 562.526 1136.24 562.72C1136.53 562.911 1136.89 563.006 1137.32 563.006Z" fill="black"/>
<path d="M380.743 47.1919V46.1393H381.02C381.414 46.1393 381.72 46.0132 381.939 45.7608C382.157 45.5084 382.314 45.1006 382.41 44.5374C382.508 43.9742 382.574 43.2279 382.608 42.2984L382.774 37.7373H388.536V47.1919H387.391V38.753H383.864L383.716 42.52C383.679 43.511 383.588 44.3543 383.444 45.0498C383.299 45.7454 383.045 46.2763 382.682 46.6425C382.319 47.0088 381.789 47.1919 381.094 47.1919H380.743ZM393.648 47.3396C392.965 47.3396 392.376 47.1888 391.88 46.8872C391.388 46.5825 391.008 46.1578 390.74 45.6131C390.475 45.0652 390.343 44.4282 390.343 43.7018C390.343 42.9755 390.475 42.3354 390.74 41.7814C391.008 41.2243 391.38 40.7904 391.857 40.4795C392.337 40.1656 392.897 40.0087 393.538 40.0087C393.907 40.0087 394.272 40.0702 394.632 40.1933C394.992 40.3164 395.32 40.5165 395.615 40.7935C395.91 41.0674 396.146 41.4305 396.321 41.8829C396.497 42.3354 396.584 42.8924 396.584 43.5541V44.0158H391.119V43.074H395.477C395.477 42.6739 395.396 42.3169 395.236 42.003C395.079 41.6891 394.855 41.4413 394.562 41.2597C394.273 41.0781 393.932 40.9873 393.538 40.9873C393.104 40.9873 392.728 41.0951 392.411 41.3105C392.097 41.5229 391.856 41.7998 391.686 42.1415C391.517 42.4831 391.432 42.8493 391.432 43.2402V43.868C391.432 44.4035 391.525 44.8575 391.709 45.2299C391.897 45.5992 392.157 45.8808 392.49 46.0747C392.822 46.2655 393.208 46.3609 393.648 46.3609C393.935 46.3609 394.193 46.3209 394.424 46.2409C394.658 46.1578 394.859 46.0347 395.029 45.8716C395.198 45.7054 395.329 45.4992 395.421 45.253L396.474 45.5484C396.363 45.9054 396.177 46.2194 395.915 46.4902C395.653 46.7579 395.33 46.9672 394.946 47.118C394.561 47.2658 394.128 47.3396 393.648 47.3396ZM401.122 47.3396C400.458 47.3396 399.885 47.1827 399.405 46.8687C398.925 46.5548 398.556 46.1224 398.297 45.5715C398.039 45.0206 397.909 44.3912 397.909 43.6834C397.909 42.9632 398.042 42.3277 398.306 41.7768C398.574 41.2228 398.947 40.7904 399.424 40.4795C399.904 40.1656 400.464 40.0087 401.104 40.0087C401.603 40.0087 402.052 40.101 402.452 40.2856C402.852 40.4703 403.18 40.7288 403.435 41.0612C403.691 41.3936 403.849 41.7814 403.911 42.2246H402.821C402.738 41.9014 402.554 41.6152 402.267 41.3659C401.984 41.1135 401.603 40.9873 401.122 40.9873C400.698 40.9873 400.325 41.0981 400.005 41.3197C399.688 41.5382 399.441 41.8476 399.262 42.2476C399.087 42.6447 398.999 43.1109 398.999 43.6464C398.999 44.1943 399.085 44.6713 399.257 45.0775C399.433 45.4838 399.679 45.7993 399.996 46.0239C400.316 46.2486 400.692 46.3609 401.122 46.3609C401.406 46.3609 401.663 46.3117 401.893 46.2132C402.124 46.1147 402.32 45.9731 402.48 45.7885C402.64 45.6038 402.754 45.3822 402.821 45.1237H403.911C403.849 45.5423 403.697 45.9193 403.454 46.2547C403.214 46.5871 402.895 46.8518 402.498 47.0488C402.104 47.2427 401.646 47.3396 401.122 47.3396ZM404.945 41.1166V40.101H410.706V41.1166H408.38V47.1919H407.29V41.1166H404.945ZM417.041 43.1479V44.1635H413.126V43.1479H417.041ZM413.385 40.101V47.1919H412.295V40.101H413.385ZM417.872 40.101V47.1919H416.783V40.101H417.872ZM420.951 45.5854L424.368 40.101H425.623V47.1919H424.534V41.7075L421.136 47.1919H419.862V40.101H420.951V45.5854ZM433.195 40.101V46.1763H434.193V49.4817H433.103V47.1919H427.619V40.101H428.708V46.1763H432.106V40.101H433.195ZM437.957 47.3581C437.508 47.3581 437.1 47.2735 436.734 47.1042C436.368 46.9318 436.077 46.6841 435.861 46.3609C435.646 46.0347 435.538 45.6408 435.538 45.1791C435.538 44.7729 435.618 44.4436 435.778 44.1912C435.938 43.9357 436.152 43.7357 436.42 43.591C436.688 43.4464 436.983 43.3387 437.306 43.2679C437.633 43.194 437.96 43.1355 438.29 43.0925C438.721 43.0371 439.07 42.9955 439.338 42.9678C439.608 42.937 439.805 42.8863 439.929 42.8155C440.055 42.7447 440.118 42.6216 440.118 42.4462V42.4092C440.118 41.9537 439.993 41.5998 439.744 41.3474C439.498 41.0951 439.124 40.9689 438.622 40.9689C438.102 40.9689 437.694 41.0828 437.399 41.3105C437.103 41.5382 436.896 41.7814 436.776 42.0399L435.741 41.6706C435.926 41.2397 436.172 40.9043 436.48 40.6642C436.791 40.4211 437.129 40.2518 437.496 40.1564C437.865 40.0579 438.228 40.0087 438.585 40.0087C438.813 40.0087 439.075 40.0364 439.37 40.0918C439.669 40.1441 439.956 40.2533 440.233 40.4195C440.513 40.5857 440.746 40.8365 440.93 41.172C441.115 41.5075 441.207 41.9568 441.207 42.52V47.1919H440.118V46.2317H440.062C439.989 46.3855 439.865 46.5502 439.693 46.7256C439.521 46.9011 439.291 47.0503 439.005 47.1734C438.719 47.2965 438.37 47.3581 437.957 47.3581ZM438.124 46.3794C438.554 46.3794 438.918 46.2948 439.213 46.1255C439.512 45.9562 439.736 45.7377 439.887 45.4699C440.041 45.2022 440.118 44.9206 440.118 44.6251V43.628C440.072 43.6834 439.97 43.7342 439.813 43.7803C439.659 43.8234 439.481 43.8619 439.278 43.8957C439.078 43.9265 438.882 43.9542 438.691 43.9788C438.504 44.0004 438.351 44.0188 438.234 44.0342C437.951 44.0712 437.686 44.1312 437.44 44.2143C437.197 44.2943 437 44.4159 436.849 44.579C436.702 44.739 436.628 44.9575 436.628 45.2345C436.628 45.6131 436.768 45.8993 437.048 46.0932C437.331 46.284 437.69 46.3794 438.124 46.3794Z" fill="black"/>
<path d="M159.949 354V344.545H163.144C163.885 344.545 164.492 344.679 164.963 344.947C165.436 345.212 165.787 345.57 166.015 346.023C166.243 346.475 166.357 346.98 166.357 347.537C166.357 348.094 166.243 348.6 166.015 349.056C165.79 349.511 165.443 349.874 164.972 350.145C164.501 350.413 163.898 350.547 163.162 350.547H160.872V349.531H163.125C163.633 349.531 164.041 349.444 164.349 349.268C164.656 349.093 164.879 348.856 165.018 348.557C165.16 348.256 165.23 347.915 165.23 347.537C165.23 347.158 165.16 346.82 165.018 346.521C164.879 346.223 164.655 345.989 164.344 345.82C164.033 345.647 163.621 345.561 163.107 345.561H161.094V354H159.949ZM170.95 354.148C170.267 354.148 169.677 353.997 169.182 353.695C168.69 353.391 168.309 352.966 168.042 352.421C167.777 351.873 167.645 351.236 167.645 350.51C167.645 349.784 167.777 349.143 168.042 348.589C168.309 348.032 168.682 347.598 169.159 347.288C169.639 346.974 170.199 346.817 170.839 346.817C171.209 346.817 171.573 346.878 171.933 347.001C172.294 347.125 172.621 347.325 172.917 347.602C173.212 347.875 173.448 348.239 173.623 348.691C173.798 349.143 173.886 349.701 173.886 350.362V350.824H168.42V349.882H172.778C172.778 349.482 172.698 349.125 172.538 348.811C172.381 348.497 172.157 348.249 171.864 348.068C171.575 347.886 171.233 347.795 170.839 347.795C170.405 347.795 170.03 347.903 169.713 348.119C169.399 348.331 169.157 348.608 168.988 348.95C168.819 349.291 168.734 349.657 168.734 350.048V350.676C168.734 351.212 168.827 351.666 169.011 352.038C169.199 352.407 169.459 352.689 169.791 352.883C170.124 353.074 170.51 353.169 170.95 353.169C171.236 353.169 171.495 353.129 171.726 353.049C171.96 352.966 172.161 352.843 172.33 352.68C172.5 352.513 172.631 352.307 172.723 352.061L173.775 352.357C173.665 352.714 173.478 353.027 173.217 353.298C172.955 353.566 172.632 353.775 172.247 353.926C171.863 354.074 171.43 354.148 170.95 354.148ZM175.544 354V346.909H176.633V349.993H177.353L179.901 346.909H181.305L178.443 350.325L181.342 354H179.938L177.612 351.009H176.633V354H175.544ZM182.526 356.659V346.909H183.578V348.036H183.708C183.788 347.912 183.899 347.755 184.04 347.565C184.185 347.371 184.391 347.198 184.659 347.048C184.93 346.894 185.296 346.817 185.757 346.817C186.355 346.817 186.881 346.966 187.336 347.265C187.792 347.563 188.147 347.986 188.403 348.534C188.658 349.082 188.786 349.728 188.786 350.473C188.786 351.224 188.658 351.875 188.403 352.426C188.147 352.974 187.793 353.398 187.341 353.7C186.888 353.998 186.367 354.148 185.776 354.148C185.32 354.148 184.956 354.072 184.682 353.922C184.408 353.768 184.197 353.594 184.049 353.4C183.902 353.203 183.788 353.04 183.708 352.911H183.615V356.659H182.526ZM183.597 350.455C183.597 350.99 183.675 351.462 183.832 351.872C183.989 352.278 184.219 352.597 184.52 352.827C184.822 353.055 185.191 353.169 185.628 353.169C186.084 353.169 186.464 353.049 186.768 352.809C187.076 352.566 187.307 352.24 187.461 351.83C187.618 351.418 187.696 350.959 187.696 350.455C187.696 349.956 187.619 349.507 187.466 349.107C187.315 348.703 187.085 348.385 186.778 348.151C186.473 347.914 186.09 347.795 185.628 347.795C185.185 347.795 184.813 347.908 184.511 348.132C184.209 348.354 183.982 348.665 183.828 349.065C183.674 349.462 183.597 349.925 183.597 350.455ZM193.421 354.148C192.738 354.148 192.148 353.997 191.653 353.695C191.16 353.391 190.78 352.966 190.512 352.421C190.248 351.873 190.115 351.236 190.115 350.51C190.115 349.784 190.248 349.143 190.512 348.589C190.78 348.032 191.153 347.598 191.63 347.288C192.11 346.974 192.67 346.817 193.31 346.817C193.679 346.817 194.044 346.878 194.404 347.001C194.764 347.125 195.092 347.325 195.387 347.602C195.683 347.875 195.918 348.239 196.094 348.691C196.269 349.143 196.357 349.701 196.357 350.362V350.824H190.891V349.882H195.249C195.249 349.482 195.169 349.125 195.009 348.811C194.852 348.497 194.627 348.249 194.335 348.068C194.046 347.886 193.704 347.795 193.31 347.795C192.876 347.795 192.501 347.903 192.184 348.119C191.87 348.331 191.628 348.608 191.459 348.95C191.29 349.291 191.205 349.657 191.205 350.048V350.676C191.205 351.212 191.297 351.666 191.482 352.038C191.67 352.407 191.93 352.689 192.262 352.883C192.594 353.074 192.981 353.169 193.421 353.169C193.707 353.169 193.966 353.129 194.196 353.049C194.43 352.966 194.632 352.843 194.801 352.68C194.97 352.513 195.101 352.307 195.194 352.061L196.246 352.357C196.135 352.714 195.949 353.027 195.687 353.298C195.426 353.566 195.103 353.775 194.718 353.926C194.333 354.074 193.901 354.148 193.421 354.148ZM200.101 354.166C199.652 354.166 199.244 354.082 198.877 353.912C198.511 353.74 198.22 353.492 198.005 353.169C197.79 352.843 197.682 352.449 197.682 351.987C197.682 351.581 197.762 351.252 197.922 350.999C198.082 350.744 198.296 350.544 198.564 350.399C198.831 350.254 199.127 350.147 199.45 350.076C199.776 350.002 200.104 349.944 200.433 349.901C200.864 349.845 201.213 349.804 201.481 349.776C201.752 349.745 201.949 349.694 202.072 349.624C202.198 349.553 202.261 349.43 202.261 349.254V349.217C202.261 348.762 202.137 348.408 201.887 348.156C201.641 347.903 201.267 347.777 200.766 347.777C200.246 347.777 199.838 347.891 199.542 348.119C199.247 348.346 199.039 348.589 198.919 348.848L197.885 348.479C198.07 348.048 198.316 347.712 198.624 347.472C198.934 347.229 199.273 347.06 199.639 346.964C200.009 346.866 200.372 346.817 200.729 346.817C200.956 346.817 201.218 346.844 201.513 346.9C201.812 346.952 202.1 347.061 202.377 347.228C202.657 347.394 202.889 347.645 203.074 347.98C203.259 348.316 203.351 348.765 203.351 349.328V354H202.261V353.04H202.206C202.132 353.194 202.009 353.358 201.837 353.534C201.664 353.709 201.435 353.858 201.149 353.982C200.863 354.105 200.513 354.166 200.101 354.166ZM200.267 353.188C200.698 353.188 201.061 353.103 201.357 352.934C201.655 352.764 201.88 352.546 202.031 352.278C202.184 352.01 202.261 351.729 202.261 351.433V350.436C202.215 350.491 202.114 350.542 201.957 350.588C201.803 350.632 201.624 350.67 201.421 350.704C201.221 350.735 201.026 350.762 200.835 350.787C200.647 350.808 200.495 350.827 200.378 350.842C200.095 350.879 199.83 350.939 199.584 351.022C199.341 351.102 199.144 351.224 198.993 351.387C198.845 351.547 198.771 351.766 198.771 352.043C198.771 352.421 198.911 352.707 199.191 352.901C199.475 353.092 199.833 353.188 200.267 353.188ZM210.916 346.909V352.984H211.913V356.29H210.824V354H205.339V346.909H206.429V352.984H209.827V346.909H210.916ZM214.681 352.393L218.097 346.909H219.353V354H218.263V348.516L214.865 354H213.591V346.909H214.681V352.393ZM225.614 354V347.906H223.73C223.306 347.906 222.972 348.005 222.729 348.202C222.485 348.399 222.364 348.67 222.364 349.014C222.364 349.353 222.473 349.619 222.692 349.813C222.913 350.007 223.216 350.104 223.601 350.104H225.891V351.119H223.601C223.121 351.119 222.707 351.035 222.359 350.865C222.011 350.696 221.744 350.455 221.556 350.141C221.368 349.824 221.274 349.448 221.274 349.014C221.274 348.577 221.373 348.202 221.57 347.888C221.767 347.574 222.048 347.332 222.415 347.163C222.784 346.994 223.222 346.909 223.73 346.909H226.648V354H225.614ZM220.887 354L222.899 350.473H224.081L222.068 354H220.887Z" fill="black"/>
<path d="M406.903 285L403.653 280.661H402.49V285H401.345V275.545H402.49V279.645H402.989L406.774 275.545H408.141L404.318 279.7L408.27 285H406.903ZM411.962 285.148C411.322 285.148 410.76 284.995 410.277 284.691C409.797 284.386 409.421 283.96 409.15 283.412C408.883 282.864 408.749 282.224 408.749 281.491C408.749 280.753 408.883 280.108 409.15 279.557C409.421 279.006 409.797 278.578 410.277 278.274C410.76 277.969 411.322 277.817 411.962 277.817C412.602 277.817 413.162 277.969 413.642 278.274C414.126 278.578 414.501 279.006 414.769 279.557C415.04 280.108 415.175 280.753 415.175 281.491C415.175 282.224 415.04 282.864 414.769 283.412C414.501 283.96 414.126 284.386 413.642 284.691C413.162 284.995 412.602 285.148 411.962 285.148ZM411.962 284.169C412.448 284.169 412.848 284.044 413.162 283.795C413.476 283.546 413.708 283.218 413.859 282.812C414.01 282.406 414.086 281.965 414.086 281.491C414.086 281.018 414.01 280.576 413.859 280.167C413.708 279.757 413.476 279.426 413.162 279.174C412.848 278.922 412.448 278.795 411.962 278.795C411.476 278.795 411.076 278.922 410.762 279.174C410.448 279.426 410.215 279.757 410.065 280.167C409.914 280.576 409.838 281.018 409.838 281.491C409.838 281.965 409.914 282.406 410.065 282.812C410.215 283.218 410.448 283.546 410.762 283.795C411.076 284.044 411.476 284.169 411.962 284.169ZM421.584 280.956V281.972H417.669V280.956H421.584ZM417.928 277.909V285H416.838V277.909H417.928ZM422.415 277.909V285H421.325V277.909H422.415ZM427.285 287.419V275.545H428.375V287.419H427.285ZM427.285 285.148C426.805 285.148 426.368 285.062 425.974 284.889C425.58 284.714 425.242 284.466 424.958 284.146C424.675 283.823 424.457 283.437 424.303 282.987C424.149 282.538 424.072 282.039 424.072 281.491C424.072 280.937 424.149 280.436 424.303 279.987C424.457 279.534 424.675 279.146 424.958 278.823C425.242 278.5 425.58 278.252 425.974 278.08C426.368 277.904 426.805 277.817 427.285 277.817H427.618V285.148H427.285ZM427.285 284.169H427.47V278.795H427.285C426.922 278.795 426.607 278.869 426.339 279.017C426.071 279.162 425.849 279.36 425.674 279.613C425.502 279.862 425.372 280.148 425.286 280.471C425.203 280.794 425.162 281.134 425.162 281.491C425.162 281.965 425.237 282.406 425.388 282.812C425.539 283.218 425.771 283.546 426.085 283.795C426.399 284.044 426.799 284.169 427.285 284.169ZM428.375 285.148H428.042V277.817H428.375C428.855 277.817 429.292 277.904 429.686 278.08C430.08 278.252 430.418 278.5 430.701 278.823C430.985 279.146 431.203 279.534 431.357 279.987C431.511 280.436 431.588 280.937 431.588 281.491C431.588 282.039 431.511 282.538 431.357 282.987C431.203 283.437 430.985 283.823 430.701 284.146C430.418 284.466 430.08 284.714 429.686 284.889C429.292 285.062 428.855 285.148 428.375 285.148ZM428.375 284.169C428.741 284.169 429.056 284.098 429.321 283.957C429.589 283.812 429.809 283.615 429.981 283.366C430.157 283.113 430.286 282.827 430.369 282.507C430.455 282.184 430.498 281.845 430.498 281.491C430.498 281.018 430.423 280.576 430.272 280.167C430.121 279.757 429.889 279.426 429.575 279.174C429.261 278.922 428.861 278.795 428.375 278.795H428.19V284.169H428.375ZM436.226 285.148C435.543 285.148 434.954 284.997 434.458 284.695C433.966 284.391 433.586 283.966 433.318 283.421C433.053 282.873 432.921 282.236 432.921 281.51C432.921 280.784 433.053 280.143 433.318 279.589C433.586 279.032 433.958 278.598 434.435 278.288C434.915 277.974 435.475 277.817 436.115 277.817C436.485 277.817 436.849 277.878 437.209 278.001C437.57 278.125 437.897 278.325 438.193 278.602C438.488 278.875 438.724 279.239 438.899 279.691C439.075 280.143 439.162 280.701 439.162 281.362V281.824H433.696V280.882H438.054C438.054 280.482 437.974 280.125 437.814 279.811C437.657 279.497 437.433 279.249 437.14 279.068C436.851 278.886 436.509 278.795 436.115 278.795C435.681 278.795 435.306 278.903 434.989 279.119C434.675 279.331 434.433 279.608 434.264 279.95C434.095 280.291 434.01 280.657 434.01 281.048V281.676C434.01 282.212 434.103 282.666 434.287 283.038C434.475 283.407 434.735 283.689 435.067 283.883C435.4 284.074 435.786 284.169 436.226 284.169C436.512 284.169 436.771 284.129 437.002 284.049C437.236 283.966 437.437 283.843 437.606 283.68C437.776 283.513 437.907 283.307 437.999 283.061L439.051 283.357C438.941 283.714 438.754 284.027 438.493 284.298C438.231 284.566 437.908 284.775 437.523 284.926C437.139 285.074 436.706 285.148 436.226 285.148ZM440.82 287.659V277.909H441.872V279.036H442.001C442.081 278.912 442.192 278.755 442.334 278.565C442.478 278.371 442.685 278.198 442.952 278.048C443.223 277.894 443.589 277.817 444.051 277.817C444.648 277.817 445.174 277.966 445.63 278.265C446.085 278.563 446.441 278.986 446.696 279.534C446.952 280.082 447.079 280.728 447.079 281.473C447.079 282.224 446.952 282.875 446.696 283.426C446.441 283.974 446.087 284.398 445.635 284.7C445.182 284.998 444.66 285.148 444.07 285.148C443.614 285.148 443.249 285.072 442.975 284.922C442.702 284.768 442.491 284.594 442.343 284.4C442.195 284.203 442.081 284.04 442.001 283.911H441.909V287.659H440.82ZM441.891 281.455C441.891 281.99 441.969 282.462 442.126 282.872C442.283 283.278 442.512 283.597 442.814 283.827C443.115 284.055 443.485 284.169 443.922 284.169C444.377 284.169 444.757 284.049 445.062 283.809C445.37 283.566 445.601 283.24 445.755 282.83C445.912 282.418 445.99 281.959 445.99 281.455C445.99 280.956 445.913 280.507 445.759 280.107C445.608 279.703 445.379 279.385 445.071 279.151C444.767 278.914 444.383 278.795 443.922 278.795C443.479 278.795 443.106 278.908 442.805 279.132C442.503 279.354 442.275 279.665 442.121 280.065C441.967 280.462 441.891 280.925 441.891 281.455ZM451.714 285.148C451.031 285.148 450.442 284.997 449.946 284.695C449.454 284.391 449.074 283.966 448.806 283.421C448.541 282.873 448.409 282.236 448.409 281.51C448.409 280.784 448.541 280.143 448.806 279.589C449.074 279.032 449.446 278.598 449.923 278.288C450.403 277.974 450.963 277.817 451.604 277.817C451.973 277.817 452.338 277.878 452.698 278.001C453.058 278.125 453.386 278.325 453.681 278.602C453.976 278.875 454.212 279.239 454.387 279.691C454.563 280.143 454.65 280.701 454.65 281.362V281.824H449.185V280.882H453.543C453.543 280.482 453.463 280.125 453.302 279.811C453.146 279.497 452.921 279.249 452.628 279.068C452.339 278.886 451.998 278.795 451.604 278.795C451.17 278.795 450.794 278.903 450.477 279.119C450.163 279.331 449.922 279.608 449.752 279.95C449.583 280.291 449.499 280.657 449.499 281.048V281.676C449.499 282.212 449.591 282.666 449.775 283.038C449.963 283.407 450.223 283.689 450.556 283.883C450.888 284.074 451.274 284.169 451.714 284.169C452.001 284.169 452.259 284.129 452.49 284.049C452.724 283.966 452.925 283.843 453.095 283.68C453.264 283.513 453.395 283.307 453.487 283.061L454.54 283.357C454.429 283.714 454.243 284.027 453.981 284.298C453.72 284.566 453.396 284.775 453.012 284.926C452.627 285.074 452.195 285.148 451.714 285.148ZM461.054 280.956V281.972H457.139V280.956H461.054ZM457.397 277.909V285H456.308V277.909H457.397ZM461.885 277.909V285H460.795V277.909H461.885ZM469.451 277.909V283.984H470.448V287.29H469.359V285H463.874V277.909H464.964V283.984H468.361V277.909H469.451ZM475.339 283.19H476.503C476.527 283.51 476.672 283.754 476.937 283.92C477.204 284.086 477.552 284.169 477.98 284.169C478.417 284.169 478.791 284.08 479.102 283.901C479.413 283.72 479.568 283.427 479.568 283.024C479.568 282.787 479.509 282.581 479.393 282.406C479.276 282.227 479.111 282.089 478.899 281.99C478.686 281.892 478.435 281.842 478.146 281.842H476.927V280.864H478.146C478.58 280.864 478.9 280.765 479.106 280.568C479.316 280.371 479.42 280.125 479.42 279.83C479.42 279.513 479.308 279.259 479.083 279.068C478.859 278.874 478.54 278.777 478.128 278.777C477.712 278.777 477.366 278.871 477.089 279.059C476.812 279.243 476.666 279.482 476.65 279.774H475.505C475.518 279.393 475.635 279.056 475.856 278.763C476.078 278.468 476.379 278.237 476.761 278.071C477.143 277.901 477.58 277.817 478.072 277.817C478.571 277.817 479.003 277.904 479.369 278.08C479.739 278.252 480.023 278.488 480.223 278.786C480.427 279.082 480.528 279.417 480.528 279.793C480.528 280.193 480.416 280.516 480.191 280.762C479.966 281.008 479.685 281.184 479.346 281.288V281.362C479.614 281.381 479.846 281.467 480.043 281.621C480.243 281.772 480.399 281.97 480.51 282.216C480.62 282.459 480.676 282.729 480.676 283.024C480.676 283.455 480.56 283.83 480.33 284.151C480.099 284.468 479.782 284.714 479.379 284.889C478.975 285.062 478.515 285.148 477.998 285.148C477.497 285.148 477.047 285.066 476.65 284.903C476.253 284.737 475.938 284.508 475.704 284.215C475.473 283.92 475.352 283.578 475.339 283.19ZM484.293 285.166C483.844 285.166 483.436 285.082 483.07 284.912C482.703 284.74 482.412 284.492 482.197 284.169C481.982 283.843 481.874 283.449 481.874 282.987C481.874 282.581 481.954 282.252 482.114 281.999C482.274 281.744 482.488 281.544 482.756 281.399C483.023 281.254 483.319 281.147 483.642 281.076C483.968 281.002 484.296 280.944 484.625 280.901C485.056 280.845 485.405 280.804 485.673 280.776C485.944 280.745 486.141 280.694 486.264 280.624C486.39 280.553 486.453 280.43 486.453 280.254V280.217C486.453 279.762 486.329 279.408 486.079 279.156C485.833 278.903 485.459 278.777 484.958 278.777C484.438 278.777 484.03 278.891 483.734 279.119C483.439 279.346 483.231 279.589 483.111 279.848L482.077 279.479C482.262 279.048 482.508 278.712 482.816 278.472C483.126 278.229 483.465 278.06 483.831 277.964C484.201 277.866 484.564 277.817 484.921 277.817C485.148 277.817 485.41 277.844 485.706 277.9C486.004 277.952 486.292 278.061 486.569 278.228C486.849 278.394 487.081 278.645 487.266 278.98C487.451 279.316 487.543 279.765 487.543 280.328V285H486.453V284.04H486.398C486.324 284.194 486.201 284.358 486.029 284.534C485.856 284.709 485.627 284.858 485.341 284.982C485.055 285.105 484.705 285.166 484.293 285.166ZM484.459 284.188C484.89 284.188 485.253 284.103 485.549 283.934C485.847 283.764 486.072 283.546 486.223 283.278C486.376 283.01 486.453 282.729 486.453 282.433V281.436C486.407 281.491 486.306 281.542 486.149 281.588C485.995 281.632 485.816 281.67 485.613 281.704C485.413 281.735 485.218 281.762 485.027 281.787C484.839 281.808 484.687 281.827 484.57 281.842C484.287 281.879 484.022 281.939 483.776 282.022C483.533 282.102 483.336 282.224 483.185 282.387C483.037 282.547 482.963 282.766 482.963 283.043C482.963 283.421 483.103 283.707 483.383 283.901C483.667 284.092 484.025 284.188 484.459 284.188ZM488.904 285V283.984H489.162C489.374 283.984 489.551 283.943 489.693 283.86C489.835 283.774 489.948 283.624 490.035 283.412C490.124 283.196 490.192 282.898 490.238 282.516C490.287 282.132 490.322 281.642 490.344 281.048L490.473 277.909H495.2V285H494.111V278.925H491.507L491.397 281.455C491.372 282.036 491.32 282.549 491.24 282.992C491.163 283.432 491.044 283.801 490.884 284.1C490.727 284.398 490.518 284.623 490.256 284.774C489.995 284.925 489.667 285 489.273 285H488.904ZM500.486 278.5V277.669C500.486 277.417 500.531 277.149 500.62 276.866C500.713 276.58 500.845 276.304 501.017 276.039C501.193 275.772 501.403 275.539 501.65 275.342L502.241 275.822C502.047 276.099 501.877 276.389 501.733 276.69C501.591 276.989 501.52 277.309 501.52 277.651V278.5H500.486ZM502.85 278.5V277.669C502.85 277.417 502.895 277.149 502.984 276.866C503.076 276.58 503.209 276.304 503.381 276.039C503.556 275.772 503.767 275.539 504.013 275.342L504.604 275.822C504.41 276.099 504.241 276.389 504.096 276.69C503.955 276.989 503.884 277.309 503.884 277.651V278.5H502.85ZM511.661 275.545V276.561H507.099V285H505.955V275.545H511.661ZM514.406 285.166C513.957 285.166 513.549 285.082 513.183 284.912C512.817 284.74 512.526 284.492 512.31 284.169C512.095 283.843 511.987 283.449 511.987 282.987C511.987 282.581 512.067 282.252 512.227 281.999C512.387 281.744 512.601 281.544 512.869 281.399C513.137 281.254 513.432 281.147 513.755 281.076C514.081 281.002 514.409 280.944 514.739 280.901C515.169 280.845 515.519 280.804 515.787 280.776C516.057 280.745 516.254 280.694 516.377 280.624C516.504 280.553 516.567 280.43 516.567 280.254V280.217C516.567 279.762 516.442 279.408 516.193 279.156C515.947 278.903 515.573 278.777 515.071 278.777C514.551 278.777 514.143 278.891 513.848 279.119C513.552 279.346 513.344 279.589 513.224 279.848L512.19 279.479C512.375 279.048 512.621 278.712 512.929 278.472C513.24 278.229 513.578 278.06 513.945 277.964C514.314 277.866 514.677 277.817 515.034 277.817C515.262 277.817 515.523 277.844 515.819 277.9C516.117 277.952 516.405 278.061 516.682 278.228C516.962 278.394 517.195 278.645 517.379 278.98C517.564 279.316 517.656 279.765 517.656 280.328V285H516.567V284.04H516.511C516.437 284.194 516.314 284.358 516.142 284.534C515.97 284.709 515.74 284.858 515.454 284.982C515.168 285.105 514.819 285.166 514.406 285.166ZM514.572 284.188C515.003 284.188 515.366 284.103 515.662 283.934C515.96 283.764 516.185 283.546 516.336 283.278C516.49 283.01 516.567 282.729 516.567 282.433V281.436C516.521 281.491 516.419 281.542 516.262 281.588C516.108 281.632 515.93 281.67 515.726 281.704C515.526 281.735 515.331 281.762 515.14 281.787C514.952 281.808 514.8 281.827 514.683 281.842C514.4 281.879 514.135 281.939 513.889 282.022C513.646 282.102 513.449 282.224 513.298 282.387C513.15 282.547 513.077 282.766 513.077 283.043C513.077 283.421 513.217 283.707 513.497 283.901C513.78 284.092 514.138 284.188 514.572 284.188ZM520.734 283.393L524.15 277.909H525.406V285H524.317V279.516L520.919 285H519.645V277.909H520.734V283.393ZM523.43 275.545H524.446C524.446 276.044 524.274 276.452 523.929 276.769C523.584 277.086 523.116 277.244 522.525 277.244C521.944 277.244 521.481 277.086 521.136 276.769C520.794 276.452 520.623 276.044 520.623 275.545H521.639C521.639 275.786 521.705 275.996 521.838 276.178C521.973 276.359 522.202 276.45 522.525 276.45C522.849 276.45 523.079 276.359 523.218 276.178C523.359 275.996 523.43 275.786 523.43 275.545ZM530.282 285.148C529.642 285.148 529.08 284.995 528.597 284.691C528.117 284.386 527.742 283.96 527.471 283.412C527.203 282.864 527.069 282.224 527.069 281.491C527.069 280.753 527.203 280.108 527.471 279.557C527.742 279.006 528.117 278.578 528.597 278.274C529.08 277.969 529.642 277.817 530.282 277.817C530.922 277.817 531.483 277.969 531.963 278.274C532.446 278.578 532.821 279.006 533.089 279.557C533.36 280.108 533.495 280.753 533.495 281.491C533.495 282.224 533.36 282.864 533.089 283.412C532.821 283.96 532.446 284.386 531.963 284.691C531.483 284.995 530.922 285.148 530.282 285.148ZM530.282 284.169C530.769 284.169 531.169 284.044 531.483 283.795C531.796 283.546 532.029 283.218 532.18 282.812C532.33 282.406 532.406 281.965 532.406 281.491C532.406 281.018 532.33 280.576 532.18 280.167C532.029 279.757 531.796 279.426 531.483 279.174C531.169 278.922 530.769 278.795 530.282 278.795C529.796 278.795 529.396 278.922 529.082 279.174C528.768 279.426 528.536 279.757 528.385 280.167C528.234 280.576 528.159 281.018 528.159 281.491C528.159 281.965 528.234 282.406 528.385 282.812C528.536 283.218 528.768 283.546 529.082 283.795C529.396 284.044 529.796 284.169 530.282 284.169ZM534.232 278.925V277.909H539.993V278.925H537.666V285H536.577V278.925H534.232ZM542.542 275.545V276.376C542.542 276.629 542.496 276.898 542.404 277.184C542.315 277.467 542.182 277.743 542.007 278.011C541.835 278.275 541.625 278.506 541.379 278.703L540.788 278.223C540.982 277.946 541.15 277.658 541.291 277.36C541.436 277.058 541.508 276.737 541.508 276.395V275.545H542.542ZM544.906 275.545V276.376C544.906 276.629 544.86 276.898 544.768 277.184C544.678 277.467 544.546 277.743 544.371 278.011C544.198 278.275 543.989 278.506 543.743 278.703L543.152 278.223C543.346 277.946 543.513 277.658 543.655 277.36C543.8 277.058 543.872 276.737 543.872 276.395V275.545H544.906Z" fill="black"/>
<path d="M409.638 398.545V399.561H405.077V408H403.932V398.545H409.638ZM412.383 408.166C411.934 408.166 411.526 408.082 411.16 407.912C410.794 407.74 410.503 407.492 410.288 407.169C410.072 406.843 409.964 406.449 409.964 405.987C409.964 405.581 410.044 405.252 410.204 404.999C410.364 404.744 410.578 404.544 410.846 404.399C411.114 404.254 411.409 404.147 411.732 404.076C412.059 404.002 412.386 403.944 412.716 403.901C413.147 403.845 413.496 403.804 413.764 403.776C414.035 403.745 414.232 403.694 414.355 403.624C414.481 403.553 414.544 403.43 414.544 403.254V403.217C414.544 402.762 414.419 402.408 414.17 402.156C413.924 401.903 413.55 401.777 413.048 401.777C412.528 401.777 412.12 401.891 411.825 402.119C411.529 402.346 411.322 402.589 411.202 402.848L410.167 402.479C410.352 402.048 410.598 401.712 410.906 401.472C411.217 401.229 411.556 401.06 411.922 400.964C412.291 400.866 412.654 400.817 413.011 400.817C413.239 400.817 413.501 400.844 413.796 400.9C414.095 400.952 414.382 401.061 414.659 401.228C414.939 401.394 415.172 401.645 415.356 401.98C415.541 402.316 415.633 402.765 415.633 403.328V408H414.544V407.04H414.489C414.415 407.194 414.292 407.358 414.119 407.534C413.947 407.709 413.718 407.858 413.431 407.982C413.145 408.105 412.796 408.166 412.383 408.166ZM412.55 407.188C412.98 407.188 413.344 407.103 413.639 406.934C413.938 406.764 414.162 406.546 414.313 406.278C414.467 406.01 414.544 405.729 414.544 405.433V404.436C414.498 404.491 414.396 404.542 414.239 404.588C414.085 404.632 413.907 404.67 413.704 404.704C413.504 404.735 413.308 404.762 413.117 404.787C412.93 404.808 412.777 404.827 412.66 404.842C412.377 404.879 412.113 404.939 411.866 405.022C411.623 405.102 411.426 405.224 411.275 405.387C411.128 405.547 411.054 405.766 411.054 406.043C411.054 406.421 411.194 406.707 411.474 406.901C411.757 407.092 412.116 407.188 412.55 407.188ZM417.622 410.659V400.909H418.675V402.036H418.804C418.884 401.912 418.995 401.755 419.136 401.565C419.281 401.371 419.487 401.198 419.755 401.048C420.026 400.894 420.392 400.817 420.853 400.817C421.451 400.817 421.977 400.966 422.432 401.265C422.888 401.563 423.243 401.986 423.499 402.534C423.754 403.082 423.882 403.728 423.882 404.473C423.882 405.224 423.754 405.875 423.499 406.426C423.243 406.974 422.889 407.398 422.437 407.7C421.985 407.998 421.463 408.148 420.872 408.148C420.416 408.148 420.052 408.072 419.778 407.922C419.504 407.768 419.293 407.594 419.145 407.4C418.998 407.203 418.884 407.04 418.804 406.911H418.711V410.659H417.622ZM418.693 404.455C418.693 404.99 418.771 405.462 418.928 405.872C419.085 406.278 419.315 406.597 419.616 406.827C419.918 407.055 420.287 407.169 420.724 407.169C421.18 407.169 421.56 407.049 421.864 406.809C422.172 406.566 422.403 406.24 422.557 405.83C422.714 405.418 422.792 404.959 422.792 404.455C422.792 403.956 422.715 403.507 422.562 403.107C422.411 402.703 422.181 402.385 421.874 402.151C421.569 401.914 421.186 401.795 420.724 401.795C420.281 401.795 419.909 401.908 419.607 402.132C419.305 402.354 419.078 402.665 418.924 403.065C418.77 403.462 418.693 403.925 418.693 404.455ZM424.787 410.031V406.984H425.378C425.522 406.834 425.647 406.67 425.752 406.495C425.856 406.32 425.947 406.112 426.024 405.872C426.104 405.629 426.172 405.333 426.227 404.985C426.282 404.635 426.332 404.211 426.375 403.716L426.615 400.909H431.121V406.984H432.21V410.031H431.121V408H425.876V410.031H424.787ZM426.615 406.984H430.031V401.925H427.63L427.446 403.716C427.369 404.458 427.273 405.105 427.16 405.659C427.046 406.213 426.864 406.655 426.615 406.984ZM436.629 408.148C435.946 408.148 435.357 407.997 434.861 407.695C434.369 407.391 433.989 406.966 433.721 406.421C433.456 405.873 433.324 405.236 433.324 404.51C433.324 403.784 433.456 403.143 433.721 402.589C433.989 402.032 434.361 401.598 434.838 401.288C435.318 400.974 435.878 400.817 436.518 400.817C436.888 400.817 437.252 400.878 437.612 401.001C437.973 401.125 438.3 401.325 438.596 401.602C438.891 401.875 439.127 402.239 439.302 402.691C439.478 403.143 439.565 403.701 439.565 404.362V404.824H434.099V403.882H438.457C438.457 403.482 438.377 403.125 438.217 402.811C438.06 402.497 437.836 402.249 437.543 402.068C437.254 401.886 436.912 401.795 436.518 401.795C436.084 401.795 435.709 401.903 435.392 402.119C435.078 402.331 434.836 402.608 434.667 402.95C434.498 403.291 434.413 403.657 434.413 404.048V404.676C434.413 405.212 434.506 405.666 434.69 406.038C434.878 406.407 435.138 406.689 435.47 406.883C435.803 407.074 436.189 407.169 436.629 407.169C436.915 407.169 437.174 407.129 437.405 407.049C437.639 406.966 437.84 406.843 438.009 406.68C438.179 406.513 438.31 406.307 438.402 406.061L439.454 406.357C439.344 406.714 439.157 407.027 438.896 407.298C438.634 407.566 438.311 407.775 437.926 407.926C437.542 408.074 437.109 408.148 436.629 408.148ZM441.223 410.659V400.909H442.275V402.036H442.404C442.484 401.912 442.595 401.755 442.737 401.565C442.881 401.371 443.088 401.198 443.355 401.048C443.626 400.894 443.992 400.817 444.454 400.817C445.051 400.817 445.577 400.966 446.033 401.265C446.488 401.563 446.844 401.986 447.099 402.534C447.355 403.082 447.482 403.728 447.482 404.473C447.482 405.224 447.355 405.875 447.099 406.426C446.844 406.974 446.49 407.398 446.038 407.7C445.585 407.998 445.063 408.148 444.473 408.148C444.017 408.148 443.652 408.072 443.378 407.922C443.105 407.768 442.894 407.594 442.746 407.4C442.598 407.203 442.484 407.04 442.404 406.911H442.312V410.659H441.223ZM442.294 404.455C442.294 404.99 442.372 405.462 442.529 405.872C442.686 406.278 442.915 406.597 443.217 406.827C443.518 407.055 443.888 407.169 444.325 407.169C444.78 407.169 445.16 407.049 445.465 406.809C445.773 406.566 446.004 406.24 446.158 405.83C446.315 405.418 446.393 404.959 446.393 404.455C446.393 403.956 446.316 403.507 446.162 403.107C446.011 402.703 445.782 402.385 445.474 402.151C445.17 401.914 444.786 401.795 444.325 401.795C443.882 401.795 443.509 401.908 443.208 402.132C442.906 402.354 442.678 402.665 442.524 403.065C442.37 403.462 442.294 403.925 442.294 404.455ZM452.025 408.148C451.385 408.148 450.823 407.995 450.34 407.691C449.86 407.386 449.484 406.96 449.214 406.412C448.946 405.864 448.812 405.224 448.812 404.491C448.812 403.753 448.946 403.108 449.214 402.557C449.484 402.006 449.86 401.578 450.34 401.274C450.823 400.969 451.385 400.817 452.025 400.817C452.665 400.817 453.225 400.969 453.705 401.274C454.189 401.578 454.564 402.006 454.832 402.557C455.103 403.108 455.238 403.753 455.238 404.491C455.238 405.224 455.103 405.864 454.832 406.412C454.564 406.96 454.189 407.386 453.705 407.691C453.225 407.995 452.665 408.148 452.025 408.148ZM452.025 407.169C452.511 407.169 452.911 407.044 453.225 406.795C453.539 406.546 453.772 406.218 453.922 405.812C454.073 405.406 454.149 404.965 454.149 404.491C454.149 404.018 454.073 403.576 453.922 403.167C453.772 402.757 453.539 402.426 453.225 402.174C452.911 401.922 452.511 401.795 452.025 401.795C451.539 401.795 451.139 401.922 450.825 402.174C450.511 402.426 450.279 402.757 450.128 403.167C449.977 403.576 449.902 404.018 449.902 404.491C449.902 404.965 449.977 405.406 450.128 405.812C450.279 406.218 450.511 406.546 450.825 406.795C451.139 407.044 451.539 407.169 452.025 407.169ZM462.164 398.25L462.718 398.915C462.503 399.124 462.253 399.27 461.97 399.353C461.687 399.436 461.367 399.487 461.01 399.506C460.653 399.524 460.256 399.543 459.819 399.561C459.326 399.58 458.919 399.7 458.595 399.921C458.272 400.143 458.023 400.463 457.848 400.881C457.672 401.3 457.56 401.814 457.511 402.423H457.603C457.843 401.98 458.175 401.654 458.6 401.445C459.025 401.235 459.48 401.131 459.967 401.131C460.521 401.131 461.019 401.26 461.462 401.518C461.906 401.777 462.256 402.16 462.515 402.668C462.773 403.176 462.903 403.802 462.903 404.547C462.903 405.289 462.77 405.929 462.506 406.467C462.244 407.006 461.876 407.421 461.402 407.714C460.931 408.003 460.379 408.148 459.745 408.148C459.111 408.148 458.555 407.998 458.078 407.7C457.601 407.398 457.231 406.952 456.966 406.361C456.701 405.767 456.569 405.033 456.569 404.159V403.402C456.569 401.823 456.837 400.626 457.372 399.81C457.911 398.995 458.72 398.573 459.8 398.545C460.182 398.533 460.522 398.53 460.821 398.536C461.119 398.542 461.379 398.529 461.601 398.495C461.822 398.461 462.01 398.379 462.164 398.25ZM459.745 407.169C460.173 407.169 460.541 407.061 460.848 406.846C461.159 406.63 461.398 406.327 461.564 405.936C461.73 405.542 461.813 405.079 461.813 404.547C461.813 404.03 461.729 403.59 461.559 403.227C461.393 402.863 461.155 402.586 460.844 402.396C460.533 402.205 460.16 402.109 459.727 402.109C459.41 402.109 459.125 402.163 458.872 402.271C458.62 402.379 458.405 402.537 458.226 402.746C458.048 402.956 457.909 403.211 457.811 403.513C457.715 403.814 457.664 404.159 457.658 404.547C457.658 405.341 457.845 405.976 458.217 406.453C458.589 406.931 459.099 407.169 459.745 407.169ZM469.315 403.956V404.972H465.4V403.956H469.315ZM465.659 400.909V408H464.569V400.909H465.659ZM470.146 400.909V408H469.056V400.909H470.146ZM474.222 408.166C473.773 408.166 473.365 408.082 472.999 407.912C472.633 407.74 472.342 407.492 472.126 407.169C471.911 406.843 471.803 406.449 471.803 405.987C471.803 405.581 471.883 405.252 472.043 404.999C472.203 404.744 472.417 404.544 472.685 404.399C472.953 404.254 473.248 404.147 473.571 404.076C473.898 404.002 474.225 403.944 474.555 403.901C474.986 403.845 475.335 403.804 475.603 403.776C475.873 403.745 476.07 403.694 476.194 403.624C476.32 403.553 476.383 403.43 476.383 403.254V403.217C476.383 402.762 476.258 402.408 476.009 402.156C475.763 401.903 475.389 401.777 474.887 401.777C474.367 401.777 473.959 401.891 473.664 402.119C473.368 402.346 473.16 402.589 473.04 402.848L472.006 402.479C472.191 402.048 472.437 401.712 472.745 401.472C473.056 401.229 473.394 401.06 473.761 400.964C474.13 400.866 474.493 400.817 474.85 400.817C475.078 400.817 475.339 400.844 475.635 400.9C475.933 400.952 476.221 401.061 476.498 401.228C476.778 401.394 477.011 401.645 477.195 401.98C477.38 402.316 477.472 402.765 477.472 403.328V408H476.383V407.04H476.327C476.254 407.194 476.13 407.358 475.958 407.534C475.786 407.709 475.556 407.858 475.27 407.982C474.984 408.105 474.635 408.166 474.222 408.166ZM474.388 407.188C474.819 407.188 475.182 407.103 475.478 406.934C475.776 406.764 476.001 406.546 476.152 406.278C476.306 406.01 476.383 405.729 476.383 405.433V404.436C476.337 404.491 476.235 404.542 476.078 404.588C475.924 404.632 475.746 404.67 475.543 404.704C475.343 404.735 475.147 404.762 474.956 404.787C474.769 404.808 474.616 404.827 474.499 404.842C474.216 404.879 473.951 404.939 473.705 405.022C473.462 405.102 473.265 405.224 473.114 405.387C472.967 405.547 472.893 405.766 472.893 406.043C472.893 406.421 473.033 406.707 473.313 406.901C473.596 407.092 473.955 407.188 474.388 407.188ZM483.726 408V401.906H481.843C481.418 401.906 481.084 402.005 480.841 402.202C480.598 402.399 480.476 402.67 480.476 403.014C480.476 403.353 480.586 403.619 480.804 403.813C481.026 404.007 481.329 404.104 481.714 404.104H484.003V405.119H481.714C481.234 405.119 480.82 405.035 480.472 404.865C480.124 404.696 479.856 404.455 479.669 404.141C479.481 403.824 479.387 403.448 479.387 403.014C479.387 402.577 479.485 402.202 479.682 401.888C479.879 401.574 480.161 401.332 480.527 401.163C480.897 400.994 481.335 400.909 481.843 400.909H484.761V408H483.726ZM478.999 408L481.012 404.473H482.194L480.181 408H478.999Z" fill="black"/>
<path d="M33.6419 298L30.3919 293.661H29.2286V298H28.0837V288.545H29.2286V292.645H29.7272L33.5127 288.545H34.8792L31.0567 292.7L35.0084 298H33.6419ZM38.4269 298.166C37.9776 298.166 37.5698 298.082 37.2035 297.912C36.8373 297.74 36.5465 297.492 36.331 297.169C36.1156 296.843 36.0079 296.449 36.0079 295.987C36.0079 295.581 36.0879 295.252 36.2479 294.999C36.408 294.744 36.6219 294.544 36.8896 294.399C37.1574 294.254 37.4528 294.147 37.776 294.076C38.1022 294.002 38.43 293.944 38.7593 293.901C39.1902 293.845 39.5395 293.804 39.8072 293.776C40.0781 293.745 40.275 293.694 40.3982 293.624C40.5243 293.553 40.5874 293.43 40.5874 293.254V293.217C40.5874 292.762 40.4628 292.408 40.2135 292.156C39.9673 291.903 39.5933 291.777 39.0917 291.777C38.5716 291.777 38.1638 291.891 37.8683 292.119C37.5729 292.346 37.3651 292.589 37.2451 292.848L36.211 292.479C36.3957 292.048 36.6419 291.712 36.9496 291.472C37.2605 291.229 37.599 291.06 37.9653 290.964C38.3346 290.866 38.6977 290.817 39.0548 290.817C39.2825 290.817 39.5441 290.844 39.8396 290.9C40.1381 290.952 40.4259 291.061 40.7028 291.228C40.9829 291.394 41.2153 291.645 41.3999 291.98C41.5846 292.316 41.6769 292.765 41.6769 293.328V298H40.5874V297.04H40.532C40.4582 297.194 40.3351 297.358 40.1627 297.534C39.9904 297.709 39.7611 297.858 39.4749 297.982C39.1886 298.105 38.8393 298.166 38.4269 298.166ZM38.5931 297.188C39.024 297.188 39.3871 297.103 39.6826 296.934C39.9811 296.764 40.2058 296.546 40.3566 296.278C40.5105 296.01 40.5874 295.729 40.5874 295.433V294.436C40.5413 294.491 40.4397 294.542 40.2827 294.588C40.1289 294.632 39.9504 294.67 39.7472 294.704C39.5472 294.735 39.3518 294.762 39.1609 294.787C38.9732 294.808 38.8209 294.827 38.7039 294.842C38.4208 294.879 38.1561 294.939 37.9099 295.022C37.6667 295.102 37.4698 295.224 37.319 295.387C37.1712 295.547 37.0974 295.766 37.0974 296.043C37.0974 296.421 37.2374 296.707 37.5175 296.901C37.8006 297.092 38.1592 297.188 38.5931 297.188ZM46.5461 300.419V288.545H47.6356V300.419H46.5461ZM46.5461 298.148C46.066 298.148 45.629 298.062 45.2351 297.889C44.8411 297.714 44.5026 297.466 44.2194 297.146C43.9363 296.823 43.7178 296.437 43.5639 295.987C43.41 295.538 43.3331 295.039 43.3331 294.491C43.3331 293.937 43.41 293.436 43.5639 292.987C43.7178 292.534 43.9363 292.146 44.2194 291.823C44.5026 291.5 44.8411 291.252 45.2351 291.08C45.629 290.904 46.066 290.817 46.5461 290.817H46.8785V298.148H46.5461ZM46.5461 297.169H46.7308V291.795H46.5461C46.183 291.795 45.8675 291.869 45.5998 292.017C45.332 292.162 45.1104 292.36 44.935 292.613C44.7626 292.862 44.6334 293.148 44.5472 293.471C44.4641 293.794 44.4226 294.134 44.4226 294.491C44.4226 294.965 44.498 295.406 44.6488 295.812C44.7996 296.218 45.0319 296.546 45.3459 296.795C45.6598 297.044 46.0599 297.169 46.5461 297.169ZM47.6356 298.148H47.3032V290.817H47.6356C48.1157 290.817 48.5528 290.904 48.9467 291.08C49.3407 291.252 49.6792 291.5 49.9623 291.823C50.2455 292.146 50.464 292.534 50.6179 292.987C50.7718 293.436 50.8487 293.937 50.8487 294.491C50.8487 295.039 50.7718 295.538 50.6179 295.987C50.464 296.437 50.2455 296.823 49.9623 297.146C49.6792 297.466 49.3407 297.714 48.9467 297.889C48.5528 298.062 48.1157 298.148 47.6356 298.148ZM47.6356 297.169C48.0019 297.169 48.3173 297.098 48.582 296.957C48.8498 296.812 49.0698 296.615 49.2422 296.366C49.4176 296.113 49.5469 295.827 49.63 295.507C49.7161 295.184 49.7592 294.845 49.7592 294.491C49.7592 294.018 49.6838 293.576 49.533 293.167C49.3822 292.757 49.1498 292.426 48.8359 292.174C48.522 291.922 48.1219 291.795 47.6356 291.795H47.451V297.169H47.6356ZM55.4871 298.148C54.8039 298.148 54.2145 297.997 53.719 297.695C53.2266 297.391 52.8465 296.966 52.5787 296.421C52.314 295.873 52.1817 295.236 52.1817 294.51C52.1817 293.784 52.314 293.143 52.5787 292.589C52.8465 292.032 53.2189 291.598 53.6959 291.288C54.176 290.974 54.7362 290.817 55.3763 290.817C55.7456 290.817 56.1103 290.878 56.4704 291.001C56.8305 291.125 57.1583 291.325 57.4537 291.602C57.7492 291.875 57.9846 292.239 58.16 292.691C58.3355 293.143 58.4232 293.701 58.4232 294.362V294.824H52.9573V293.882H57.3152C57.3152 293.482 57.2352 293.125 57.0752 292.811C56.9182 292.497 56.6935 292.249 56.4012 292.068C56.1119 291.886 55.7703 291.795 55.3763 291.795C54.9424 291.795 54.5669 291.903 54.2499 292.119C53.936 292.331 53.6944 292.608 53.5251 292.95C53.3558 293.291 53.2712 293.657 53.2712 294.048V294.676C53.2712 295.212 53.3635 295.666 53.5482 296.038C53.7359 296.407 53.996 296.689 54.3284 296.883C54.6608 297.074 55.047 297.169 55.4871 297.169C55.7733 297.169 56.0319 297.129 56.2627 297.049C56.4966 296.966 56.6982 296.843 56.8674 296.68C57.0367 296.513 57.1675 296.307 57.2598 296.061L58.3124 296.357C58.2016 296.714 58.0154 297.027 57.7538 297.298C57.4922 297.566 57.169 297.775 56.7843 297.926C56.3996 298.074 55.9672 298.148 55.4871 298.148Z" fill="black"/>
<rect x="1080.3" y="590.049" width="60.3231" height="2.15479" fill="#C7D1F1"/>
<rect x="1106.42" y="590.049" width="8.08436" height="106.746" fill="#C7D1F1"/>
<rect x="1080.3" y="598.851" width="60.3231" height="2.15479" fill="#C7D1F1"/>
<rect x="1080.3" y="607.653" width="60.3231" height="2.15479" fill="#C7D1F1"/>
<rect x="1080.3" y="616.455" width="60.3231" height="2.15479" fill="#C7D1F1"/>
<rect x="1080.3" y="625.256" width="60.3231" height="2.15479" fill="#C7D1F1"/>
<rect x="1080.3" y="634.058" width="60.3231" height="2.15479" fill="#C7D1F1"/>
<rect x="1080.3" y="642.86" width="60.3231" height="2.15479" fill="#C7D1F1"/>
<rect x="1080.3" y="651.662" width="60.3231" height="2.15479" fill="#C7D1F1"/>
<rect x="1080.3" y="660.463" width="60.3231" height="2.15479" fill="#C7D1F1"/>
<rect x="1080.3" y="669.265" width="60.3231" height="2.15479" fill="#C7D1F1"/>
<rect x="1080.3" y="678.067" width="60.3231" height="2.15479" fill="#C7D1F1"/>
<rect x="1080.3" y="686.869" width="60.3231" height="2.15479" fill="#C7D1F1"/>
<rect x="1080.3" y="695.67" width="60.3231" height="2.15479" fill="#C7D1F1"/>
<rect x="377.956" y="71.918" width="66.688" height="2.15479" fill="#C7D1F1"/>
<rect x="406.832" y="71.918" width="8.93737" height="106.746" fill="#C7D1F1"/>
<rect x="377.956" y="80.7197" width="66.688" height="2.15479" fill="#C7D1F1"/>
<rect x="377.956" y="89.5215" width="66.688" height="2.15479" fill="#C7D1F1"/>
<rect x="377.956" y="98.3232" width="66.688" height="2.15479" fill="#C7D1F1"/>
<rect x="377.956" y="107.125" width="66.688" height="2.15479" fill="#C7D1F1"/>
<rect x="377.956" y="115.927" width="66.688" height="2.15479" fill="#C7D1F1"/>
<rect x="377.956" y="124.729" width="66.688" height="2.15479" fill="#C7D1F1"/>
<rect x="377.956" y="133.53" width="66.688" height="2.15479" fill="#C7D1F1"/>
<rect x="377.956" y="142.332" width="66.688" height="2.15479" fill="#C7D1F1"/>
<rect x="377.956" y="151.134" width="66.688" height="2.15479" fill="#C7D1F1"/>
<rect x="377.956" y="159.936" width="66.688" height="2.15479" fill="#C7D1F1"/>
<rect x="377.956" y="168.737" width="66.688" height="2.15479" fill="#C7D1F1"/>
<rect x="377.956" y="177.539" width="66.688" height="2.15479" fill="#C7D1F1"/>
<path d="M1278.62 435.973C1278.62 432.76 1281.22 430.155 1284.43 430.155H1301.49C1304.71 430.155 1307.31 432.76 1307.31 435.973V441.041C1307.31 441.869 1306.64 442.541 1305.81 442.541H1280.12C1279.29 442.541 1278.62 441.869 1278.62 441.041V435.973Z" fill="#F3F6FF" stroke="#8A8A8A"/>
<path d="M1280.91 437.925C1280.91 434.735 1283.5 432.148 1286.69 432.148C1289.88 432.148 1292.46 434.735 1292.46 437.925V438.629C1292.46 439.458 1291.79 440.129 1290.96 440.129H1282.41C1281.58 440.129 1280.91 439.458 1280.91 438.629V437.925Z" fill="#F3F6FF" stroke="#8A8A8A"/>
<path d="M1285.87 437.387C1285.87 436.933 1286.23 436.565 1286.69 436.565C1287.14 436.565 1287.51 436.933 1287.51 437.387V441.72C1287.51 442.173 1287.14 442.541 1286.69 442.541C1286.23 442.541 1285.87 442.173 1285.87 441.72V437.387Z" fill="#F3F6FF" stroke="#8A8A8A"/>
<path d="M1293.46 437.925C1293.46 434.735 1296.05 432.148 1299.24 432.148C1302.43 432.148 1305.02 434.735 1305.02 437.925V438.629C1305.02 439.458 1304.35 440.129 1303.52 440.129H1294.96C1294.14 440.129 1293.46 439.458 1293.46 438.629V437.925Z" fill="#F3F6FF" stroke="#8A8A8A"/>
<path d="M1298.42 437.387C1298.42 436.933 1298.79 436.565 1299.24 436.565C1299.69 436.565 1300.06 436.933 1300.06 437.387V441.72C1300.06 442.173 1299.69 442.541 1299.24 442.541C1298.79 442.541 1298.42 442.173 1298.42 441.72V437.387Z" fill="#F3F6FF" stroke="#8A8A8A"/>
<path d="M1233.77 547.385C1233.77 550.598 1231.17 553.203 1227.95 553.203L1223.48 553.203C1220.27 553.203 1217.66 550.598 1217.66 547.385L1217.66 542.317C1217.66 541.488 1218.33 540.817 1219.16 540.817L1232.27 540.817C1233.1 540.817 1233.77 541.488 1233.77 542.317L1233.77 547.385Z" fill="#F3F6FF" stroke="#8A8A8A"/>
<path d="M1231.49 545.433C1231.49 548.623 1228.91 551.209 1225.72 551.209C1222.53 551.209 1219.94 548.623 1219.94 545.433L1219.94 544.729C1219.94 543.9 1220.61 543.229 1221.44 543.229L1229.99 543.229C1230.82 543.229 1231.49 543.9 1231.49 544.729L1231.49 545.433Z" fill="#F3F6FF" stroke="#8A8A8A"/>
<path d="M1226.54 545.971C1226.54 546.425 1226.17 546.792 1225.72 546.792C1225.26 546.792 1224.9 546.425 1224.9 545.971L1224.9 541.638C1224.9 541.185 1225.26 540.817 1225.72 540.817C1226.17 540.817 1226.54 541.185 1226.54 541.638L1226.54 545.971Z" fill="#F3F6FF" stroke="#8A8A8A"/>
<path d="M1251.59 547.385C1251.59 550.598 1248.99 553.203 1245.77 553.203L1241.3 553.203C1238.09 553.203 1235.48 550.598 1235.48 547.385L1235.48 542.317C1235.48 541.488 1236.15 540.817 1236.98 540.817L1250.09 540.817C1250.92 540.817 1251.59 541.488 1251.59 542.317L1251.59 547.385Z" fill="#F3F6FF" stroke="#8A8A8A"/>
<path d="M1249.31 545.433C1249.31 548.623 1246.73 551.209 1243.54 551.209C1240.35 551.209 1237.76 548.623 1237.76 545.433L1237.76 544.729C1237.76 543.9 1238.43 543.229 1239.26 543.229L1247.81 543.229C1248.64 543.229 1249.31 543.9 1249.31 544.729L1249.31 545.433Z" fill="#F3F6FF" stroke="#8A8A8A"/>
<path d="M1244.36 545.971C1244.36 546.425 1243.99 546.792 1243.54 546.792C1243.08 546.792 1242.72 546.425 1242.72 545.971L1242.72 541.638C1242.72 541.185 1243.08 540.817 1243.54 540.817C1243.99 540.817 1244.36 541.185 1244.36 541.638L1244.36 545.971Z" fill="#F3F6FF" stroke="#8A8A8A"/>
<path d="M1269.41 547.385C1269.41 550.598 1266.81 553.203 1263.59 553.203L1259.12 553.203C1255.91 553.203 1253.3 550.598 1253.3 547.385L1253.3 542.317C1253.3 541.488 1253.97 540.817 1254.8 540.817L1267.91 540.817C1268.74 540.817 1269.41 541.488 1269.41 542.317L1269.41 547.385Z" fill="#F3F6FF" stroke="#8A8A8A"/>
<path d="M1267.13 545.433C1267.13 548.623 1264.55 551.209 1261.36 551.209C1258.17 551.209 1255.58 548.623 1255.58 545.433L1255.58 544.729C1255.58 543.9 1256.25 543.229 1257.08 543.229L1265.63 543.229C1266.46 543.229 1267.13 543.9 1267.13 544.729L1267.13 545.433Z" fill="#F3F6FF" stroke="#8A8A8A"/>
<path d="M1262.18 545.971C1262.18 546.425 1261.81 546.792 1261.36 546.792C1260.9 546.792 1260.54 546.425 1260.54 545.971L1260.54 541.638C1260.54 541.185 1260.9 540.817 1261.36 540.817C1261.81 540.817 1262.18 541.185 1262.18 541.638L1262.18 545.971Z" fill="#F3F6FF" stroke="#8A8A8A"/>
</svg>
