<svg width="1328" height="720" viewBox="0 0 1328 720" fill="none" xmlns="http://www.w3.org/2000/svg">
<rect x="0.118164" y="83.6152" width="12.6797" height="358.068" fill="#2B365A"/>
<rect x="0.118164" y="490.535" width="12.6797" height="190.705" fill="#2B365A"/>
<rect x="91.708" y="520.49" width="12.6797" height="193.225" fill="#2B365A"/>
<rect x="4.1084" y="547.244" width="12.6797" height="100.279" transform="rotate(-90 4.1084 547.244)" fill="#2B365A"/>
<rect x="0.118164" y="676.559" width="12.6797" height="42.8184" fill="#2B365A"/>
<rect x="7.05957" y="719.377" width="12.6797" height="129.244" transform="rotate(-90 7.05957 719.377)" fill="#2B365A"/>
<rect x="136.304" y="719.377" width="12.6797" height="52.7949" transform="rotate(-90 136.304 719.377)" fill="#8B98C3"/>
<rect x="309.267" y="719.377" width="12.6797" height="54.3281" transform="rotate(-90 309.267 719.377)" fill="#8B98C3"/>
<rect x="391.202" y="719.377" width="12.6797" height="50.9209" transform="rotate(-90 391.202 719.377)" fill="#8B98C3"/>
<rect x="476.67" y="719.377" width="12.6797" height="52.4883" transform="rotate(-90 476.67 719.377)" fill="#8B98C3"/>
<rect x="569.833" y="719.377" width="12.6797" height="47.9238" transform="rotate(-90 569.833 719.377)" fill="#8B98C3"/>
<rect x="805.438" y="719.377" width="12.6797" height="69.0332" transform="rotate(-90 805.438 719.377)" fill="#8B98C3"/>
<rect x="905.366" y="719.377" width="12.6797" height="39.4316" transform="rotate(-90 905.366 719.377)" fill="#8B98C3"/>
<rect x="360.134" y="719.377" width="12.6797" height="31.0683" transform="rotate(-90 360.134 719.377)" fill="#2B365A"/>
<rect x="188.798" y="719.377" width="12.6797" height="89.0898" transform="rotate(-90 188.798 719.377)" fill="#2B365A"/>
<rect x="442.123" y="719.377" width="12.6797" height="34.5469" transform="rotate(-90 442.123 719.377)" fill="#2B365A"/>
<rect x="274.72" y="719.377" width="12.6797" height="34.5469" transform="rotate(-90 274.72 719.377)" fill="#2B365A"/>
<rect x="529.158" y="719.377" width="12.6797" height="40.6758" transform="rotate(-90 529.158 719.377)" fill="#2B365A"/>
<rect x="617.757" y="719.377" width="12.6797" height="33.9512" transform="rotate(-90 617.757 719.377)" fill="#2B365A"/>
<rect x="874.472" y="719.377" width="12.6797" height="30.8945" transform="rotate(-90 874.472 719.377)" fill="#2B365A"/>
<rect x="944.798" y="719.377" width="12.6797" height="51.3945" transform="rotate(-90 944.798 719.377)" fill="#2B365A"/>
<rect x="626.384" y="719.377" width="26.1875" height="19.6719" transform="rotate(-90 626.384 719.377)" fill="#2B365A"/>
<rect x="0.118164" y="0.529297" width="12.6797" height="36.1973" fill="#2B365A"/>
<rect x="631.868" y="9.56055" width="12.6797" height="167.765" fill="#2B365A"/>
<rect x="610.128" y="144.545" width="34.4199" height="32.7803" fill="#2B365A"/>
<rect x="610.128" y="144.545" width="21.7402" height="61.791" fill="#2B365A"/>
<rect x="0.118164" y="13.209" width="12.6797" height="120.748" transform="rotate(-90 0.118164 13.209)" fill="#2B365A"/>
<rect x="642.39" y="177.326" width="12.6797" height="14.6836" transform="rotate(-90 642.39 177.326)" fill="#2B365A"/>
<rect x="644.798" y="177.326" width="12.6797" height="12.2754" transform="rotate(-90 644.798 177.326)" fill="#2B365A"/>
<rect x="613.656" y="365.904" width="12.6797" height="18.2119" transform="rotate(-90 613.656 365.904)" fill="#2B365A"/>
<rect x="269.057" y="223.553" width="25.5684" height="18.323" transform="rotate(-90 269.057 223.553)" fill="#2B365A"/>
<rect x="700.036" y="177.326" width="12.6797" height="34.1191" transform="rotate(-90 700.036 177.326)" fill="#2B365A"/>
<rect x="787.038" y="177.326" width="12.6797" height="34.9375" transform="rotate(-90 787.038 177.326)" fill="#2B365A"/>
<rect x="875.179" y="177.326" width="12.6797" height="28.043" transform="rotate(-90 875.179 177.326)" fill="#2B365A"/>
<rect x="956.425" y="177.326" width="12.6797" height="40.5547" transform="rotate(-90 956.425 177.326)" fill="#2B365A"/>
<rect x="964.569" y="191.745" width="27.0981" height="25.2231" transform="rotate(-90 964.569 191.745)" fill="#2B365A"/>
<rect x="796.798" y="191.745" width="27.0981" height="15.418" transform="rotate(-90 796.798 191.745)" fill="#2B365A"/>
<rect x="1050.18" y="177.326" width="12.6797" height="28.043" transform="rotate(-90 1050.18 177.326)" fill="#2B365A"/>
<rect x="1127.17" y="177.326" width="12.6797" height="183.885" transform="rotate(-90 1127.17 177.326)" fill="#2B365A"/>
<rect x="1315.2" y="260.619" width="12.6797" height="121.089" fill="#2B365A"/>
<rect x="1315.2" y="173.685" width="12.6797" height="39.8965" fill="#2B365A"/>
<rect x="1315.2" y="433.808" width="12.6797" height="39.8965" fill="#2B365A"/>
<rect x="1315.2" y="516.693" width="12.6797" height="202.684" fill="#2B365A"/>
<rect x="1303" y="628.641" width="12.6797" height="90.7363" fill="#2B365A"/>
<rect x="1259.59" y="711.828" width="22.8745" height="68.1592" transform="rotate(-90 1259.59 711.828)" fill="#2B365A"/>
<rect x="1259.59" y="646.385" width="17.7441" height="67.5703" transform="rotate(-90 1259.59 646.385)" fill="#2B365A"/>
<rect x="1126.59" y="719.377" width="12.6797" height="197.758" transform="rotate(-90 1126.59 719.377)" fill="#2B365A"/>
<rect x="657.073" y="177.326" width="12.6797" height="42.9629" transform="rotate(-90 657.073 177.326)" fill="#8B98C3"/>
<rect x="733.835" y="177.326" width="12.6797" height="53.2031" transform="rotate(-90 733.835 177.326)" fill="#8B98C3"/>
<rect x="821.976" y="177.326" width="12.6797" height="53.2031" transform="rotate(-90 821.976 177.326)" fill="#8B98C3"/>
<rect x="903.222" y="177.326" width="12.6797" height="53.2031" transform="rotate(-90 903.222 177.326)" fill="#8B98C3"/>
<rect x="996.979" y="177.326" width="12.6797" height="53.2031" transform="rotate(-90 996.979 177.326)" fill="#8B98C3"/>
<rect x="1078.23" y="177.326" width="12.6797" height="53.2031" transform="rotate(-90 1078.23 177.326)" fill="#8B98C3"/>
<rect x="1315.2" y="208.52" width="12.6797" height="52.0996" fill="#8B98C3"/>
<rect x="1315.2" y="381.708" width="12.6797" height="52.0996" fill="#8B98C3"/>
<rect x="1315.2" y="464.593" width="12.6797" height="52.0996" fill="#8B98C3"/>
<rect x="605.403" y="22.3242" width="18.2324" height="26.4648" transform="rotate(-90 605.403 22.3242)" fill="#2B365A"/>
<rect x="443.772" y="22.3242" width="21.7949" height="34.6367" transform="rotate(-90 443.772 22.3242)" fill="#2B365A"/>
<rect x="249.618" y="13.209" width="12.6797" height="46.7637" transform="rotate(-90 249.618 13.209)" fill="#2B365A"/>
<rect x="336.212" y="13.209" width="12.6797" height="46.7637" transform="rotate(-90 336.212 13.209)" fill="#2B365A"/>
<rect x="265.519" y="22.3242" width="21.7949" height="21.8613" transform="rotate(-90 265.519 22.3242)" fill="#2B365A"/>
<rect x="90.1318" y="22.3242" width="21.7949" height="21.8613" transform="rotate(-90 90.1318 22.3242)" fill="#2B365A"/>
<rect x="0.118164" y="22.3242" width="18.2324" height="26.4648" transform="rotate(-90 0.118164 22.3242)" fill="#2B365A"/>
<rect x="446.215" y="713.037" width="19.8477" height="26.3652" transform="rotate(-90 446.215 713.037)" fill="#2B365A"/>
<rect x="285.37" y="713.037" width="19.8477" height="13.248" transform="rotate(-90 285.37 713.037)" fill="#2B365A"/>
<rect x="1301.93" y="195.559" width="30.9121" height="25.9512" transform="rotate(-90 1301.93 195.559)" fill="#2B365A"/>
<rect x="887.827" y="423.65" width="248.51" height="4.87305" transform="rotate(-90 887.827 423.65)" fill="#2B365A"/>
<rect x="634.732" y="697.384" width="226.516" height="4.87305" transform="rotate(-90 634.732 697.384)" fill="#2B365A"/>
<rect x="544.296" y="713.037" width="242.168" height="4.87305" transform="rotate(-90 544.296 713.037)" fill="#2B365A"/>
<rect x="459.396" y="713.037" width="242.168" height="4.87305" transform="rotate(-90 459.396 713.037)" fill="#2B365A"/>
<rect x="373.231" y="713.037" width="242.168" height="4.87305" transform="rotate(-90 373.231 713.037)" fill="#2B365A"/>
<rect x="718.495" y="713.037" width="242.168" height="4.87305" transform="rotate(-90 718.495 713.037)" fill="#2B365A"/>
<rect x="888.931" y="713.037" width="242.168" height="4.87305" transform="rotate(-90 888.931 713.037)" fill="#2B365A"/>
<rect x="1060.71" y="713.037" width="242.168" height="4.87305" transform="rotate(-90 1060.71 713.037)" fill="#2B365A"/>
<rect x="1210.46" y="555.772" width="170.763" height="4.87305" transform="rotate(-90 1210.46 555.772)" fill="#2B365A"/>
<rect x="1210.46" y="600.657" width="19.5986" height="4.87305" transform="rotate(-90 1210.46 600.657)" fill="#2B365A"/>
<rect x="1060.71" y="713.037" width="199.298" height="11.7894" transform="rotate(-90 1060.71 713.037)" fill="#2B365A"/>
<rect x="1148.5" y="713.037" width="199.298" height="11.7894" transform="rotate(-90 1148.5 713.037)" fill="#2B365A"/>
<rect x="1084.45" y="523.262" width="15.5825" height="9.52277" transform="rotate(180 1084.45 523.262)" fill="#2B365A"/>
<rect x="1152.52" y="523.262" width="25.9282" height="9.52277" transform="rotate(180 1152.52 523.262)" fill="#2B365A"/>
<rect x="718.441" y="369.489" width="198.808" height="4.87305" transform="rotate(-90 718.441 369.489)" fill="#2B365A"/>
<rect x="718.441" y="424.797" width="31.6196" height="4.87305" transform="rotate(-90 718.441 424.797)" fill="#2B365A"/>
<rect x="801.038" y="423.65" width="248.51" height="4.87305" transform="rotate(-90 801.038 423.65)" fill="#2B365A"/>
<rect x="1061.89" y="426.088" width="250.947" height="4.87305" transform="rotate(-90 1061.89 426.088)" fill="#2B365A"/>
<rect x="974.266" y="426.088" width="250.947" height="4.87305" transform="rotate(-90 974.266 426.088)" fill="#2B365A"/>
<rect x="1151.6" y="416.759" width="241.618" height="4.87305" transform="rotate(-90 1151.6 416.759)" fill="#2B365A"/>
<rect x="626.995" y="421.215" width="100.434" height="4.87305" fill="#2B365A"/>
<rect x="452.697" y="420.996" width="55.122" height="4.87305" fill="#2B365A"/>
<rect x="507.819" y="353.225" width="43.5376" height="4.87305" transform="rotate(90 507.819 353.225)" fill="#2B365A"/>
<rect x="472.125" y="353.225" width="36.0308" height="4.87305" transform="rotate(90 472.125 353.225)" fill="#2B365A"/>
<rect x="446.472" y="340.083" width="18.0151" height="4.87305" transform="rotate(90 446.472 340.083)" fill="#2B365A"/>
<rect x="309.271" y="340.083" width="46.7363" height="4.87305" transform="rotate(90 309.271 340.083)" fill="#2B365A"/>
<rect x="390.698" y="386.819" width="36.0308" height="4.87305" transform="rotate(90 390.698 386.819)" fill="#2B365A"/>
<rect x="285.045" y="355.983" width="69.8862" height="4.87305" transform="rotate(90 285.045 355.983)" fill="#2B365A"/>
<rect x="285.045" y="465.398" width="5.4707" height="4.87305" transform="rotate(90 285.045 465.398)" fill="#2B365A"/>
<rect x="309.271" y="360.856" width="28.6273" height="4.87305" transform="rotate(-180 309.271 360.856)" fill="#2B365A"/>
<rect x="115.499" y="358.098" width="107.706" height="4.87305" transform="rotate(-180 115.499 358.098)" fill="#2B365A"/>
<rect x="505.37" y="358.098" width="63.7715" height="4.87305" transform="rotate(-180 505.37 358.098)" fill="#2B365A"/>
<rect x="444.035" y="344.956" width="139.637" height="4.87305" transform="rotate(-180 444.035 344.956)" fill="#2B365A"/>
<rect x="467.252" y="389.255" width="162.854" height="4.87305" transform="rotate(-180 467.252 389.255)" fill="#2B365A"/>
<rect x="431.555" y="425.869" width="107.373" height="4.87305" transform="rotate(-180 431.555 425.869)" fill="#2B365A"/>
<rect x="304.398" y="425.869" width="24.2262" height="4.87305" transform="rotate(-180 304.398 425.869)" fill="#2B365A"/>
<rect x="750.925" y="421.215" width="110.162" height="4.87305" fill="#2B365A"/>
<rect x="884.503" y="421.215" width="20.1758" height="4.87305" fill="#2B365A"/>
<rect x="924.853" y="421.215" width="108.801" height="4.87305" fill="#2B365A"/>
<rect x="1188.25" y="352.444" width="126.956" height="4.87305" fill="#2B365A"/>
<rect x="1152.52" y="352.444" width="10.4908" height="4.87305" fill="#2B365A"/>
<rect x="1094.64" y="411.886" width="61.8345" height="4.87305" fill="#2B365A"/>
<rect x="1212.9" y="445.053" width="110.497" height="4.87305" fill="#2B365A"/>
<rect x="1212.9" y="475.742" width="48.7597" height="4.87305" fill="#2B365A"/>
<rect x="1212.9" y="504.64" width="48.7597" height="4.87305" fill="#2B365A"/>
<rect x="1212.9" y="533.538" width="62.2237" height="4.87305" fill="#2B365A"/>
<rect x="1297.78" y="533.538" width="26.1007" height="4.87305" fill="#2B365A"/>
<rect x="1210.46" y="595.784" width="111.083" height="4.87305" fill="#2B365A"/>
<rect x="1064.33" y="411.886" width="7.91119" height="4.87305" fill="#2B365A"/>
<rect x="1056.76" y="421.215" width="7.91119" height="4.87305" fill="#2B365A"/>
<rect x="983.792" y="693.189" width="26.1875" height="29.6055" transform="rotate(90 983.792 693.189)" fill="#2B365A"/>
<rect x="452.646" y="197.984" width="146.266" height="4.87305" transform="rotate(-90 452.646 197.984)" fill="#2B365A"/>
<rect x="357.284" y="228.426" width="37.584" height="4.87305" transform="rotate(-90 357.284 228.426)" fill="#2B365A"/>
<rect x="184.806" y="223.553" width="223.023" height="4.87305" transform="rotate(-90 184.806 223.553)" fill="#2B365A"/>
<rect width="13.645" height="4.87305" transform="matrix(-1.19249e-08 1 1 1.19249e-08 72.8201 225.989)" fill="#2B365A"/>
<rect x="72.8201" y="356.693" width="93.1562" height="4.87305" transform="rotate(-90 72.8201 356.693)" fill="#2B365A"/>
<rect x="217.349" y="223.553" width="144.809" height="4.87305" fill="#2B365A"/>
<rect x="313.064" y="228.229" width="65.4912" height="2.8328" transform="rotate(90 313.064 228.229)" fill="#C7D1F1"/>
<rect x="613.656" y="356.078" width="65.4912" height="2.8328" transform="rotate(-180 613.656 356.078)" fill="#C7D1F1"/>
<rect x="510.882" y="192.151" width="39.3119" height="2.8328" transform="rotate(-180 510.882 192.151)" fill="#C7D1F1"/>
<rect x="307.231" y="276.396" width="63.687" height="2.8328" transform="rotate(90 307.231 276.396)" fill="#C7D1F1"/>
<rect x="571.506" y="361.911" width="63.687" height="2.8328" transform="rotate(-180 571.506 361.911)" fill="#C7D1F1"/>
<rect x="494.911" y="197.984" width="63.687" height="2.8328" transform="rotate(-180 494.911 197.984)" fill="#C7D1F1"/>
<rect x="364.496" y="188.47" width="93.0231" height="9.51514" fill="#2B365A"/>
<rect x="12.7979" y="223.553" width="144.809" height="4.87305" fill="#2B365A"/>
<rect x="182.146" y="223.553" width="11.3574" height="4.87305" fill="#2B365A"/>
<rect x="507.497" y="140.168" width="130.607" height="4.87305" transform="rotate(-90 507.497 140.168)" fill="#2B365A"/>
<rect x="626.995" y="425.988" width="225.58" height="4.87305" transform="rotate(-90 626.995 425.988)" fill="#2B365A"/>
<rect x="507.497" y="197.985" width="32.75" height="4.87305" transform="rotate(-90 507.497 197.985)" fill="#2B365A"/>
<rect x="616.481" y="197.984" width="105.6" height="4.87305" transform="rotate(180 616.481 197.984)" fill="#2B365A"/>
<rect x="244.949" y="475.742" width="105.955" height="4.87305" transform="rotate(180 244.949 475.742)" fill="#2B365A"/>
<rect x="115.499" y="475.742" width="11.6901" height="4.87305" transform="rotate(180 115.499 475.742)" fill="#2B365A"/>
<rect x="138.994" y="475.742" width="23.495" height="4.87305" transform="rotate(180 138.994 475.742)" fill="#C7D1F1"/>
<rect x="268.444" y="475.742" width="23.495" height="4.87305" transform="rotate(180 268.444 475.742)" fill="#C7D1F1"/>
<rect x="324.182" y="425.869" width="20.0343" height="4.87305" transform="rotate(180 324.182 425.869)" fill="#C7D1F1"/>
<rect x="452.697" y="425.869" width="21.142" height="4.87305" transform="rotate(180 452.697 425.869)" fill="#C7D1F1"/>
<rect x="280.172" y="465.398" width="34.0581" height="4.87305" transform="rotate(-90 280.172 465.398)" fill="#C7D1F1"/>
<rect x="103.809" y="408.289" width="26.2607" height="4.87305" transform="rotate(-90 103.809 408.289)" fill="#C7D1F1"/>
<rect x="72.8201" y="263.537" width="23.9028" height="4.87305" transform="rotate(-90 72.8201 263.537)" fill="#C7D1F1"/>
<rect x="452.646" y="51.7188" width="24.7788" height="4.87305" transform="rotate(-90 452.646 51.7188)" fill="#C7D1F1"/>
<rect x="507.497" y="165.235" width="25.0669" height="4.87305" transform="rotate(-90 507.497 165.235)" fill="#C7D1F1"/>
<rect x="157.606" y="223.553" width="24.5391" height="4.87305" fill="#C7D1F1"/>
<rect x="192.81" y="223.553" width="24.5391" height="4.87305" fill="#C7D1F1"/>
<rect x="723.314" y="368.638" width="24.5391" height="4.87305" transform="rotate(90 723.314 368.638)" fill="#C7D1F1"/>
<rect x="103.809" y="381.922" width="26.2607" height="4.87305" transform="rotate(-90 103.809 381.922)" fill="#2B365A"/>
<rect x="446.913" y="475.742" width="24.5494" height="4.87305" transform="rotate(180 446.913 475.742)" fill="#C7D1F1"/>
<rect x="534.267" y="475.742" width="24.5494" height="4.87305" transform="rotate(180 534.267 475.742)" fill="#C7D1F1"/>
<rect x="574.507" y="475.742" width="24.5494" height="4.87305" transform="rotate(180 574.507 475.742)" fill="#C7D1F1"/>
<rect x="754.5" y="475.742" width="24.5494" height="4.87305" transform="rotate(180 754.5 475.742)" fill="#C7D1F1"/>
<rect x="714.521" y="475.742" width="27.5604" height="4.87305" transform="rotate(180 714.521 475.742)" fill="#C7D1F1"/>
<rect x="884.503" y="475.742" width="23.4159" height="4.87305" transform="rotate(180 884.503 475.742)" fill="#C7D1F1"/>
<rect x="926.521" y="475.742" width="23.4159" height="4.87305" transform="rotate(180 926.521 475.742)" fill="#C7D1F1"/>
<rect x="1056.76" y="475.742" width="23.4159" height="4.87305" transform="rotate(180 1056.76 475.742)" fill="#C7D1F1"/>
<rect x="1126.59" y="518.612" width="42.1426" height="4.87305" transform="rotate(180 1126.59 518.612)" fill="#C7D1F1"/>
<rect x="1056.76" y="426.087" width="23.4159" height="4.87305" transform="rotate(180 1056.76 426.087)" fill="#C7D1F1"/>
<rect x="1094.64" y="416.759" width="22.404" height="4.87305" transform="rotate(180 1094.64 416.759)" fill="#C7D1F1"/>
<rect x="1188.25" y="357.317" width="25.2339" height="4.87305" transform="rotate(180 1188.25 357.317)" fill="#C7D1F1"/>
<rect x="1235.23" y="400.446" width="15.8798" height="4.87305" transform="rotate(180 1235.23 400.446)" fill="#C7D1F1"/>
<rect x="1265.08" y="400.446" width="15.8798" height="4.87305" transform="rotate(180 1265.08 400.446)" fill="#C7D1F1"/>
<rect x="1210.46" y="385.01" width="21.7979" height="4.87305" transform="rotate(-90 1210.46 385.01)" fill="#C7D1F1"/>
<rect x="1261.66" y="471.193" width="18.5669" height="4.87305" transform="rotate(-90 1261.66 471.193)" fill="#C7D1F1"/>
<rect x="1261.66" y="502.625" width="18.5669" height="4.87305" transform="rotate(-90 1261.66 502.625)" fill="#C7D1F1"/>
<rect x="1261.66" y="531.933" width="18.5669" height="4.87305" transform="rotate(-90 1261.66 531.933)" fill="#C7D1F1"/>
<rect x="1261.66" y="628.641" width="19.8892" height="4.87305" transform="rotate(-90 1261.66 628.641)" fill="#C7D1F1"/>
<rect x="1259.59" y="688.953" width="42.3887" height="43.4082" transform="rotate(-90 1259.59 688.953)" fill="#C7D1F1"/>
<rect x="1210.46" y="581.059" width="25.2861" height="4.87305" transform="rotate(-90 1210.46 581.059)" fill="#C7D1F1"/>
<rect x="884.503" y="426.087" width="23.4159" height="4.87305" transform="rotate(180 884.503 426.087)" fill="#C7D1F1"/>
<rect x="750.845" y="426.087" width="23.4159" height="4.87305" transform="rotate(180 750.845 426.087)" fill="#C7D1F1"/>
<rect x="924.853" y="426.087" width="20.1737" height="4.87305" transform="rotate(180 924.853 426.087)" fill="#C7D1F1"/>
<rect x="103.809" y="561.838" width="155.087" height="4.87305" transform="rotate(-90 103.809 561.838)" fill="#2B365A"/>
<rect x="422.939" y="475.742" width="96.9556" height="4.87305" transform="rotate(180 422.939 475.742)" fill="#2B365A"/>
<rect x="509.717" y="475.742" width="63.2452" height="4.87305" transform="rotate(180 509.717 475.742)" fill="#2B365A"/>
<rect x="688.243" y="475.742" width="114.319" height="4.87305" transform="rotate(180 688.243 475.742)" fill="#2B365A"/>
<rect x="549.169" y="475.742" width="15.9186" height="4.87305" transform="rotate(180 549.169 475.742)" fill="#2B365A"/>
<rect x="729.95" y="475.742" width="18.4401" height="4.87305" transform="rotate(180 729.95 475.742)" fill="#2B365A"/>
<rect x="861.087" y="475.742" width="107.869" height="4.87305" transform="rotate(180 861.087 475.742)" fill="#2B365A"/>
<rect x="903.104" y="475.742" width="18.6017" height="4.87305" transform="rotate(180 903.104 475.742)" fill="#2B365A"/>
<rect x="1033.65" y="475.742" width="108.801" height="4.87305" transform="rotate(180 1033.65 475.742)" fill="#2B365A"/>
<rect x="1065.53" y="475.742" width="9.65253" height="4.87305" transform="rotate(180 1065.53 475.742)" fill="#2B365A"/>
<rect x="1261.66" y="485.164" width="13.9705" height="4.87305" transform="rotate(-90 1261.66 485.164)" fill="#2B365A"/>
<rect x="1235.23" y="395.573" width="13.9705" height="4.87305" fill="#2B365A"/>
<rect x="1210.46" y="395.573" width="8.88745" height="4.87305" fill="#2B365A"/>
<rect x="1265.08" y="395.573" width="8.88745" height="4.87305" fill="#2B365A"/>
<rect x="1269.09" y="446.771" width="51.1973" height="4.87305" transform="rotate(-90 1269.09 446.771)" fill="#2B365A"/>
<rect x="1239.77" y="446.771" width="51.1973" height="4.87305" transform="rotate(-90 1239.77 446.771)" fill="#2B365A"/>
<rect x="1284.47" y="376.317" width="21.4365" height="4.87305" transform="rotate(-90 1284.47 376.317)" fill="#2B365A"/>
<rect x="1210.46" y="363.212" width="7.81201" height="4.87305" transform="rotate(-90 1210.46 363.212)" fill="#2B365A"/>
<rect x="1261.66" y="514.062" width="13.9705" height="4.87305" transform="rotate(-90 1261.66 514.062)" fill="#2B365A"/>
<rect x="1261.66" y="609.754" width="11.9204" height="4.87305" transform="rotate(-90 1261.66 609.754)" fill="#2B365A"/>
<rect x="1261.66" y="452.626" width="5.85529" height="4.87305" transform="rotate(-90 1261.66 452.626)" fill="#2B365A"/>
<rect x="1261.66" y="535.975" width="5.85529" height="4.87305" transform="rotate(-90 1261.66 535.975)" fill="#2B365A"/>
<rect x="289.426" y="704.879" width="234.011" height="4.87305" transform="rotate(-90 289.426 704.879)" fill="#2B365A"/>
<rect x="452.646" y="27.375" width="17.8145" height="4.87305" transform="rotate(-90 452.646 27.375)" fill="#2B365A"/>
<rect x="601.356" y="13.209" width="12.6797" height="43.1914" transform="rotate(-90 601.356 13.209)" fill="#2B365A"/>
<rect x="180.806" y="13.209" width="12.6797" height="8.87305" transform="rotate(-90 180.806 13.209)" fill="#2B365A"/>
<rect x="120.866" y="13.209" width="12.6797" height="59.9395" transform="rotate(-90 120.866 13.209)" fill="#8B98C4"/>
<rect x="0.118164" y="36.7266" width="12.6797" height="46.8887" fill="#8B98C4"/>
<rect x="0.118164" y="441.684" width="12.6797" height="49.9941" fill="#8B98C4"/>
<rect x="189.679" y="13.209" width="12.6797" height="59.9395" transform="rotate(-90 189.679 13.209)" fill="#8B98C4"/>
<rect x="296.382" y="13.209" width="12.6797" height="51.1055" transform="rotate(-90 296.382 13.209)" fill="#8B98C4"/>
<rect x="369.964" y="13.209" width="12.6797" height="73.8086" transform="rotate(-90 369.964 13.209)" fill="#8B98C4"/>
<rect x="478.409" y="13.209" width="12.6797" height="29.0879" transform="rotate(-90 478.409 13.209)" fill="#8B98C4"/>
<rect x="527.257" y="13.209" width="12.6797" height="74.0996" transform="rotate(-90 527.257 13.209)" fill="#8B98C4"/>
<rect x="507.497" y="13.209" width="12.6797" height="19.7598" transform="rotate(-90 507.497 13.209)" fill="#2B365A"/>
<rect x="357.284" y="11.4258" width="12.6797" height="186.559" fill="#2B365A"/>
<rect x="651.708" y="719.377" width="12.6797" height="52.4883" transform="rotate(-90 651.708 719.377)" fill="#8B98C3"/>
<rect x="732.794" y="719.377" width="12.6797" height="52.4883" transform="rotate(-90 732.794 719.377)" fill="#8B98C3"/>
<rect x="783.972" y="719.377" width="12.6797" height="33.9512" transform="rotate(-90 783.972 719.377)" fill="#2B365A"/>
<rect x="704.196" y="719.377" width="12.6797" height="28.5977" transform="rotate(-90 704.196 719.377)" fill="#2B365A"/>
<rect x="792.599" y="719.377" width="26.1875" height="19.6719" transform="rotate(-90 792.599 719.377)" fill="#2B365A"/>
<rect x="996.192" y="719.377" width="12.6797" height="52.4883" transform="rotate(-90 996.192 719.377)" fill="#8B98C3"/>
<rect x="1084.45" y="719.377" width="12.6797" height="52.4883" transform="rotate(-90 1084.45 719.377)" fill="#8B98C3"/>
<rect x="1048.68" y="719.377" width="12.6797" height="35.7695" transform="rotate(-90 1048.68 719.377)" fill="#2B365A"/>
<rect x="285.045" y="425.869" width="5.4707" height="4.87305" transform="rotate(90 285.045 425.869)" fill="#2B365A"/>
<rect x="302.45" y="475.742" width="33.9683" height="4.87305" transform="rotate(180 302.45 475.742)" fill="#2B365A"/>
<rect x="325.983" y="475.742" width="23.495" height="4.87305" transform="rotate(180 325.983 475.742)" fill="#C7D1F1"/>
<path d="M1252.49 428.28C1252.49 425.766 1254.53 423.729 1257.04 423.729C1259.56 423.729 1261.59 425.766 1261.59 428.28V433.864C1261.59 434.692 1260.92 435.364 1260.09 435.364H1253.99C1253.16 435.364 1252.49 434.692 1252.49 433.864V428.28Z" fill="#F3F6FF" stroke="#8A8A8A"/>
<path d="M1252.49 435.917C1252.49 435.641 1252.71 435.417 1252.99 435.417H1261.09C1261.37 435.417 1261.59 435.641 1261.59 435.917V436.7C1261.59 436.976 1261.37 437.2 1261.09 437.2H1252.99C1252.71 437.2 1252.49 436.976 1252.49 436.7V435.917Z" fill="#F3F6FF" stroke="#8A8A8A"/>
<path d="M1251.45 439.721C1251.45 438.34 1252.57 437.221 1253.95 437.221H1260.13C1261.51 437.221 1262.63 438.34 1262.63 439.721V441.041C1262.63 441.869 1261.96 442.541 1261.13 442.541H1252.95C1252.12 442.541 1251.45 441.869 1251.45 441.041V439.721Z" fill="#F3F6FF" stroke="#8A8A8A"/>
<circle cx="1257.04" cy="439.88" r="0.5" fill="#D9D9D9" stroke="#8A8A8A" stroke-width="0.534302"/>
<path d="M1222.63 428.28C1222.63 425.767 1224.67 423.729 1227.18 423.729C1229.69 423.729 1231.73 425.767 1231.73 428.28V433.864C1231.73 434.693 1231.06 435.364 1230.23 435.364H1224.13C1223.3 435.364 1222.63 434.693 1222.63 433.864V428.28Z" fill="#F3F6FF" stroke="#8A8A8A"/>
<path d="M1222.63 435.917C1222.63 435.641 1222.85 435.417 1223.13 435.417H1231.23C1231.51 435.417 1231.73 435.641 1231.73 435.917V436.701C1231.73 436.977 1231.51 437.201 1231.23 437.201H1223.13C1222.85 437.201 1222.63 436.977 1222.63 436.701V435.917Z" fill="#F3F6FF" stroke="#8A8A8A"/>
<path d="M1221.59 439.722C1221.59 438.341 1222.71 437.222 1224.09 437.222H1230.27C1231.65 437.222 1232.77 438.341 1232.77 439.722V441.041C1232.77 441.869 1232.1 442.541 1231.27 442.541H1223.09C1222.26 442.541 1221.59 441.869 1221.59 441.041V439.722Z" fill="#F3F6FF" stroke="#8A8A8A"/>
<circle cx="1227.18" cy="439.881" r="0.5" fill="#D9D9D9" stroke="#8A8A8A" stroke-width="0.534302"/>
<path d="M1232.18 458.717C1234.69 458.717 1236.73 460.754 1236.73 463.268C1236.73 465.782 1234.69 467.819 1232.18 467.819L1226.6 467.819C1225.77 467.819 1225.1 467.148 1225.1 466.319L1225.1 460.217C1225.1 459.388 1225.77 458.717 1226.6 458.717L1232.18 458.717Z" fill="#F3F6FF" stroke="#8A8A8A"/>
<path d="M1224.54 458.717C1224.82 458.717 1225.04 458.941 1225.04 459.217L1225.04 467.319C1225.04 467.596 1224.82 467.819 1224.54 467.819L1223.76 467.819C1223.48 467.819 1223.26 467.596 1223.26 467.319L1223.26 459.217C1223.26 458.941 1223.48 458.717 1223.76 458.717L1224.54 458.717Z" fill="#F3F6FF" stroke="#8A8A8A"/>
<path d="M1220.74 457.677C1222.12 457.677 1223.24 458.796 1223.24 460.177L1223.24 466.359C1223.24 467.74 1222.12 468.859 1220.74 468.859L1219.42 468.859C1218.59 468.859 1217.92 468.188 1217.92 467.359L1217.92 459.177C1217.92 458.348 1218.59 457.677 1219.42 457.677L1220.74 457.677Z" fill="#F3F6FF" stroke="#8A8A8A"/>
<circle cx="1220.58" cy="463.268" r="0.5" transform="rotate(90 1220.58 463.268)" fill="#D9D9D9" stroke="#8A8A8A" stroke-width="0.534302"/>
<path d="M1232.18 488.024C1234.69 488.024 1236.73 490.062 1236.73 492.575C1236.73 495.089 1234.69 497.127 1232.18 497.127L1226.6 497.127C1225.77 497.127 1225.1 496.455 1225.1 495.627L1225.1 489.524C1225.1 488.695 1225.77 488.024 1226.6 488.024L1232.18 488.024Z" fill="#F3F6FF" stroke="#8A8A8A"/>
<path d="M1224.54 488.024C1224.82 488.024 1225.04 488.248 1225.04 488.524L1225.04 496.627C1225.04 496.903 1224.82 497.127 1224.54 497.127L1223.76 497.127C1223.48 497.127 1223.26 496.903 1223.26 496.627L1223.26 488.524C1223.26 488.248 1223.48 488.024 1223.76 488.024L1224.54 488.024Z" fill="#F3F6FF" stroke="#8A8A8A"/>
<path d="M1220.74 486.984C1222.12 486.984 1223.24 488.103 1223.24 489.484L1223.24 495.666C1223.24 497.047 1222.12 498.166 1220.74 498.166L1219.42 498.166C1218.59 498.166 1217.92 497.495 1217.92 496.666L1217.92 488.484C1217.92 487.655 1218.59 486.984 1219.42 486.984L1220.74 486.984Z" fill="#F3F6FF" stroke="#8A8A8A"/>
<circle cx="1220.58" cy="492.575" r="0.5" transform="rotate(90 1220.58 492.575)" fill="#D9D9D9" stroke="#8A8A8A" stroke-width="0.534302"/>
<path d="M1232.18 517.332C1234.69 517.332 1236.73 519.369 1236.73 521.883C1236.73 524.397 1234.69 526.434 1232.18 526.434L1226.6 526.434C1225.77 526.434 1225.1 525.763 1225.1 524.934L1225.1 518.832C1225.1 518.003 1225.77 517.332 1226.6 517.332L1232.18 517.332Z" fill="#F3F6FF" stroke="#8A8A8A"/>
<path d="M1224.54 517.332C1224.82 517.332 1225.04 517.555 1225.04 517.832L1225.04 525.934C1225.04 526.21 1224.82 526.434 1224.54 526.434L1223.76 526.434C1223.48 526.434 1223.26 526.21 1223.26 525.934L1223.26 517.832C1223.26 517.555 1223.48 517.332 1223.76 517.332L1224.54 517.332Z" fill="#F3F6FF" stroke="#8A8A8A"/>
<path d="M1220.74 516.292C1222.12 516.292 1223.24 517.411 1223.24 518.792L1223.24 524.974C1223.24 526.355 1222.12 527.474 1220.74 527.474L1219.42 527.474C1218.59 527.474 1217.92 526.802 1217.92 525.974L1217.92 517.792C1217.92 516.963 1218.59 516.292 1219.42 516.292L1220.74 516.292Z" fill="#F3F6FF" stroke="#8A8A8A"/>
<circle cx="1220.58" cy="521.883" r="0.5" transform="rotate(90 1220.58 521.883)" fill="#D9D9D9" stroke="#8A8A8A" stroke-width="0.534302"/>
<rect x="1080.3" y="590.049" width="60.3231" height="2.15479" fill="#C7D1F1"/>
<rect x="1106.42" y="590.049" width="8.08436" height="106.746" fill="#C7D1F1"/>
<rect x="1080.3" y="598.851" width="60.3231" height="2.15479" fill="#C7D1F1"/>
<rect x="1080.3" y="607.653" width="60.3231" height="2.15479" fill="#C7D1F1"/>
<rect x="1080.3" y="616.455" width="60.3231" height="2.15479" fill="#C7D1F1"/>
<rect x="1080.3" y="625.256" width="60.3231" height="2.15479" fill="#C7D1F1"/>
<rect x="1080.3" y="634.058" width="60.3231" height="2.15479" fill="#C7D1F1"/>
<rect x="1080.3" y="642.86" width="60.3231" height="2.15479" fill="#C7D1F1"/>
<rect x="1080.3" y="651.662" width="60.3231" height="2.15479" fill="#C7D1F1"/>
<rect x="1080.3" y="660.463" width="60.3231" height="2.15479" fill="#C7D1F1"/>
<rect x="1080.3" y="669.265" width="60.3231" height="2.15479" fill="#C7D1F1"/>
<rect x="1080.3" y="678.067" width="60.3231" height="2.15479" fill="#C7D1F1"/>
<rect x="1080.3" y="686.869" width="60.3231" height="2.15479" fill="#C7D1F1"/>
<rect x="1080.3" y="695.67" width="60.3231" height="2.15479" fill="#C7D1F1"/>
<rect x="377.956" y="71.918" width="66.688" height="2.15479" fill="#C7D1F1"/>
<rect x="406.832" y="71.918" width="8.93737" height="106.746" fill="#C7D1F1"/>
<rect x="377.956" y="80.7197" width="66.688" height="2.15479" fill="#C7D1F1"/>
<rect x="377.956" y="89.5215" width="66.688" height="2.15479" fill="#C7D1F1"/>
<rect x="377.956" y="98.3232" width="66.688" height="2.15479" fill="#C7D1F1"/>
<rect x="377.956" y="107.125" width="66.688" height="2.15479" fill="#C7D1F1"/>
<rect x="377.956" y="115.927" width="66.688" height="2.15479" fill="#C7D1F1"/>
<rect x="377.956" y="124.729" width="66.688" height="2.15479" fill="#C7D1F1"/>
<rect x="377.956" y="133.53" width="66.688" height="2.15479" fill="#C7D1F1"/>
<rect x="377.956" y="142.332" width="66.688" height="2.15479" fill="#C7D1F1"/>
<rect x="377.956" y="151.134" width="66.688" height="2.15479" fill="#C7D1F1"/>
<rect x="377.956" y="159.936" width="66.688" height="2.15479" fill="#C7D1F1"/>
<rect x="377.956" y="168.737" width="66.688" height="2.15479" fill="#C7D1F1"/>
<rect x="377.956" y="177.539" width="66.688" height="2.15479" fill="#C7D1F1"/>
<path d="M1278.62 435.973C1278.62 432.76 1281.22 430.155 1284.44 430.155H1301.49C1304.71 430.155 1307.31 432.76 1307.31 435.973V441.041C1307.31 441.869 1306.64 442.541 1305.81 442.541H1280.12C1279.29 442.541 1278.62 441.869 1278.62 441.041V435.973Z" fill="#F3F6FF" stroke="#8A8A8A"/>
<path d="M1280.91 437.925C1280.91 434.735 1283.5 432.148 1286.69 432.148C1289.88 432.148 1292.46 434.735 1292.46 437.925V438.629C1292.46 439.458 1291.79 440.129 1290.96 440.129H1282.41C1281.58 440.129 1280.91 439.458 1280.91 438.629V437.925Z" fill="#F3F6FF" stroke="#8A8A8A"/>
<path d="M1285.87 437.387C1285.87 436.933 1286.23 436.565 1286.69 436.565C1287.14 436.565 1287.51 436.933 1287.51 437.387V441.72C1287.51 442.173 1287.14 442.541 1286.69 442.541C1286.23 442.541 1285.87 442.173 1285.87 441.72V437.387Z" fill="#F3F6FF" stroke="#8A8A8A"/>
<path d="M1293.46 437.925C1293.46 434.735 1296.05 432.148 1299.24 432.148C1302.43 432.148 1305.02 434.735 1305.02 437.925V438.629C1305.02 439.458 1304.35 440.129 1303.52 440.129H1294.96C1294.14 440.129 1293.46 439.458 1293.46 438.629V437.925Z" fill="#F3F6FF" stroke="#8A8A8A"/>
<path d="M1298.42 437.387C1298.42 436.933 1298.79 436.565 1299.24 436.565C1299.69 436.565 1300.06 436.933 1300.06 437.387V441.72C1300.06 442.173 1299.69 442.541 1299.24 442.541C1298.79 442.541 1298.42 442.173 1298.42 441.72V437.387Z" fill="#F3F6FF" stroke="#8A8A8A"/>
<path d="M1233.77 547.385C1233.77 550.598 1231.17 553.203 1227.95 553.203L1223.48 553.203C1220.27 553.203 1217.66 550.598 1217.66 547.385L1217.66 542.317C1217.66 541.488 1218.33 540.817 1219.16 540.817L1232.27 540.817C1233.1 540.817 1233.77 541.488 1233.77 542.317L1233.77 547.385Z" fill="#F3F6FF" stroke="#8A8A8A"/>
<path d="M1231.49 545.433C1231.49 548.623 1228.91 551.209 1225.72 551.209C1222.53 551.209 1219.94 548.623 1219.94 545.433L1219.94 544.729C1219.94 543.9 1220.61 543.229 1221.44 543.229L1229.99 543.229C1230.82 543.229 1231.49 543.9 1231.49 544.729L1231.49 545.433Z" fill="#F3F6FF" stroke="#8A8A8A"/>
<path d="M1226.54 545.971C1226.54 546.425 1226.17 546.792 1225.72 546.792C1225.26 546.792 1224.9 546.425 1224.9 545.971L1224.9 541.638C1224.9 541.185 1225.26 540.817 1225.72 540.817C1226.17 540.817 1226.54 541.185 1226.54 541.638L1226.54 545.971Z" fill="#F3F6FF" stroke="#8A8A8A"/>
<path d="M1251.59 547.385C1251.59 550.598 1248.99 553.203 1245.77 553.203L1241.3 553.203C1238.09 553.203 1235.48 550.598 1235.48 547.385L1235.48 542.317C1235.48 541.488 1236.15 540.817 1236.98 540.817L1250.09 540.817C1250.92 540.817 1251.59 541.488 1251.59 542.317L1251.59 547.385Z" fill="#F3F6FF" stroke="#8A8A8A"/>
<path d="M1249.31 545.433C1249.31 548.623 1246.73 551.209 1243.54 551.209C1240.35 551.209 1237.76 548.623 1237.76 545.433L1237.76 544.729C1237.76 543.9 1238.43 543.229 1239.26 543.229L1247.81 543.229C1248.64 543.229 1249.31 543.9 1249.31 544.729L1249.31 545.433Z" fill="#F3F6FF" stroke="#8A8A8A"/>
<path d="M1244.36 545.971C1244.36 546.425 1243.99 546.792 1243.54 546.792C1243.08 546.792 1242.72 546.425 1242.72 545.971L1242.72 541.638C1242.72 541.185 1243.08 540.817 1243.54 540.817C1243.99 540.817 1244.36 541.185 1244.36 541.638L1244.36 545.971Z" fill="#F3F6FF" stroke="#8A8A8A"/>
<path d="M1269.41 547.385C1269.41 550.598 1266.81 553.203 1263.59 553.203L1259.12 553.203C1255.91 553.203 1253.3 550.598 1253.3 547.385L1253.3 542.317C1253.3 541.488 1253.97 540.817 1254.8 540.817L1267.91 540.817C1268.74 540.817 1269.41 541.488 1269.41 542.317L1269.41 547.385Z" fill="#F3F6FF" stroke="#8A8A8A"/>
<path d="M1267.13 545.433C1267.13 548.623 1264.55 551.209 1261.36 551.209C1258.17 551.209 1255.58 548.623 1255.58 545.433L1255.58 544.729C1255.58 543.9 1256.25 543.229 1257.08 543.229L1265.63 543.229C1266.46 543.229 1267.13 543.9 1267.13 544.729L1267.13 545.433Z" fill="#F3F6FF" stroke="#8A8A8A"/>
<path d="M1262.18 545.971C1262.18 546.425 1261.81 546.792 1261.36 546.792C1260.9 546.792 1260.54 546.425 1260.54 545.971L1260.54 541.638C1260.54 541.185 1260.9 540.817 1261.36 540.817C1261.81 540.817 1262.18 541.185 1262.18 541.638L1262.18 545.971Z" fill="#F3F6FF" stroke="#8A8A8A"/>
</svg>
