<svg width="1328" height="720" viewBox="0 0 1328 720" fill="none" xmlns="http://www.w3.org/2000/svg">
<rect x="236.368" y="357.645" width="22.7997" height="4.87305" transform="rotate(180 236.368 357.645)" fill="#C7D1F1"/>
<rect x="498.157" y="197.857" width="35.5767" height="4.87305" transform="rotate(180 498.157 197.857)" fill="#C7D1F1"/>
<rect x="506.85" y="165.828" width="24.7739" height="4.87305" transform="rotate(-90 506.85 165.828)" fill="#C7D1F1"/>
<rect x="450.209" y="49.7085" width="24.7739" height="4.87305" transform="rotate(-90 450.209 49.7085)" fill="#C7D1F1"/>
<rect x="322.593" y="425.404" width="22.7997" height="4.87305" transform="rotate(180 322.593 425.404)" fill="#C7D1F1"/>
<rect x="493.336" y="425.404" width="22.7997" height="4.87305" transform="rotate(180 493.336 425.404)" fill="#C7D1F1"/>
<rect x="611.959" y="372.524" width="48.2359" height="4.87305" transform="rotate(180 611.959 372.524)" fill="#C7D1F1"/>
<rect x="1055.9" y="425.404" width="23.0243" height="4.87305" transform="rotate(180 1055.9 425.404)" fill="#C7D1F1"/>
<rect x="1103.51" y="400.572" width="28.5243" height="4.87305" transform="rotate(-90 1103.51 400.572)" fill="#C7D1F1"/>
<rect x="1210.97" y="392.609" width="31.1283" height="4.87305" transform="rotate(-90 1210.97 392.609)" fill="#C7D1F1"/>
<rect x="1210.97" y="265.703" width="31.1283" height="4.87305" transform="rotate(-90 1210.97 265.703)" fill="#C7D1F1"/>
<rect x="1219.67" y="397.136" width="20.7327" height="4.87305" fill="#C7D1F1"/>
<rect x="1248.96" y="397.136" width="20.7327" height="4.87305" fill="#C7D1F1"/>
<rect x="1266.26" y="457.665" width="20.7327" height="4.87305" transform="rotate(90 1266.26 457.665)" fill="#C7D1F1"/>
<rect x="1266.26" y="485.648" width="20.7327" height="4.87305" transform="rotate(90 1266.26 485.648)" fill="#C7D1F1"/>
<rect x="1266.26" y="510.284" width="20.7327" height="4.87305" transform="rotate(90 1266.26 510.284)" fill="#C7D1F1"/>
<rect x="1303" y="645.919" width="43.0396" height="43.4082" transform="rotate(90 1303 645.919)" fill="#C7D1F1"/>
<rect x="1215.84" y="553.29" width="29.6035" height="4.87305" transform="rotate(90 1215.84 553.29)" fill="#C7D1F1"/>
<rect x="1266.53" y="606.434" width="22.2119" height="4.87305" transform="rotate(90 1266.53 606.434)" fill="#C7D1F1"/>
<rect x="1094.69" y="425.404" width="23.0243" height="4.87305" transform="rotate(180 1094.69 425.404)" fill="#C7D1F1"/>
<rect x="316.191" y="476.807" width="26.7292" height="4.87305" transform="rotate(180 316.191 476.807)" fill="#C7D1F1"/>
<rect x="446.754" y="476.807" width="26.7292" height="4.87305" transform="rotate(180 446.754 476.807)" fill="#C7D1F1"/>
<rect x="534.641" y="476.807" width="26.7292" height="4.87305" transform="rotate(180 534.641 476.807)" fill="#C7D1F1"/>
<rect x="575.692" y="476.807" width="26.7292" height="4.87305" transform="rotate(180 575.692 476.807)" fill="#C7D1F1"/>
<rect x="710.83" y="476.807" width="26.7292" height="4.87305" transform="rotate(180 710.83 476.807)" fill="#C7D1F1"/>
<rect x="753.621" y="476.807" width="26.7292" height="4.87305" transform="rotate(180 753.621 476.807)" fill="#C7D1F1"/>
<rect x="885.099" y="476.807" width="26.7292" height="4.87305" transform="rotate(180 885.099 476.807)" fill="#C7D1F1"/>
<rect x="926.75" y="476.807" width="26.7292" height="4.87305" transform="rotate(180 926.75 476.807)" fill="#C7D1F1"/>
<rect x="1058.74" y="476.807" width="26.7292" height="4.87305" transform="rotate(180 1058.74 476.807)" fill="#C7D1F1"/>
<rect x="1132.28" y="520.129" width="49.8284" height="4.87305" transform="rotate(180 1132.28 520.129)" fill="#C7D1F1"/>
<rect x="753.621" y="425.404" width="26.7292" height="4.87305" transform="rotate(180 753.621 425.404)" fill="#C7D1F1"/>
<rect x="709.092" y="425.404" width="26.7292" height="4.87305" transform="rotate(180 709.092 425.404)" fill="#C7D1F1"/>
<rect x="882.805" y="425.404" width="26.7292" height="4.87305" transform="rotate(180 882.805 425.404)" fill="#C7D1F1"/>
<rect x="926.743" y="425.404" width="26.7292" height="4.87305" transform="rotate(180 926.743 425.404)" fill="#C7D1F1"/>
<rect x="140.164" y="476.807" width="26.7292" height="4.87305" transform="rotate(180 140.164 476.807)" fill="#C7D1F1"/>
<rect x="104.938" y="417.757" width="22.7915" height="4.87305" transform="rotate(90 104.938 417.757)" fill="#C7D1F1"/>
<rect x="104.938" y="379.232" width="24.4546" height="4.87305" transform="rotate(90 104.938 379.232)" fill="#C7D1F1"/>
<rect x="182.85" y="357.645" width="23.3266" height="4.87305" transform="rotate(180 182.85 357.645)" fill="#C7D1F1"/>
<rect x="0.118164" y="83.6206" width="12.6797" height="358.068" fill="#2B365A"/>
<rect x="0.118164" y="490.541" width="12.6797" height="190.705" fill="#2B365A"/>
<rect x="92.2583" y="519.996" width="12.6797" height="193.047" fill="#2B365A"/>
<rect x="104.938" y="519.996" width="12.6797" height="97.8785" transform="rotate(90 104.938 519.996)" fill="#2B365A"/>
<rect x="0.118164" y="676.564" width="12.6797" height="42.8184" fill="#2B365A"/>
<rect x="7.05957" y="719.382" width="12.6797" height="129.244" transform="rotate(-90 7.05957 719.382)" fill="#2B365A"/>
<rect x="136.304" y="719.382" width="12.6797" height="52.7949" transform="rotate(-90 136.304 719.382)" fill="#8B98C3"/>
<rect x="309.267" y="719.382" width="12.6797" height="54.3281" transform="rotate(-90 309.267 719.382)" fill="#8B98C3"/>
<rect x="391.202" y="719.382" width="12.6797" height="50.9209" transform="rotate(-90 391.202 719.382)" fill="#8B98C3"/>
<rect x="476.67" y="719.382" width="12.6797" height="52.4883" transform="rotate(-90 476.67 719.382)" fill="#8B98C3"/>
<rect x="569.833" y="719.382" width="12.6797" height="47.9238" transform="rotate(-90 569.833 719.382)" fill="#8B98C3"/>
<rect x="805.438" y="719.382" width="12.6797" height="69.0332" transform="rotate(-90 805.438 719.382)" fill="#8B98C3"/>
<rect x="905.366" y="719.382" width="12.6797" height="39.4316" transform="rotate(-90 905.366 719.382)" fill="#8B98C3"/>
<rect x="360.134" y="719.382" width="12.6797" height="31.0683" transform="rotate(-90 360.134 719.382)" fill="#2B365A"/>
<rect x="188.798" y="719.382" width="12.6797" height="89.0898" transform="rotate(-90 188.798 719.382)" fill="#2B365A"/>
<rect x="442.123" y="719.382" width="12.6797" height="34.5469" transform="rotate(-90 442.123 719.382)" fill="#2B365A"/>
<rect x="274.72" y="719.382" width="12.6797" height="34.5469" transform="rotate(-90 274.72 719.382)" fill="#2B365A"/>
<rect x="529.158" y="719.382" width="12.6797" height="40.6758" transform="rotate(-90 529.158 719.382)" fill="#2B365A"/>
<rect x="617.757" y="719.382" width="12.6797" height="33.9512" transform="rotate(-90 617.757 719.382)" fill="#2B365A"/>
<rect x="874.472" y="719.382" width="12.6797" height="30.8945" transform="rotate(-90 874.472 719.382)" fill="#2B365A"/>
<rect x="944.798" y="719.382" width="12.6797" height="51.3945" transform="rotate(-90 944.798 719.382)" fill="#2B365A"/>
<rect x="0.118164" y="0.534668" width="12.6797" height="36.1973" fill="#2B365A"/>
<rect x="631.868" y="9.56592" width="12.6797" height="167.765" fill="#2B365A"/>
<rect x="615.723" y="147.691" width="12.6797" height="58.3037" fill="#2B365A"/>
<rect x="0.118164" y="13.2144" width="12.6797" height="120.748" transform="rotate(-90 0.118164 13.2144)" fill="#2B365A"/>
<rect x="642.39" y="177.332" width="12.6797" height="14.6836" transform="rotate(-90 642.39 177.332)" fill="#2B365A"/>
<rect x="644.798" y="177.332" width="12.6797" height="14.6836" transform="rotate(-90 644.798 177.332)" fill="#2B365A"/>
<rect x="1311.67" y="365.91" width="12.6797" height="14.8912" transform="rotate(-90 1311.67 365.91)" fill="#2B365A"/>
<rect x="700.036" y="177.332" width="12.6797" height="34.1191" transform="rotate(-90 700.036 177.332)" fill="#2B365A"/>
<rect x="787.038" y="177.332" width="12.6797" height="34.9375" transform="rotate(-90 787.038 177.332)" fill="#2B365A"/>
<rect x="872.794" y="177.332" width="12.6797" height="34.9375" transform="rotate(-90 872.794 177.332)" fill="#2B365A"/>
<rect x="94.793" y="367.651" width="12.6797" height="15.7298" transform="rotate(-90 94.793 367.651)" fill="#2B365A"/>
<rect x="1137.07" y="367.651" width="12.6797" height="17.4225" transform="rotate(-90 1137.07 367.651)" fill="#2B365A"/>
<rect x="952.411" y="177.332" width="12.6797" height="49.5391" transform="rotate(-90 952.411 177.332)" fill="#2B365A"/>
<rect x="964.569" y="191.75" width="27.0981" height="25.2231" transform="rotate(-90 964.569 191.75)" fill="#2B365A"/>
<rect x="1140.98" y="191.75" width="27.0981" height="15.6747" transform="rotate(-90 1140.98 191.75)" fill="#2B365A"/>
<rect x="796.798" y="191.75" width="27.0981" height="15.418" transform="rotate(-90 796.798 191.75)" fill="#2B365A"/>
<rect x="1033.65" y="177.332" width="12.6797" height="49.5391" transform="rotate(-90 1033.65 177.332)" fill="#2B365A"/>
<rect x="1127.17" y="177.332" width="12.6797" height="144.552" transform="rotate(-90 1127.17 177.332)" fill="#2B365A"/>
<rect x="1244.36" y="177.332" width="12.6797" height="57.5742" transform="rotate(-90 1244.36 177.332)" fill="#2B365A"/>
<rect x="1315.2" y="260.625" width="12.6797" height="121.089" fill="#2B365A"/>
<rect x="1315.2" y="173.691" width="12.6797" height="39.8965" fill="#2B365A"/>
<rect x="1315.2" y="433.813" width="12.6797" height="39.8965" fill="#2B365A"/>
<rect x="1315.2" y="516.699" width="12.6797" height="202.684" fill="#2B365A"/>
<rect x="1303" y="628.646" width="12.6797" height="90.7363" fill="#2B365A"/>
<rect x="1259.59" y="712.348" width="23.3896" height="68.293" transform="rotate(-90 1259.59 712.348)" fill="#2B365A"/>
<rect x="1259.59" y="646.39" width="17.7441" height="67.5703" transform="rotate(-90 1259.59 646.39)" fill="#2B365A"/>
<rect x="1136.94" y="719.382" width="12.6797" height="114.784" transform="rotate(-90 1136.94 719.382)" fill="#2B365A"/>
<rect x="1251.72" y="719.382" width="12.6797" height="61.5672" transform="rotate(-90 1251.72 719.382)" fill="#2B365A"/>
<rect x="657.073" y="177.332" width="12.6797" height="42.9629" transform="rotate(-90 657.073 177.332)" fill="#8B98C3"/>
<rect x="733.835" y="177.332" width="12.6797" height="53.2031" transform="rotate(-90 733.835 177.332)" fill="#8B98C3"/>
<rect x="821.976" y="177.332" width="12.6797" height="53.2031" transform="rotate(-90 821.976 177.332)" fill="#8B98C3"/>
<rect x="903.222" y="177.332" width="12.6797" height="53.2031" transform="rotate(-90 903.222 177.332)" fill="#8B98C3"/>
<rect x="996.979" y="177.332" width="12.6797" height="53.2031" transform="rotate(-90 996.979 177.332)" fill="#8B98C3"/>
<rect x="1078.23" y="177.332" width="12.6797" height="53.2031" transform="rotate(-90 1078.23 177.332)" fill="#8B98C3"/>
<rect x="1315.2" y="208.525" width="12.6797" height="52.0996" fill="#8B98C3"/>
<rect x="1315.2" y="381.713" width="12.6797" height="52.0996" fill="#8B98C3"/>
<rect x="1315.2" y="464.599" width="12.6797" height="52.0996" fill="#8B98C3"/>
<rect x="443.772" y="22.3296" width="21.7949" height="34.6367" transform="rotate(-90 443.772 22.3296)" fill="#2B365A"/>
<rect x="249.618" y="13.2144" width="12.6797" height="46.7637" transform="rotate(-90 249.618 13.2144)" fill="#2B365A"/>
<rect x="336.212" y="13.2144" width="12.6797" height="46.7637" transform="rotate(-90 336.212 13.2144)" fill="#2B365A"/>
<rect x="265.519" y="22.3296" width="21.7949" height="21.8613" transform="rotate(-90 265.519 22.3296)" fill="#2B365A"/>
<rect x="90.1318" y="22.3296" width="21.7949" height="21.8613" transform="rotate(-90 90.1318 22.3296)" fill="#2B365A"/>
<rect x="0.118164" y="22.3296" width="18.2324" height="26.4648" transform="rotate(-90 0.118164 22.3296)" fill="#2B365A"/>
<rect x="446.215" y="713.042" width="19.8477" height="26.3652" transform="rotate(-90 446.215 713.042)" fill="#2B365A"/>
<rect x="285.37" y="713.042" width="19.8477" height="13.248" transform="rotate(-90 285.37 713.042)" fill="#2B365A"/>
<rect x="93.4409" y="713.042" width="19.8477" height="19.4661" transform="rotate(-90 93.4409 713.042)" fill="#2B365A"/>
<rect x="1301.93" y="195.564" width="30.9121" height="25.9512" transform="rotate(-90 1301.93 195.564)" fill="#2B365A"/>
<rect x="373.231" y="715.555" width="241.185" height="4.87305" transform="rotate(-90 373.231 715.555)" fill="#2B365A"/>
<rect x="279.961" y="529.556" width="55.186" height="4.87305" transform="rotate(-90 279.961 529.556)" fill="#2B365A"/>
<rect x="100.065" y="524.837" width="84.2881" height="4.87305" transform="rotate(-90 100.065 524.837)" fill="#2B365A"/>
<rect x="100.065" y="418.251" width="14.5649" height="4.87305" transform="rotate(-90 100.065 418.251)" fill="#2B365A"/>
<rect x="100.065" y="379.232" width="21.5869" height="4.87305" transform="rotate(-90 100.065 379.232)" fill="#2B365A"/>
<rect x="265.644" y="425.404" width="70.1953" height="4.87305" transform="rotate(-90 265.644 425.404)" fill="#2B365A"/>
<rect x="383.733" y="425.404" width="45.3101" height="4.87305" transform="rotate(-90 383.733 425.404)" fill="#2B365A"/>
<rect x="544.623" y="425.404" width="83.0381" height="4.87305" transform="rotate(-90 544.623 425.404)" fill="#2B365A"/>
<rect x="285.727" y="384.967" width="29.7583" height="4.87305" transform="rotate(-90 285.727 384.967)" fill="#2B365A"/>
<rect x="467.673" y="384.967" width="40.5161" height="4.87305" transform="rotate(-90 467.673 384.967)" fill="#2B365A"/>
<rect x="285.727" y="380.094" width="184.809" height="4.87305" fill="#2B365A"/>
<rect x="299.793" y="352.772" width="16.1968" height="4.87305" transform="rotate(-90 299.793 352.772)" fill="#2B365A"/>
<rect x="450.644" y="347.239" width="10.6636" height="4.87305" transform="rotate(-90 450.644 347.239)" fill="#2B365A"/>
<rect x="461.075" y="715.555" width="241.185" height="4.87305" transform="rotate(-90 461.075 715.555)" fill="#2B365A"/>
<rect x="544.623" y="715.555" width="241.185" height="4.87305" transform="rotate(-90 544.623 715.555)" fill="#2B365A"/>
<rect x="718.495" y="715.555" width="241.185" height="4.87305" transform="rotate(-90 718.495 715.555)" fill="#2B365A"/>
<rect x="802.345" y="715.555" width="241.185" height="4.87305" transform="rotate(-90 802.345 715.555)" fill="#2B365A"/>
<rect x="887.482" y="715.555" width="241.185" height="4.87305" transform="rotate(-90 887.482 715.555)" fill="#2B365A"/>
<rect x="886.764" y="421.753" width="248.212" height="4.87305" transform="rotate(-90 886.764 421.753)" fill="#2B365A"/>
<rect x="974.266" y="421.753" width="248.212" height="4.87305" transform="rotate(-90 974.266 421.753)" fill="#2B365A"/>
<rect x="1059.84" y="430.862" width="75.8906" height="4.87305" transform="rotate(-90 1059.84 430.862)" fill="#2B365A"/>
<rect x="802.07" y="421.753" width="248.212" height="4.87305" transform="rotate(-90 802.07 421.753)" fill="#2B365A"/>
<rect x="717.469" y="421.753" width="248.212" height="4.87305" transform="rotate(-90 717.469 421.753)" fill="#2B365A"/>
<rect width="8.77588" height="4.87305" transform="matrix(4.37114e-08 1 1 -4.37114e-08 633.971 423.322)" fill="#2B365A"/>
<rect width="8.77588" height="4.87305" transform="matrix(4.37114e-08 1 1 -4.37114e-08 633.971 466.098)" fill="#2B365A"/>
<rect width="8.77588" height="4.87305" transform="matrix(4.37114e-08 1 1 -4.37114e-08 279.961 466.098)" fill="#2B365A"/>
<rect width="8.77588" height="4.87305" transform="matrix(4.37114e-08 1 1 -4.37114e-08 279.961 422.064)" fill="#2B365A"/>
<rect x="506.85" y="197.857" width="32.9507" height="4.87305" transform="rotate(-90 506.85 197.857)" fill="#2B365A"/>
<rect x="450.209" y="197.857" width="149.116" height="4.87305" transform="rotate(-90 450.209 197.857)" fill="#2B365A"/>
<rect x="354.721" y="336.575" width="327.894" height="4.87305" transform="rotate(-90 354.721 336.575)" fill="#2B365A"/>
<rect x="182.85" y="357.645" width="348.963" height="4.87305" transform="rotate(-90 182.85 357.645)" fill="#2B365A"/>
<rect x="498.157" y="192.984" width="128.696" height="4.87305" fill="#2B365A"/>
<rect x="626.853" y="421.753" width="274.062" height="5.09126" transform="rotate(-90 626.853 421.753)" fill="#2B365A"/>
<rect x="1061.08" y="715.555" width="248.277" height="4.87305" transform="rotate(-90 1061.08 715.555)" fill="#2B365A"/>
<rect x="1210.97" y="558.458" width="168.453" height="4.87305" transform="rotate(-90 1210.97 558.458)" fill="#2B365A"/>
<rect x="1210.97" y="604.056" width="21.1631" height="4.87305" transform="rotate(-90 1210.97 604.056)" fill="#2B365A"/>
<rect x="1148.5" y="714.555" width="199.298" height="11.7894" transform="rotate(-90 1148.5 714.555)" fill="#2B365A"/>
<rect x="1063.52" y="714.555" width="199.298" height="11.7894" transform="rotate(-90 1063.52 714.555)" fill="#2B365A"/>
<rect x="1152.52" y="524.779" width="25.9282" height="9.52277" transform="rotate(180 1152.52 524.779)" fill="#2B365A"/>
<rect x="1084.45" y="524.779" width="20.933" height="9.52277" transform="rotate(180 1084.45 524.779)" fill="#2B365A"/>
<rect x="983.792" y="693.195" width="26.1875" height="29.6055" transform="rotate(90 983.792 693.195)" fill="#2B365A"/>
<rect x="356.849" y="188.226" width="105.731" height="9.51514" fill="#2B365A"/>
<rect x="421.86" y="476.807" width="106.343" height="4.87305" transform="rotate(180 421.86 476.807)" fill="#2B365A"/>
<rect x="290.6" y="476.807" width="152.398" height="4.87305" transform="rotate(180 290.6 476.807)" fill="#2B365A"/>
<rect x="113.435" y="476.807" width="10.9334" height="4.87305" transform="rotate(180 113.435 476.807)" fill="#2B365A"/>
<rect x="102.501" y="413.406" width="91.6508" height="4.87305" transform="rotate(180 102.501 413.406)" fill="#2B365A"/>
<rect x="159.523" y="357.645" width="159.405" height="4.87305" transform="rotate(180 159.523 357.645)" fill="#2B365A"/>
<rect x="213.568" y="357.645" width="29.4636" height="4.87305" transform="rotate(180 213.568 357.645)" fill="#2B365A"/>
<rect x="301.588" y="425.404" width="33.5077" height="4.87305" transform="rotate(180 301.588 425.404)" fill="#2B365A"/>
<rect x="549.496" y="425.404" width="56.4382" height="4.87305" transform="rotate(180 549.496 425.404)" fill="#2B365A"/>
<rect x="686.165" y="425.404" width="59.3127" height="4.87305" transform="rotate(180 686.165 425.404)" fill="#2B365A"/>
<rect x="726.892" y="425.404" width="17.7996" height="4.87305" transform="rotate(180 726.892 425.404)" fill="#2B365A"/>
<rect x="860.761" y="425.404" width="109.224" height="4.87305" transform="rotate(180 860.761 425.404)" fill="#2B365A"/>
<rect x="903.087" y="425.404" width="20.2814" height="4.87305" transform="rotate(180 903.087 425.404)" fill="#2B365A"/>
<rect x="1033.3" y="425.404" width="108.167" height="4.87305" transform="rotate(180 1033.3 425.404)" fill="#2B365A"/>
<rect x="1156.93" y="425.404" width="62.2453" height="4.87305" transform="rotate(180 1156.93 425.404)" fill="#2B365A"/>
<rect x="1156.93" y="359.844" width="97.0889" height="4.87305" transform="rotate(180 1156.93 359.844)" fill="#2B365A"/>
<rect x="1315.2" y="362.473" width="101.798" height="4.87305" transform="rotate(180 1315.2 362.473)" fill="#2B365A"/>
<rect x="1285.49" y="380.418" width="22.8184" height="4.87305" transform="rotate(-90 1285.49 380.418)" fill="#2B365A"/>
<rect x="1248.96" y="402.009" width="12.2358" height="4.87305" transform="rotate(180 1248.96 402.009)" fill="#2B365A"/>
<rect x="1261.39" y="486.952" width="12.2358" height="4.87305" transform="rotate(-90 1261.39 486.952)" fill="#2B365A"/>
<rect x="1261.39" y="461.124" width="12.2358" height="4.87305" transform="rotate(-90 1261.39 461.124)" fill="#2B365A"/>
<rect x="1261.39" y="515.329" width="12.2358" height="4.87305" transform="rotate(-90 1261.39 515.329)" fill="#2B365A"/>
<rect x="1261.39" y="540.024" width="12.2358" height="4.87305" transform="rotate(-90 1261.39 540.024)" fill="#2B365A"/>
<rect x="1274.72" y="402.009" width="8.91608" height="4.87305" transform="rotate(180 1274.72 402.009)" fill="#2B365A"/>
<rect x="1219.88" y="402.009" width="8.91608" height="4.87305" transform="rotate(180 1219.88 402.009)" fill="#2B365A"/>
<rect x="1315.2" y="453.761" width="101.798" height="4.87305" transform="rotate(180 1315.2 453.761)" fill="#2B365A"/>
<rect x="1277.92" y="540.024" width="64.5118" height="4.87305" transform="rotate(180 1277.92 540.024)" fill="#2B365A"/>
<rect x="1318.27" y="604.056" width="104.867" height="4.87305" transform="rotate(180 1318.27 604.056)" fill="#2B365A"/>
<rect x="1327.88" y="548.832" width="27.752" height="13.6812" transform="rotate(180 1327.88 548.832)" fill="#2B365A"/>
<rect x="1152.06" y="422.967" width="252.088" height="4.87305" transform="rotate(-90 1152.06 422.967)" fill="#2B365A"/>
<rect x="1210.97" y="362.473" width="101.849" height="4.87305" transform="rotate(-90 1210.97 362.473)" fill="#2B365A"/>
<rect x="1240.41" y="451.325" width="49.3154" height="4.87305" transform="rotate(-90 1240.41 451.325)" fill="#2B365A"/>
<rect x="1214.99" y="478.397" width="49.3154" height="4.87305" fill="#2B365A"/>
<rect x="1214.99" y="506.774" width="49.3154" height="4.87305" fill="#2B365A"/>
<rect x="1269.84" y="451.325" width="49.3154" height="4.87305" transform="rotate(-90 1269.84 451.325)" fill="#2B365A"/>
<rect x="1210.97" y="237.657" width="21.1157" height="4.87305" transform="rotate(-90 1210.97 237.657)" fill="#2B365A"/>
<rect x="1247.89" y="203.251" width="29.7104" height="4.87305" transform="rotate(-90 1247.89 203.251)" fill="#2B365A"/>
<rect x="1212.22" y="216.542" width="24.3392" height="4.87305" fill="#2B365A"/>
<rect x="1232.92" y="218.169" width="24.3392" height="4.87305" transform="rotate(-48.2482 1232.92 218.169)" fill="#2B365A"/>
<rect x="563.723" y="372.524" width="19.1001" height="4.87305" transform="rotate(180 563.723 372.524)" fill="#2B365A"/>
<rect x="629.289" y="372.524" width="19.1001" height="4.87305" transform="rotate(180 629.289 372.524)" fill="#2B365A"/>
<rect x="472.546" y="425.404" width="152.32" height="4.87305" transform="rotate(180 472.546 425.404)" fill="#2B365A"/>
<rect x="304.667" y="357.645" width="68.2986" height="4.87305" transform="rotate(180 304.667 357.645)" fill="#2B365A"/>
<rect x="549.496" y="347.239" width="98.8517" height="4.87305" transform="rotate(180 549.496 347.239)" fill="#2B365A"/>
<rect x="455.517" y="339.012" width="155.724" height="4.87305" transform="rotate(180 455.517 339.012)" fill="#2B365A"/>
<rect x="509.812" y="476.807" width="65.7612" height="4.87305" transform="rotate(180 509.812 476.807)" fill="#2B365A"/>
<rect x="549.496" y="476.807" width="16.7674" height="4.87305" transform="rotate(180 549.496 476.807)" fill="#2B365A"/>
<rect x="686.165" y="476.807" width="113.752" height="4.87305" transform="rotate(180 686.165 476.807)" fill="#2B365A"/>
<rect x="729.475" y="476.807" width="20.3831" height="4.87305" transform="rotate(180 729.475 476.807)" fill="#2B365A"/>
<rect x="860.761" y="476.807" width="110.224" height="4.87305" transform="rotate(180 860.761 476.807)" fill="#2B365A"/>
<rect x="903.087" y="476.807" width="20.2813" height="4.87305" transform="rotate(180 903.087 476.807)" fill="#2B365A"/>
<rect x="1033.3" y="476.807" width="108.167" height="4.87305" transform="rotate(180 1033.3 476.807)" fill="#2B365A"/>
<rect x="1062.28" y="425.404" width="7.07806" height="4.87305" transform="rotate(180 1062.28 425.404)" fill="#2B365A"/>
<rect x="1071.49" y="425.404" width="7.86963" height="4.87305" transform="rotate(180 1071.49 425.404)" fill="#2B365A"/>
<rect x="1108.39" y="398.573" width="24.394" height="4.87305" transform="rotate(90 1108.39 398.573)" fill="#2B365A"/>
<rect x="1121.11" y="386.41" width="30.9808" height="4.87305" fill="#2B365A"/>
<rect x="1108.39" y="358.97" width="16.6543" height="4.87305" transform="rotate(90 1108.39 358.97)" fill="#2B365A"/>
<rect x="1065.95" y="476.807" width="8.84686" height="4.87305" transform="rotate(180 1065.95 476.807)" fill="#2B365A"/>
<rect x="1261.66" y="612.53" width="13.3467" height="4.87305" transform="rotate(-90 1261.66 612.53)" fill="#2B365A"/>
<rect x="450.209" y="27.6626" width="18.0967" height="4.87305" transform="rotate(-90 450.209 27.6626)" fill="#2B365A"/>
<rect x="601.356" y="13.2144" width="12.6797" height="43.1914" transform="rotate(-90 601.356 13.2144)" fill="#2B365A"/>
<rect x="180.806" y="13.2144" width="12.6797" height="8.87305" transform="rotate(-90 180.806 13.2144)" fill="#2B365A"/>
<rect x="120.866" y="13.2144" width="12.6797" height="59.9395" transform="rotate(-90 120.866 13.2144)" fill="#8B98C4"/>
<rect x="0.118164" y="36.7319" width="12.6797" height="46.8887" fill="#8B98C4"/>
<rect x="0.118164" y="441.689" width="12.6797" height="49.9941" fill="#8B98C4"/>
<rect x="189.679" y="13.2144" width="12.6797" height="59.9395" transform="rotate(-90 189.679 13.2144)" fill="#8B98C4"/>
<rect x="296.382" y="13.2144" width="12.6797" height="51.1055" transform="rotate(-90 296.382 13.2144)" fill="#8B98C4"/>
<rect x="369.964" y="13.2144" width="12.6797" height="73.8086" transform="rotate(-90 369.964 13.2144)" fill="#8B98C4"/>
<rect x="478.409" y="13.2144" width="12.6797" height="29.0879" transform="rotate(-90 478.409 13.2144)" fill="#8B98C4"/>
<rect x="527.257" y="13.2144" width="12.6797" height="74.0996" transform="rotate(-90 527.257 13.2144)" fill="#8B98C4"/>
<rect x="507.497" y="13.2144" width="12.6797" height="19.7598" transform="rotate(-90 507.497 13.2144)" fill="#2B365A"/>
<rect x="651.708" y="719.382" width="12.6797" height="52.4883" transform="rotate(-90 651.708 719.382)" fill="#8B98C3"/>
<rect x="732.794" y="719.382" width="12.6797" height="52.4883" transform="rotate(-90 732.794 719.382)" fill="#8B98C3"/>
<rect x="783.972" y="719.382" width="12.6797" height="33.9512" transform="rotate(-90 783.972 719.382)" fill="#2B365A"/>
<rect x="704.196" y="719.382" width="12.6797" height="28.5977" transform="rotate(-90 704.196 719.382)" fill="#2B365A"/>
<rect x="792.599" y="719.382" width="26.1875" height="19.6719" transform="rotate(-90 792.599 719.382)" fill="#2B365A"/>
<rect x="996.192" y="719.382" width="12.6797" height="52.4883" transform="rotate(-90 996.192 719.382)" fill="#8B98C3"/>
<rect x="1084.45" y="719.382" width="12.6797" height="52.4883" transform="rotate(-90 1084.45 719.382)" fill="#8B98C3"/>
<rect x="1048.68" y="719.382" width="12.6797" height="35.7695" transform="rotate(-90 1048.68 719.382)" fill="#2B365A"/>
<rect x="506.85" y="141.054" width="140.52" height="4.87305" transform="rotate(-90 506.85 141.054)" fill="#2B365A"/>
<path d="M1223.64 432.128C1223.64 429.614 1225.68 427.576 1228.19 427.576C1230.71 427.576 1232.74 429.614 1232.74 432.128V437.711C1232.74 438.54 1232.07 439.211 1231.24 439.211H1225.14C1224.31 439.211 1223.64 438.54 1223.64 437.711V432.128Z" fill="#F3F6FF" stroke="#8A8A8A"/>
<path d="M1223.64 439.765C1223.64 439.489 1223.86 439.265 1224.14 439.265H1232.24C1232.52 439.265 1232.74 439.489 1232.74 439.765V440.548C1232.74 440.824 1232.52 441.048 1232.24 441.048H1224.14C1223.86 441.048 1223.64 440.824 1223.64 440.548V439.765Z" fill="#F3F6FF" stroke="#8A8A8A"/>
<path d="M1222.6 443.569C1222.6 442.188 1223.72 441.069 1225.1 441.069H1231.28C1232.66 441.069 1233.78 442.188 1233.78 443.569V444.888C1233.78 445.717 1233.11 446.388 1232.28 446.388H1224.1C1223.27 446.388 1222.6 445.717 1222.6 444.888V443.569Z" fill="#F3F6FF" stroke="#8A8A8A"/>
<circle cx="1228.19" cy="443.728" r="0.5" fill="#D9D9D9" stroke="#8A8A8A" stroke-width="0.534302"/>
<path d="M1253.66 432.128C1253.66 429.614 1255.7 427.576 1258.21 427.576C1260.73 427.576 1262.76 429.614 1262.76 432.128V437.711C1262.76 438.54 1262.09 439.211 1261.26 439.211H1255.16C1254.33 439.211 1253.66 438.54 1253.66 437.711V432.128Z" fill="#F3F6FF" stroke="#8A8A8A"/>
<path d="M1253.66 439.765C1253.66 439.489 1253.88 439.265 1254.16 439.265H1262.26C1262.54 439.265 1262.76 439.489 1262.76 439.765V440.548C1262.76 440.824 1262.54 441.048 1262.26 441.048H1254.16C1253.88 441.048 1253.66 440.824 1253.66 440.548V439.765Z" fill="#F3F6FF" stroke="#8A8A8A"/>
<path d="M1252.62 443.569C1252.62 442.188 1253.74 441.069 1255.12 441.069H1261.3C1262.68 441.069 1263.8 442.188 1263.8 443.569V444.888C1263.8 445.717 1263.13 446.388 1262.3 446.388H1254.12C1253.29 446.388 1252.62 445.717 1252.62 444.888V443.569Z" fill="#F3F6FF" stroke="#8A8A8A"/>
<circle cx="1258.21" cy="443.728" r="0.5" fill="#D9D9D9" stroke="#8A8A8A" stroke-width="0.534302"/>
<path d="M1232.19 461.716C1234.7 461.716 1236.74 463.754 1236.74 466.267C1236.74 468.781 1234.7 470.818 1232.19 470.818L1226.6 470.818C1225.77 470.818 1225.1 470.147 1225.1 469.318L1225.1 463.216C1225.1 462.387 1225.77 461.716 1226.6 461.716L1232.19 461.716Z" fill="#F3F6FF" stroke="#8A8A8A"/>
<path d="M1224.55 461.715C1224.82 461.715 1225.05 461.939 1225.05 462.215L1225.05 470.318C1225.05 470.594 1224.82 470.818 1224.55 470.818L1223.77 470.818C1223.49 470.818 1223.27 470.594 1223.27 470.318L1223.27 462.215C1223.27 461.939 1223.49 461.715 1223.77 461.715L1224.55 461.715Z" fill="#F3F6FF" stroke="#8A8A8A"/>
<path d="M1220.74 460.676C1222.13 460.676 1223.24 461.795 1223.24 463.176L1223.24 469.358C1223.24 470.739 1222.13 471.858 1220.74 471.858L1219.43 471.858C1218.6 471.858 1217.93 471.187 1217.93 470.358L1217.93 462.176C1217.93 461.347 1218.6 460.676 1219.43 460.676L1220.74 460.676Z" fill="#F3F6FF" stroke="#8A8A8A"/>
<circle cx="1220.59" cy="466.267" r="0.5" transform="rotate(90 1220.59 466.267)" fill="#D9D9D9" stroke="#8A8A8A" stroke-width="0.534302"/>
<path d="M1135.33 382.02C1132.82 382.02 1130.78 379.982 1130.78 377.468C1130.78 374.955 1132.82 372.917 1135.33 372.917L1140.92 372.917C1141.74 372.917 1142.42 373.588 1142.42 374.417L1142.42 380.52C1142.42 381.348 1141.74 382.02 1140.92 382.02L1135.33 382.02Z" fill="#F3F6FF" stroke="#8A8A8A"/>
<path d="M1142.97 382.02C1142.69 382.02 1142.47 381.796 1142.47 381.52L1142.47 373.417C1142.47 373.141 1142.69 372.917 1142.97 372.917L1143.75 372.917C1144.03 372.917 1144.25 373.141 1144.25 373.417L1144.25 381.52C1144.25 381.796 1144.03 382.02 1143.75 382.02L1142.97 382.02Z" fill="#F3F6FF" stroke="#8A8A8A"/>
<path d="M1146.77 383.06C1145.39 383.06 1144.27 381.94 1144.27 380.56L1144.27 374.377C1144.27 372.996 1145.39 371.877 1146.77 371.877L1148.09 371.877C1148.92 371.877 1149.59 372.549 1149.59 373.377L1149.59 381.56C1149.59 382.388 1148.92 383.06 1148.09 383.06L1146.77 383.06Z" fill="#F3F6FF" stroke="#8A8A8A"/>
<circle cx="1146.93" cy="377.469" r="0.5" transform="rotate(-90 1146.93 377.469)" fill="#D9D9D9" stroke="#8A8A8A" stroke-width="0.534302"/>
<path d="M1232.19 490.696C1234.7 490.696 1236.74 492.734 1236.74 495.248C1236.74 497.761 1234.7 499.799 1232.19 499.799L1226.6 499.799C1225.77 499.799 1225.1 499.127 1225.1 498.299L1225.1 492.196C1225.1 491.368 1225.77 490.696 1226.6 490.696L1232.19 490.696Z" fill="#F3F6FF" stroke="#8A8A8A"/>
<path d="M1224.55 490.696C1224.82 490.696 1225.05 490.92 1225.05 491.196L1225.05 499.298C1225.05 499.575 1224.82 499.798 1224.55 499.798L1223.77 499.798C1223.49 499.798 1223.27 499.575 1223.27 499.298L1223.27 491.196C1223.27 490.92 1223.49 490.696 1223.77 490.696L1224.55 490.696Z" fill="#F3F6FF" stroke="#8A8A8A"/>
<path d="M1220.74 489.656C1222.13 489.656 1223.24 490.776 1223.24 492.156L1223.24 498.339C1223.24 499.719 1222.13 500.839 1220.74 500.839L1219.43 500.839C1218.6 500.839 1217.93 500.167 1217.93 499.339L1217.93 491.156C1217.93 490.328 1218.6 489.656 1219.43 489.656L1220.74 489.656Z" fill="#F3F6FF" stroke="#8A8A8A"/>
<circle cx="1220.59" cy="495.247" r="0.5" transform="rotate(90 1220.59 495.247)" fill="#D9D9D9" stroke="#8A8A8A" stroke-width="0.534302"/>
<path d="M1232.19 519.677C1234.7 519.677 1236.74 521.714 1236.74 524.228C1236.74 526.742 1234.7 528.779 1232.19 528.779L1226.6 528.779C1225.77 528.779 1225.1 528.108 1225.1 527.279L1225.1 521.177C1225.1 520.348 1225.77 519.677 1226.6 519.677L1232.19 519.677Z" fill="#F3F6FF" stroke="#8A8A8A"/>
<path d="M1224.55 519.676C1224.82 519.676 1225.05 519.9 1225.05 520.176L1225.05 528.279C1225.05 528.555 1224.82 528.779 1224.55 528.779L1223.77 528.779C1223.49 528.779 1223.27 528.555 1223.27 528.279L1223.27 520.176C1223.27 519.9 1223.49 519.676 1223.77 519.676L1224.55 519.676Z" fill="#F3F6FF" stroke="#8A8A8A"/>
<path d="M1220.74 518.637C1222.13 518.637 1223.24 519.756 1223.24 521.137L1223.24 527.319C1223.24 528.7 1222.13 529.819 1220.74 529.819L1219.43 529.819C1218.6 529.819 1217.93 529.148 1217.93 528.319L1217.93 520.137C1217.93 519.308 1218.6 518.637 1219.43 518.637L1220.74 518.637Z" fill="#F3F6FF" stroke="#8A8A8A"/>
<circle cx="1220.59" cy="524.228" r="0.5" transform="rotate(90 1220.59 524.228)" fill="#D9D9D9" stroke="#8A8A8A" stroke-width="0.534302"/>
<rect x="1081.01" y="591.546" width="61.7914" height="2.15479" fill="#C7D1F1"/>
<rect x="1107.76" y="591.546" width="8.28114" height="106.746" fill="#C7D1F1"/>
<rect x="1081.01" y="600.348" width="61.7914" height="2.15479" fill="#C7D1F1"/>
<rect x="1081.01" y="609.15" width="61.7914" height="2.15479" fill="#C7D1F1"/>
<rect x="1081.01" y="617.952" width="61.7914" height="2.15479" fill="#C7D1F1"/>
<rect x="1081.01" y="626.753" width="61.7914" height="2.15479" fill="#C7D1F1"/>
<rect x="1081.01" y="635.555" width="61.7914" height="2.15479" fill="#C7D1F1"/>
<rect x="1081.01" y="644.357" width="61.7914" height="2.15479" fill="#C7D1F1"/>
<rect x="1081.01" y="653.159" width="61.7914" height="2.15479" fill="#C7D1F1"/>
<rect x="1081.01" y="661.96" width="61.7914" height="2.15479" fill="#C7D1F1"/>
<rect x="1081.01" y="670.762" width="61.7914" height="2.15479" fill="#C7D1F1"/>
<rect x="1081.01" y="679.564" width="61.7914" height="2.15479" fill="#C7D1F1"/>
<rect x="1081.01" y="688.366" width="61.7914" height="2.15479" fill="#C7D1F1"/>
<rect x="1081.01" y="697.167" width="61.7914" height="2.15479" fill="#C7D1F1"/>
<path d="M1278.05 439.82C1278.05 436.607 1280.65 434.002 1283.86 434.002H1300.92C1304.14 434.002 1306.74 436.607 1306.74 439.82V444.888C1306.74 445.717 1306.07 446.388 1305.24 446.388H1279.55C1278.72 446.388 1278.05 445.717 1278.05 444.888V439.82Z" fill="#F3F6FF" stroke="#8A8A8A"/>
<path d="M1280.34 441.772C1280.34 438.582 1282.93 435.996 1286.12 435.996C1289.31 435.996 1291.89 438.582 1291.89 441.772V442.477C1291.89 443.305 1291.22 443.977 1290.39 443.977H1281.84C1281.01 443.977 1280.34 443.305 1280.34 442.477V441.772Z" fill="#F3F6FF" stroke="#8A8A8A"/>
<path d="M1285.3 441.234C1285.3 440.78 1285.66 440.413 1286.12 440.413C1286.57 440.413 1286.94 440.78 1286.94 441.234V445.567C1286.94 446.02 1286.57 446.388 1286.12 446.388C1285.66 446.388 1285.3 446.02 1285.3 445.567V441.234Z" fill="#F3F6FF" stroke="#8A8A8A"/>
<path d="M1292.89 441.772C1292.89 438.582 1295.48 435.996 1298.67 435.996C1301.86 435.996 1304.45 438.582 1304.45 441.772V442.477C1304.45 443.305 1303.78 443.977 1302.95 443.977H1294.39C1293.57 443.977 1292.89 443.305 1292.89 442.477V441.772Z" fill="#F3F6FF" stroke="#8A8A8A"/>
<path d="M1297.85 441.234C1297.85 440.78 1298.22 440.413 1298.67 440.413C1299.12 440.413 1299.49 440.78 1299.49 441.234V445.567C1299.49 446.02 1299.12 446.388 1298.67 446.388C1298.22 446.388 1297.85 446.02 1297.85 445.567V441.234Z" fill="#F3F6FF" stroke="#8A8A8A"/>
<path d="M1234.66 549.092C1234.66 552.305 1232.05 554.91 1228.84 554.91L1224.37 554.91C1221.15 554.91 1218.55 552.305 1218.55 549.092L1218.55 544.024C1218.55 543.195 1219.22 542.524 1220.05 542.524L1233.16 542.524C1233.98 542.524 1234.66 543.195 1234.66 544.024L1234.66 549.092Z" fill="#F3F6FF" stroke="#8A8A8A"/>
<path d="M1232.38 547.14C1232.38 550.33 1229.79 552.917 1226.6 552.917C1223.41 552.917 1220.83 550.33 1220.83 547.14L1220.83 546.436C1220.83 545.607 1221.5 544.936 1222.33 544.936L1230.88 544.936C1231.71 544.936 1232.38 545.607 1232.38 546.436L1232.38 547.14Z" fill="#F3F6FF" stroke="#8A8A8A"/>
<path d="M1227.42 547.678C1227.42 548.132 1227.06 548.5 1226.6 548.5C1226.15 548.5 1225.78 548.132 1225.78 547.678L1225.78 543.345C1225.78 542.892 1226.15 542.524 1226.6 542.524C1227.06 542.524 1227.42 542.892 1227.42 543.345L1227.42 547.678Z" fill="#F3F6FF" stroke="#8A8A8A"/>
<path d="M1127.09 368.851C1127.09 372.064 1124.49 374.668 1121.27 374.668L1116.8 374.668C1113.59 374.668 1110.98 372.064 1110.98 368.851L1110.98 363.783C1110.98 362.954 1111.66 362.283 1112.48 362.283L1125.59 362.283C1126.42 362.283 1127.09 362.954 1127.09 363.783L1127.09 368.851Z" fill="#F3F6FF" stroke="#8A8A8A"/>
<path d="M1124.81 366.899C1124.81 370.089 1122.23 372.675 1119.04 372.675C1115.85 372.675 1113.26 370.089 1113.26 366.899L1113.26 366.194C1113.26 365.366 1113.93 364.694 1114.76 364.694L1123.31 364.694C1124.14 364.694 1124.81 365.366 1124.81 366.194L1124.81 366.899Z" fill="#F3F6FF" stroke="#8A8A8A"/>
<path d="M1119.86 367.437C1119.86 367.891 1119.49 368.258 1119.04 368.258C1118.58 368.258 1118.22 367.891 1118.22 367.437L1118.22 363.104C1118.22 362.65 1118.58 362.283 1119.04 362.283C1119.49 362.283 1119.86 362.65 1119.86 363.104L1119.86 367.437Z" fill="#F3F6FF" stroke="#8A8A8A"/>
<path d="M1252.48 549.092C1252.48 552.305 1249.87 554.91 1246.66 554.91L1242.19 554.91C1238.97 554.91 1236.37 552.305 1236.37 549.092L1236.37 544.024C1236.37 543.195 1237.04 542.524 1237.87 542.524L1250.98 542.524C1251.8 542.524 1252.48 543.195 1252.48 544.024L1252.48 549.092Z" fill="#F3F6FF" stroke="#8A8A8A"/>
<path d="M1250.2 547.14C1250.2 550.33 1247.61 552.917 1244.42 552.917C1241.23 552.917 1238.65 550.33 1238.65 547.14L1238.65 546.436C1238.65 545.607 1239.32 544.936 1240.15 544.936L1248.7 544.936C1249.53 544.936 1250.2 545.607 1250.2 546.436L1250.2 547.14Z" fill="#F3F6FF" stroke="#8A8A8A"/>
<path d="M1245.24 547.678C1245.24 548.132 1244.88 548.5 1244.42 548.5C1243.97 548.5 1243.6 548.132 1243.6 547.678L1243.6 543.345C1243.6 542.892 1243.97 542.524 1244.42 542.524C1244.88 542.524 1245.24 542.892 1245.24 543.345L1245.24 547.678Z" fill="#F3F6FF" stroke="#8A8A8A"/>
<path d="M1270.3 549.092C1270.3 552.305 1267.69 554.91 1264.48 554.91L1260.01 554.91C1256.79 554.91 1254.19 552.305 1254.19 549.092L1254.19 544.024C1254.19 543.195 1254.86 542.524 1255.69 542.524L1268.8 542.524C1269.62 542.524 1270.3 543.195 1270.3 544.024L1270.3 549.092Z" fill="#F3F6FF" stroke="#8A8A8A"/>
<path d="M1268.02 547.14C1268.02 550.33 1265.43 552.917 1262.24 552.917C1259.05 552.917 1256.47 550.33 1256.47 547.14L1256.47 546.436C1256.47 545.607 1257.14 544.936 1257.97 544.936L1266.52 544.936C1267.35 544.936 1268.02 545.607 1268.02 546.436L1268.02 547.14Z" fill="#F3F6FF" stroke="#8A8A8A"/>
<path d="M1263.06 547.678C1263.06 548.132 1262.7 548.5 1262.24 548.5C1261.79 548.5 1261.42 548.132 1261.42 547.678L1261.42 543.345C1261.42 542.892 1261.79 542.524 1262.24 542.524C1262.7 542.524 1263.06 542.892 1263.06 543.345L1263.06 547.678Z" fill="#F3F6FF" stroke="#8A8A8A"/>
<path d="M1111.67 399.573C1111.67 398.745 1112.34 398.073 1113.17 398.073H1146.72C1147.55 398.073 1148.22 398.745 1148.22 399.573V416.141C1148.22 416.97 1147.55 417.641 1146.72 417.641H1113.17C1112.34 417.641 1111.67 416.97 1111.67 416.141V399.573Z" fill="#F3F6FF" stroke="#8A8A8A"/>
<path d="M1114 401.445C1114 400.617 1114.67 399.945 1115.5 399.945H1144.39C1145.22 399.945 1145.89 400.617 1145.89 401.445V414.269C1145.89 415.098 1145.22 415.769 1144.39 415.769H1115.5C1114.67 415.769 1114 415.098 1114 414.269V401.445Z" fill="#F3F6FF" stroke="#8A8A8A"/>
<path d="M1129.94 406.484C1130.69 406.484 1131.3 407.095 1131.3 407.858C1131.3 408.62 1130.69 409.231 1129.94 409.231C1129.2 409.231 1128.59 408.62 1128.59 407.858C1128.59 407.095 1129.2 406.484 1129.94 406.484Z" fill="#D9D9D9" stroke="#8A8A8A"/>
</svg>
