<svg width="1328" height="719" viewBox="0 0 1328 719" fill="none" xmlns="http://www.w3.org/2000/svg">
<rect x="236.25" y="357.11" width="22.7997" height="4.87305" transform="rotate(180 236.25 357.11)" fill="#C7D1F1"/>
<rect x="498.039" y="197.322" width="35.5767" height="4.87305" transform="rotate(180 498.039 197.322)" fill="#C7D1F1"/>
<rect x="506.731" y="165.293" width="24.7739" height="4.87305" transform="rotate(-90 506.731 165.293)" fill="#C7D1F1"/>
<rect x="450.091" y="49.1738" width="24.7739" height="4.87305" transform="rotate(-90 450.091 49.1738)" fill="#C7D1F1"/>
<rect x="322.475" y="424.869" width="22.7997" height="4.87305" transform="rotate(180 322.475 424.869)" fill="#C7D1F1"/>
<rect x="493.218" y="424.869" width="22.7997" height="4.87305" transform="rotate(180 493.218 424.869)" fill="#C7D1F1"/>
<rect x="611.841" y="371.989" width="48.2359" height="4.87305" transform="rotate(180 611.841 371.989)" fill="#C7D1F1"/>
<rect x="1055.78" y="424.869" width="23.0243" height="4.87305" transform="rotate(180 1055.78 424.869)" fill="#C7D1F1"/>
<rect x="1103.4" y="400.037" width="28.5243" height="4.87305" transform="rotate(-90 1103.4 400.037)" fill="#C7D1F1"/>
<rect x="1210.85" y="392.074" width="31.1283" height="4.87305" transform="rotate(-90 1210.85 392.074)" fill="#C7D1F1"/>
<rect x="1210.85" y="265.168" width="31.1283" height="4.87305" transform="rotate(-90 1210.85 265.168)" fill="#C7D1F1"/>
<rect x="1219.55" y="396.602" width="20.7327" height="4.87305" fill="#C7D1F1"/>
<rect x="1248.84" y="396.602" width="20.7327" height="4.87305" fill="#C7D1F1"/>
<rect x="1266.15" y="457.13" width="20.7327" height="4.87305" transform="rotate(90 1266.15 457.13)" fill="#C7D1F1"/>
<rect x="1266.15" y="485.114" width="20.7327" height="4.87305" transform="rotate(90 1266.15 485.114)" fill="#C7D1F1"/>
<rect x="1266.15" y="509.75" width="20.7327" height="4.87305" transform="rotate(90 1266.15 509.75)" fill="#C7D1F1"/>
<rect x="1302.88" y="645.384" width="43.0396" height="43.4082" transform="rotate(90 1302.88 645.384)" fill="#C7D1F1"/>
<rect x="1215.72" y="552.755" width="29.6035" height="4.87305" transform="rotate(90 1215.72 552.755)" fill="#C7D1F1"/>
<rect x="1266.41" y="605.899" width="22.2119" height="4.87305" transform="rotate(90 1266.41 605.899)" fill="#C7D1F1"/>
<rect x="1094.57" y="424.869" width="23.0243" height="4.87305" transform="rotate(180 1094.57 424.869)" fill="#C7D1F1"/>
<rect x="316.073" y="476.272" width="26.7292" height="4.87305" transform="rotate(180 316.073 476.272)" fill="#C7D1F1"/>
<rect x="446.636" y="476.272" width="26.7292" height="4.87305" transform="rotate(180 446.636 476.272)" fill="#C7D1F1"/>
<rect x="534.523" y="476.272" width="26.7292" height="4.87305" transform="rotate(180 534.523 476.272)" fill="#C7D1F1"/>
<rect x="575.574" y="476.272" width="26.7292" height="4.87305" transform="rotate(180 575.574 476.272)" fill="#C7D1F1"/>
<rect x="710.712" y="476.272" width="26.7292" height="4.87305" transform="rotate(180 710.712 476.272)" fill="#C7D1F1"/>
<rect x="753.502" y="476.272" width="26.7292" height="4.87305" transform="rotate(180 753.502 476.272)" fill="#C7D1F1"/>
<rect x="884.98" y="476.272" width="26.7292" height="4.87305" transform="rotate(180 884.98 476.272)" fill="#C7D1F1"/>
<rect x="926.631" y="476.272" width="26.7292" height="4.87305" transform="rotate(180 926.631 476.272)" fill="#C7D1F1"/>
<rect x="1058.62" y="476.272" width="26.7292" height="4.87305" transform="rotate(180 1058.62 476.272)" fill="#C7D1F1"/>
<rect x="1132.16" y="519.595" width="49.8284" height="4.87305" transform="rotate(180 1132.16 519.595)" fill="#C7D1F1"/>
<rect x="753.502" y="424.869" width="26.7292" height="4.87305" transform="rotate(180 753.502 424.869)" fill="#C7D1F1"/>
<rect x="708.974" y="424.869" width="26.7292" height="4.87305" transform="rotate(180 708.974 424.869)" fill="#C7D1F1"/>
<rect x="882.688" y="424.869" width="26.7292" height="4.87305" transform="rotate(180 882.688 424.869)" fill="#C7D1F1"/>
<rect x="926.625" y="424.869" width="26.7292" height="4.87305" transform="rotate(180 926.625 424.869)" fill="#C7D1F1"/>
<rect x="140.046" y="476.272" width="26.7292" height="4.87305" transform="rotate(180 140.046 476.272)" fill="#C7D1F1"/>
<rect x="104.82" y="417.223" width="22.7915" height="4.87305" transform="rotate(90 104.82 417.223)" fill="#C7D1F1"/>
<rect x="104.82" y="378.697" width="24.4546" height="4.87305" transform="rotate(90 104.82 378.697)" fill="#C7D1F1"/>
<rect x="182.731" y="357.11" width="23.3266" height="4.87305" transform="rotate(180 182.731 357.11)" fill="#C7D1F1"/>
<rect y="83.0859" width="12.6797" height="358.068" fill="#2B365A"/>
<rect y="490.006" width="12.6797" height="190.705" fill="#2B365A"/>
<rect x="92.1401" y="519.461" width="12.6797" height="193.047" fill="#2B365A"/>
<rect x="104.82" y="519.461" width="12.6797" height="97.8785" transform="rotate(90 104.82 519.461)" fill="#2B365A"/>
<rect y="676.029" width="12.6797" height="42.8184" fill="#2B365A"/>
<rect x="6.94141" y="718.848" width="12.6797" height="129.244" transform="rotate(-90 6.94141 718.848)" fill="#2B365A"/>
<rect x="136.186" y="718.848" width="12.6797" height="52.7949" transform="rotate(-90 136.186 718.848)" fill="#8B98C3"/>
<rect x="309.148" y="718.848" width="12.6797" height="54.3281" transform="rotate(-90 309.148 718.848)" fill="#8B98C3"/>
<rect x="391.084" y="718.848" width="12.6797" height="50.9209" transform="rotate(-90 391.084 718.848)" fill="#8B98C3"/>
<rect x="476.552" y="718.848" width="12.6797" height="52.4883" transform="rotate(-90 476.552 718.848)" fill="#8B98C3"/>
<rect x="569.715" y="718.848" width="12.6797" height="47.9238" transform="rotate(-90 569.715 718.848)" fill="#8B98C3"/>
<rect x="805.32" y="718.848" width="12.6797" height="69.0332" transform="rotate(-90 805.32 718.848)" fill="#8B98C3"/>
<rect x="905.248" y="718.848" width="12.6797" height="39.4316" transform="rotate(-90 905.248 718.848)" fill="#8B98C3"/>
<rect x="360.016" y="718.848" width="12.6797" height="31.0683" transform="rotate(-90 360.016 718.848)" fill="#2B365A"/>
<rect x="188.68" y="718.848" width="12.6797" height="89.0898" transform="rotate(-90 188.68 718.848)" fill="#2B365A"/>
<rect x="442.005" y="718.848" width="12.6797" height="34.5469" transform="rotate(-90 442.005 718.848)" fill="#2B365A"/>
<rect x="274.602" y="718.848" width="12.6797" height="34.5469" transform="rotate(-90 274.602 718.848)" fill="#2B365A"/>
<rect x="529.04" y="718.848" width="12.6797" height="40.6758" transform="rotate(-90 529.04 718.848)" fill="#2B365A"/>
<rect x="617.639" y="718.848" width="12.6797" height="33.9512" transform="rotate(-90 617.639 718.848)" fill="#2B365A"/>
<rect x="874.354" y="718.848" width="12.6797" height="30.8945" transform="rotate(-90 874.354 718.848)" fill="#2B365A"/>
<rect x="944.68" y="718.848" width="12.6797" height="51.3945" transform="rotate(-90 944.68 718.848)" fill="#2B365A"/>
<rect width="12.6797" height="36.1973" fill="#2B365A"/>
<rect x="631.75" y="9.03125" width="12.6797" height="167.765" fill="#2B365A"/>
<rect x="615.604" y="147.157" width="12.6797" height="58.3037" fill="#2B365A"/>
<rect y="12.6797" width="12.6797" height="120.748" transform="rotate(-90 0 12.6797)" fill="#2B365A"/>
<rect x="642.271" y="176.797" width="12.6797" height="14.6836" transform="rotate(-90 642.271 176.797)" fill="#2B365A"/>
<rect x="644.68" y="176.797" width="12.6797" height="14.6836" transform="rotate(-90 644.68 176.797)" fill="#2B365A"/>
<rect x="1311.55" y="365.375" width="12.6797" height="14.8912" transform="rotate(-90 1311.55 365.375)" fill="#2B365A"/>
<rect x="699.918" y="176.797" width="12.6797" height="34.1191" transform="rotate(-90 699.918 176.797)" fill="#2B365A"/>
<rect x="786.92" y="176.797" width="12.6797" height="34.9375" transform="rotate(-90 786.92 176.797)" fill="#2B365A"/>
<rect x="872.676" y="176.797" width="12.6797" height="34.9375" transform="rotate(-90 872.676 176.797)" fill="#2B365A"/>
<rect x="94.6748" y="367.116" width="12.6797" height="15.7298" transform="rotate(-90 94.6748 367.116)" fill="#2B365A"/>
<rect x="1136.95" y="367.116" width="12.6797" height="17.4225" transform="rotate(-90 1136.95 367.116)" fill="#2B365A"/>
<rect x="952.293" y="176.797" width="12.6797" height="49.5391" transform="rotate(-90 952.293 176.797)" fill="#2B365A"/>
<rect x="964.451" y="191.216" width="27.0981" height="25.2231" transform="rotate(-90 964.451 191.216)" fill="#2B365A"/>
<rect x="1140.86" y="191.216" width="27.0981" height="15.6747" transform="rotate(-90 1140.86 191.216)" fill="#2B365A"/>
<rect x="796.68" y="191.216" width="27.0981" height="15.418" transform="rotate(-90 796.68 191.216)" fill="#2B365A"/>
<rect x="1033.54" y="176.797" width="12.6797" height="49.5391" transform="rotate(-90 1033.54 176.797)" fill="#2B365A"/>
<rect x="1127.05" y="176.797" width="12.6797" height="144.552" transform="rotate(-90 1127.05 176.797)" fill="#2B365A"/>
<rect x="1244.24" y="176.797" width="12.6797" height="57.5742" transform="rotate(-90 1244.24 176.797)" fill="#2B365A"/>
<rect x="1315.08" y="260.09" width="12.6797" height="121.089" fill="#2B365A"/>
<rect x="1315.08" y="173.156" width="12.6797" height="39.8965" fill="#2B365A"/>
<rect x="1315.08" y="433.278" width="12.6797" height="39.8965" fill="#2B365A"/>
<rect x="1315.08" y="516.164" width="12.6797" height="202.684" fill="#2B365A"/>
<rect x="1302.88" y="628.111" width="12.6797" height="90.7363" fill="#2B365A"/>
<rect x="1259.47" y="711.813" width="23.3896" height="68.293" transform="rotate(-90 1259.47 711.813)" fill="#2B365A"/>
<rect x="1259.47" y="645.855" width="17.7441" height="67.5703" transform="rotate(-90 1259.47 645.855)" fill="#2B365A"/>
<rect x="1136.82" y="718.848" width="12.6797" height="114.784" transform="rotate(-90 1136.82 718.848)" fill="#2B365A"/>
<rect x="1251.6" y="718.848" width="12.6797" height="61.5672" transform="rotate(-90 1251.6 718.848)" fill="#2B365A"/>
<rect x="656.955" y="176.797" width="12.6797" height="42.9629" transform="rotate(-90 656.955 176.797)" fill="#8B98C3"/>
<rect x="733.717" y="176.797" width="12.6797" height="53.2031" transform="rotate(-90 733.717 176.797)" fill="#8B98C3"/>
<rect x="821.857" y="176.797" width="12.6797" height="53.2031" transform="rotate(-90 821.857 176.797)" fill="#8B98C3"/>
<rect x="903.104" y="176.797" width="12.6797" height="53.2031" transform="rotate(-90 903.104 176.797)" fill="#8B98C3"/>
<rect x="996.861" y="176.797" width="12.6797" height="53.2031" transform="rotate(-90 996.861 176.797)" fill="#8B98C3"/>
<rect x="1078.11" y="176.797" width="12.6797" height="53.2031" transform="rotate(-90 1078.11 176.797)" fill="#8B98C3"/>
<rect x="1315.08" y="207.99" width="12.6797" height="52.0996" fill="#8B98C3"/>
<rect x="1315.08" y="381.179" width="12.6797" height="52.0996" fill="#8B98C3"/>
<rect x="1315.08" y="464.064" width="12.6797" height="52.0996" fill="#8B98C3"/>
<rect x="443.654" y="21.7949" width="21.7949" height="34.6367" transform="rotate(-90 443.654 21.7949)" fill="#2B365A"/>
<rect x="249.5" y="12.6797" width="12.6797" height="46.7637" transform="rotate(-90 249.5 12.6797)" fill="#2B365A"/>
<rect x="336.094" y="12.6797" width="12.6797" height="46.7637" transform="rotate(-90 336.094 12.6797)" fill="#2B365A"/>
<rect x="265.4" y="21.7949" width="21.7949" height="21.8613" transform="rotate(-90 265.4 21.7949)" fill="#2B365A"/>
<rect x="90.0137" y="21.7949" width="21.7949" height="21.8613" transform="rotate(-90 90.0137 21.7949)" fill="#2B365A"/>
<rect y="21.7949" width="18.2324" height="26.4648" transform="rotate(-90 0 21.7949)" fill="#2B365A"/>
<rect x="446.097" y="712.508" width="19.8477" height="26.3652" transform="rotate(-90 446.097 712.508)" fill="#2B365A"/>
<rect x="285.252" y="712.508" width="19.8477" height="13.248" transform="rotate(-90 285.252 712.508)" fill="#2B365A"/>
<rect x="93.3228" y="712.508" width="19.8477" height="19.4661" transform="rotate(-90 93.3228 712.508)" fill="#2B365A"/>
<rect x="1301.81" y="195.029" width="30.9121" height="25.9512" transform="rotate(-90 1301.81 195.029)" fill="#2B365A"/>
<rect x="373.113" y="715.02" width="241.185" height="4.87305" transform="rotate(-90 373.113 715.02)" fill="#2B365A"/>
<rect x="279.843" y="529.021" width="55.186" height="4.87305" transform="rotate(-90 279.843 529.021)" fill="#2B365A"/>
<rect x="99.9468" y="524.302" width="84.2881" height="4.87305" transform="rotate(-90 99.9468 524.302)" fill="#2B365A"/>
<rect x="99.9468" y="417.717" width="14.5649" height="4.87305" transform="rotate(-90 99.9468 417.717)" fill="#2B365A"/>
<rect x="99.9468" y="378.697" width="21.5869" height="4.87305" transform="rotate(-90 99.9468 378.697)" fill="#2B365A"/>
<rect x="265.526" y="424.869" width="70.1953" height="4.87305" transform="rotate(-90 265.526 424.869)" fill="#2B365A"/>
<rect x="383.615" y="424.869" width="45.3101" height="4.87305" transform="rotate(-90 383.615 424.869)" fill="#2B365A"/>
<rect x="544.505" y="424.869" width="83.0381" height="4.87305" transform="rotate(-90 544.505 424.869)" fill="#2B365A"/>
<rect x="285.609" y="384.432" width="29.7583" height="4.87305" transform="rotate(-90 285.609 384.432)" fill="#2B365A"/>
<rect x="467.555" y="384.432" width="40.5161" height="4.87305" transform="rotate(-90 467.555 384.432)" fill="#2B365A"/>
<rect x="285.609" y="379.559" width="184.809" height="4.87305" fill="#2B365A"/>
<rect x="299.675" y="352.237" width="16.1968" height="4.87305" transform="rotate(-90 299.675 352.237)" fill="#2B365A"/>
<rect x="450.526" y="346.704" width="10.6636" height="4.87305" transform="rotate(-90 450.526 346.704)" fill="#2B365A"/>
<rect x="460.957" y="715.02" width="241.185" height="4.87305" transform="rotate(-90 460.957 715.02)" fill="#2B365A"/>
<rect x="544.505" y="715.02" width="241.185" height="4.87305" transform="rotate(-90 544.505 715.02)" fill="#2B365A"/>
<rect x="718.377" y="715.02" width="241.185" height="4.87305" transform="rotate(-90 718.377 715.02)" fill="#2B365A"/>
<rect x="802.227" y="715.02" width="241.185" height="4.87305" transform="rotate(-90 802.227 715.02)" fill="#2B365A"/>
<rect x="887.364" y="715.02" width="241.185" height="4.87305" transform="rotate(-90 887.364 715.02)" fill="#2B365A"/>
<rect x="886.646" y="421.219" width="248.212" height="4.87305" transform="rotate(-90 886.646 421.219)" fill="#2B365A"/>
<rect x="974.147" y="421.219" width="248.212" height="4.87305" transform="rotate(-90 974.147 421.219)" fill="#2B365A"/>
<rect x="1059.72" y="430.327" width="75.8906" height="4.87305" transform="rotate(-90 1059.72 430.327)" fill="#2B365A"/>
<rect x="801.952" y="421.219" width="248.212" height="4.87305" transform="rotate(-90 801.952 421.219)" fill="#2B365A"/>
<rect x="717.351" y="421.219" width="248.212" height="4.87305" transform="rotate(-90 717.351 421.219)" fill="#2B365A"/>
<rect width="8.77588" height="4.87305" transform="matrix(4.37114e-08 1 1 -4.37114e-08 633.853 422.788)" fill="#2B365A"/>
<rect width="8.77588" height="4.87305" transform="matrix(4.37114e-08 1 1 -4.37114e-08 633.853 465.563)" fill="#2B365A"/>
<rect width="8.77588" height="4.87305" transform="matrix(4.37114e-08 1 1 -4.37114e-08 279.843 465.563)" fill="#2B365A"/>
<rect width="8.77588" height="4.87305" transform="matrix(4.37114e-08 1 1 -4.37114e-08 279.843 421.529)" fill="#2B365A"/>
<rect x="506.731" y="197.322" width="32.9507" height="4.87305" transform="rotate(-90 506.731 197.322)" fill="#2B365A"/>
<rect x="450.091" y="197.322" width="149.116" height="4.87305" transform="rotate(-90 450.091 197.322)" fill="#2B365A"/>
<rect x="354.603" y="336.041" width="327.894" height="4.87305" transform="rotate(-90 354.603 336.041)" fill="#2B365A"/>
<rect x="182.731" y="357.11" width="348.963" height="4.87305" transform="rotate(-90 182.731 357.11)" fill="#2B365A"/>
<rect x="498.039" y="192.449" width="128.696" height="4.87305" fill="#2B365A"/>
<rect x="626.734" y="421.219" width="274.062" height="5.09126" transform="rotate(-90 626.734 421.219)" fill="#2B365A"/>
<rect x="1060.96" y="715.02" width="248.277" height="4.87305" transform="rotate(-90 1060.96 715.02)" fill="#2B365A"/>
<rect x="1210.85" y="557.923" width="168.453" height="4.87305" transform="rotate(-90 1210.85 557.923)" fill="#2B365A"/>
<rect x="1210.85" y="603.521" width="21.1631" height="4.87305" transform="rotate(-90 1210.85 603.521)" fill="#2B365A"/>
<rect x="1148.38" y="714.02" width="199.298" height="11.7894" transform="rotate(-90 1148.38 714.02)" fill="#2B365A"/>
<rect x="1063.4" y="714.02" width="199.298" height="11.7894" transform="rotate(-90 1063.4 714.02)" fill="#2B365A"/>
<rect x="1152.4" y="524.245" width="25.9282" height="9.52277" transform="rotate(180 1152.4 524.245)" fill="#2B365A"/>
<rect x="1084.33" y="524.245" width="20.933" height="9.52277" transform="rotate(180 1084.33 524.245)" fill="#2B365A"/>
<rect x="983.674" y="692.66" width="26.1875" height="29.6055" transform="rotate(90 983.674 692.66)" fill="#2B365A"/>
<rect x="356.731" y="187.691" width="105.731" height="9.51514" fill="#2B365A"/>
<rect x="421.742" y="476.272" width="106.343" height="4.87305" transform="rotate(180 421.742 476.272)" fill="#2B365A"/>
<rect x="290.482" y="476.272" width="152.398" height="4.87305" transform="rotate(180 290.482 476.272)" fill="#2B365A"/>
<rect x="113.317" y="476.272" width="10.9334" height="4.87305" transform="rotate(180 113.317 476.272)" fill="#2B365A"/>
<rect x="102.383" y="412.871" width="91.6508" height="4.87305" transform="rotate(180 102.383 412.871)" fill="#2B365A"/>
<rect x="159.405" y="357.11" width="159.405" height="4.87305" transform="rotate(180 159.405 357.11)" fill="#2B365A"/>
<rect x="213.45" y="357.11" width="29.4636" height="4.87305" transform="rotate(180 213.45 357.11)" fill="#2B365A"/>
<rect x="301.47" y="424.869" width="33.5077" height="4.87305" transform="rotate(180 301.47 424.869)" fill="#2B365A"/>
<rect x="549.378" y="424.869" width="56.4382" height="4.87305" transform="rotate(180 549.378 424.869)" fill="#2B365A"/>
<rect x="686.047" y="424.869" width="59.3127" height="4.87305" transform="rotate(180 686.047 424.869)" fill="#2B365A"/>
<rect x="726.773" y="424.869" width="17.7996" height="4.87305" transform="rotate(180 726.773 424.869)" fill="#2B365A"/>
<rect x="860.643" y="424.869" width="109.224" height="4.87305" transform="rotate(180 860.643 424.869)" fill="#2B365A"/>
<rect x="902.969" y="424.869" width="20.2814" height="4.87305" transform="rotate(180 902.969 424.869)" fill="#2B365A"/>
<rect x="1033.18" y="424.869" width="108.167" height="4.87305" transform="rotate(180 1033.18 424.869)" fill="#2B365A"/>
<rect x="1156.81" y="424.869" width="62.2453" height="4.87305" transform="rotate(180 1156.81 424.869)" fill="#2B365A"/>
<rect x="1156.81" y="359.31" width="97.0889" height="4.87305" transform="rotate(180 1156.81 359.31)" fill="#2B365A"/>
<rect x="1315.08" y="361.938" width="101.798" height="4.87305" transform="rotate(180 1315.08 361.938)" fill="#2B365A"/>
<rect x="1285.37" y="379.884" width="22.8184" height="4.87305" transform="rotate(-90 1285.37 379.884)" fill="#2B365A"/>
<rect x="1248.84" y="401.475" width="12.2358" height="4.87305" transform="rotate(180 1248.84 401.475)" fill="#2B365A"/>
<rect x="1261.27" y="486.417" width="12.2358" height="4.87305" transform="rotate(-90 1261.27 486.417)" fill="#2B365A"/>
<rect x="1261.27" y="460.589" width="12.2358" height="4.87305" transform="rotate(-90 1261.27 460.589)" fill="#2B365A"/>
<rect x="1261.27" y="514.794" width="12.2358" height="4.87305" transform="rotate(-90 1261.27 514.794)" fill="#2B365A"/>
<rect x="1261.27" y="539.489" width="12.2358" height="4.87305" transform="rotate(-90 1261.27 539.489)" fill="#2B365A"/>
<rect x="1274.6" y="401.475" width="8.91608" height="4.87305" transform="rotate(180 1274.6 401.475)" fill="#2B365A"/>
<rect x="1219.77" y="401.475" width="8.91608" height="4.87305" transform="rotate(180 1219.77 401.475)" fill="#2B365A"/>
<rect x="1315.08" y="453.227" width="101.798" height="4.87305" transform="rotate(180 1315.08 453.227)" fill="#2B365A"/>
<rect x="1277.8" y="539.489" width="64.5118" height="4.87305" transform="rotate(180 1277.8 539.489)" fill="#2B365A"/>
<rect x="1318.15" y="603.521" width="104.867" height="4.87305" transform="rotate(180 1318.15 603.521)" fill="#2B365A"/>
<rect x="1327.76" y="548.297" width="27.752" height="13.6812" transform="rotate(180 1327.76 548.297)" fill="#2B365A"/>
<rect x="1151.94" y="422.433" width="252.088" height="4.87305" transform="rotate(-90 1151.94 422.433)" fill="#2B365A"/>
<rect x="1210.85" y="361.938" width="101.849" height="4.87305" transform="rotate(-90 1210.85 361.938)" fill="#2B365A"/>
<rect x="1240.29" y="450.79" width="49.3154" height="4.87305" transform="rotate(-90 1240.29 450.79)" fill="#2B365A"/>
<rect x="1214.87" y="477.862" width="49.3154" height="4.87305" fill="#2B365A"/>
<rect x="1214.87" y="506.239" width="49.3154" height="4.87305" fill="#2B365A"/>
<rect x="1269.73" y="450.79" width="49.3154" height="4.87305" transform="rotate(-90 1269.73 450.79)" fill="#2B365A"/>
<rect x="1210.85" y="237.123" width="21.1157" height="4.87305" transform="rotate(-90 1210.85 237.123)" fill="#2B365A"/>
<rect x="1247.77" y="202.717" width="29.7104" height="4.87305" transform="rotate(-90 1247.77 202.717)" fill="#2B365A"/>
<rect x="1212.1" y="216.007" width="24.3392" height="4.87305" fill="#2B365A"/>
<rect x="1232.8" y="217.635" width="24.3392" height="4.87305" transform="rotate(-48.2482 1232.8 217.635)" fill="#2B365A"/>
<rect x="563.605" y="371.989" width="19.1001" height="4.87305" transform="rotate(180 563.605 371.989)" fill="#2B365A"/>
<rect x="629.171" y="371.989" width="19.1001" height="4.87305" transform="rotate(180 629.171 371.989)" fill="#2B365A"/>
<rect x="472.428" y="424.869" width="152.32" height="4.87305" transform="rotate(180 472.428 424.869)" fill="#2B365A"/>
<rect x="304.548" y="357.11" width="68.2986" height="4.87305" transform="rotate(180 304.548 357.11)" fill="#2B365A"/>
<rect x="549.378" y="346.704" width="98.8517" height="4.87305" transform="rotate(180 549.378 346.704)" fill="#2B365A"/>
<rect x="455.399" y="338.477" width="155.724" height="4.87305" transform="rotate(180 455.399 338.477)" fill="#2B365A"/>
<rect x="509.693" y="476.272" width="65.7612" height="4.87305" transform="rotate(180 509.693 476.272)" fill="#2B365A"/>
<rect x="549.378" y="476.272" width="16.7674" height="4.87305" transform="rotate(180 549.378 476.272)" fill="#2B365A"/>
<rect x="686.047" y="476.272" width="113.752" height="4.87305" transform="rotate(180 686.047 476.272)" fill="#2B365A"/>
<rect x="729.357" y="476.272" width="20.3831" height="4.87305" transform="rotate(180 729.357 476.272)" fill="#2B365A"/>
<rect x="860.643" y="476.272" width="110.224" height="4.87305" transform="rotate(180 860.643 476.272)" fill="#2B365A"/>
<rect x="902.969" y="476.272" width="20.2813" height="4.87305" transform="rotate(180 902.969 476.272)" fill="#2B365A"/>
<rect x="1033.18" y="476.272" width="108.167" height="4.87305" transform="rotate(180 1033.18 476.272)" fill="#2B365A"/>
<rect x="1062.16" y="424.869" width="7.07806" height="4.87305" transform="rotate(180 1062.16 424.869)" fill="#2B365A"/>
<rect x="1071.37" y="424.869" width="7.86963" height="4.87305" transform="rotate(180 1071.37 424.869)" fill="#2B365A"/>
<rect x="1108.27" y="398.039" width="24.394" height="4.87305" transform="rotate(90 1108.27 398.039)" fill="#2B365A"/>
<rect x="1120.99" y="385.875" width="30.9808" height="4.87305" fill="#2B365A"/>
<rect x="1108.27" y="358.436" width="16.6543" height="4.87305" transform="rotate(90 1108.27 358.436)" fill="#2B365A"/>
<rect x="1065.84" y="476.272" width="8.84686" height="4.87305" transform="rotate(180 1065.84 476.272)" fill="#2B365A"/>
<rect x="1261.54" y="611.995" width="13.3467" height="4.87305" transform="rotate(-90 1261.54 611.995)" fill="#2B365A"/>
<rect x="450.091" y="27.1279" width="18.0967" height="4.87305" transform="rotate(-90 450.091 27.1279)" fill="#2B365A"/>
<rect x="601.238" y="12.6797" width="12.6797" height="43.1914" transform="rotate(-90 601.238 12.6797)" fill="#2B365A"/>
<rect x="180.688" y="12.6797" width="12.6797" height="8.87305" transform="rotate(-90 180.688 12.6797)" fill="#2B365A"/>
<rect x="120.748" y="12.6797" width="12.6797" height="59.9395" transform="rotate(-90 120.748 12.6797)" fill="#8B98C4"/>
<rect y="36.1973" width="12.6797" height="46.8887" fill="#8B98C4"/>
<rect y="441.154" width="12.6797" height="49.9941" fill="#8B98C4"/>
<rect x="189.561" y="12.6797" width="12.6797" height="59.9395" transform="rotate(-90 189.561 12.6797)" fill="#8B98C4"/>
<rect x="296.264" y="12.6797" width="12.6797" height="51.1055" transform="rotate(-90 296.264 12.6797)" fill="#8B98C4"/>
<rect x="369.846" y="12.6797" width="12.6797" height="73.8086" transform="rotate(-90 369.846 12.6797)" fill="#8B98C4"/>
<rect x="478.291" y="12.6797" width="12.6797" height="29.0879" transform="rotate(-90 478.291 12.6797)" fill="#8B98C4"/>
<rect x="527.139" y="12.6797" width="12.6797" height="74.0996" transform="rotate(-90 527.139 12.6797)" fill="#8B98C4"/>
<rect x="507.379" y="12.6797" width="12.6797" height="19.7598" transform="rotate(-90 507.379 12.6797)" fill="#2B365A"/>
<rect x="651.59" y="718.848" width="12.6797" height="52.4883" transform="rotate(-90 651.59 718.848)" fill="#8B98C3"/>
<rect x="732.676" y="718.848" width="12.6797" height="52.4883" transform="rotate(-90 732.676 718.848)" fill="#8B98C3"/>
<rect x="783.854" y="718.848" width="12.6797" height="33.9512" transform="rotate(-90 783.854 718.848)" fill="#2B365A"/>
<rect x="704.078" y="718.848" width="12.6797" height="28.5977" transform="rotate(-90 704.078 718.848)" fill="#2B365A"/>
<rect x="792.48" y="718.848" width="26.1875" height="19.6719" transform="rotate(-90 792.48 718.848)" fill="#2B365A"/>
<rect x="996.074" y="718.848" width="12.6797" height="52.4883" transform="rotate(-90 996.074 718.848)" fill="#8B98C3"/>
<rect x="1084.33" y="718.848" width="12.6797" height="52.4883" transform="rotate(-90 1084.33 718.848)" fill="#8B98C3"/>
<rect x="1048.56" y="718.848" width="12.6797" height="35.7695" transform="rotate(-90 1048.56 718.848)" fill="#2B365A"/>
<rect x="506.731" y="140.52" width="140.52" height="4.87305" transform="rotate(-90 506.731 140.52)" fill="#2B365A"/>
<path d="M1223.52 431.593C1223.52 429.079 1225.56 427.042 1228.07 427.042C1230.59 427.042 1232.62 429.079 1232.62 431.593V437.177C1232.62 438.005 1231.95 438.677 1231.12 438.677H1225.02C1224.19 438.677 1223.52 438.005 1223.52 437.177V431.593Z" fill="#F3F6FF" stroke="#8A8A8A"/>
<path d="M1223.52 439.23C1223.52 438.954 1223.75 438.73 1224.02 438.73H1232.12C1232.4 438.73 1232.62 438.954 1232.62 439.23V440.013C1232.62 440.289 1232.4 440.513 1232.12 440.513H1224.02C1223.75 440.513 1223.52 440.289 1223.52 440.013V439.23Z" fill="#F3F6FF" stroke="#8A8A8A"/>
<path d="M1222.48 443.034C1222.48 441.653 1223.6 440.534 1224.98 440.534H1231.16C1232.55 440.534 1233.66 441.653 1233.66 443.034V444.354C1233.66 445.182 1232.99 445.854 1232.16 445.854H1223.98C1223.15 445.854 1222.48 445.182 1222.48 444.354V443.034Z" fill="#F3F6FF" stroke="#8A8A8A"/>
<circle cx="1228.07" cy="443.193" r="0.5" fill="#D9D9D9" stroke="#8A8A8A" stroke-width="0.534302"/>
<path d="M1253.54 431.593C1253.54 429.079 1255.58 427.042 1258.09 427.042C1260.61 427.042 1262.65 429.079 1262.65 431.593V437.177C1262.65 438.005 1261.97 438.677 1261.15 438.677H1255.04C1254.21 438.677 1253.54 438.005 1253.54 437.177V431.593Z" fill="#F3F6FF" stroke="#8A8A8A"/>
<path d="M1253.54 439.23C1253.54 438.954 1253.77 438.73 1254.04 438.73H1262.15C1262.42 438.73 1262.65 438.954 1262.65 439.23V440.013C1262.65 440.289 1262.42 440.513 1262.15 440.513H1254.04C1253.77 440.513 1253.54 440.289 1253.54 440.013V439.23Z" fill="#F3F6FF" stroke="#8A8A8A"/>
<path d="M1252.5 443.034C1252.5 441.653 1253.62 440.534 1255 440.534H1261.18C1262.57 440.534 1263.68 441.653 1263.68 443.034V444.354C1263.68 445.182 1263.01 445.854 1262.18 445.854H1254C1253.17 445.854 1252.5 445.182 1252.5 444.354V443.034Z" fill="#F3F6FF" stroke="#8A8A8A"/>
<circle cx="1258.09" cy="443.193" r="0.5" fill="#D9D9D9" stroke="#8A8A8A" stroke-width="0.534302"/>
<path d="M1232.07 461.181C1234.58 461.181 1236.62 463.219 1236.62 465.732C1236.62 468.246 1234.58 470.284 1232.07 470.284L1226.48 470.284C1225.66 470.284 1224.98 469.612 1224.98 468.784L1224.98 462.681C1224.98 461.853 1225.66 461.181 1226.48 461.181L1232.07 461.181Z" fill="#F3F6FF" stroke="#8A8A8A"/>
<path d="M1224.43 461.181C1224.71 461.181 1224.93 461.405 1224.93 461.681L1224.93 469.783C1224.93 470.059 1224.71 470.283 1224.43 470.283L1223.65 470.283C1223.37 470.283 1223.15 470.059 1223.15 469.783L1223.15 461.681C1223.15 461.405 1223.37 461.181 1223.65 461.181L1224.43 461.181Z" fill="#F3F6FF" stroke="#8A8A8A"/>
<path d="M1220.63 460.141C1222.01 460.141 1223.13 461.26 1223.13 462.641L1223.13 468.824C1223.13 470.204 1222.01 471.324 1220.63 471.324L1219.31 471.324C1218.48 471.324 1217.81 470.652 1217.81 469.824L1217.81 461.641C1217.81 460.813 1218.48 460.141 1219.31 460.141L1220.63 460.141Z" fill="#F3F6FF" stroke="#8A8A8A"/>
<circle cx="1220.47" cy="465.732" r="0.5" transform="rotate(90 1220.47 465.732)" fill="#D9D9D9" stroke="#8A8A8A" stroke-width="0.534302"/>
<path d="M1135.21 381.485C1132.7 381.485 1130.66 379.447 1130.66 376.934C1130.66 374.42 1132.7 372.382 1135.21 372.382L1140.8 372.382C1141.63 372.382 1142.3 373.054 1142.3 373.882L1142.3 379.985C1142.3 380.813 1141.63 381.485 1140.8 381.485L1135.21 381.485Z" fill="#F3F6FF" stroke="#8A8A8A"/>
<path d="M1142.85 381.485C1142.58 381.485 1142.35 381.261 1142.35 380.985L1142.35 372.883C1142.35 372.607 1142.58 372.383 1142.85 372.383L1143.63 372.383C1143.91 372.383 1144.13 372.607 1144.13 372.883L1144.13 380.985C1144.13 381.261 1143.91 381.485 1143.63 381.485L1142.85 381.485Z" fill="#F3F6FF" stroke="#8A8A8A"/>
<path d="M1146.66 382.525C1145.28 382.525 1144.16 381.406 1144.16 380.025L1144.16 373.842C1144.16 372.462 1145.28 371.342 1146.66 371.342L1147.98 371.342C1148.8 371.342 1149.48 372.014 1149.48 372.842L1149.48 381.025C1149.48 381.853 1148.8 382.525 1147.98 382.525L1146.66 382.525Z" fill="#F3F6FF" stroke="#8A8A8A"/>
<circle cx="1146.82" cy="376.934" r="0.5" transform="rotate(-90 1146.82 376.934)" fill="#D9D9D9" stroke="#8A8A8A" stroke-width="0.534302"/>
<path d="M1232.07 490.162C1234.58 490.162 1236.62 492.199 1236.62 494.713C1236.62 497.227 1234.58 499.264 1232.07 499.264L1226.48 499.264C1225.66 499.264 1224.98 498.593 1224.98 497.764L1224.98 491.662C1224.98 490.833 1225.66 490.162 1226.48 490.162L1232.07 490.162Z" fill="#F3F6FF" stroke="#8A8A8A"/>
<path d="M1224.43 490.161C1224.71 490.161 1224.93 490.385 1224.93 490.661L1224.93 498.764C1224.93 499.04 1224.71 499.264 1224.43 499.264L1223.65 499.264C1223.37 499.264 1223.15 499.04 1223.15 498.764L1223.15 490.661C1223.15 490.385 1223.37 490.161 1223.65 490.161L1224.43 490.161Z" fill="#F3F6FF" stroke="#8A8A8A"/>
<path d="M1220.63 489.122C1222.01 489.122 1223.13 490.241 1223.13 491.622L1223.13 497.804C1223.13 499.185 1222.01 500.304 1220.63 500.304L1219.31 500.304C1218.48 500.304 1217.81 499.633 1217.81 498.804L1217.81 490.622C1217.81 489.793 1218.48 489.122 1219.31 489.122L1220.63 489.122Z" fill="#F3F6FF" stroke="#8A8A8A"/>
<circle cx="1220.47" cy="494.712" r="0.5" transform="rotate(90 1220.47 494.712)" fill="#D9D9D9" stroke="#8A8A8A" stroke-width="0.534302"/>
<path d="M1232.07 519.142C1234.58 519.142 1236.62 521.18 1236.62 523.693C1236.62 526.207 1234.58 528.245 1232.07 528.245L1226.48 528.245C1225.66 528.245 1224.98 527.573 1224.98 526.745L1224.98 520.642C1224.98 519.814 1225.66 519.142 1226.48 519.142L1232.07 519.142Z" fill="#F3F6FF" stroke="#8A8A8A"/>
<path d="M1224.43 519.142C1224.71 519.142 1224.93 519.365 1224.93 519.642L1224.93 527.744C1224.93 528.02 1224.71 528.244 1224.43 528.244L1223.65 528.244C1223.37 528.244 1223.15 528.02 1223.15 527.744L1223.15 519.642C1223.15 519.365 1223.37 519.142 1223.65 519.142L1224.43 519.142Z" fill="#F3F6FF" stroke="#8A8A8A"/>
<path d="M1220.63 518.102C1222.01 518.102 1223.13 519.221 1223.13 520.602L1223.13 526.785C1223.13 528.165 1222.01 529.285 1220.63 529.285L1219.31 529.285C1218.48 529.285 1217.81 528.613 1217.81 527.785L1217.81 519.602C1217.81 518.774 1218.48 518.102 1219.31 518.102L1220.63 518.102Z" fill="#F3F6FF" stroke="#8A8A8A"/>
<circle cx="1220.47" cy="523.693" r="0.5" transform="rotate(90 1220.47 523.693)" fill="#D9D9D9" stroke="#8A8A8A" stroke-width="0.534302"/>
<path d="M442.955 398.544V399.559H438.394V407.998H437.249V398.544H442.955ZM445.701 408.164C445.251 408.164 444.843 408.08 444.477 407.91C444.111 407.738 443.82 407.49 443.605 407.167C443.389 406.841 443.282 406.447 443.282 405.985C443.282 405.579 443.362 405.25 443.522 404.997C443.682 404.742 443.896 404.542 444.163 404.397C444.431 404.253 444.726 404.145 445.05 404.074C445.376 404 445.704 403.942 446.033 403.899C446.464 403.843 446.813 403.802 447.081 403.774C447.352 403.743 447.549 403.692 447.672 403.622C447.798 403.551 447.861 403.428 447.861 403.252V403.215C447.861 402.76 447.736 402.406 447.487 402.154C447.241 401.901 446.867 401.775 446.365 401.775C445.845 401.775 445.437 401.889 445.142 402.117C444.847 402.344 444.639 402.588 444.519 402.846L443.485 402.477C443.669 402.046 443.916 401.71 444.223 401.47C444.534 401.227 444.873 401.058 445.239 400.963C445.608 400.864 445.971 400.815 446.328 400.815C446.556 400.815 446.818 400.843 447.113 400.898C447.412 400.95 447.699 401.059 447.976 401.226C448.257 401.392 448.489 401.643 448.674 401.978C448.858 402.314 448.951 402.763 448.951 403.326V407.998H447.861V407.038H447.806C447.732 407.192 447.609 407.356 447.436 407.532C447.264 407.707 447.035 407.856 446.748 407.98C446.462 408.103 446.113 408.164 445.701 408.164ZM445.867 407.186C446.298 407.186 446.661 407.101 446.956 406.932C447.255 406.762 447.479 406.544 447.63 406.276C447.784 406.008 447.861 405.727 447.861 405.431V404.434C447.815 404.49 447.713 404.54 447.556 404.586C447.403 404.63 447.224 404.668 447.021 404.702C446.821 404.733 446.625 404.76 446.435 404.785C446.247 404.807 446.094 404.825 445.978 404.84C445.694 404.877 445.43 404.937 445.184 405.02C444.94 405.1 444.743 405.222 444.593 405.385C444.445 405.545 444.371 405.764 444.371 406.041C444.371 406.419 444.511 406.705 444.791 406.899C445.074 407.09 445.433 407.186 445.867 407.186ZM450.939 410.657V400.907H451.992V402.034H452.121C452.201 401.91 452.312 401.753 452.453 401.563C452.598 401.369 452.804 401.196 453.072 401.046C453.343 400.892 453.709 400.815 454.171 400.815C454.768 400.815 455.294 400.964 455.749 401.263C456.205 401.561 456.56 401.984 456.816 402.532C457.071 403.08 457.199 403.726 457.199 404.471C457.199 405.222 457.071 405.873 456.816 406.424C456.56 406.972 456.207 407.396 455.754 407.698C455.302 407.997 454.78 408.146 454.189 408.146C453.734 408.146 453.369 408.07 453.095 407.92C452.821 407.766 452.61 407.592 452.463 407.398C452.315 407.201 452.201 407.038 452.121 406.909H452.029V410.657H450.939ZM452.01 404.453C452.01 404.988 452.089 405.461 452.246 405.87C452.403 406.276 452.632 406.595 452.933 406.825C453.235 407.053 453.604 407.167 454.041 407.167C454.497 407.167 454.877 407.047 455.182 406.807C455.489 406.564 455.72 406.238 455.874 405.828C456.031 405.416 456.11 404.957 456.11 404.453C456.11 403.954 456.033 403.505 455.879 403.105C455.728 402.701 455.499 402.383 455.191 402.149C454.886 401.912 454.503 401.794 454.041 401.794C453.598 401.794 453.226 401.906 452.924 402.131C452.623 402.352 452.395 402.663 452.241 403.063C452.087 403.46 452.01 403.923 452.01 404.453ZM458.104 410.029V406.982H458.695C458.839 406.832 458.964 406.669 459.069 406.493C459.173 406.318 459.264 406.11 459.341 405.87C459.421 405.627 459.489 405.331 459.544 404.983C459.6 404.633 459.649 404.209 459.692 403.714L459.932 400.907H464.438V406.982H465.527V410.029H464.438V407.998H459.193V410.029H458.104ZM459.932 406.982H463.348V401.923H460.948L460.763 403.714C460.686 404.456 460.591 405.104 460.477 405.657C460.363 406.211 460.181 406.653 459.932 406.982ZM469.946 408.146C469.263 408.146 468.674 407.995 468.178 407.693C467.686 407.389 467.306 406.964 467.038 406.419C466.773 405.871 466.641 405.234 466.641 404.508C466.641 403.782 466.773 403.142 467.038 402.588C467.306 402.03 467.678 401.597 468.155 401.286C468.635 400.972 469.195 400.815 469.836 400.815C470.205 400.815 470.57 400.876 470.93 400.999C471.29 401.123 471.617 401.323 471.913 401.6C472.208 401.874 472.444 402.237 472.619 402.689C472.795 403.142 472.882 403.699 472.882 404.36V404.822H467.416V403.88H471.774C471.774 403.48 471.694 403.123 471.534 402.809C471.377 402.495 471.153 402.247 470.86 402.066C470.571 401.884 470.229 401.794 469.836 401.794C469.402 401.794 469.026 401.901 468.709 402.117C468.395 402.329 468.154 402.606 467.984 402.948C467.815 403.289 467.73 403.655 467.73 404.046V404.674C467.73 405.21 467.823 405.664 468.007 406.036C468.195 406.405 468.455 406.687 468.788 406.881C469.12 407.072 469.506 407.167 469.946 407.167C470.233 407.167 470.491 407.127 470.722 407.047C470.956 406.964 471.157 406.841 471.327 406.678C471.496 406.512 471.627 406.305 471.719 406.059L472.772 406.355C472.661 406.712 472.475 407.026 472.213 407.296C471.951 407.564 471.628 407.773 471.244 407.924C470.859 408.072 470.426 408.146 469.946 408.146ZM474.54 410.657V400.907H475.592V402.034H475.722C475.802 401.91 475.912 401.753 476.054 401.563C476.199 401.369 476.405 401.196 476.673 401.046C476.943 400.892 477.31 400.815 477.771 400.815C478.368 400.815 478.895 400.964 479.35 401.263C479.806 401.561 480.161 401.984 480.416 402.532C480.672 403.08 480.8 403.726 480.8 404.471C480.8 405.222 480.672 405.873 480.416 406.424C480.161 406.972 479.807 407.396 479.355 407.698C478.902 407.997 478.381 408.146 477.79 408.146C477.334 408.146 476.969 408.07 476.696 407.92C476.422 407.766 476.211 407.592 476.063 407.398C475.915 407.201 475.802 407.038 475.722 406.909H475.629V410.657H474.54ZM475.611 404.453C475.611 404.988 475.689 405.461 475.846 405.87C476.003 406.276 476.232 406.595 476.534 406.825C476.836 407.053 477.205 407.167 477.642 407.167C478.097 407.167 478.478 407.047 478.782 406.807C479.09 406.564 479.321 406.238 479.475 405.828C479.632 405.416 479.71 404.957 479.71 404.453C479.71 403.954 479.633 403.505 479.479 403.105C479.329 402.701 479.099 402.383 478.791 402.149C478.487 401.912 478.104 401.794 477.642 401.794C477.199 401.794 476.826 401.906 476.525 402.131C476.223 402.352 475.995 402.663 475.842 403.063C475.688 403.46 475.611 403.923 475.611 404.453ZM485.342 408.146C484.702 408.146 484.14 407.993 483.657 407.689C483.177 407.384 482.802 406.958 482.531 406.41C482.263 405.862 482.129 405.222 482.129 404.49C482.129 403.751 482.263 403.106 482.531 402.555C482.802 402.004 483.177 401.577 483.657 401.272C484.14 400.967 484.702 400.815 485.342 400.815C485.982 400.815 486.543 400.967 487.023 401.272C487.506 401.577 487.881 402.004 488.149 402.555C488.42 403.106 488.555 403.751 488.555 404.49C488.555 405.222 488.42 405.862 488.149 406.41C487.881 406.958 487.506 407.384 487.023 407.689C486.543 407.993 485.982 408.146 485.342 408.146ZM485.342 407.167C485.829 407.167 486.229 407.042 486.543 406.793C486.856 406.544 487.089 406.216 487.24 405.81C487.39 405.404 487.466 404.963 487.466 404.49C487.466 404.016 487.39 403.574 487.24 403.165C487.089 402.755 486.856 402.424 486.543 402.172C486.229 401.92 485.829 401.794 485.342 401.794C484.856 401.794 484.456 401.92 484.142 402.172C483.828 402.424 483.596 402.755 483.445 403.165C483.294 403.574 483.219 404.016 483.219 404.49C483.219 404.963 483.294 405.404 483.445 405.81C483.596 406.216 483.828 406.544 484.142 406.793C484.456 407.042 484.856 407.167 485.342 407.167ZM495.481 398.248L496.035 398.913C495.82 399.122 495.57 399.268 495.287 399.351C495.004 399.434 494.684 399.485 494.327 399.504C493.97 399.522 493.573 399.541 493.136 399.559C492.644 399.578 492.236 399.698 491.913 399.919C491.589 400.141 491.34 400.461 491.165 400.879C490.989 401.298 490.877 401.812 490.828 402.421H490.92C491.16 401.978 491.493 401.652 491.917 401.443C492.342 401.233 492.797 401.129 493.284 401.129C493.838 401.129 494.336 401.258 494.779 401.517C495.223 401.775 495.574 402.158 495.832 402.666C496.091 403.174 496.22 403.8 496.22 404.545C496.22 405.287 496.087 405.927 495.823 406.465C495.561 407.004 495.193 407.419 494.719 407.712C494.249 408.001 493.696 408.146 493.062 408.146C492.428 408.146 491.873 407.997 491.396 407.698C490.919 407.396 490.548 406.95 490.283 406.359C490.018 405.765 489.886 405.031 489.886 404.157V403.4C489.886 401.821 490.154 400.624 490.689 399.808C491.228 398.993 492.037 398.571 493.118 398.544C493.499 398.531 493.839 398.528 494.138 398.534C494.436 398.54 494.696 398.527 494.918 398.493C495.14 398.459 495.327 398.377 495.481 398.248ZM493.062 407.167C493.49 407.167 493.858 407.059 494.165 406.844C494.476 406.628 494.715 406.325 494.881 405.934C495.047 405.541 495.13 405.077 495.13 404.545C495.13 404.028 495.046 403.588 494.876 403.225C494.71 402.861 494.472 402.584 494.161 402.394C493.85 402.203 493.478 402.107 493.044 402.107C492.727 402.107 492.442 402.161 492.19 402.269C491.937 402.377 491.722 402.535 491.543 402.744C491.365 402.954 491.226 403.209 491.128 403.511C491.032 403.812 490.982 404.157 490.976 404.545C490.976 405.339 491.162 405.974 491.534 406.452C491.906 406.929 492.416 407.167 493.062 407.167Z" fill="black"/>
<path d="M46.9441 387.435L43.6941 383.095H42.5308V387.435H41.3859V377.98H42.5308V382.079H43.0293L46.8149 377.98H48.1813L44.3589 382.135L48.3106 387.435H46.9441ZM51.7291 387.601C51.2798 387.601 50.872 387.516 50.5057 387.347C50.1395 387.175 49.8487 386.927 49.6332 386.604C49.4178 386.277 49.3101 385.883 49.3101 385.422C49.3101 385.016 49.3901 384.686 49.5501 384.434C49.7102 384.178 49.9241 383.978 50.1918 383.834C50.4596 383.689 50.755 383.581 51.0782 383.511C51.4044 383.437 51.7322 383.378 52.0615 383.335C52.4924 383.28 52.8417 383.238 53.1094 383.21C53.3803 383.18 53.5772 383.129 53.7003 383.058C53.8265 382.987 53.8896 382.864 53.8896 382.689V382.652C53.8896 382.196 53.765 381.842 53.5157 381.59C53.2695 381.338 52.8955 381.212 52.3939 381.212C51.8738 381.212 51.466 381.325 51.1705 381.553C50.8751 381.781 50.6673 382.024 50.5473 382.283L49.5132 381.913C49.6979 381.482 49.9441 381.147 50.2518 380.907C50.5627 380.664 50.9012 380.494 51.2675 380.399C51.6368 380.301 51.9999 380.251 52.3569 380.251C52.5847 380.251 52.8463 380.279 53.1417 380.334C53.4403 380.387 53.728 380.496 54.005 380.662C54.2851 380.828 54.5175 381.079 54.7021 381.415C54.8868 381.75 54.9791 382.199 54.9791 382.763V387.435H53.8896V386.474H53.8342C53.7604 386.628 53.6372 386.793 53.4649 386.968C53.2925 387.144 53.0633 387.293 52.777 387.416C52.4908 387.539 52.1415 387.601 51.7291 387.601ZM51.8953 386.622C52.3262 386.622 52.6893 386.537 52.9848 386.368C53.2833 386.199 53.508 385.98 53.6588 385.713C53.8127 385.445 53.8896 385.163 53.8896 384.868V383.871C53.8434 383.926 53.7419 383.977 53.5849 384.023C53.431 384.066 53.2525 384.105 53.0494 384.138C52.8494 384.169 52.6539 384.197 52.4631 384.222C52.2754 384.243 52.123 384.262 52.0061 384.277C51.7229 384.314 51.4583 384.374 51.2121 384.457C50.9689 384.537 50.772 384.659 50.6211 384.822C50.4734 384.982 50.3996 385.2 50.3996 385.477C50.3996 385.856 50.5396 386.142 50.8197 386.336C51.1028 386.527 51.4613 386.622 51.8953 386.622ZM59.8483 389.854V377.98H60.9378V389.854H59.8483ZM59.8483 387.582C59.3682 387.582 58.9312 387.496 58.5373 387.324C58.1433 387.148 57.8048 386.901 57.5216 386.581C57.2385 386.257 57.02 385.871 56.8661 385.422C56.7122 384.972 56.6353 384.474 56.6353 383.926C56.6353 383.372 56.7122 382.87 56.8661 382.421C57.02 381.969 57.2385 381.581 57.5216 381.258C57.8048 380.935 58.1433 380.687 58.5373 380.514C58.9312 380.339 59.3682 380.251 59.8483 380.251H60.1807V387.582H59.8483ZM59.8483 386.604H60.033V381.23H59.8483C59.4852 381.23 59.1697 381.304 58.902 381.452C58.6342 381.596 58.4126 381.795 58.2372 382.047C58.0648 382.296 57.9356 382.583 57.8494 382.906C57.7663 383.229 57.7248 383.569 57.7248 383.926C57.7248 384.4 57.8002 384.84 57.951 385.246C58.1018 385.653 58.3341 385.98 58.648 386.23C58.962 386.479 59.3621 386.604 59.8483 386.604ZM60.9378 387.582H60.6054V380.251H60.9378C61.4179 380.251 61.855 380.339 62.2489 380.514C62.6428 380.687 62.9814 380.935 63.2645 381.258C63.5477 381.581 63.7662 381.969 63.9201 382.421C64.0739 382.87 64.1509 383.372 64.1509 383.926C64.1509 384.474 64.0739 384.972 63.9201 385.422C63.7662 385.871 63.5477 386.257 63.2645 386.581C62.9814 386.901 62.6428 387.148 62.2489 387.324C61.855 387.496 61.4179 387.582 60.9378 387.582ZM60.9378 386.604C61.3041 386.604 61.6195 386.533 61.8842 386.391C62.152 386.247 62.372 386.05 62.5444 385.8C62.7198 385.548 62.849 385.262 62.9321 384.942C63.0183 384.619 63.0614 384.28 63.0614 383.926C63.0614 383.452 62.986 383.01 62.8352 382.601C62.6844 382.192 62.452 381.861 62.1381 381.609C61.8242 381.356 61.4241 381.23 60.9378 381.23H60.7532V386.604H60.9378ZM68.7893 387.582C68.1061 387.582 67.5167 387.431 67.0212 387.13C66.5288 386.825 66.1487 386.4 65.8809 385.856C65.6162 385.308 65.4839 384.671 65.4839 383.945C65.4839 383.218 65.6162 382.578 65.8809 382.024C66.1487 381.467 66.5211 381.033 66.9981 380.722C67.4782 380.408 68.0383 380.251 68.6785 380.251C69.0478 380.251 69.4125 380.313 69.7726 380.436C70.1327 380.559 70.4605 380.759 70.7559 381.036C71.0514 381.31 71.2868 381.673 71.4622 382.126C71.6377 382.578 71.7254 383.135 71.7254 383.797V384.258H66.2595V383.317H70.6174C70.6174 382.917 70.5374 382.56 70.3774 382.246C70.2204 381.932 69.9957 381.684 69.7034 381.502C69.4141 381.321 69.0724 381.23 68.6785 381.23C68.2445 381.23 67.8691 381.338 67.5521 381.553C67.2382 381.766 66.9966 382.043 66.8273 382.384C66.658 382.726 66.5734 383.092 66.5734 383.483V384.111C66.5734 384.646 66.6657 385.1 66.8504 385.473C67.0381 385.842 67.2982 386.123 67.6306 386.317C67.9629 386.508 68.3492 386.604 68.7893 386.604C69.0755 386.604 69.334 386.564 69.5649 386.484C69.7988 386.4 70.0003 386.277 70.1696 386.114C70.3389 385.948 70.4697 385.742 70.562 385.496L71.6146 385.791C71.5038 386.148 71.3176 386.462 71.056 386.733C70.7944 387.001 70.4712 387.21 70.0865 387.361C69.7018 387.508 69.2694 387.582 68.7893 387.582Z" fill="black"/>
<path d="M27.5574 458.011V467.465H26.4126V459.026H21.6484V467.465H20.5035V458.011H27.5574ZM32.6921 467.613C32.0089 467.613 31.4195 467.462 30.924 467.161C30.4316 466.856 30.0515 466.431 29.7837 465.886C29.5191 465.339 29.3867 464.702 29.3867 463.975C29.3867 463.249 29.5191 462.609 29.7837 462.055C30.0515 461.498 30.4239 461.064 30.9009 460.753C31.381 460.439 31.9412 460.282 32.5813 460.282C32.9506 460.282 33.3153 460.344 33.6754 460.467C34.0355 460.59 34.3633 460.79 34.6587 461.067C34.9542 461.341 35.1896 461.704 35.3651 462.156C35.5405 462.609 35.6282 463.166 35.6282 463.828V464.289H30.1623V463.347H34.5203C34.5203 462.947 34.4402 462.59 34.2802 462.276C34.1232 461.962 33.8986 461.715 33.6062 461.533C33.3169 461.352 32.9753 461.261 32.5813 461.261C32.1474 461.261 31.7719 461.369 31.4549 461.584C31.141 461.796 30.8994 462.073 30.7301 462.415C30.5609 462.757 30.4762 463.123 30.4762 463.514V464.141C30.4762 464.677 30.5685 465.131 30.7532 465.503C30.9409 465.873 31.201 466.154 31.5334 466.348C31.8658 466.539 32.252 466.634 32.6921 466.634C32.9783 466.634 33.2369 466.594 33.4677 466.514C33.7016 466.431 33.9032 466.308 34.0725 466.145C34.2417 465.979 34.3725 465.773 34.4649 465.526L35.5174 465.822C35.4066 466.179 35.2204 466.493 34.9588 466.764C34.6972 467.031 34.3741 467.241 33.9894 467.391C33.6046 467.539 33.1722 467.613 32.6921 467.613ZM37.2855 470.124V460.374H38.3381V461.501H38.4673C38.5474 461.378 38.6582 461.221 38.7997 461.03C38.9444 460.836 39.1506 460.664 39.4183 460.513C39.6892 460.359 40.0554 460.282 40.5171 460.282C41.1141 460.282 41.6404 460.431 42.0959 460.73C42.5514 461.028 42.9069 461.452 43.1623 461.999C43.4177 462.547 43.5455 463.194 43.5455 463.938C43.5455 464.689 43.4177 465.34 43.1623 465.891C42.9069 466.439 42.5529 466.864 42.1005 467.165C41.6481 467.464 41.1264 467.613 40.5355 467.613C40.08 467.613 39.7153 467.538 39.4414 467.387C39.1675 467.233 38.9567 467.059 38.809 466.865C38.6612 466.668 38.5474 466.505 38.4673 466.376H38.375V470.124H37.2855ZM38.3565 463.92C38.3565 464.455 38.435 464.928 38.592 465.337C38.7489 465.743 38.9782 466.062 39.2798 466.293C39.5814 466.52 39.9508 466.634 40.3878 466.634C40.8433 466.634 41.2234 466.514 41.5281 466.274C41.8358 466.031 42.0667 465.705 42.2205 465.296C42.3775 464.883 42.456 464.425 42.456 463.92C42.456 463.421 42.379 462.972 42.2252 462.572C42.0743 462.169 41.8451 461.85 41.5373 461.616C41.2326 461.379 40.8494 461.261 40.3878 461.261C39.9446 461.261 39.5722 461.373 39.2706 461.598C38.969 461.819 38.7412 462.13 38.5874 462.53C38.4335 462.927 38.3565 463.391 38.3565 463.92ZM48.1804 467.613C47.4972 467.613 46.9078 467.462 46.4123 467.161C45.9199 466.856 45.5398 466.431 45.272 465.886C45.0073 465.339 44.875 464.702 44.875 463.975C44.875 463.249 45.0073 462.609 45.272 462.055C45.5398 461.498 45.9122 461.064 46.3892 460.753C46.8693 460.439 47.4295 460.282 48.0696 460.282C48.4389 460.282 48.8036 460.344 49.1637 460.467C49.5238 460.59 49.8516 460.79 50.147 461.067C50.4425 461.341 50.6779 461.704 50.8533 462.156C51.0288 462.609 51.1165 463.166 51.1165 463.828V464.289H45.6506V463.347H50.0085C50.0085 462.947 49.9285 462.59 49.7685 462.276C49.6115 461.962 49.3868 461.715 49.0945 461.533C48.8052 461.352 48.4636 461.261 48.0696 461.261C47.6357 461.261 47.2602 461.369 46.9432 461.584C46.6293 461.796 46.3877 462.073 46.2184 462.415C46.0491 462.757 45.9645 463.123 45.9645 463.514V464.141C45.9645 464.677 46.0568 465.131 46.2415 465.503C46.4292 465.873 46.6893 466.154 47.0217 466.348C47.3541 466.539 47.7403 466.634 48.1804 466.634C48.4666 466.634 48.7252 466.594 48.956 466.514C49.1899 466.431 49.3915 466.308 49.5607 466.145C49.73 465.979 49.8608 465.773 49.9531 465.526L51.0057 465.822C50.8949 466.179 50.7087 466.493 50.4471 466.764C50.1855 467.031 49.8623 467.241 49.4776 467.391C49.0929 467.539 48.6605 467.613 48.1804 467.613ZM57.1502 460.374V461.39H53.8633V467.465H52.7738V460.374H57.1502ZM61.2531 467.613C60.613 467.613 60.0513 467.461 59.5681 467.156C59.088 466.851 58.7125 466.425 58.4417 465.877C58.1739 465.329 58.04 464.689 58.04 463.957C58.04 463.218 58.1739 462.573 58.4417 462.023C58.7125 461.472 59.088 461.044 59.5681 460.739C60.0513 460.434 60.613 460.282 61.2531 460.282C61.8933 460.282 62.4534 460.434 62.9335 460.739C63.4167 461.044 63.7922 461.472 64.0599 462.023C64.3308 462.573 64.4662 463.218 64.4662 463.957C64.4662 464.689 64.3308 465.329 64.0599 465.877C63.7922 466.425 63.4167 466.851 62.9335 467.156C62.4534 467.461 61.8933 467.613 61.2531 467.613ZM61.2531 466.634C61.7394 466.634 62.1395 466.51 62.4534 466.26C62.7673 466.011 62.9997 465.683 63.1505 465.277C63.3013 464.871 63.3767 464.431 63.3767 463.957C63.3767 463.483 63.3013 463.041 63.1505 462.632C62.9997 462.223 62.7673 461.892 62.4534 461.639C62.1395 461.387 61.7394 461.261 61.2531 461.261C60.7668 461.261 60.3668 461.387 60.0528 461.639C59.7389 461.892 59.5065 462.223 59.3557 462.632C59.2049 463.041 59.1295 463.483 59.1295 463.957C59.1295 464.431 59.2049 464.871 59.3557 465.277C59.5065 465.683 59.7389 466.011 60.0528 466.26C60.3668 466.51 60.7668 466.634 61.2531 466.634ZM66.1293 467.465V460.374H69.0284C69.7917 460.374 70.398 460.547 70.8473 460.891C71.2966 461.236 71.5213 461.692 71.5213 462.258C71.5213 462.689 71.3936 463.023 71.1381 463.26C70.8827 463.494 70.5549 463.652 70.1548 463.735C70.4164 463.772 70.6703 463.864 70.9166 464.012C71.1658 464.16 71.372 464.363 71.5352 464.622C71.6983 464.877 71.7798 465.191 71.7798 465.563C71.7798 465.927 71.6875 466.251 71.5028 466.537C71.3182 466.824 71.0535 467.05 70.7088 467.216C70.3641 467.382 69.9517 467.465 69.4716 467.465H66.1293ZM67.1634 466.468H69.4716C69.8471 466.468 70.141 466.379 70.3533 466.2C70.5657 466.022 70.6719 465.779 70.6719 465.471C70.6719 465.105 70.5657 464.817 70.3533 464.608C70.141 464.395 69.8471 464.289 69.4716 464.289H67.1634V466.468ZM67.1634 463.347H69.0284C69.3208 463.347 69.5716 463.307 69.7809 463.227C69.9902 463.144 70.1502 463.027 70.261 462.877C70.3749 462.723 70.4318 462.541 70.4318 462.332C70.4318 462.033 70.3072 461.799 70.0579 461.63C69.8086 461.458 69.4654 461.372 69.0284 461.372H67.1634V463.347ZM76.3098 467.613C75.6696 467.613 75.1079 467.461 74.6247 467.156C74.1446 466.851 73.7692 466.425 73.4983 465.877C73.2306 465.329 73.0967 464.689 73.0967 463.957C73.0967 463.218 73.2306 462.573 73.4983 462.023C73.7692 461.472 74.1446 461.044 74.6247 460.739C75.1079 460.434 75.6696 460.282 76.3098 460.282C76.9499 460.282 77.51 460.434 77.9902 460.739C78.4733 461.044 78.8488 461.472 79.1166 462.023C79.3874 462.573 79.5228 463.218 79.5228 463.957C79.5228 464.689 79.3874 465.329 79.1166 465.877C78.8488 466.425 78.4733 466.851 77.9902 467.156C77.51 467.461 76.9499 467.613 76.3098 467.613ZM76.3098 466.634C76.796 466.634 77.1961 466.51 77.51 466.26C77.824 466.011 78.0563 465.683 78.2071 465.277C78.3579 464.871 78.4333 464.431 78.4333 463.957C78.4333 463.483 78.3579 463.041 78.2071 462.632C78.0563 462.223 77.824 461.892 77.51 461.639C77.1961 461.387 76.796 461.261 76.3098 461.261C75.8235 461.261 75.4234 461.387 75.1095 461.639C74.7956 461.892 74.5632 462.223 74.4124 462.632C74.2616 463.041 74.1862 463.483 74.1862 463.957C74.1862 464.431 74.2616 464.871 74.4124 465.277C74.5632 465.683 74.7956 466.011 75.1095 466.26C75.4234 466.51 75.8235 466.634 76.3098 466.634ZM81.1859 470.124V460.374H82.2385V461.501H82.3677C82.4477 461.378 82.5585 461.221 82.7001 461.03C82.8448 460.836 83.051 460.664 83.3187 460.513C83.5896 460.359 83.9558 460.282 84.4174 460.282C85.0145 460.282 85.5408 460.431 85.9963 460.73C86.4518 461.028 86.8072 461.452 87.0627 461.999C87.3181 462.547 87.4459 463.194 87.4459 463.938C87.4459 464.689 87.3181 465.34 87.0627 465.891C86.8072 466.439 86.4533 466.864 86.0009 467.165C85.5485 467.464 85.0268 467.613 84.4359 467.613C83.9804 467.613 83.6157 467.538 83.3418 467.387C83.0679 467.233 82.8571 467.059 82.7093 466.865C82.5616 466.668 82.4477 466.505 82.3677 466.376H82.2754V470.124H81.1859ZM82.2569 463.92C82.2569 464.455 82.3354 464.928 82.4924 465.337C82.6493 465.743 82.8786 466.062 83.1802 466.293C83.4818 466.52 83.8512 466.634 84.2882 466.634C84.7437 466.634 85.1238 466.514 85.4285 466.274C85.7362 466.031 85.967 465.705 86.1209 465.296C86.2779 464.883 86.3564 464.425 86.3564 463.92C86.3564 463.421 86.2794 462.972 86.1255 462.572C85.9747 462.169 85.7455 461.85 85.4377 461.616C85.133 461.379 84.7498 461.261 84.2882 461.261C83.845 461.261 83.4726 461.373 83.171 461.598C82.8694 461.819 82.6416 462.13 82.4878 462.53C82.3339 462.927 82.2569 463.391 82.2569 463.92ZM89.9018 467.539C89.6741 467.539 89.4786 467.458 89.3155 467.295C89.1524 467.131 89.0709 466.936 89.0709 466.708C89.0709 466.48 89.1524 466.285 89.3155 466.122C89.4786 465.959 89.6741 465.877 89.9018 465.877C90.1296 465.877 90.325 465.959 90.4881 466.122C90.6512 466.285 90.7328 466.48 90.7328 466.708C90.7328 466.859 90.6943 466.998 90.6174 467.124C90.5435 467.25 90.4435 467.351 90.3173 467.428C90.1942 467.502 90.0557 467.539 89.9018 467.539ZM30.2968 481.465V474.374H31.3862V477.458H32.1064L34.6547 474.374H36.0581L33.1959 477.791L36.095 481.465H34.6916L32.3649 478.474H31.3862V481.465H30.2968ZM39.8679 481.613C39.2277 481.613 38.666 481.461 38.1828 481.156C37.7027 480.851 37.3273 480.425 37.0564 479.877C36.7887 479.329 36.6548 478.689 36.6548 477.957C36.6548 477.218 36.7887 476.573 37.0564 476.023C37.3273 475.472 37.7027 475.044 38.1828 474.739C38.666 474.434 39.2277 474.282 39.8679 474.282C40.508 474.282 41.0681 474.434 41.5483 474.739C42.0315 475.044 42.4069 475.472 42.6747 476.023C42.9455 476.573 43.0809 477.218 43.0809 477.957C43.0809 478.689 42.9455 479.329 42.6747 479.877C42.4069 480.425 42.0315 480.851 41.5483 481.156C41.0681 481.461 40.508 481.613 39.8679 481.613ZM39.8679 480.634C40.3541 480.634 40.7542 480.51 41.0681 480.26C41.3821 480.011 41.6144 479.683 41.7652 479.277C41.916 478.871 41.9914 478.431 41.9914 477.957C41.9914 477.483 41.916 477.041 41.7652 476.632C41.6144 476.223 41.3821 475.892 41.0681 475.639C40.7542 475.387 40.3541 475.261 39.8679 475.261C39.3816 475.261 38.9815 475.387 38.6676 475.639C38.3537 475.892 38.1213 476.223 37.9705 476.632C37.8197 477.041 37.7443 477.483 37.7443 477.957C37.7443 478.431 37.8197 478.871 37.9705 479.277C38.1213 479.683 38.3537 480.011 38.6676 480.26C38.9815 480.51 39.3816 480.634 39.8679 480.634ZM48.6219 479.988L51.0963 474.374H52.1304L49.065 481.465H48.1787L45.1687 474.374H46.1844L48.6219 479.988ZM45.8335 474.374V481.465H44.744V474.374H45.8335ZM51.4102 481.465V474.374H52.4997V481.465H51.4102ZM59.2398 477.421V478.437H55.325V477.421H59.2398ZM55.5835 474.374V481.465H54.494V474.374H55.5835ZM60.0707 474.374V481.465H58.9812V474.374H60.0707ZM64.1471 481.632C63.6977 481.632 63.2899 481.547 62.9237 481.378C62.5575 481.205 62.2666 480.958 62.0512 480.634C61.8358 480.308 61.728 479.914 61.728 479.453C61.728 479.046 61.8081 478.717 61.9681 478.465C62.1281 478.209 62.342 478.009 62.6098 477.864C62.8775 477.72 63.173 477.612 63.4961 477.541C63.8224 477.467 64.1501 477.409 64.4795 477.366C64.9103 477.311 65.2596 477.269 65.5274 477.241C65.7982 477.21 65.9952 477.16 66.1183 477.089C66.2445 477.018 66.3076 476.895 66.3076 476.72V476.683C66.3076 476.227 66.1829 475.873 65.9336 475.621C65.6874 475.369 65.3135 475.242 64.8118 475.242C64.2917 475.242 63.8839 475.356 63.5885 475.584C63.293 475.812 63.0853 476.055 62.9653 476.313L61.9312 475.944C62.1158 475.513 62.362 475.178 62.6698 474.938C62.9806 474.694 63.3192 474.525 63.6854 474.43C64.0547 474.331 64.4179 474.282 64.7749 474.282C65.0027 474.282 65.2643 474.31 65.5597 474.365C65.8582 474.418 66.146 474.527 66.423 474.693C66.7031 474.859 66.9354 475.11 67.1201 475.445C67.3047 475.781 67.3971 476.23 67.3971 476.793V481.465H66.3076V480.505H66.2522C66.1783 480.659 66.0552 480.824 65.8829 480.999C65.7105 481.174 65.4812 481.324 65.195 481.447C64.9088 481.57 64.5595 481.632 64.1471 481.632ZM64.3133 480.653C64.7441 480.653 65.1073 480.568 65.4028 480.399C65.7013 480.23 65.926 480.011 66.0768 479.743C66.2306 479.476 66.3076 479.194 66.3076 478.899V477.901C66.2614 477.957 66.1599 478.008 66.0029 478.054C65.849 478.097 65.6705 478.135 65.4674 478.169C65.2673 478.2 65.0719 478.228 64.8811 478.252C64.6934 478.274 64.541 478.292 64.4241 478.308C64.1409 478.345 63.8762 478.405 63.63 478.488C63.3869 478.568 63.1899 478.689 63.0391 478.852C62.8914 479.012 62.8175 479.231 62.8175 479.508C62.8175 479.886 62.9576 480.173 63.2376 480.367C63.5208 480.557 63.8793 480.653 64.3133 480.653ZM68.4208 475.39V474.374H74.1821V475.39H71.8554V481.465H70.7659V475.39H68.4208ZM77.4898 481.632C77.0405 481.632 76.6327 481.547 76.2665 481.378C75.9002 481.205 75.6094 480.958 75.394 480.634C75.1785 480.308 75.0708 479.914 75.0708 479.453C75.0708 479.046 75.1508 478.717 75.3109 478.465C75.4709 478.209 75.6848 478.009 75.9526 477.864C76.2203 477.72 76.5158 477.612 76.8389 477.541C77.1652 477.467 77.4929 477.409 77.8222 477.366C78.2531 477.311 78.6024 477.269 78.8702 477.241C79.141 477.21 79.338 477.16 79.4611 477.089C79.5873 477.018 79.6504 476.895 79.6504 476.72V476.683C79.6504 476.227 79.5257 475.873 79.2764 475.621C79.0302 475.369 78.6563 475.242 78.1546 475.242C77.6345 475.242 77.2267 475.356 76.9312 475.584C76.6358 475.812 76.4281 476.055 76.308 476.313L75.2739 475.944C75.4586 475.513 75.7048 475.178 76.0126 474.938C76.3234 474.694 76.662 474.525 77.0282 474.43C77.3975 474.331 77.7607 474.282 78.1177 474.282C78.3454 474.282 78.607 474.31 78.9025 474.365C79.201 474.418 79.4888 474.527 79.7658 474.693C80.0458 474.859 80.2782 475.11 80.4629 475.445C80.6475 475.781 80.7398 476.23 80.7398 476.793V481.465H79.6504V480.505H79.595C79.5211 480.659 79.398 480.824 79.2256 480.999C79.0533 481.174 78.824 481.324 78.5378 481.447C78.2516 481.57 77.9022 481.632 77.4898 481.632ZM77.656 480.653C78.0869 480.653 78.4501 480.568 78.7455 480.399C79.0441 480.23 79.2687 480.011 79.4195 479.743C79.5734 479.476 79.6504 479.194 79.6504 478.899V477.901C79.6042 477.957 79.5026 478.008 79.3457 478.054C79.1918 478.097 79.0133 478.135 78.8102 478.169C78.6101 478.2 78.4147 478.228 78.2239 478.252C78.0361 478.274 77.8838 478.292 77.7668 478.308C77.4837 478.345 77.219 478.405 76.9728 478.488C76.7297 478.568 76.5327 478.689 76.3819 478.852C76.2342 479.012 76.1603 479.231 76.1603 479.508C76.1603 479.886 76.3003 480.173 76.5804 480.367C76.8635 480.557 77.2221 480.653 77.656 480.653Z" fill="black"/>
<path d="M1265.36 670.66V669.608H1265.64C1266.03 669.608 1266.34 669.481 1266.55 669.229C1266.77 668.977 1266.93 668.569 1267.03 668.006C1267.12 667.442 1267.19 666.696 1267.22 665.767L1267.39 661.206H1273.15V670.66H1272.01V662.221H1268.48L1268.33 665.988C1268.29 666.979 1268.2 667.823 1268.06 668.518C1267.91 669.214 1267.66 669.745 1267.3 670.111C1266.93 670.477 1266.41 670.66 1265.71 670.66H1265.36ZM1276.38 669.054L1279.8 663.569H1281.05V670.66H1279.96V665.176L1276.57 670.66H1275.29V663.569H1276.38V669.054ZM1285.93 673.079V661.206H1287.02V673.079H1285.93ZM1285.93 670.808C1285.45 670.808 1285.01 670.722 1284.62 670.549C1284.22 670.374 1283.89 670.126 1283.6 669.806C1283.32 669.483 1283.1 669.097 1282.95 668.647C1282.79 668.198 1282.72 667.699 1282.72 667.152C1282.72 666.598 1282.79 666.096 1282.95 665.647C1283.1 665.194 1283.32 664.806 1283.6 664.483C1283.89 664.16 1284.22 663.912 1284.62 663.74C1285.01 663.565 1285.45 663.477 1285.93 663.477H1286.26V670.808H1285.93ZM1285.93 669.829H1286.11V664.456H1285.93C1285.57 664.456 1285.25 664.529 1284.98 664.677C1284.71 664.822 1284.49 665.02 1284.32 665.273C1284.15 665.522 1284.02 665.808 1283.93 666.131C1283.85 666.455 1283.81 666.795 1283.81 667.152C1283.81 667.626 1283.88 668.066 1284.03 668.472C1284.18 668.878 1284.41 669.206 1284.73 669.455C1285.04 669.705 1285.44 669.829 1285.93 669.829ZM1287.02 670.808H1286.69V663.477H1287.02C1287.5 663.477 1287.94 663.565 1288.33 663.74C1288.72 663.912 1289.06 664.16 1289.34 664.483C1289.63 664.806 1289.85 665.194 1290 665.647C1290.15 666.096 1290.23 666.598 1290.23 667.152C1290.23 667.699 1290.15 668.198 1290 668.647C1289.85 669.097 1289.63 669.483 1289.34 669.806C1289.06 670.126 1288.72 670.374 1288.33 670.549C1287.94 670.722 1287.5 670.808 1287.02 670.808ZM1287.02 669.829C1287.38 669.829 1287.7 669.758 1287.96 669.617C1288.23 669.472 1288.45 669.275 1288.62 669.026C1288.8 668.774 1288.93 668.487 1289.01 668.167C1289.1 667.844 1289.14 667.506 1289.14 667.152C1289.14 666.678 1289.07 666.236 1288.92 665.827C1288.76 665.417 1288.53 665.087 1288.22 664.834C1287.9 664.582 1287.5 664.456 1287.02 664.456H1286.83V669.829H1287.02ZM1290.97 664.585V663.569H1296.73V664.585H1294.4V670.66H1293.31V664.585H1290.97Z" fill="black"/>
<path d="M1081.22 564.057V563.004H1081.5C1081.9 563.004 1082.2 562.878 1082.42 562.626C1082.64 562.373 1082.8 561.965 1082.89 561.402C1082.99 560.839 1083.06 560.093 1083.09 559.163L1083.26 554.602H1089.02V564.057H1087.87V555.618H1084.34L1084.2 559.385C1084.16 560.376 1084.07 561.219 1083.92 561.915C1083.78 562.61 1083.53 563.141 1083.16 563.507C1082.8 563.874 1082.27 564.057 1081.58 564.057H1081.22ZM1094.13 564.204C1093.45 564.204 1092.86 564.054 1092.36 563.752C1091.87 563.447 1091.49 563.023 1091.22 562.478C1090.96 561.93 1090.82 561.293 1090.82 560.567C1090.82 559.84 1090.96 559.2 1091.22 558.646C1091.49 558.089 1091.86 557.655 1092.34 557.344C1092.82 557.03 1093.38 556.873 1094.02 556.873C1094.39 556.873 1094.75 556.935 1095.11 557.058C1095.47 557.181 1095.8 557.381 1096.1 557.658C1096.39 557.932 1096.63 558.295 1096.8 558.748C1096.98 559.2 1097.07 559.757 1097.07 560.419V560.881H1091.6V559.939H1095.96C1095.96 559.539 1095.88 559.182 1095.72 558.868C1095.56 558.554 1095.34 558.306 1095.04 558.124C1094.75 557.943 1094.41 557.852 1094.02 557.852C1093.58 557.852 1093.21 557.96 1092.89 558.175C1092.58 558.388 1092.34 558.665 1092.17 559.006C1092 559.348 1091.91 559.714 1091.91 560.105V560.733C1091.91 561.268 1092.01 561.722 1092.19 562.095C1092.38 562.464 1092.64 562.746 1092.97 562.939C1093.3 563.13 1093.69 563.226 1094.13 563.226C1094.42 563.226 1094.67 563.186 1094.91 563.106C1095.14 563.023 1095.34 562.899 1095.51 562.736C1095.68 562.57 1095.81 562.364 1095.9 562.118L1096.95 562.413C1096.84 562.77 1096.66 563.084 1096.4 563.355C1096.13 563.623 1095.81 563.832 1095.43 563.983C1095.04 564.131 1094.61 564.204 1094.13 564.204ZM1101.6 564.204C1100.94 564.204 1100.37 564.047 1099.89 563.733C1099.41 563.42 1099.04 562.987 1098.78 562.436C1098.52 561.885 1098.39 561.256 1098.39 560.548C1098.39 559.828 1098.52 559.192 1098.79 558.642C1099.06 558.088 1099.43 557.655 1099.9 557.344C1100.38 557.03 1100.95 556.873 1101.59 556.873C1102.08 556.873 1102.53 556.966 1102.93 557.15C1103.33 557.335 1103.66 557.594 1103.92 557.926C1104.17 558.258 1104.33 558.646 1104.39 559.089H1103.3C1103.22 558.766 1103.03 558.48 1102.75 558.231C1102.47 557.978 1102.08 557.852 1101.6 557.852C1101.18 557.852 1100.81 557.963 1100.49 558.184C1100.17 558.403 1099.92 558.712 1099.74 559.112C1099.57 559.509 1099.48 559.976 1099.48 560.511C1099.48 561.059 1099.57 561.536 1099.74 561.942C1099.91 562.349 1100.16 562.664 1100.48 562.889C1100.8 563.113 1101.17 563.226 1101.6 563.226C1101.89 563.226 1102.14 563.176 1102.37 563.078C1102.61 562.979 1102.8 562.838 1102.96 562.653C1103.12 562.469 1103.23 562.247 1103.3 561.988H1104.39C1104.33 562.407 1104.18 562.784 1103.93 563.119C1103.69 563.452 1103.38 563.717 1102.98 563.914C1102.59 564.107 1102.13 564.204 1101.6 564.204ZM1105.43 557.981V556.966H1111.19V557.981H1108.86V564.057H1107.77V557.981H1105.43ZM1117.52 560.013V561.028H1113.61V560.013H1117.52ZM1113.87 556.966V564.057H1112.78V556.966H1113.87ZM1118.35 556.966V564.057H1117.26V556.966H1118.35ZM1121.43 562.45L1124.85 556.966H1126.1V564.057H1125.01V558.572L1121.62 564.057H1120.34V556.966H1121.43V562.45ZM1133.68 556.966V563.041H1134.67V566.346H1133.58V564.057H1128.1V556.966H1129.19V563.041H1132.59V556.966H1133.68ZM1138.44 564.223C1137.99 564.223 1137.58 564.138 1137.22 563.969C1136.85 563.797 1136.56 563.549 1136.34 563.226C1136.13 562.899 1136.02 562.506 1136.02 562.044C1136.02 561.638 1136.1 561.308 1136.26 561.056C1136.42 560.8 1136.63 560.6 1136.9 560.456C1137.17 560.311 1137.46 560.203 1137.79 560.133C1138.11 560.059 1138.44 560 1138.77 559.957C1139.2 559.902 1139.55 559.86 1139.82 559.833C1140.09 559.802 1140.29 559.751 1140.41 559.68C1140.54 559.609 1140.6 559.486 1140.6 559.311V559.274C1140.6 558.818 1140.47 558.465 1140.23 558.212C1139.98 557.96 1139.6 557.834 1139.1 557.834C1138.58 557.834 1138.18 557.948 1137.88 558.175C1137.58 558.403 1137.38 558.646 1137.26 558.905L1136.22 558.535C1136.41 558.104 1136.65 557.769 1136.96 557.529C1137.27 557.286 1137.61 557.117 1137.98 557.021C1138.35 556.923 1138.71 556.873 1139.07 556.873C1139.29 556.873 1139.56 556.901 1139.85 556.956C1140.15 557.009 1140.44 557.118 1140.71 557.284C1140.99 557.45 1141.23 557.701 1141.41 558.037C1141.6 558.372 1141.69 558.822 1141.69 559.385V564.057H1140.6V563.096H1140.54C1140.47 563.25 1140.35 563.415 1140.17 563.59C1140 563.766 1139.77 563.915 1139.49 564.038C1139.2 564.161 1138.85 564.223 1138.44 564.223ZM1138.6 563.244C1139.04 563.244 1139.4 563.16 1139.69 562.99C1139.99 562.821 1140.22 562.602 1140.37 562.335C1140.52 562.067 1140.6 561.785 1140.6 561.49V560.493C1140.55 560.548 1140.45 560.599 1140.29 560.645C1140.14 560.688 1139.96 560.727 1139.76 560.76C1139.56 560.791 1139.36 560.819 1139.17 560.844C1138.98 560.865 1138.83 560.884 1138.72 560.899C1138.43 560.936 1138.17 560.996 1137.92 561.079C1137.68 561.159 1137.48 561.281 1137.33 561.444C1137.18 561.604 1137.11 561.822 1137.11 562.099C1137.11 562.478 1137.25 562.764 1137.53 562.958C1137.81 563.149 1138.17 563.244 1138.6 563.244Z" fill="black"/>
<rect x="1080.89" y="591.012" width="61.7914" height="2.15479" fill="#C7D1F1"/>
<rect x="1107.64" y="591.012" width="8.28114" height="106.746" fill="#C7D1F1"/>
<rect x="1080.89" y="599.813" width="61.7914" height="2.15479" fill="#C7D1F1"/>
<rect x="1080.89" y="608.615" width="61.7914" height="2.15479" fill="#C7D1F1"/>
<rect x="1080.89" y="617.417" width="61.7914" height="2.15479" fill="#C7D1F1"/>
<rect x="1080.89" y="626.219" width="61.7914" height="2.15479" fill="#C7D1F1"/>
<rect x="1080.89" y="635.021" width="61.7914" height="2.15479" fill="#C7D1F1"/>
<rect x="1080.89" y="643.822" width="61.7914" height="2.15479" fill="#C7D1F1"/>
<rect x="1080.89" y="652.624" width="61.7914" height="2.15479" fill="#C7D1F1"/>
<rect x="1080.89" y="661.426" width="61.7914" height="2.15479" fill="#C7D1F1"/>
<rect x="1080.89" y="670.228" width="61.7914" height="2.15479" fill="#C7D1F1"/>
<rect x="1080.89" y="679.029" width="61.7914" height="2.15479" fill="#C7D1F1"/>
<rect x="1080.89" y="687.831" width="61.7914" height="2.15479" fill="#C7D1F1"/>
<rect x="1080.89" y="696.633" width="61.7914" height="2.15479" fill="#C7D1F1"/>
<path d="M1277.93 439.285C1277.93 436.072 1280.53 433.468 1283.75 433.468H1300.81C1304.02 433.468 1306.62 436.072 1306.62 439.285V444.354C1306.62 445.182 1305.95 445.854 1305.12 445.854H1279.43C1278.6 445.854 1277.93 445.182 1277.93 444.354V439.285Z" fill="#F3F6FF" stroke="#8A8A8A"/>
<path d="M1280.22 441.237C1280.22 438.047 1282.81 435.461 1286 435.461C1289.19 435.461 1291.78 438.047 1291.78 441.237V441.942C1291.78 442.77 1291.1 443.442 1290.28 443.442H1281.72C1280.89 443.442 1280.22 442.77 1280.22 441.942V441.237Z" fill="#F3F6FF" stroke="#8A8A8A"/>
<path d="M1285.18 440.699C1285.18 440.246 1285.55 439.878 1286 439.878C1286.45 439.878 1286.82 440.246 1286.82 440.699V445.032C1286.82 445.486 1286.45 445.854 1286 445.854C1285.55 445.854 1285.18 445.486 1285.18 445.032V440.699Z" fill="#F3F6FF" stroke="#8A8A8A"/>
<path d="M1292.78 441.237C1292.78 438.047 1295.36 435.461 1298.55 435.461C1301.74 435.461 1304.33 438.047 1304.33 441.237V441.942C1304.33 442.77 1303.66 443.442 1302.83 443.442H1294.28C1293.45 443.442 1292.78 442.77 1292.78 441.942V441.237Z" fill="#F3F6FF" stroke="#8A8A8A"/>
<path d="M1297.73 440.699C1297.73 440.246 1298.1 439.878 1298.55 439.878C1299.01 439.878 1299.37 440.246 1299.37 440.699V445.032C1299.37 445.486 1299.01 445.854 1298.55 445.854C1298.1 445.854 1297.73 445.486 1297.73 445.032V440.699Z" fill="#F3F6FF" stroke="#8A8A8A"/>
<path d="M1234.54 548.557C1234.54 551.77 1231.93 554.375 1228.72 554.375L1224.25 554.375C1221.03 554.375 1218.43 551.77 1218.43 548.557L1218.43 543.489C1218.43 542.661 1219.1 541.989 1219.93 541.989L1233.04 541.989C1233.87 541.989 1234.54 542.661 1234.54 543.489L1234.54 548.557Z" fill="#F3F6FF" stroke="#8A8A8A"/>
<path d="M1232.26 546.605C1232.26 549.796 1229.67 552.382 1226.48 552.382C1223.29 552.382 1220.71 549.796 1220.71 546.605L1220.71 545.901C1220.71 545.072 1221.38 544.401 1222.21 544.401L1230.76 544.401C1231.59 544.401 1232.26 545.072 1232.26 545.901L1232.26 546.605Z" fill="#F3F6FF" stroke="#8A8A8A"/>
<path d="M1227.31 547.144C1227.31 547.597 1226.94 547.965 1226.48 547.965C1226.03 547.965 1225.66 547.597 1225.66 547.144L1225.66 542.811C1225.66 542.357 1226.03 541.989 1226.48 541.989C1226.94 541.989 1227.31 542.357 1227.31 542.811L1227.31 547.144Z" fill="#F3F6FF" stroke="#8A8A8A"/>
<path d="M1126.97 368.316C1126.97 371.529 1124.37 374.134 1121.16 374.134L1116.68 374.134C1113.47 374.134 1110.87 371.529 1110.87 368.316L1110.87 363.248C1110.87 362.42 1111.54 361.748 1112.37 361.748L1125.47 361.748C1126.3 361.748 1126.97 362.42 1126.97 363.248L1126.97 368.316Z" fill="#F3F6FF" stroke="#8A8A8A"/>
<path d="M1124.7 366.364C1124.7 369.554 1122.11 372.141 1118.92 372.141C1115.73 372.141 1113.14 369.554 1113.14 366.364L1113.14 365.66C1113.14 364.831 1113.81 364.16 1114.64 364.16L1123.2 364.16C1124.02 364.16 1124.7 364.831 1124.7 365.66L1124.7 366.364Z" fill="#F3F6FF" stroke="#8A8A8A"/>
<path d="M1119.74 366.902C1119.74 367.356 1119.37 367.724 1118.92 367.724C1118.47 367.724 1118.1 367.356 1118.1 366.902L1118.1 362.569C1118.1 362.116 1118.47 361.748 1118.92 361.748C1119.37 361.748 1119.74 362.116 1119.74 362.569L1119.74 366.902Z" fill="#F3F6FF" stroke="#8A8A8A"/>
<path d="M1252.36 548.557C1252.36 551.77 1249.75 554.375 1246.54 554.375L1242.07 554.375C1238.85 554.375 1236.25 551.77 1236.25 548.557L1236.25 543.489C1236.25 542.661 1236.92 541.989 1237.75 541.989L1250.86 541.989C1251.69 541.989 1252.36 542.661 1252.36 543.489L1252.36 548.557Z" fill="#F3F6FF" stroke="#8A8A8A"/>
<path d="M1250.08 546.605C1250.08 549.796 1247.49 552.382 1244.3 552.382C1241.11 552.382 1238.53 549.796 1238.53 546.605L1238.53 545.901C1238.53 545.072 1239.2 544.401 1240.03 544.401L1248.58 544.401C1249.41 544.401 1250.08 545.072 1250.08 545.901L1250.08 546.605Z" fill="#F3F6FF" stroke="#8A8A8A"/>
<path d="M1245.13 547.144C1245.13 547.597 1244.76 547.965 1244.3 547.965C1243.85 547.965 1243.48 547.597 1243.48 547.144L1243.48 542.811C1243.48 542.357 1243.85 541.989 1244.3 541.989C1244.76 541.989 1245.13 542.357 1245.13 542.811L1245.13 547.144Z" fill="#F3F6FF" stroke="#8A8A8A"/>
<path d="M1270.18 548.557C1270.18 551.77 1267.57 554.375 1264.36 554.375L1259.89 554.375C1256.67 554.375 1254.07 551.77 1254.07 548.557L1254.07 543.489C1254.07 542.661 1254.74 541.989 1255.57 541.989L1268.68 541.989C1269.51 541.989 1270.18 542.661 1270.18 543.489L1270.18 548.557Z" fill="#F3F6FF" stroke="#8A8A8A"/>
<path d="M1267.9 546.605C1267.9 549.796 1265.31 552.382 1262.12 552.382C1258.93 552.382 1256.35 549.796 1256.35 546.605L1256.35 545.901C1256.35 545.072 1257.02 544.401 1257.85 544.401L1266.4 544.401C1267.23 544.401 1267.9 545.072 1267.9 545.901L1267.9 546.605Z" fill="#F3F6FF" stroke="#8A8A8A"/>
<path d="M1262.95 547.144C1262.95 547.597 1262.58 547.965 1262.12 547.965C1261.67 547.965 1261.3 547.597 1261.3 547.144L1261.3 542.811C1261.3 542.357 1261.67 541.989 1262.12 541.989C1262.58 541.989 1262.95 542.357 1262.95 542.811L1262.95 547.144Z" fill="#F3F6FF" stroke="#8A8A8A"/>
<path d="M1111.55 399.039C1111.55 398.21 1112.22 397.539 1113.05 397.539H1146.6C1147.43 397.539 1148.1 398.21 1148.1 399.039V415.606C1148.1 416.435 1147.43 417.106 1146.6 417.106H1113.05C1112.22 417.106 1111.55 416.435 1111.55 415.606V399.039Z" fill="#F3F6FF" stroke="#8A8A8A"/>
<path d="M1113.88 400.911C1113.88 400.082 1114.55 399.411 1115.38 399.411H1144.27C1145.1 399.411 1145.77 400.082 1145.77 400.911V413.734C1145.77 414.563 1145.1 415.234 1144.27 415.234H1115.38C1114.55 415.234 1113.88 414.563 1113.88 413.734V400.911Z" fill="#F3F6FF" stroke="#8A8A8A"/>
<path d="M1129.83 405.949C1130.57 405.949 1131.18 406.56 1131.18 407.323C1131.18 408.086 1130.57 408.696 1129.83 408.696C1129.08 408.696 1128.47 408.086 1128.47 407.323C1128.47 406.56 1129.08 405.949 1129.83 405.949Z" fill="#D9D9D9" stroke="#8A8A8A"/>
</svg>
