<svg width="1328" height="720" viewBox="0 0 1328 720" fill="none" xmlns="http://www.w3.org/2000/svg">
<path d="M903.066 328.251C903.066 325.737 905.104 323.699 907.618 323.699C910.131 323.699 912.169 325.737 912.169 328.251V333.834C912.169 334.663 911.497 335.334 910.669 335.334H904.566C903.738 335.334 903.066 334.663 903.066 333.834V328.251Z" fill="#F3F6FF" stroke="#8A8A8A"/>
<path d="M903.066 335.888C903.066 335.612 903.29 335.388 903.566 335.388H911.669C911.945 335.388 912.169 335.612 912.169 335.888V336.671C912.169 336.947 911.945 337.171 911.669 337.171H903.566C903.29 337.171 903.066 336.947 903.066 336.671V335.888Z" fill="#F3F6FF" stroke="#8A8A8A"/>
<path d="M902.026 339.692C902.026 338.311 903.146 337.192 904.526 337.192H910.709C912.09 337.192 913.209 338.311 913.209 339.692V341.011C913.209 341.84 912.537 342.511 911.709 342.511H903.526C902.698 342.511 902.026 341.84 902.026 341.011V339.692Z" fill="#F3F6FF" stroke="#8A8A8A"/>
<circle cx="907.618" cy="339.851" r="0.5" fill="#D9D9D9" stroke="#8A8A8A" stroke-width="0.534302"/>
<path d="M936.966 328.251C936.966 325.737 939.004 323.699 941.517 323.699C944.031 323.699 946.068 325.737 946.068 328.251V333.834C946.068 334.663 945.397 335.334 944.568 335.334H938.466C937.637 335.334 936.966 334.663 936.966 333.834V328.251Z" fill="#F3F6FF" stroke="#8A8A8A"/>
<path d="M936.966 335.888C936.966 335.612 937.19 335.388 937.466 335.388H945.568C945.845 335.388 946.068 335.612 946.068 335.888V336.671C946.068 336.947 945.845 337.171 945.568 337.171H937.466C937.19 337.171 936.966 336.947 936.966 336.671V335.888Z" fill="#F3F6FF" stroke="#8A8A8A"/>
<path d="M935.926 339.692C935.926 338.311 937.045 337.192 938.426 337.192H944.608C945.989 337.192 947.108 338.311 947.108 339.692V341.011C947.108 341.84 946.437 342.511 945.608 342.511H937.426C936.597 342.511 935.926 341.84 935.926 341.011V339.692Z" fill="#F3F6FF" stroke="#8A8A8A"/>
<circle cx="941.517" cy="339.851" r="0.5" fill="#D9D9D9" stroke="#8A8A8A" stroke-width="0.534302"/>
<path d="M870.344 230.678C870.344 228.165 872.381 226.127 874.895 226.127C877.409 226.127 879.446 228.165 879.446 230.678V236.262C879.446 237.091 878.775 237.762 877.946 237.762H871.844C871.015 237.762 870.344 237.091 870.344 236.262V230.678Z" fill="#F3F6FF" stroke="#8A8A8A"/>
<path d="M870.344 238.315C870.344 238.039 870.568 237.815 870.844 237.815H878.946C879.223 237.815 879.446 238.039 879.446 238.315V239.099C879.446 239.375 879.223 239.599 878.946 239.599H870.844C870.568 239.599 870.344 239.375 870.344 239.099V238.315Z" fill="#F3F6FF" stroke="#8A8A8A"/>
<path d="M869.304 242.12C869.304 240.739 870.423 239.62 871.804 239.62H877.986C879.367 239.62 880.486 240.739 880.486 242.12V243.439C880.486 244.267 879.815 244.939 878.986 244.939H870.804C869.975 244.939 869.304 244.267 869.304 243.439V242.12Z" fill="#F3F6FF" stroke="#8A8A8A"/>
<circle cx="874.895" cy="242.279" r="0.5" fill="#D9D9D9" stroke="#8A8A8A" stroke-width="0.534302"/>
<path d="M838.15 230.678C838.15 228.165 840.188 226.127 842.701 226.127C845.215 226.127 847.253 228.165 847.253 230.678V236.262C847.253 237.091 846.581 237.762 845.753 237.762H839.65C838.821 237.762 838.15 237.091 838.15 236.262V230.678Z" fill="#F3F6FF" stroke="#8A8A8A"/>
<path d="M838.15 238.315C838.15 238.039 838.374 237.815 838.65 237.815H846.753C847.029 237.815 847.253 238.039 847.253 238.315V239.099C847.253 239.375 847.029 239.599 846.753 239.599H838.65C838.374 239.599 838.15 239.375 838.15 239.099V238.315Z" fill="#F3F6FF" stroke="#8A8A8A"/>
<path d="M837.11 242.12C837.11 240.739 838.229 239.62 839.61 239.62H845.792C847.173 239.62 848.292 240.739 848.292 242.12V243.439C848.292 244.267 847.621 244.939 846.792 244.939H838.61C837.781 244.939 837.11 244.267 837.11 243.439V242.12Z" fill="#F3F6FF" stroke="#8A8A8A"/>
<circle cx="842.701" cy="242.279" r="0.5" fill="#D9D9D9" stroke="#8A8A8A" stroke-width="0.534302"/>
<path d="M805.957 230.678C805.957 228.165 807.994 226.127 810.508 226.127C813.022 226.127 815.059 228.165 815.059 230.678V236.262C815.059 237.091 814.388 237.762 813.559 237.762H807.457C806.628 237.762 805.957 237.091 805.957 236.262V230.678Z" fill="#F3F6FF" stroke="#8A8A8A"/>
<path d="M805.957 238.315C805.957 238.039 806.18 237.815 806.457 237.815H814.559C814.835 237.815 815.059 238.039 815.059 238.315V239.099C815.059 239.375 814.835 239.599 814.559 239.599H806.457C806.18 239.599 805.957 239.375 805.957 239.099V238.315Z" fill="#F3F6FF" stroke="#8A8A8A"/>
<path d="M804.917 242.12C804.917 240.739 806.036 239.62 807.417 239.62H813.599C814.98 239.62 816.099 240.739 816.099 242.12V243.439C816.099 244.267 815.427 244.939 814.599 244.939H806.417C805.588 244.939 804.917 244.267 804.917 243.439V242.12Z" fill="#F3F6FF" stroke="#8A8A8A"/>
<circle cx="810.508" cy="242.279" r="0.5" fill="#D9D9D9" stroke="#8A8A8A" stroke-width="0.534302"/>
<path d="M67.9092 692.592C65.3956 692.592 63.3579 690.554 63.3579 688.04C63.3579 685.527 65.3956 683.489 67.9092 683.489L73.4932 683.489C74.3216 683.489 74.9932 684.161 74.9932 684.989L74.9932 691.092C74.9932 691.92 74.3216 692.592 73.4932 692.592L67.9092 692.592Z" fill="#F3F6FF" stroke="#8A8A8A"/>
<path d="M75.5464 692.592C75.2702 692.592 75.0464 692.368 75.0464 692.092L75.0464 683.989C75.0464 683.713 75.2702 683.489 75.5464 683.489L76.3296 683.489C76.6057 683.489 76.8296 683.713 76.8296 683.989L76.8296 692.092C76.8296 692.368 76.6057 692.592 76.3296 692.592L75.5464 692.592Z" fill="#F3F6FF" stroke="#8A8A8A"/>
<path d="M79.3506 693.632C77.9699 693.632 76.8506 692.513 76.8506 691.132L76.8506 684.949C76.8506 683.569 77.9699 682.449 79.3506 682.449L80.6699 682.449C81.4983 682.449 82.1699 683.121 82.1699 683.949L82.1699 692.132C82.1699 692.96 81.4983 693.632 80.6699 693.632L79.3506 693.632Z" fill="#F3F6FF" stroke="#8A8A8A"/>
<circle cx="79.5098" cy="688.04" r="0.5" transform="rotate(-90 79.5098 688.04)" fill="#D9D9D9" stroke="#8A8A8A" stroke-width="0.534302"/>
<rect x="0.118164" y="95.9902" width="12.6797" height="295.863" fill="#2B365A"/>
<rect x="0.118164" y="418.889" width="12.6797" height="152.891" fill="#2B365A"/>
<rect x="7.05957" y="509.426" width="12.6797" height="43.1738" fill="#2B365A"/>
<rect x="7.05957" y="518.746" width="95.7676" height="14.7363" fill="#2B365A"/>
<rect x="90.1475" y="504.01" width="202.949" height="14.7363" fill="#2B365A"/>
<rect x="316.798" y="504.01" width="183.506" height="14.7363" fill="#2B365A"/>
<rect x="525.368" y="504.01" width="45.2383" height="15.2852" fill="#2B365A"/>
<rect x="0.118164" y="617.42" width="12.6797" height="32.6875" fill="#2B365A"/>
<rect x="83.8076" y="518.746" width="12.6797" height="131.361" fill="#2B365A"/>
<rect x="83.8076" y="676.285" width="12.6797" height="36.4785" fill="#2B365A"/>
<rect x="90.1475" y="697.018" width="12.6797" height="15.7461" fill="#2B365A"/>
<rect x="90.1475" y="333.131" width="12.6797" height="176.295" fill="#2B365A"/>
<rect x="249.884" y="320.145" width="12.6797" height="189.281" fill="#2B365A"/>
<rect x="12.7979" y="650.107" width="12.6797" height="24.5137" transform="rotate(-90 12.7979 650.107)" fill="#2B365A"/>
<rect x="57.0498" y="650.107" width="12.6797" height="39.4375" transform="rotate(-90 57.0498 650.107)" fill="#2B365A"/>
<rect x="0.118164" y="676.285" width="12.6797" height="42.8184" fill="#2B365A"/>
<rect x="7.05957" y="719.104" width="12.6797" height="129.244" transform="rotate(-90 7.05957 719.104)" fill="#2B365A"/>
<rect x="136.304" y="719.104" width="12.6797" height="52.7949" transform="rotate(-90 136.304 719.104)" fill="#8B98C3"/>
<rect x="277.888" y="719.104" width="12.6797" height="54.3281" transform="rotate(-90 277.888 719.104)" fill="#8B98C3"/>
<rect x="372.585" y="719.104" width="12.6797" height="52.4883" transform="rotate(-90 372.585 719.104)" fill="#8B98C3"/>
<rect x="459.62" y="719.104" width="12.6797" height="52.4883" transform="rotate(-90 459.62 719.104)" fill="#8B98C3"/>
<rect x="552.784" y="719.104" width="12.6797" height="52.4883" transform="rotate(-90 552.784 719.104)" fill="#8B98C3"/>
<rect x="639.224" y="719.104" width="12.6797" height="52.4883" transform="rotate(-90 639.224 719.104)" fill="#8B98C3"/>
<rect x="720.31" y="719.104" width="12.6797" height="52.4883" transform="rotate(-90 720.31 719.104)" fill="#8B98C3"/>
<rect x="805.438" y="719.104" width="12.6797" height="52.4883" transform="rotate(-90 805.438 719.104)" fill="#8B98C3"/>
<rect x="976.036" y="719.104" width="12.6797" height="52.4883" transform="rotate(-90 976.036 719.104)" fill="#8B98C3"/>
<rect x="921.909" y="719.104" width="12.6797" height="22.8887" transform="rotate(-90 921.909 719.104)" fill="#8B98C3"/>
<rect x="1074.1" y="719.104" width="12.6797" height="52.4883" transform="rotate(-90 1074.1 719.104)" fill="#8B98C3"/>
<rect x="189.099" y="719.104" width="12.6797" height="88.7891" transform="rotate(-90 189.099 719.104)" fill="#2B365A"/>
<rect x="332.216" y="719.104" width="12.6797" height="40.3691" transform="rotate(-90 332.216 719.104)" fill="#2B365A"/>
<rect x="425.073" y="719.104" width="12.6797" height="34.5469" transform="rotate(-90 425.073 719.104)" fill="#2B365A"/>
<rect x="512.108" y="719.104" width="12.6797" height="40.6758" transform="rotate(-90 512.108 719.104)" fill="#2B365A"/>
<rect x="605.272" y="719.104" width="12.6797" height="33.9512" transform="rotate(-90 605.272 719.104)" fill="#2B365A"/>
<rect x="771.487" y="719.104" width="12.6797" height="33.9512" transform="rotate(-90 771.487 719.104)" fill="#2B365A"/>
<rect x="691.712" y="719.104" width="12.6797" height="28.5977" transform="rotate(-90 691.712 719.104)" fill="#2B365A"/>
<rect x="857.927" y="719.104" width="12.6797" height="63.9824" transform="rotate(-90 857.927 719.104)" fill="#2B365A"/>
<rect x="944.798" y="719.104" width="12.6797" height="31.2383" transform="rotate(-90 944.798 719.104)" fill="#2B365A"/>
<rect x="1028.52" y="719.104" width="12.6797" height="45.5801" transform="rotate(-90 1028.52 719.104)" fill="#2B365A"/>
<rect x="613.899" y="719.104" width="26.1875" height="19.6719" transform="rotate(-90 613.899 719.104)" fill="#2B365A"/>
<rect x="780.114" y="719.104" width="26.1875" height="19.6719" transform="rotate(-90 780.114 719.104)" fill="#2B365A"/>
<rect x="0.118164" y="571.779" width="12.6797" height="45.6406" fill="#8B98C3"/>
<rect x="0.118164" y="0.255859" width="12.6797" height="71.2012" fill="#2B365A"/>
<rect x="83.958" y="0.255859" width="18.4727" height="73.9414" fill="#2B365A"/>
<rect x="83.958" y="93.8691" width="18.4727" height="22.5703" fill="#2B365A"/>
<rect x="66.5908" y="182.105" width="44.082" height="22.5703" fill="#2B365A"/>
<rect x="254.604" y="187.482" width="20.6328" height="17.1934" fill="#2B365A"/>
<rect x="83.958" y="140.947" width="18.4727" height="63.7285" fill="#2B365A"/>
<rect x="631.868" y="9.28809" width="12.6797" height="167.765" fill="#2B365A"/>
<rect x="0.118164" y="12.9355" width="12.6797" height="120.748" transform="rotate(-90 0.118164 12.9355)" fill="#2B365A"/>
<rect x="642.39" y="177.053" width="12.6797" height="14.6836" transform="rotate(-90 642.39 177.053)" fill="#2B365A"/>
<rect x="694.222" y="177.053" width="12.6797" height="528.67" transform="rotate(-90 694.222 177.053)" fill="#2B365A"/>
<rect x="1315.2" y="338.148" width="12.6797" height="22.4805" fill="#2B365A"/>
<rect x="1123.63" y="348.275" width="32.7051" height="12.3535" fill="#2B365A"/>
<rect x="1315.2" y="247.385" width="12.6797" height="39.8965" fill="#2B365A"/>
<rect x="1315.2" y="522.686" width="12.6797" height="29.2148" fill="#2B365A"/>
<rect x="1297.33" y="522.686" width="24.0195" height="8.13086" fill="#2B365A"/>
<rect x="1297.33" y="353.539" width="24.0195" height="8.13086" fill="#2B365A"/>
<rect x="1315.2" y="602.768" width="12.6797" height="116.336" fill="#2B365A"/>
<rect x="1303" y="628.367" width="12.6797" height="90.7363" fill="#2B365A"/>
<rect x="1259.59" y="719.104" width="30.4238" height="68.293" transform="rotate(-90 1259.59 719.104)" fill="#2B365A"/>
<rect x="1259.59" y="646.111" width="17.7441" height="67.5703" transform="rotate(-90 1259.59 646.111)" fill="#2B365A"/>
<rect x="1126.59" y="719.104" width="12.6797" height="133.487" transform="rotate(-90 1126.59 719.104)" fill="#2B365A"/>
<rect x="657.073" y="177.053" width="12.6797" height="37.1484" transform="rotate(-90 657.073 177.053)" fill="#8B98C3"/>
<rect x="1222.89" y="177.053" width="12.6797" height="79.0391" transform="rotate(-90 1222.89 177.053)" fill="#8B98C3"/>
<rect x="1315.2" y="195.285" width="12.6797" height="52.0996" fill="#8B98C3"/>
<rect x="1315.2" y="287.281" width="12.6797" height="50.8672" fill="#8B98C3"/>
<rect x="1315.2" y="551.9" width="12.6797" height="50.8672" fill="#8B98C3"/>
<rect x="610.3" y="195.285" width="18.2324" height="26.4648" transform="rotate(-90 610.3 195.285)" fill="#2B365A"/>
<rect x="775.563" y="195.285" width="18.2324" height="26.4648" transform="rotate(-90 775.563 195.285)" fill="#2B365A"/>
<rect x="605.403" y="22.0518" width="18.2324" height="26.4648" transform="rotate(-90 605.403 22.0518)" fill="#2B365A"/>
<rect x="451.944" y="22.0518" width="18.2324" height="26.4648" transform="rotate(-90 451.944 22.0518)" fill="#2B365A"/>
<rect x="258.491" y="22.0518" width="18.2324" height="26.4648" transform="rotate(-90 258.491 22.0518)" fill="#2B365A"/>
<rect x="0.118164" y="22.0518" width="18.2324" height="26.4648" transform="rotate(-90 0.118164 22.0518)" fill="#2B365A"/>
<rect x="0.118164" y="350.004" width="25.9883" height="32.6797" transform="rotate(-90 0.118164 350.004)" fill="#2B365A"/>
<rect x="82.6084" y="350.004" width="16.873" height="20.2188" transform="rotate(-90 82.6084 350.004)" fill="#2B365A"/>
<rect x="779.661" y="367.77" width="22.75" height="51.4004" transform="rotate(-90 779.661 367.77)" fill="#2B365A"/>
<rect x="541.397" y="549.025" width="45.0156" height="50" transform="rotate(-90 541.397 549.025)" fill="#2B365A"/>
<rect x="175.177" y="529.533" width="20.1074" height="16.4453" transform="rotate(-90 175.177 529.533)" fill="#2B365A"/>
<rect x="246.069" y="712.764" width="19.8477" height="26.3652" transform="rotate(-90 246.069 712.764)" fill="#2B365A"/>
<rect x="429.165" y="712.764" width="19.8477" height="26.3652" transform="rotate(-90 429.165 712.764)" fill="#2B365A"/>
<rect x="620.798" y="367.77" width="14.125" height="15.9668" transform="rotate(-90 620.798 367.77)" fill="#2B365A"/>
<rect x="615.925" y="549.025" width="21.7266" height="15.9668" transform="rotate(-90 615.925 549.025)" fill="#2B365A"/>
<rect x="615.925" y="538.074" width="10.7754" height="92.5254" transform="rotate(-90 615.925 538.074)" fill="#2B365A"/>
<rect x="853.808" y="367.77" width="22.75" height="106.17" transform="rotate(-90 853.808 367.77)" fill="#2B365A"/>
<rect x="347.487" y="199.803" width="22.75" height="106.17" transform="rotate(-90 347.487 199.803)" fill="#2B365A"/>
<rect x="0.118164" y="333.131" width="22.75" height="91.8496" transform="rotate(-90 0.118164 333.131)" fill="#2B365A"/>
<rect x="945.325" y="195.285" width="18.2324" height="26.4648" transform="rotate(-90 945.325 195.285)" fill="#2B365A"/>
<rect x="1123.63" y="195.285" width="25.0952" height="32.7051" transform="rotate(-90 1123.63 195.285)" fill="#2B365A"/>
<rect x="1301.93" y="195.285" width="30.9121" height="25.9512" transform="rotate(-90 1301.93 195.285)" fill="#2B365A"/>
<rect x="615.925" y="367.77" width="172.484" height="4.87305" transform="rotate(-90 615.925 367.77)" fill="#2B365A"/>
<rect x="615.925" y="534.361" width="123.373" height="4.87305" transform="rotate(-90 615.925 534.361)" fill="#2B365A"/>
<rect x="703.577" y="444.316" width="33.3281" height="4.87305" transform="rotate(-90 703.577 444.316)" fill="#2B365A"/>
<rect x="703.577" y="537.125" width="33.3281" height="4.87305" transform="rotate(-90 703.577 537.125)" fill="#2B365A"/>
<rect x="703.577" y="515.385" width="80.5" height="4.87305" transform="rotate(-90 703.577 515.385)" fill="#2B365A"/>
<rect x="541.397" y="712.764" width="166.246" height="4.87305" transform="rotate(-90 541.397 712.764)" fill="#2B365A"/>
<rect x="434.368" y="712.764" width="197.379" height="4.87305" transform="rotate(-90 434.368 712.764)" fill="#2B365A"/>
<rect x="41.9502" y="712.764" width="36.4785" height="4.87305" transform="rotate(-90 41.9502 712.764)" fill="#2B365A"/>
<rect x="18.0596" y="681.158" width="14.8574" height="4.87305" transform="rotate(180 18.0596 681.158)" fill="#2B365A"/>
<rect x="55.54" y="681.158" width="18.582" height="4.87305" transform="rotate(180 55.54 681.158)" fill="#2B365A"/>
<rect x="93.5068" y="681.158" width="18.582" height="4.87305" transform="rotate(180 93.5068 681.158)" fill="#2B365A"/>
<rect x="792.798" y="367.77" width="172.484" height="4.87305" transform="rotate(-90 792.798 367.77)" fill="#2B365A"/>
<rect x="1005.73" y="361.67" width="189.049" height="4.87305" transform="rotate(-90 1005.73 361.67)" fill="#2B365A"/>
<rect x="1137.54" y="360.629" width="115.637" height="4.87305" transform="rotate(-90 1137.54 360.629)" fill="#2B365A"/>
<rect x="1076.8" y="361.67" width="68.6348" height="4.87305" transform="rotate(-180 1076.8 361.67)" fill="#2B365A"/>
<rect x="1327.88" y="361.67" width="226.703" height="4.87305" transform="rotate(-180 1327.88 361.67)" fill="#2B365A"/>
<rect x="1267.5" y="398.039" width="36.3457" height="4.87305" transform="rotate(-90 1267.5 398.039)" fill="#C7D1F1"/>
<rect x="1323.01" y="408.807" width="47.1367" height="4.87305" transform="rotate(-90 1323.01 408.807)" fill="#C7D1F1"/>
<rect x="1323.01" y="522.686" width="48.9844" height="4.87305" transform="rotate(-90 1323.01 522.686)" fill="#C7D1F1"/>
<rect x="1267.5" y="527.559" width="37.4102" height="4.87305" transform="rotate(-90 1267.5 527.559)" fill="#C7D1F1"/>
<rect x="1267.5" y="522.686" width="59.6641" height="4.87305" fill="#2B365A"/>
<rect x="887.827" y="367.77" width="164.852" height="4.87305" transform="rotate(-90 887.827 367.77)" fill="#2B365A"/>
<rect x="923.796" y="367.77" width="58.3516" height="4.87305" transform="rotate(-90 923.796 367.77)" fill="#2B365A"/>
<rect x="955.407" y="314.291" width="4.67969" height="4.87305" transform="rotate(180 955.407 314.291)" fill="#2B365A"/>
<rect x="899.058" y="314.291" width="8.69727" height="4.87305" transform="rotate(180 899.058 314.291)" fill="#2B365A"/>
<rect x="933.056" y="314.291" width="13.6074" height="4.87305" transform="rotate(180 933.056 314.291)" fill="#2B365A"/>
<rect x="955.104" y="367.77" width="86.5098" height="4.87305" transform="rotate(-90 955.104 367.77)" fill="#2B365A"/>
<rect x="795.235" y="247.385" width="94.9316" height="4.87305" fill="#2B365A"/>
<rect x="828.681" y="209.234" width="43.0234" height="4.87305" transform="rotate(90 828.681 209.234)" fill="#2B365A"/>
<rect x="862.591" y="209.234" width="43.0234" height="4.87305" transform="rotate(90 862.591 209.234)" fill="#2B365A"/>
<rect x="887.827" y="185.064" width="10.1973" height="4.87305" transform="rotate(-90 887.827 185.064)" fill="#2B365A"/>
<rect x="955.104" y="261.596" width="18.4082" height="4.87305" transform="rotate(-90 955.104 261.596)" fill="#2B365A"/>
<rect x="831.343" y="214.107" width="10.1973" height="4.87305" transform="rotate(180 831.343 214.107)" fill="#2B365A"/>
<rect x="866.085" y="214.107" width="14.4492" height="4.87305" transform="rotate(180 866.085 214.107)" fill="#2B365A"/>
<rect x="972.983" y="244.693" width="80.2832" height="4.87305" transform="rotate(180 972.983 244.693)" fill="#2B365A"/>
<rect x="1008.17" y="244.693" width="15.7207" height="4.87305" transform="rotate(180 1008.17 244.693)" fill="#2B365A"/>
<rect x="892.7" y="214.107" width="7.32031" height="4.87305" transform="rotate(180 892.7 214.107)" fill="#2B365A"/>
<rect x="802.028" y="214.107" width="7.32031" height="4.87305" transform="rotate(180 802.028 214.107)" fill="#2B365A"/>
<rect x="749.091" y="367.77" width="128.777" height="4.87305" transform="rotate(180 749.091 367.77)" fill="#2B365A"/>
<rect x="656.073" y="415.861" width="40.1484" height="4.87305" transform="rotate(180 656.073 415.861)" fill="#2B365A"/>
<rect x="868.804" y="415.861" width="188.666" height="4.87305" transform="rotate(180 868.804 415.861)" fill="#2B365A"/>
<rect x="964.638" y="415.861" width="71.9375" height="4.87305" transform="rotate(180 964.638 415.861)" fill="#2B365A"/>
<rect x="1058.37" y="534.361" width="98.3887" height="4.87305" transform="rotate(180 1058.37 534.361)" fill="#2B365A"/>
<rect x="1052.7" y="415.861" width="46.9727" height="4.87305" transform="rotate(180 1052.7 415.861)" fill="#2B365A"/>
<rect x="983.251" y="415.861" width="46.9727" height="4.87305" transform="rotate(180 983.251 415.861)" fill="#2B365A"/>
<rect x="964.638" y="415.861" width="237" height="4.87305" transform="rotate(90 964.638 415.861)" fill="#2B365A"/>
<rect x="964.638" y="674.711" width="44.3926" height="4.87305" transform="rotate(90 964.638 674.711)" fill="#2B365A"/>
<rect x="970.216" y="692.916" width="26.1875" height="16.0293" transform="rotate(90 970.216 692.916)" fill="#2B365A"/>
<rect x="708.446" y="529.488" width="38.2969" height="4.87305" transform="rotate(90 708.446 529.488)" fill="#2B365A"/>
<rect x="708.446" y="591.904" width="119.58" height="4.87305" transform="rotate(90 708.446 591.904)" fill="#2B365A"/>
<rect x="1052.7" y="415.861" width="25.3145" height="4.87305" transform="rotate(90 1052.7 415.861)" fill="#2B365A"/>
<rect x="1270.36" y="398.039" width="41.1255" height="2.86132" transform="rotate(90 1270.36 398.039)" fill="#C7D1F1"/>
<rect x="1327.88" y="404.811" width="21.2344" height="2.86132" transform="rotate(90 1327.88 404.811)" fill="#C7D1F1"/>
<rect x="1327.88" y="422.554" width="51.147" height="2.86132" transform="rotate(90 1327.88 422.554)" fill="#C7D1F1"/>
<rect x="1270.36" y="420.449" width="72.2505" height="2.86132" transform="rotate(90 1270.36 420.449)" fill="#C7D1F1"/>
<rect x="1052.7" y="502.506" width="29.4199" height="4.87305" transform="rotate(90 1052.7 502.506)" fill="#2B365A"/>
<rect x="1057.57" y="513.99" width="197.494" height="4.87305" transform="rotate(90 1057.57 513.99)" fill="#2B365A"/>
<rect x="1140.68" y="513.99" width="197.494" height="4.87305" transform="rotate(90 1140.68 513.99)" fill="#2B365A"/>
<rect x="831.062" y="367.77" width="58.2637" height="4.87305" transform="rotate(180 831.062 367.77)" fill="#2B365A"/>
<rect x="795.235" y="294.848" width="48.4961" height="4.87305" transform="rotate(180 795.235 294.848)" fill="#2B365A"/>
<rect x="746.739" y="293.803" width="12.7624" height="4.87305" transform="rotate(-135 746.739 293.803)" fill="#2B365A"/>
<rect x="723.556" y="270.619" width="12.7624" height="4.87305" transform="rotate(-135 723.556 270.619)" fill="#2B365A"/>
<rect x="737.715" y="284.778" width="20.0241" height="4.87305" transform="rotate(-135 737.715 284.778)" fill="#C7D1F1"/>
<rect x="714.53" y="261.596" width="91.0801" height="4.87305" transform="rotate(-90 714.53 261.596)" fill="#2B365A"/>
<rect x="311.565" y="204.676" width="212.682" height="4.87305" transform="rotate(180 311.565 204.676)" fill="#2B365A"/>
<rect x="102.431" y="116.439" width="92.1113" height="8.38282" transform="rotate(180 102.431 116.439)" fill="#2B365A"/>
<rect x="52.7705" y="201.041" width="42.4512" height="8.38282" transform="rotate(180 52.7705 201.041)" fill="#2B365A"/>
<rect x="44.3877" y="196.85" width="55.9023" height="8.38282" transform="rotate(-90 44.3877 196.85)" fill="#2B365A"/>
<rect x="83.585" y="313.834" width="76.8789" height="8.38282" transform="rotate(-90 83.585 313.834)" fill="#2B365A"/>
<rect x="83.585" y="215.393" width="33.2871" height="8.38282" transform="rotate(-90 83.585 215.393)" fill="#2B365A"/>
<rect x="38.583" y="60.5684" width="32.125" height="4.87305" transform="rotate(180 38.583 60.5684)" fill="#2B365A"/>
<rect x="92.6182" y="60.5684" width="32.125" height="4.87305" transform="rotate(180 92.6182 60.5684)" fill="#2B365A"/>
<rect x="353.728" y="204.676" width="19.8242" height="4.87305" transform="rotate(180 353.728 204.676)" fill="#2B365A"/>
<rect x="537.495" y="181.926" width="86.8457" height="4.87305" transform="rotate(180 537.495 181.926)" fill="#2B365A"/>
<rect x="560.261" y="181.926" width="22.7656" height="4.87305" transform="rotate(180 560.261 181.926)" fill="#C7D1F1"/>
<rect x="333.903" y="204.676" width="22.3379" height="4.87305" transform="rotate(180 333.903 204.676)" fill="#C7D1F1"/>
<rect x="87.0947" y="236.955" width="21.5625" height="4.87305" transform="rotate(-90 87.0947 236.955)" fill="#C7D1F1"/>
<rect x="102.431" y="116.439" width="24.5078" height="4.87305" transform="rotate(90 102.431 116.439)" fill="#C7D1F1"/>
<rect x="52.7705" y="116.439" width="24.5078" height="4.87305" transform="rotate(90 52.7705 116.439)" fill="#C7D1F1"/>
<rect x="12.7979" y="71.457" width="24.5332" height="4.87305" transform="rotate(90 12.7979 71.457)" fill="#C7D1F1"/>
<rect x="4.99121" y="391.854" width="27.0352" height="4.87305" transform="rotate(90 4.99121 391.854)" fill="#C7D1F1"/>
<rect x="102.431" y="74.1973" width="19.6719" height="4.87305" transform="rotate(90 102.431 74.1973)" fill="#C7D1F1"/>
<rect x="38.7432" y="55.6953" width="21.75" height="4.87305" fill="#C7D1F1"/>
<rect x="772.798" y="367.77" width="23.707" height="4.87305" transform="rotate(180 772.798 367.77)" fill="#C7D1F1"/>
<rect x="853.808" y="367.77" width="22.7461" height="4.87305" transform="rotate(180 853.808 367.77)" fill="#C7D1F1"/>
<rect x="680.138" y="415.861" width="24.0645" height="4.87305" transform="rotate(180 680.138 415.861)" fill="#C7D1F1"/>
<rect x="525.368" y="508.883" width="25.0645" height="4.87305" transform="rotate(180 525.368 508.883)" fill="#C7D1F1"/>
<rect x="316.798" y="508.883" width="23.7012" height="4.87305" transform="rotate(180 316.798 508.883)" fill="#C7D1F1"/>
<rect x="80.6475" y="676.285" width="26.1777" height="4.87305" transform="rotate(-90 80.6475 676.285)" fill="#C7D1F1"/>
<rect x="0.118164" y="676.285" width="26.1777" height="4.87305" transform="rotate(-90 0.118164 676.285)" fill="#C7D1F1"/>
<rect x="55.54" y="676.285" width="19.3848" height="4.87305" fill="#C7D1F1"/>
<rect x="18.0596" y="676.285" width="18.8984" height="4.87305" fill="#C7D1F1"/>
<rect x="37.3115" y="645.234" width="19.7383" height="4.87305" fill="#C7D1F1"/>
<rect x="615.925" y="508.883" width="24.5273" height="4.87305" transform="rotate(180 615.925 508.883)" fill="#C7D1F1"/>
<rect x="892.868" y="415.861" width="24.0645" height="4.87305" transform="rotate(180 892.868 415.861)" fill="#C7D1F1"/>
<rect x="959.765" y="676.926" width="24.0645" height="4.87305" transform="rotate(-90 959.765 676.926)" fill="#C7D1F1"/>
<rect x="1081.34" y="513.99" width="40.1387" height="4.87305" fill="#C7D1F1"/>
<rect x="1259.59" y="646.111" width="43.4082" height="42.5684" fill="#C7D1F1"/>
<rect x="1101.18" y="361.693" width="24.3809" height="4.87305" transform="rotate(180 1101.18 361.693)" fill="#C7D1F1"/>
<rect x="992.444" y="244.693" width="19.4609" height="4.87305" transform="rotate(180 992.444 244.693)" fill="#C7D1F1"/>
<rect x="885.38" y="214.107" width="19.2949" height="4.87305" transform="rotate(180 885.38 214.107)" fill="#C7D1F1"/>
<rect x="851.636" y="214.107" width="20.293" height="4.87305" transform="rotate(180 851.636 214.107)" fill="#C7D1F1"/>
<rect x="821.146" y="214.107" width="19.1172" height="4.87305" transform="rotate(180 821.146 214.107)" fill="#C7D1F1"/>
<rect x="887.827" y="202.918" width="17.8535" height="4.87305" transform="rotate(-90 887.827 202.918)" fill="#C7D1F1"/>
<rect x="959.978" y="261.596" width="19.6641" height="4.87305" transform="rotate(90 959.978 261.596)" fill="#C7D1F1"/>
<rect x="950.728" y="314.291" width="17.6719" height="4.87305" transform="rotate(-180 950.728 314.291)" fill="#C7D1F1"/>
<rect x="919.448" y="314.291" width="20.3906" height="4.87305" transform="rotate(-180 919.448 314.291)" fill="#C7D1F1"/>
<rect x="631.868" y="181.926" width="71.6074" height="4.87305" transform="rotate(180 631.868 181.926)" fill="#2B365A"/>
<rect x="347.487" y="180.072" width="169.076" height="4.87305" transform="rotate(-90 347.487 180.072)" fill="#2B365A"/>
<rect x="448.784" y="199.803" width="188.807" height="4.87305" transform="rotate(-90 448.784 199.803)" fill="#2B365A"/>
<rect x="257.69" y="320.145" width="46.1797" height="4.87305" transform="rotate(-90 257.69 320.145)" fill="#C7D1F1"/>
<rect x="257.69" y="248.41" width="43.7344" height="4.87305" transform="rotate(-90 257.69 248.41)" fill="#C7D1F1"/>
<rect x="249.731" y="286.502" width="46.1719" height="4.87305" transform="rotate(-90 249.731 286.502)" fill="#C7D1F1"/>
<rect x="249.618" y="12.9355" width="12.6797" height="394.93" transform="rotate(-90 249.618 12.9355)" fill="#2B365A"/>
<rect x="180.806" y="12.9355" width="12.6797" height="8.87305" transform="rotate(-90 180.806 12.9355)" fill="#2B365A"/>
<rect x="120.866" y="12.9355" width="12.6797" height="59.9395" transform="rotate(-90 120.866 12.9355)" fill="#8B98C4"/>
<rect x="189.679" y="12.9355" width="12.6797" height="59.9395" transform="rotate(-90 189.679 12.9355)" fill="#8B98C4"/>
<rect x="1121.48" y="513.99" width="28.6426" height="28.6426" fill="#2B365A"/>
<rect x="1138.24" y="687.229" width="22.7129" height="31.875" fill="#2B365A"/>
<rect x="1052.7" y="513.99" width="28.6426" height="28.6426" fill="#2B365A"/>
<path d="M1284.74 445.602V436.147H1288.04C1288.7 436.147 1289.24 436.261 1289.67 436.489C1290.1 436.713 1290.42 437.016 1290.63 437.398C1290.84 437.777 1290.94 438.197 1290.94 438.658C1290.94 439.065 1290.87 439.4 1290.73 439.665C1290.58 439.929 1290.4 440.139 1290.16 440.293C1289.93 440.446 1289.68 440.56 1289.41 440.634V440.727C1289.7 440.745 1289.99 440.847 1290.28 441.031C1290.57 441.216 1290.82 441.481 1291.02 441.825C1291.21 442.17 1291.31 442.592 1291.31 443.09C1291.31 443.564 1291.2 443.99 1290.99 444.369C1290.77 444.748 1290.43 445.048 1289.97 445.269C1289.5 445.491 1288.9 445.602 1288.15 445.602H1284.74ZM1285.88 444.586H1288.15C1288.9 444.586 1289.43 444.441 1289.75 444.152C1290.06 443.86 1290.22 443.506 1290.22 443.09C1290.22 442.77 1290.14 442.475 1289.98 442.204C1289.81 441.93 1289.58 441.711 1289.28 441.548C1288.98 441.382 1288.62 441.299 1288.21 441.299H1285.88V444.586ZM1285.88 440.302H1288.01C1288.35 440.302 1288.66 440.234 1288.94 440.099C1289.22 439.963 1289.44 439.772 1289.6 439.526C1289.77 439.28 1289.85 438.991 1289.85 438.658C1289.85 438.243 1289.71 437.891 1289.42 437.601C1289.13 437.309 1288.67 437.163 1288.04 437.163H1285.88V440.302ZM1293.86 438.511L1295.56 441.41L1297.26 438.511H1298.51L1296.22 442.056L1298.51 445.602H1297.26L1295.56 442.85L1293.86 445.602H1292.6L1294.85 442.056L1292.6 438.511H1293.86ZM1302.65 445.749C1302.01 445.749 1301.45 445.597 1300.97 445.292C1300.49 444.988 1300.11 444.561 1299.84 444.013C1299.58 443.466 1299.44 442.826 1299.44 442.093C1299.44 441.354 1299.58 440.71 1299.84 440.159C1300.11 439.608 1300.49 439.18 1300.97 438.875C1301.45 438.571 1302.01 438.418 1302.65 438.418C1303.29 438.418 1303.85 438.571 1304.33 438.875C1304.82 439.18 1305.19 439.608 1305.46 440.159C1305.73 440.71 1305.87 441.354 1305.87 442.093C1305.87 442.826 1305.73 443.466 1305.46 444.013C1305.19 444.561 1304.82 444.988 1304.33 445.292C1303.85 445.597 1303.29 445.749 1302.65 445.749ZM1302.65 444.771C1303.14 444.771 1303.54 444.646 1303.85 444.397C1304.17 444.147 1304.4 443.82 1304.55 443.413C1304.7 443.007 1304.78 442.567 1304.78 442.093C1304.78 441.619 1304.7 441.177 1304.55 440.768C1304.4 440.359 1304.17 440.028 1303.85 439.776C1303.54 439.523 1303.14 439.397 1302.65 439.397C1302.17 439.397 1301.77 439.523 1301.45 439.776C1301.14 440.028 1300.91 440.359 1300.76 440.768C1300.61 441.177 1300.53 441.619 1300.53 442.093C1300.53 442.567 1300.61 443.007 1300.76 443.413C1300.91 443.82 1301.14 444.147 1301.45 444.397C1301.77 444.646 1302.17 444.771 1302.65 444.771ZM1306.77 447.633V444.586H1307.36C1307.51 444.435 1307.63 444.272 1307.74 444.097C1307.84 443.921 1307.93 443.713 1308.01 443.473C1308.09 443.23 1308.16 442.935 1308.21 442.587C1308.27 442.236 1308.32 441.813 1308.36 441.317L1308.6 438.511H1313.11V444.586H1314.2V447.633H1313.11V445.602H1307.86V447.633H1306.77ZM1308.6 444.586H1312.02V439.526H1309.62L1309.43 441.317C1309.36 442.059 1309.26 442.707 1309.15 443.261C1309.03 443.815 1308.85 444.257 1308.6 444.586Z" fill="black"/>
<path d="M1265.48 671.426V670.373H1265.75C1266.15 670.373 1266.45 670.247 1266.67 669.995C1266.89 669.742 1267.05 669.335 1267.14 668.771C1267.24 668.208 1267.31 667.462 1267.34 666.532L1267.51 661.971H1273.27V671.426H1272.12V662.987H1268.6L1268.45 666.754C1268.41 667.745 1268.32 668.588 1268.18 669.284C1268.03 669.979 1267.78 670.51 1267.42 670.876C1267.05 671.243 1266.52 671.426 1265.83 671.426H1265.48ZM1276.5 669.819L1279.91 664.335H1281.17V671.426H1280.08V665.941L1276.68 671.426H1275.41V664.335H1276.5V669.819ZM1286.05 673.845V661.971H1287.14V673.845H1286.05ZM1286.05 671.574C1285.57 671.574 1285.13 671.487 1284.74 671.315C1284.34 671.14 1284 670.892 1283.72 670.572C1283.44 670.249 1283.22 669.862 1283.06 669.413C1282.91 668.964 1282.83 668.465 1282.83 667.917C1282.83 667.363 1282.91 666.862 1283.06 666.412C1283.22 665.96 1283.44 665.572 1283.72 665.249C1284 664.926 1284.34 664.678 1284.74 664.506C1285.13 664.33 1285.57 664.243 1286.05 664.243H1286.38V671.574H1286.05ZM1286.05 670.595H1286.23V665.221H1286.05C1285.68 665.221 1285.37 665.295 1285.1 665.443C1284.83 665.587 1284.61 665.786 1284.44 666.038C1284.26 666.288 1284.13 666.574 1284.05 666.897C1283.96 667.22 1283.92 667.56 1283.92 667.917C1283.92 668.391 1284 668.831 1284.15 669.238C1284.3 669.644 1284.53 669.972 1284.85 670.221C1285.16 670.47 1285.56 670.595 1286.05 670.595ZM1287.14 671.574H1286.8V664.243H1287.14C1287.62 664.243 1288.05 664.33 1288.45 664.506C1288.84 664.678 1289.18 664.926 1289.46 665.249C1289.75 665.572 1289.96 665.96 1290.12 666.412C1290.27 666.862 1290.35 667.363 1290.35 667.917C1290.35 668.465 1290.27 668.964 1290.12 669.413C1289.96 669.862 1289.75 670.249 1289.46 670.572C1289.18 670.892 1288.84 671.14 1288.45 671.315C1288.05 671.487 1287.62 671.574 1287.14 671.574ZM1287.14 670.595C1287.5 670.595 1287.82 670.524 1288.08 670.382C1288.35 670.238 1288.57 670.041 1288.74 669.792C1288.92 669.539 1289.05 669.253 1289.13 668.933C1289.22 668.61 1289.26 668.271 1289.26 667.917C1289.26 667.443 1289.18 667.002 1289.03 666.592C1288.88 666.183 1288.65 665.852 1288.34 665.6C1288.02 665.347 1287.62 665.221 1287.14 665.221H1286.95V670.595H1287.14ZM1291.09 665.35V664.335H1296.85V665.35H1294.52V671.426H1293.43V665.35H1291.09Z" fill="black"/>
<path d="M412.058 359.29V355.984H412.668C412.877 355.794 413.074 355.524 413.259 355.176C413.446 354.826 413.605 354.358 413.734 353.773C413.867 353.185 413.954 352.439 413.997 351.534L414.201 347.545H419.814V355.984H420.904V359.271H419.814V357H413.148V359.29H412.058ZM414.034 355.984H418.725V348.561H415.235L415.087 351.534C415.05 352.223 414.985 352.848 414.893 353.408C414.801 353.965 414.682 354.459 414.538 354.89C414.393 355.318 414.225 355.683 414.034 355.984ZM425.459 357.148C424.776 357.148 424.186 356.997 423.691 356.695C423.198 356.391 422.818 355.966 422.551 355.421C422.286 354.873 422.154 354.236 422.154 353.51C422.154 352.784 422.286 352.143 422.551 351.589C422.818 351.032 423.191 350.598 423.668 350.288C424.148 349.974 424.708 349.817 425.348 349.817C425.717 349.817 426.082 349.878 426.442 350.001C426.802 350.125 427.13 350.325 427.426 350.602C427.721 350.875 427.956 351.239 428.132 351.691C428.307 352.143 428.395 352.701 428.395 353.362V353.824H422.929V352.882H427.287C427.287 352.482 427.207 352.125 427.047 351.811C426.89 351.497 426.665 351.249 426.373 351.068C426.084 350.886 425.742 350.795 425.348 350.795C424.914 350.795 424.539 350.903 424.222 351.119C423.908 351.331 423.666 351.608 423.497 351.95C423.328 352.291 423.243 352.657 423.243 353.048V353.676C423.243 354.212 423.335 354.666 423.52 355.038C423.708 355.407 423.968 355.689 424.3 355.883C424.633 356.074 425.019 356.169 425.459 356.169C425.745 356.169 426.004 356.129 426.235 356.049C426.468 355.966 426.67 355.843 426.839 355.68C427.009 355.513 427.139 355.307 427.232 355.061L428.284 355.357C428.173 355.714 427.987 356.027 427.726 356.298C427.464 356.566 427.141 356.775 426.756 356.926C426.371 357.074 425.939 357.148 425.459 357.148ZM433.93 355.523L436.405 349.909H437.439L434.373 357H433.487L430.477 349.909H431.493L433.93 355.523ZM431.142 349.909V357H430.052V349.909H431.142ZM436.719 357V349.909H437.808V357H436.719ZM442.683 357.148C442.043 357.148 441.481 356.995 440.998 356.691C440.518 356.386 440.142 355.96 439.872 355.412C439.604 354.864 439.47 354.224 439.47 353.491C439.47 352.753 439.604 352.108 439.872 351.557C440.142 351.006 440.518 350.578 440.998 350.274C441.481 349.969 442.043 349.817 442.683 349.817C443.323 349.817 443.883 349.969 444.363 350.274C444.847 350.578 445.222 351.006 445.49 351.557C445.761 352.108 445.896 352.753 445.896 353.491C445.896 354.224 445.761 354.864 445.49 355.412C445.222 355.96 444.847 356.386 444.363 356.691C443.883 356.995 443.323 357.148 442.683 357.148ZM442.683 356.169C443.169 356.169 443.569 356.044 443.883 355.795C444.197 355.546 444.43 355.218 444.58 354.812C444.731 354.406 444.807 353.965 444.807 353.491C444.807 353.018 444.731 352.576 444.58 352.167C444.43 351.757 444.197 351.426 443.883 351.174C443.569 350.922 443.169 350.795 442.683 350.795C442.197 350.795 441.797 350.922 441.483 351.174C441.169 351.426 440.936 351.757 440.786 352.167C440.635 352.576 440.559 353.018 440.559 353.491C440.559 353.965 440.635 354.406 440.786 354.812C440.936 355.218 441.169 355.546 441.483 355.795C441.797 356.044 442.197 356.169 442.683 356.169ZM450.772 355.19H451.936C451.96 355.51 452.105 355.754 452.37 355.92C452.637 356.086 452.985 356.169 453.413 356.169C453.85 356.169 454.224 356.08 454.535 355.901C454.846 355.72 455.001 355.427 455.001 355.024C455.001 354.787 454.942 354.581 454.826 354.406C454.709 354.227 454.544 354.089 454.332 353.99C454.119 353.892 453.868 353.842 453.579 353.842H452.36V352.864H453.579C454.013 352.864 454.333 352.765 454.539 352.568C454.749 352.371 454.853 352.125 454.853 351.83C454.853 351.513 454.741 351.259 454.516 351.068C454.292 350.874 453.973 350.777 453.561 350.777C453.145 350.777 452.799 350.871 452.522 351.059C452.245 351.243 452.099 351.482 452.083 351.774H450.938C450.951 351.393 451.068 351.056 451.289 350.763C451.511 350.468 451.812 350.237 452.194 350.071C452.576 349.901 453.013 349.817 453.505 349.817C454.004 349.817 454.436 349.904 454.802 350.08C455.172 350.252 455.456 350.488 455.656 350.786C455.86 351.082 455.961 351.417 455.961 351.793C455.961 352.193 455.849 352.516 455.624 352.762C455.399 353.008 455.118 353.184 454.779 353.288V353.362C455.047 353.381 455.279 353.467 455.476 353.621C455.676 353.772 455.832 353.97 455.943 354.216C456.053 354.459 456.109 354.729 456.109 355.024C456.109 355.455 455.993 355.83 455.763 356.151C455.532 356.468 455.215 356.714 454.812 356.889C454.408 357.062 453.948 357.148 453.431 357.148C452.93 357.148 452.48 357.066 452.083 356.903C451.686 356.737 451.371 356.508 451.137 356.215C450.906 355.92 450.785 355.578 450.772 355.19ZM459.726 357.166C459.277 357.166 458.869 357.082 458.503 356.912C458.136 356.74 457.845 356.492 457.63 356.169C457.415 355.843 457.307 355.449 457.307 354.987C457.307 354.581 457.387 354.252 457.547 353.999C457.707 353.744 457.921 353.544 458.189 353.399C458.456 353.254 458.752 353.147 459.075 353.076C459.401 353.002 459.729 352.944 460.058 352.901C460.489 352.845 460.838 352.804 461.106 352.776C461.377 352.745 461.574 352.694 461.697 352.624C461.823 352.553 461.886 352.43 461.886 352.254V352.217C461.886 351.762 461.762 351.408 461.512 351.156C461.266 350.903 460.892 350.777 460.391 350.777C459.871 350.777 459.463 350.891 459.167 351.119C458.872 351.346 458.664 351.589 458.544 351.848L457.51 351.479C457.695 351.048 457.941 350.712 458.249 350.472C458.559 350.229 458.898 350.06 459.264 349.964C459.634 349.866 459.997 349.817 460.354 349.817C460.581 349.817 460.843 349.844 461.139 349.9C461.437 349.952 461.725 350.061 462.002 350.228C462.282 350.394 462.514 350.645 462.699 350.98C462.884 351.316 462.976 351.765 462.976 352.328V357H461.886V356.04H461.831C461.757 356.194 461.634 356.358 461.462 356.534C461.289 356.709 461.06 356.858 460.774 356.982C460.488 357.105 460.138 357.166 459.726 357.166ZM459.892 356.188C460.323 356.188 460.686 356.103 460.982 355.934C461.28 355.764 461.505 355.546 461.656 355.278C461.809 355.01 461.886 354.729 461.886 354.433V353.436C461.84 353.491 461.739 353.542 461.582 353.588C461.428 353.632 461.249 353.67 461.046 353.704C460.846 353.735 460.651 353.762 460.46 353.787C460.272 353.808 460.12 353.827 460.003 353.842C459.72 353.879 459.455 353.939 459.209 354.022C458.966 354.102 458.769 354.224 458.618 354.387C458.47 354.547 458.396 354.766 458.396 355.043C458.396 355.421 458.536 355.707 458.816 355.901C459.1 356.092 459.458 356.188 459.892 356.188ZM464.337 357V355.984H464.595C464.807 355.984 464.984 355.943 465.126 355.86C465.268 355.774 465.381 355.624 465.468 355.412C465.557 355.196 465.625 354.898 465.671 354.516C465.72 354.132 465.755 353.642 465.777 353.048L465.906 349.909H470.633V357H469.544V350.925H466.94L466.83 353.455C466.805 354.036 466.753 354.549 466.673 354.992C466.596 355.432 466.477 355.801 466.317 356.1C466.16 356.398 465.951 356.623 465.689 356.774C465.428 356.925 465.1 357 464.706 357H464.337Z" fill="black"/>
<path d="M1066.13 569.632V568.579H1066.4C1066.8 568.579 1067.1 568.453 1067.32 568.201C1067.54 567.948 1067.7 567.541 1067.79 566.977C1067.89 566.414 1067.96 565.668 1067.99 564.738L1068.16 560.177H1073.92V569.632H1072.77V561.193H1069.25L1069.1 564.96C1069.06 565.951 1068.97 566.794 1068.83 567.49C1068.68 568.185 1068.43 568.716 1068.07 569.082C1067.7 569.449 1067.17 569.632 1066.48 569.632H1066.13ZM1079.03 569.78C1078.35 569.78 1077.76 569.629 1077.26 569.327C1076.77 569.022 1076.39 568.598 1076.12 568.053C1075.86 567.505 1075.73 566.868 1075.73 566.142C1075.73 565.415 1075.86 564.775 1076.12 564.221C1076.39 563.664 1076.76 563.23 1077.24 562.919C1077.72 562.606 1078.28 562.449 1078.92 562.449C1079.29 562.449 1079.66 562.51 1080.02 562.633C1080.38 562.756 1080.7 562.956 1081 563.233C1081.29 563.507 1081.53 563.87 1081.71 564.323C1081.88 564.775 1081.97 565.332 1081.97 565.994V566.456H1076.5V565.514H1080.86C1080.86 565.114 1080.78 564.757 1080.62 564.443C1080.46 564.129 1080.24 563.881 1079.95 563.7C1079.66 563.518 1079.32 563.427 1078.92 563.427C1078.49 563.427 1078.11 563.535 1077.79 563.75C1077.48 563.963 1077.24 564.24 1077.07 564.581C1076.9 564.923 1076.82 565.289 1076.82 565.68V566.308C1076.82 566.843 1076.91 567.297 1077.09 567.67C1077.28 568.039 1077.54 568.321 1077.87 568.515C1078.21 568.705 1078.59 568.801 1079.03 568.801C1079.32 568.801 1079.58 568.761 1079.81 568.681C1080.04 568.598 1080.24 568.475 1080.41 568.312C1080.58 568.145 1080.71 567.939 1080.8 567.693L1081.86 567.988C1081.75 568.345 1081.56 568.659 1081.3 568.93C1081.04 569.198 1080.71 569.407 1080.33 569.558C1079.94 569.706 1079.51 569.78 1079.03 569.78ZM1086.51 569.78C1085.84 569.78 1085.27 569.623 1084.79 569.309C1084.31 568.995 1083.94 568.562 1083.68 568.011C1083.42 567.461 1083.29 566.831 1083.29 566.123C1083.29 565.403 1083.43 564.768 1083.69 564.217C1083.96 563.663 1084.33 563.23 1084.81 562.919C1085.29 562.606 1085.85 562.449 1086.49 562.449C1086.99 562.449 1087.44 562.541 1087.84 562.726C1088.24 562.91 1088.56 563.169 1088.82 563.501C1089.07 563.834 1089.23 564.221 1089.29 564.665H1088.21C1088.12 564.341 1087.94 564.055 1087.65 563.806C1087.37 563.553 1086.99 563.427 1086.51 563.427C1086.08 563.427 1085.71 563.538 1085.39 563.76C1085.07 563.978 1084.82 564.287 1084.65 564.688C1084.47 565.085 1084.38 565.551 1084.38 566.086C1084.38 566.634 1084.47 567.111 1084.64 567.517C1084.82 567.924 1085.06 568.239 1085.38 568.464C1085.7 568.689 1086.08 568.801 1086.51 568.801C1086.79 568.801 1087.05 568.752 1087.28 568.653C1087.51 568.555 1087.7 568.413 1087.86 568.228C1088.02 568.044 1088.14 567.822 1088.21 567.564H1089.29C1089.23 567.982 1089.08 568.359 1088.84 568.695C1088.6 569.027 1088.28 569.292 1087.88 569.489C1087.49 569.683 1087.03 569.78 1086.51 569.78ZM1090.33 563.557V562.541H1096.09V563.557H1093.76V569.632H1092.67V563.557H1090.33ZM1102.43 565.588V566.603H1098.51V565.588H1102.43ZM1098.77 562.541V569.632H1097.68V562.541H1098.77ZM1103.26 562.541V569.632H1102.17V562.541H1103.26ZM1106.34 568.025L1109.75 562.541H1111.01V569.632H1109.92V564.147L1106.52 569.632H1105.25V562.541H1106.34V568.025ZM1118.58 562.541V568.616H1119.58V571.922H1118.49V569.632H1113V562.541H1114.09V568.616H1117.49V562.541H1118.58ZM1123.34 569.798C1122.89 569.798 1122.48 569.713 1122.12 569.544C1121.75 569.372 1121.46 569.124 1121.25 568.801C1121.03 568.475 1120.92 568.081 1120.92 567.619C1120.92 567.213 1121 566.883 1121.16 566.631C1121.32 566.376 1121.54 566.176 1121.8 566.031C1122.07 565.886 1122.37 565.779 1122.69 565.708C1123.02 565.634 1123.34 565.575 1123.67 565.532C1124.1 565.477 1124.45 565.435 1124.72 565.408C1124.99 565.377 1125.19 565.326 1125.31 565.255C1125.44 565.185 1125.5 565.062 1125.5 564.886V564.849C1125.5 564.394 1125.38 564.04 1125.13 563.787C1124.88 563.535 1124.51 563.409 1124.01 563.409C1123.49 563.409 1123.08 563.523 1122.78 563.75C1122.49 563.978 1122.28 564.221 1122.16 564.48L1121.13 564.111C1121.31 563.68 1121.56 563.344 1121.86 563.104C1122.17 562.861 1122.51 562.692 1122.88 562.596C1123.25 562.498 1123.61 562.449 1123.97 562.449C1124.2 562.449 1124.46 562.476 1124.75 562.532C1125.05 562.584 1125.34 562.693 1125.62 562.859C1125.9 563.026 1126.13 563.276 1126.31 563.612C1126.5 563.947 1126.59 564.397 1126.59 564.96V569.632H1125.5V568.672H1125.45C1125.37 568.825 1125.25 568.99 1125.08 569.166C1124.9 569.341 1124.68 569.49 1124.39 569.613C1124.1 569.736 1123.75 569.798 1123.34 569.798ZM1123.51 568.819C1123.94 568.819 1124.3 568.735 1124.6 568.565C1124.9 568.396 1125.12 568.178 1125.27 567.91C1125.42 567.642 1125.5 567.361 1125.5 567.065V566.068C1125.46 566.123 1125.35 566.174 1125.2 566.22C1125.04 566.263 1124.86 566.302 1124.66 566.336C1124.46 566.366 1124.27 566.394 1124.08 566.419C1123.89 566.44 1123.74 566.459 1123.62 566.474C1123.33 566.511 1123.07 566.571 1122.82 566.654C1122.58 566.734 1122.38 566.856 1122.23 567.019C1122.09 567.179 1122.01 567.397 1122.01 567.674C1122.01 568.053 1122.15 568.339 1122.43 568.533C1122.71 568.724 1123.07 568.819 1123.51 568.819Z" fill="black"/>
<path d="M140.391 345.129C139.782 345.129 139.238 345.025 138.761 344.815C138.287 344.606 137.91 344.315 137.63 343.943C137.353 343.567 137.203 343.132 137.178 342.636H138.341C138.366 342.941 138.471 343.204 138.655 343.426C138.84 343.644 139.082 343.814 139.38 343.934C139.679 344.054 140.009 344.114 140.373 344.114C140.779 344.114 141.139 344.043 141.453 343.901C141.767 343.76 142.013 343.563 142.191 343.31C142.37 343.058 142.459 342.766 142.459 342.433C142.459 342.085 142.373 341.779 142.201 341.515C142.028 341.247 141.776 341.038 141.444 340.887C141.111 340.736 140.705 340.661 140.225 340.661H139.468V339.645H140.225C140.6 339.645 140.93 339.577 141.213 339.442C141.499 339.306 141.722 339.116 141.882 338.869C142.045 338.623 142.127 338.334 142.127 338.001C142.127 337.681 142.056 337.403 141.915 337.166C141.773 336.929 141.573 336.744 141.314 336.612C141.059 336.48 140.757 336.413 140.41 336.413C140.083 336.413 139.776 336.473 139.486 336.593C139.2 336.71 138.966 336.881 138.785 337.106C138.603 337.327 138.504 337.595 138.489 337.909H137.381C137.4 337.414 137.549 336.98 137.829 336.607C138.109 336.232 138.475 335.939 138.928 335.73C139.383 335.521 139.883 335.416 140.428 335.416C141.013 335.416 141.514 335.535 141.933 335.772C142.352 336.006 142.673 336.315 142.898 336.7C143.122 337.084 143.235 337.5 143.235 337.946C143.235 338.478 143.095 338.932 142.815 339.308C142.538 339.683 142.161 339.943 141.684 340.088V340.162C142.281 340.26 142.747 340.514 143.082 340.924C143.418 341.33 143.586 341.833 143.586 342.433C143.586 342.947 143.446 343.409 143.166 343.818C142.889 344.224 142.51 344.545 142.03 344.778C141.55 345.012 141.004 345.129 140.391 345.129ZM148.373 345.148C147.733 345.148 147.171 344.995 146.688 344.691C146.208 344.386 145.832 343.96 145.562 343.412C145.294 342.864 145.16 342.224 145.16 341.491C145.16 340.753 145.294 340.108 145.562 339.557C145.832 339.006 146.208 338.578 146.688 338.274C147.171 337.969 147.733 337.817 148.373 337.817C149.013 337.817 149.573 337.969 150.053 338.274C150.537 338.578 150.912 339.006 151.18 339.557C151.451 340.108 151.586 340.753 151.586 341.491C151.586 342.224 151.451 342.864 151.18 343.412C150.912 343.96 150.537 344.386 150.053 344.691C149.573 344.995 149.013 345.148 148.373 345.148ZM148.373 344.169C148.859 344.169 149.259 344.044 149.573 343.795C149.887 343.546 150.12 343.218 150.27 342.812C150.421 342.406 150.497 341.965 150.497 341.491C150.497 341.018 150.421 340.576 150.27 340.167C150.12 339.757 149.887 339.426 149.573 339.174C149.259 338.922 148.859 338.795 148.373 338.795C147.887 338.795 147.487 338.922 147.173 339.174C146.859 339.426 146.626 339.757 146.476 340.167C146.325 340.576 146.249 341.018 146.249 341.491C146.249 341.965 146.325 342.406 146.476 342.812C146.626 343.218 146.859 343.546 147.173 343.795C147.487 344.044 147.887 344.169 148.373 344.169ZM157.995 340.956V341.972H154.08V340.956H157.995ZM154.339 337.909V345H153.249V337.909H154.339ZM158.826 337.909V345H157.736V337.909H158.826ZM162.902 345.166C162.453 345.166 162.045 345.082 161.679 344.912C161.313 344.74 161.022 344.492 160.806 344.169C160.591 343.843 160.483 343.449 160.483 342.987C160.483 342.581 160.563 342.252 160.723 341.999C160.883 341.744 161.097 341.544 161.365 341.399C161.633 341.254 161.928 341.147 162.251 341.076C162.577 341.002 162.905 340.944 163.235 340.901C163.665 340.845 164.015 340.804 164.282 340.776C164.553 340.745 164.75 340.694 164.873 340.624C165 340.553 165.063 340.43 165.063 340.254V340.217C165.063 339.762 164.938 339.408 164.689 339.156C164.443 338.903 164.069 338.777 163.567 338.777C163.047 338.777 162.639 338.891 162.344 339.119C162.048 339.346 161.84 339.589 161.72 339.848L160.686 339.479C160.871 339.048 161.117 338.712 161.425 338.472C161.736 338.229 162.074 338.06 162.441 337.964C162.81 337.866 163.173 337.817 163.53 337.817C163.758 337.817 164.019 337.844 164.315 337.9C164.613 337.952 164.901 338.061 165.178 338.228C165.458 338.394 165.691 338.645 165.875 338.98C166.06 339.316 166.152 339.765 166.152 340.328V345H165.063V344.04H165.007C164.933 344.194 164.81 344.358 164.638 344.534C164.466 344.709 164.236 344.858 163.95 344.982C163.664 345.105 163.315 345.166 162.902 345.166ZM163.068 344.188C163.499 344.188 163.862 344.103 164.158 343.934C164.456 343.764 164.681 343.546 164.832 343.278C164.986 343.01 165.063 342.729 165.063 342.433V341.436C165.017 341.491 164.915 341.542 164.758 341.588C164.604 341.632 164.426 341.67 164.222 341.704C164.022 341.735 163.827 341.762 163.636 341.787C163.448 341.808 163.296 341.827 163.179 341.842C162.896 341.879 162.631 341.939 162.385 342.022C162.142 342.102 161.945 342.224 161.794 342.387C161.646 342.547 161.573 342.766 161.573 343.043C161.573 343.421 161.713 343.707 161.993 343.901C162.276 344.092 162.634 344.188 163.068 344.188ZM171.797 345V337.909H177.374V345H176.284V338.925H172.886V345H171.797ZM179.363 347.659V337.909H180.416V339.036H180.545C180.625 338.912 180.736 338.755 180.878 338.565C181.022 338.371 181.228 338.198 181.496 338.048C181.767 337.894 182.133 337.817 182.595 337.817C183.192 337.817 183.718 337.966 184.174 338.265C184.629 338.563 184.985 338.986 185.24 339.534C185.496 340.082 185.623 340.728 185.623 341.473C185.623 342.224 185.496 342.875 185.24 343.426C184.985 343.974 184.631 344.398 184.178 344.7C183.726 344.998 183.204 345.148 182.613 345.148C182.158 345.148 181.793 345.072 181.519 344.922C181.245 344.768 181.035 344.594 180.887 344.4C180.739 344.203 180.625 344.04 180.545 343.911H180.453V347.659H179.363ZM180.434 341.455C180.434 341.99 180.513 342.462 180.67 342.872C180.827 343.278 181.056 343.597 181.358 343.827C181.659 344.055 182.029 344.169 182.466 344.169C182.921 344.169 183.301 344.049 183.606 343.809C183.914 343.566 184.145 343.24 184.298 342.83C184.455 342.418 184.534 341.959 184.534 341.455C184.534 340.956 184.457 340.507 184.303 340.107C184.152 339.703 183.923 339.385 183.615 339.151C183.31 338.914 182.927 338.795 182.466 338.795C182.022 338.795 181.65 338.908 181.348 339.132C181.047 339.354 180.819 339.665 180.665 340.065C180.511 340.462 180.434 340.925 180.434 341.455ZM188.375 343.393L191.791 337.909H193.047V345H191.957V339.516L188.559 345H187.285V337.909H188.375V343.393ZM198.015 345.148C197.332 345.148 196.742 344.997 196.247 344.695C195.755 344.391 195.374 343.966 195.107 343.421C194.842 342.873 194.71 342.236 194.71 341.51C194.71 340.784 194.842 340.143 195.107 339.589C195.374 339.032 195.747 338.598 196.224 338.288C196.704 337.974 197.264 337.817 197.904 337.817C198.274 337.817 198.638 337.878 198.998 338.001C199.358 338.125 199.686 338.325 199.982 338.602C200.277 338.875 200.513 339.239 200.688 339.691C200.863 340.143 200.951 340.701 200.951 341.362V341.824H195.485V340.882H199.843C199.843 340.482 199.763 340.125 199.603 339.811C199.446 339.497 199.222 339.249 198.929 339.068C198.64 338.886 198.298 338.795 197.904 338.795C197.47 338.795 197.095 338.903 196.778 339.119C196.464 339.331 196.222 339.608 196.053 339.95C195.884 340.291 195.799 340.657 195.799 341.048V341.676C195.799 342.212 195.892 342.666 196.076 343.038C196.264 343.407 196.524 343.689 196.856 343.883C197.189 344.074 197.575 344.169 198.015 344.169C198.301 344.169 198.56 344.129 198.791 344.049C199.025 343.966 199.226 343.843 199.395 343.68C199.565 343.513 199.695 343.307 199.788 343.061L200.84 343.357C200.73 343.714 200.543 344.027 200.282 344.298C200.02 344.566 199.697 344.775 199.312 344.926C198.928 345.074 198.495 345.148 198.015 345.148ZM196.519 336.727C196.325 336.727 196.153 336.653 196.002 336.506C195.855 336.355 195.781 336.183 195.781 335.989C195.781 335.776 195.855 335.601 196.002 335.462C196.153 335.321 196.325 335.25 196.519 335.25C196.732 335.25 196.907 335.321 197.046 335.462C197.187 335.601 197.258 335.776 197.258 335.989C197.258 336.183 197.187 336.355 197.046 336.506C196.907 336.653 196.732 336.727 196.519 336.727ZM199.178 336.727C198.985 336.727 198.812 336.653 198.661 336.506C198.514 336.355 198.44 336.183 198.44 335.989C198.44 335.776 198.514 335.601 198.661 335.462C198.812 335.321 198.985 335.25 199.178 335.25C199.391 335.25 199.566 335.321 199.705 335.462C199.846 335.601 199.917 335.776 199.917 335.989C199.917 336.183 199.846 336.355 199.705 336.506C199.566 336.653 199.391 336.727 199.178 336.727ZM206.486 343.523L208.961 337.909H209.995L206.93 345H206.043L203.033 337.909H204.049L206.486 343.523ZM203.698 337.909V345H202.608V337.909H203.698ZM209.275 345V337.909H210.364V345H209.275ZM214.445 345.166C213.996 345.166 213.588 345.082 213.222 344.912C212.856 344.74 212.565 344.492 212.349 344.169C212.134 343.843 212.026 343.449 212.026 342.987C212.026 342.581 212.106 342.252 212.266 341.999C212.426 341.744 212.64 341.544 212.908 341.399C213.176 341.254 213.471 341.147 213.794 341.076C214.12 341.002 214.448 340.944 214.778 340.901C215.208 340.845 215.558 340.804 215.825 340.776C216.096 340.745 216.293 340.694 216.416 340.624C216.543 340.553 216.606 340.43 216.606 340.254V340.217C216.606 339.762 216.481 339.408 216.232 339.156C215.985 338.903 215.612 338.777 215.11 338.777C214.59 338.777 214.182 338.891 213.887 339.119C213.591 339.346 213.383 339.589 213.263 339.848L212.229 339.479C212.414 339.048 212.66 338.712 212.968 338.472C213.279 338.229 213.617 338.06 213.983 337.964C214.353 337.866 214.716 337.817 215.073 337.817C215.301 337.817 215.562 337.844 215.858 337.9C216.156 337.952 216.444 338.061 216.721 338.228C217.001 338.394 217.233 338.645 217.418 338.98C217.603 339.316 217.695 339.765 217.695 340.328V345H216.606V344.04H216.55C216.476 344.194 216.353 344.358 216.181 344.534C216.009 344.709 215.779 344.858 215.493 344.982C215.207 345.105 214.858 345.166 214.445 345.166ZM214.611 344.188C215.042 344.188 215.405 344.103 215.701 343.934C215.999 343.764 216.224 343.546 216.375 343.278C216.529 343.01 216.606 342.729 216.606 342.433V341.436C216.559 341.491 216.458 341.542 216.301 341.588C216.147 341.632 215.969 341.67 215.765 341.704C215.565 341.735 215.37 341.762 215.179 341.787C214.991 341.808 214.839 341.827 214.722 341.842C214.439 341.879 214.174 341.939 213.928 342.022C213.685 342.102 213.488 342.224 213.337 342.387C213.189 342.547 213.116 342.766 213.116 343.043C213.116 343.421 213.256 343.707 213.536 343.901C213.819 344.092 214.177 344.188 214.611 344.188ZM161.279 359V351.909H166.856V359H165.766V352.925H162.368V359H161.279ZM169.935 357.393L173.351 351.909H174.607V359H173.517V353.516L170.119 359H168.845V351.909H169.935V357.393ZM186.278 357.984L186.149 361.031H185.023V359H184.099V357.984H186.278ZM176.602 351.909H177.692V357.984H180.369V351.909H181.459V357.984H184.136V351.909H185.226V359H176.602V351.909ZM188.952 357.393L192.369 351.909H193.624V359H192.535V353.516L189.137 359H187.863V351.909H188.952V357.393Z" fill="black"/>
<path d="M34.7798 260L31.5298 255.661H30.3664V260H29.2215V250.545H30.3664V254.645H30.865L34.6505 250.545H36.017L32.1946 254.7L36.1463 260H34.7798ZM37.6593 262.659C37.4747 262.659 37.31 262.644 37.1653 262.613C37.0207 262.585 36.9207 262.558 36.8653 262.53L37.1423 261.57C37.4069 261.637 37.6408 261.662 37.844 261.643C38.0471 261.625 38.2271 261.534 38.3841 261.371C38.5441 261.211 38.6903 260.951 38.8227 260.591L39.0258 260.037L36.4036 252.909H37.5854L39.5428 258.56H39.6167L41.5741 252.909H42.7559L39.746 261.034C39.6105 261.4 39.4428 261.703 39.2428 261.944C39.0427 262.187 38.8104 262.367 38.5457 262.484C38.2841 262.601 37.9886 262.659 37.6593 262.659ZM45.0064 252.909L46.7053 255.808L48.4042 252.909H49.6598L47.3701 256.455L49.6598 260H48.4042L46.7053 257.249L45.0064 260H43.7508L46.0036 256.455L43.7508 252.909H45.0064ZM55.9602 255.956V256.972H52.0454V255.956H55.9602ZM52.3039 252.909V260H51.2144V252.909H52.3039ZM56.7911 252.909V260H55.7017V252.909H56.7911ZM63.0465 260V253.906H61.163C60.7382 253.906 60.4043 254.005 60.1612 254.202C59.918 254.399 59.7965 254.67 59.7965 255.014C59.7965 255.353 59.9057 255.619 60.1242 255.813C60.3458 256.007 60.649 256.104 61.0337 256.104H63.3235V257.119H61.0337C60.5536 257.119 60.1396 257.035 59.7919 256.865C59.4441 256.696 59.1763 256.455 58.9886 256.141C58.8009 255.824 58.707 255.448 58.707 255.014C58.707 254.577 58.8055 254.202 59.0024 253.888C59.1994 253.574 59.481 253.332 59.8473 253.163C60.2166 252.994 60.6551 252.909 61.163 252.909H64.0806V260H63.0465ZM58.3192 260L60.332 256.473H61.5138L59.501 260H58.3192Z" fill="black"/>
<path d="M814.792 294L812.042 290.328H811.058V294H810.089V286H811.058V289.469H811.479L814.683 286H815.839L812.604 289.516L815.948 294H814.792ZM819.072 294.125C818.531 294.125 818.055 293.996 817.646 293.738C817.24 293.48 816.923 293.12 816.693 292.656C816.467 292.193 816.354 291.651 816.354 291.031C816.354 290.406 816.467 289.861 816.693 289.395C816.923 288.928 817.24 288.566 817.646 288.309C818.055 288.051 818.531 287.922 819.072 287.922C819.614 287.922 820.088 288.051 820.494 288.309C820.903 288.566 821.221 288.928 821.447 289.395C821.676 289.861 821.791 290.406 821.791 291.031C821.791 291.651 821.676 292.193 821.447 292.656C821.221 293.12 820.903 293.48 820.494 293.738C820.088 293.996 819.614 294.125 819.072 294.125ZM819.072 293.297C819.484 293.297 819.822 293.191 820.088 292.98C820.354 292.77 820.55 292.492 820.678 292.148C820.805 291.805 820.869 291.432 820.869 291.031C820.869 290.63 820.805 290.257 820.678 289.91C820.55 289.564 820.354 289.284 820.088 289.07C819.822 288.857 819.484 288.75 819.072 288.75C818.661 288.75 818.322 288.857 818.057 289.07C817.791 289.284 817.594 289.564 817.467 289.91C817.339 290.257 817.275 290.63 817.275 291.031C817.275 291.432 817.339 291.805 817.467 292.148C817.594 292.492 817.791 292.77 818.057 292.98C818.322 293.191 818.661 293.297 819.072 293.297ZM826.479 292.75L828.573 288H829.448L826.854 294H826.104L823.558 288H824.417L826.479 292.75ZM824.12 288V294H823.198V288H824.12ZM828.839 294V288H829.761V294H828.839ZM835.464 290.578V291.437H832.151V290.578H835.464ZM832.37 288V294H831.448V288H832.37ZM836.167 288V294H835.245V288H836.167ZM839.616 294.141C839.236 294.141 838.891 294.069 838.581 293.926C838.271 293.78 838.025 293.57 837.843 293.297C837.66 293.021 837.569 292.687 837.569 292.297C837.569 291.953 837.637 291.674 837.772 291.461C837.908 291.245 838.089 291.076 838.315 290.953C838.542 290.831 838.792 290.74 839.065 290.68C839.341 290.617 839.619 290.568 839.897 290.531C840.262 290.484 840.558 290.449 840.784 290.426C841.013 290.4 841.18 290.357 841.284 290.297C841.391 290.237 841.444 290.133 841.444 289.984V289.953C841.444 289.568 841.339 289.268 841.128 289.055C840.92 288.841 840.603 288.734 840.179 288.734C839.739 288.734 839.394 288.831 839.144 289.023C838.894 289.216 838.718 289.422 838.616 289.641L837.741 289.328C837.897 288.964 838.106 288.68 838.366 288.477C838.629 288.271 838.916 288.128 839.226 288.047C839.538 287.964 839.845 287.922 840.147 287.922C840.34 287.922 840.562 287.945 840.812 287.992C841.064 288.036 841.308 288.129 841.542 288.27C841.779 288.41 841.976 288.622 842.132 288.906C842.288 289.19 842.366 289.57 842.366 290.047V294H841.444V293.187H841.397C841.335 293.318 841.231 293.457 841.085 293.605C840.939 293.754 840.745 293.88 840.503 293.984C840.261 294.089 839.965 294.141 839.616 294.141ZM839.757 293.312C840.121 293.312 840.429 293.241 840.679 293.098C840.931 292.954 841.121 292.77 841.249 292.543C841.379 292.316 841.444 292.078 841.444 291.828V290.984C841.405 291.031 841.319 291.074 841.187 291.113C841.056 291.15 840.905 291.182 840.733 291.211C840.564 291.237 840.399 291.26 840.237 291.281C840.078 291.299 839.95 291.315 839.851 291.328C839.611 291.359 839.387 291.41 839.179 291.48C838.973 291.548 838.806 291.651 838.679 291.789C838.554 291.924 838.491 292.109 838.491 292.344C838.491 292.664 838.61 292.906 838.847 293.07C839.086 293.232 839.39 293.312 839.757 293.312ZM843.232 288.859V288H848.107V288.859H846.139V294H845.217V288.859H843.232ZM850.906 294.141C850.526 294.141 850.181 294.069 849.871 293.926C849.561 293.78 849.315 293.57 849.133 293.297C848.951 293.021 848.859 292.687 848.859 292.297C848.859 291.953 848.927 291.674 849.063 291.461C849.198 291.245 849.379 291.076 849.605 290.953C849.832 290.831 850.082 290.74 850.355 290.68C850.632 290.617 850.909 290.568 851.188 290.531C851.552 290.484 851.848 290.449 852.074 290.426C852.303 290.4 852.47 290.357 852.574 290.297C852.681 290.237 852.734 290.133 852.734 289.984V289.953C852.734 289.568 852.629 289.268 852.418 289.055C852.21 288.841 851.893 288.734 851.469 288.734C851.029 288.734 850.684 288.831 850.434 289.023C850.184 289.216 850.008 289.422 849.906 289.641L849.031 289.328C849.188 288.964 849.396 288.68 849.656 288.477C849.919 288.271 850.206 288.128 850.516 288.047C850.828 287.964 851.135 287.922 851.438 287.922C851.63 287.922 851.852 287.945 852.102 287.992C852.354 288.036 852.598 288.129 852.832 288.27C853.069 288.41 853.266 288.622 853.422 288.906C853.578 289.19 853.656 289.57 853.656 290.047V294H852.734V293.187H852.688C852.625 293.318 852.521 293.457 852.375 293.605C852.229 293.754 852.035 293.88 851.793 293.984C851.551 294.089 851.255 294.141 850.906 294.141ZM851.047 293.312C851.411 293.312 851.719 293.241 851.969 293.098C852.221 292.954 852.411 292.77 852.539 292.543C852.669 292.316 852.734 292.078 852.734 291.828V290.984C852.695 291.031 852.609 291.074 852.477 291.113C852.346 291.15 852.195 291.182 852.023 291.211C851.854 291.237 851.689 291.26 851.527 291.281C851.368 291.299 851.24 291.315 851.141 291.328C850.901 291.359 850.677 291.41 850.469 291.48C850.263 291.548 850.096 291.651 849.969 291.789C849.844 291.924 849.781 292.109 849.781 292.344C849.781 292.664 849.9 292.906 850.137 293.07C850.376 293.232 850.68 293.312 851.047 293.312ZM857.792 295.719V293.141H858.292C858.414 293.013 858.52 292.875 858.608 292.727C858.697 292.578 858.774 292.402 858.839 292.199C858.907 291.993 858.964 291.743 859.011 291.449C859.058 291.152 859.099 290.794 859.136 290.375L859.339 288H863.151V293.141H864.073V295.719H863.151V294H858.714V295.719H857.792ZM859.339 293.141H862.229V288.859H860.198L860.042 290.375C859.977 291.003 859.896 291.551 859.8 292.02C859.703 292.488 859.55 292.862 859.339 293.141ZM864.766 294V293.141H864.984C865.164 293.141 865.314 293.105 865.434 293.035C865.553 292.962 865.65 292.836 865.723 292.656C865.798 292.474 865.855 292.221 865.895 291.898C865.936 291.573 865.966 291.159 865.984 290.656L866.094 288H870.094V294H869.172V288.859H866.969L866.875 291C866.854 291.492 866.81 291.926 866.742 292.301C866.677 292.673 866.577 292.986 866.441 293.238C866.309 293.491 866.132 293.681 865.91 293.809C865.689 293.936 865.411 294 865.078 294H864.766ZM875.395 294V288.844H873.801C873.441 288.844 873.159 288.927 872.953 289.094C872.747 289.26 872.645 289.49 872.645 289.781C872.645 290.068 872.737 290.293 872.922 290.457C873.109 290.621 873.366 290.703 873.691 290.703H875.629V291.562H873.691C873.285 291.562 872.935 291.491 872.641 291.348C872.346 291.204 872.12 291 871.961 290.734C871.802 290.466 871.723 290.148 871.723 289.781C871.723 289.411 871.806 289.094 871.973 288.828C872.139 288.562 872.378 288.358 872.688 288.215C873 288.072 873.371 288 873.801 288H876.27V294H875.395ZM871.395 294L873.098 291.016H874.098L872.395 294H871.395ZM804.662 307.125C804.099 307.125 803.615 306.992 803.208 306.727C802.802 306.461 802.49 306.095 802.271 305.629C802.052 305.163 801.943 304.63 801.943 304.031C801.943 303.422 802.055 302.884 802.279 302.418C802.505 301.949 802.82 301.583 803.224 301.32C803.63 301.055 804.104 300.922 804.646 300.922C805.068 300.922 805.448 301 805.787 301.156C806.125 301.312 806.403 301.531 806.619 301.812C806.835 302.094 806.969 302.422 807.021 302.797H806.099C806.029 302.523 805.873 302.281 805.63 302.07C805.391 301.857 805.068 301.75 804.662 301.75C804.302 301.75 803.987 301.844 803.716 302.031C803.448 302.216 803.238 302.478 803.087 302.816C802.939 303.152 802.865 303.547 802.865 304C802.865 304.464 802.938 304.867 803.083 305.211C803.232 305.555 803.44 305.822 803.708 306.012C803.979 306.202 804.297 306.297 804.662 306.297C804.901 306.297 805.119 306.255 805.314 306.172C805.509 306.089 805.675 305.969 805.81 305.812C805.945 305.656 806.042 305.469 806.099 305.25H807.021C806.969 305.604 806.84 305.923 806.634 306.207C806.431 306.488 806.162 306.712 805.826 306.879C805.492 307.043 805.104 307.125 804.662 307.125ZM810.806 307.125C810.264 307.125 809.789 306.996 809.38 306.738C808.974 306.48 808.656 306.12 808.427 305.656C808.201 305.193 808.087 304.651 808.087 304.031C808.087 303.406 808.201 302.861 808.427 302.395C808.656 301.928 808.974 301.566 809.38 301.309C809.789 301.051 810.264 300.922 810.806 300.922C811.348 300.922 811.822 301.051 812.228 301.309C812.637 301.566 812.955 301.928 813.181 302.395C813.41 302.861 813.525 303.406 813.525 304.031C813.525 304.651 813.41 305.193 813.181 305.656C812.955 306.12 812.637 306.48 812.228 306.738C811.822 306.996 811.348 307.125 810.806 307.125ZM810.806 306.297C811.218 306.297 811.556 306.191 811.822 305.98C812.087 305.77 812.284 305.492 812.412 305.148C812.539 304.805 812.603 304.432 812.603 304.031C812.603 303.63 812.539 303.257 812.412 302.91C812.284 302.564 812.087 302.284 811.822 302.07C811.556 301.857 811.218 301.75 810.806 301.75C810.395 301.75 810.056 301.857 809.791 302.07C809.525 302.284 809.328 302.564 809.201 302.91C809.073 303.257 809.009 303.63 809.009 304.031C809.009 304.432 809.073 304.805 809.201 305.148C809.328 305.492 809.525 305.77 809.791 305.98C810.056 306.191 810.395 306.297 810.806 306.297ZM819.385 298.75L819.854 299.312C819.672 299.49 819.461 299.613 819.221 299.684C818.982 299.754 818.711 299.797 818.409 299.812C818.107 299.828 817.771 299.844 817.401 299.859C816.984 299.875 816.639 299.977 816.366 300.164C816.092 300.352 815.881 300.622 815.733 300.977C815.584 301.331 815.489 301.766 815.448 302.281H815.526C815.729 301.906 816.01 301.63 816.37 301.453C816.729 301.276 817.114 301.187 817.526 301.187C817.995 301.187 818.417 301.297 818.792 301.516C819.167 301.734 819.463 302.059 819.682 302.488C819.901 302.918 820.01 303.448 820.01 304.078C820.01 304.706 819.898 305.247 819.674 305.703C819.453 306.159 819.142 306.51 818.741 306.758C818.342 307.003 817.875 307.125 817.338 307.125C816.802 307.125 816.332 306.999 815.928 306.746C815.525 306.491 815.211 306.113 814.987 305.613C814.763 305.111 814.651 304.49 814.651 303.75V303.109C814.651 301.773 814.877 300.76 815.331 300.07C815.786 299.38 816.471 299.023 817.385 299C817.708 298.99 817.996 298.987 818.249 298.992C818.501 298.997 818.721 298.986 818.909 298.957C819.096 298.928 819.255 298.859 819.385 298.75ZM817.338 306.297C817.7 306.297 818.012 306.206 818.272 306.023C818.535 305.841 818.737 305.585 818.877 305.254C819.018 304.921 819.088 304.529 819.088 304.078C819.088 303.641 819.017 303.268 818.874 302.961C818.733 302.654 818.531 302.419 818.268 302.258C818.005 302.096 817.69 302.016 817.323 302.016C817.055 302.016 816.814 302.061 816.6 302.152C816.387 302.243 816.204 302.378 816.053 302.555C815.902 302.732 815.785 302.948 815.702 303.203C815.621 303.458 815.578 303.75 815.573 304.078C815.573 304.75 815.73 305.288 816.045 305.691C816.361 306.095 816.792 306.297 817.338 306.297ZM823.936 307.125C823.358 307.125 822.859 306.997 822.44 306.742C822.023 306.484 821.702 306.125 821.475 305.664C821.251 305.201 821.139 304.661 821.139 304.047C821.139 303.432 821.251 302.891 821.475 302.422C821.702 301.951 822.017 301.583 822.42 301.32C822.827 301.055 823.301 300.922 823.842 300.922C824.155 300.922 824.463 300.974 824.768 301.078C825.073 301.182 825.35 301.352 825.6 301.586C825.85 301.818 826.049 302.125 826.198 302.508C826.346 302.891 826.42 303.362 826.42 303.922V304.312H821.795V303.516H825.483C825.483 303.177 825.415 302.875 825.28 302.609C825.147 302.344 824.957 302.134 824.709 301.98C824.465 301.827 824.176 301.75 823.842 301.75C823.475 301.75 823.157 301.841 822.889 302.023C822.624 302.203 822.419 302.437 822.276 302.727C822.133 303.016 822.061 303.326 822.061 303.656V304.188C822.061 304.641 822.139 305.025 822.295 305.34C822.454 305.652 822.674 305.891 822.956 306.055C823.237 306.216 823.564 306.297 823.936 306.297C824.178 306.297 824.397 306.263 824.592 306.195C824.79 306.125 824.961 306.021 825.104 305.883C825.247 305.742 825.358 305.568 825.436 305.359L826.327 305.609C826.233 305.911 826.075 306.177 825.854 306.406C825.633 306.633 825.359 306.81 825.034 306.937C824.708 307.063 824.342 307.125 823.936 307.125ZM830.26 307.125C829.698 307.125 829.213 306.992 828.807 306.727C828.401 306.461 828.088 306.095 827.87 305.629C827.651 305.163 827.542 304.63 827.542 304.031C827.542 303.422 827.653 302.884 827.877 302.418C828.104 301.949 828.419 301.583 828.823 301.32C829.229 301.055 829.703 300.922 830.245 300.922C830.667 300.922 831.047 301 831.385 301.156C831.724 301.312 832.001 301.531 832.217 301.812C832.433 302.094 832.568 302.422 832.62 302.797H831.698C831.627 302.523 831.471 302.281 831.229 302.07C830.989 301.857 830.667 301.75 830.26 301.75C829.901 301.75 829.586 301.844 829.315 302.031C829.047 302.216 828.837 302.478 828.686 302.816C828.538 303.152 828.463 303.547 828.463 304C828.463 304.464 828.536 304.867 828.682 305.211C828.831 305.555 829.039 305.822 829.307 306.012C829.578 306.202 829.896 306.297 830.26 306.297C830.5 306.297 830.717 306.255 830.913 306.172C831.108 306.089 831.273 305.969 831.409 305.812C831.544 305.656 831.64 305.469 831.698 305.25H832.62C832.568 305.604 832.439 305.923 832.233 306.207C832.03 306.488 831.76 306.712 831.424 306.879C831.091 307.043 830.703 307.125 830.26 307.125ZM836.483 307.125C835.905 307.125 835.406 306.997 834.987 306.742C834.57 306.484 834.249 306.125 834.022 305.664C833.798 305.201 833.686 304.661 833.686 304.047C833.686 303.432 833.798 302.891 834.022 302.422C834.249 301.951 834.564 301.583 834.967 301.32C835.374 301.055 835.847 300.922 836.389 300.922C836.702 300.922 837.01 300.974 837.315 301.078C837.62 301.182 837.897 301.352 838.147 301.586C838.397 301.818 838.596 302.125 838.745 302.508C838.893 302.891 838.967 303.362 838.967 303.922V304.312H834.342V303.516H838.03C838.03 303.177 837.962 302.875 837.827 302.609C837.694 302.344 837.504 302.134 837.256 301.98C837.012 301.827 836.722 301.75 836.389 301.75C836.022 301.75 835.704 301.841 835.436 302.023C835.17 302.203 834.966 302.437 834.823 302.727C834.68 303.016 834.608 303.326 834.608 303.656V304.188C834.608 304.641 834.686 305.025 834.842 305.34C835.001 305.652 835.221 305.891 835.502 306.055C835.784 306.216 836.111 306.297 836.483 306.297C836.725 306.297 836.944 306.263 837.139 306.195C837.337 306.125 837.508 306.021 837.651 305.883C837.794 305.742 837.905 305.568 837.983 305.359L838.874 305.609C838.78 305.911 838.622 306.177 838.401 306.406C838.18 306.633 837.906 306.81 837.581 306.937C837.255 307.063 836.889 307.125 836.483 307.125ZM839.729 308.719V306.141H840.229C840.351 306.013 840.457 305.875 840.545 305.727C840.634 305.578 840.711 305.402 840.776 305.199C840.844 304.993 840.901 304.743 840.948 304.449C840.995 304.152 841.036 303.794 841.073 303.375L841.276 301H845.088V306.141H846.01V308.719H845.088V307H840.651V308.719H839.729ZM841.276 306.141H844.167V301.859H842.135L841.979 303.375C841.914 304.003 841.833 304.551 841.737 305.02C841.64 305.488 841.487 305.862 841.276 306.141ZM849.671 307.125C849.13 307.125 848.654 306.996 848.246 306.738C847.839 306.48 847.522 306.12 847.292 305.656C847.066 305.193 846.953 304.651 846.953 304.031C846.953 303.406 847.066 302.861 847.292 302.395C847.522 301.928 847.839 301.566 848.246 301.309C848.654 301.051 849.13 300.922 849.671 300.922C850.213 300.922 850.687 301.051 851.093 301.309C851.502 301.566 851.82 301.928 852.046 302.395C852.276 302.861 852.39 303.406 852.39 304.031C852.39 304.651 852.276 305.193 852.046 305.656C851.82 306.12 851.502 306.48 851.093 306.738C850.687 306.996 850.213 307.125 849.671 307.125ZM849.671 306.297C850.083 306.297 850.421 306.191 850.687 305.98C850.953 305.77 851.149 305.492 851.277 305.148C851.404 304.805 851.468 304.432 851.468 304.031C851.468 303.63 851.404 303.257 851.277 302.91C851.149 302.564 850.953 302.284 850.687 302.07C850.421 301.857 850.083 301.75 849.671 301.75C849.26 301.75 848.921 301.857 848.656 302.07C848.39 302.284 848.194 302.564 848.066 302.91C847.938 303.257 847.875 303.63 847.875 304.031C847.875 304.432 847.938 304.805 848.066 305.148C848.194 305.492 848.39 305.77 848.656 305.98C848.921 306.191 849.26 306.297 849.671 306.297ZM853.797 307V301H856.25C856.896 301 857.409 301.146 857.79 301.438C858.17 301.729 858.36 302.115 858.36 302.594C858.36 302.958 858.252 303.241 858.036 303.441C857.819 303.639 857.542 303.773 857.204 303.844C857.425 303.875 857.64 303.953 857.848 304.078C858.059 304.203 858.234 304.375 858.372 304.594C858.51 304.81 858.579 305.076 858.579 305.391C858.579 305.698 858.5 305.973 858.344 306.215C858.188 306.457 857.964 306.648 857.672 306.789C857.381 306.93 857.032 307 856.625 307H853.797ZM854.672 306.156H856.625C856.943 306.156 857.192 306.081 857.372 305.93C857.551 305.779 857.641 305.573 857.641 305.312C857.641 305.003 857.551 304.759 857.372 304.582C857.192 304.402 856.943 304.312 856.625 304.312H854.672V306.156ZM854.672 303.516H856.25C856.498 303.516 856.71 303.482 856.887 303.414C857.064 303.344 857.2 303.245 857.293 303.117C857.39 302.987 857.438 302.833 857.438 302.656C857.438 302.404 857.333 302.206 857.122 302.062C856.911 301.917 856.62 301.844 856.25 301.844H854.672V303.516ZM861.74 307.141C861.36 307.141 861.014 307.069 860.705 306.926C860.395 306.78 860.149 306.57 859.966 306.297C859.784 306.021 859.693 305.687 859.693 305.297C859.693 304.953 859.761 304.674 859.896 304.461C860.031 304.245 860.212 304.076 860.439 303.953C860.666 303.831 860.916 303.74 861.189 303.68C861.465 303.617 861.742 303.568 862.021 303.531C862.386 303.484 862.681 303.449 862.908 303.426C863.137 303.4 863.304 303.357 863.408 303.297C863.514 303.237 863.568 303.133 863.568 302.984V302.953C863.568 302.568 863.462 302.268 863.251 302.055C863.043 301.841 862.727 301.734 862.302 301.734C861.862 301.734 861.517 301.831 861.267 302.023C861.017 302.216 860.841 302.422 860.74 302.641L859.865 302.328C860.021 301.964 860.229 301.68 860.49 301.477C860.753 301.271 861.039 301.128 861.349 301.047C861.662 300.964 861.969 300.922 862.271 300.922C862.464 300.922 862.685 300.945 862.935 300.992C863.188 301.036 863.431 301.129 863.666 301.27C863.903 301.41 864.099 301.622 864.255 301.906C864.412 302.19 864.49 302.57 864.49 303.047V307H863.568V306.187H863.521C863.458 306.318 863.354 306.457 863.208 306.605C863.063 306.754 862.869 306.88 862.626 306.984C862.384 307.089 862.089 307.141 861.74 307.141ZM861.88 306.312C862.245 306.312 862.552 306.241 862.802 306.098C863.055 305.954 863.245 305.77 863.373 305.543C863.503 305.316 863.568 305.078 863.568 304.828V303.984C863.529 304.031 863.443 304.074 863.31 304.113C863.18 304.15 863.029 304.182 862.857 304.211C862.688 304.237 862.522 304.26 862.361 304.281C862.202 304.299 862.073 304.315 861.974 304.328C861.735 304.359 861.511 304.41 861.302 304.48C861.097 304.548 860.93 304.651 860.802 304.789C860.677 304.924 860.615 305.109 860.615 305.344C860.615 305.664 860.733 305.906 860.97 306.07C861.21 306.232 861.513 306.312 861.88 306.312ZM870.188 303.578V304.437H866.875V303.578H870.188ZM867.094 301V307H866.172V301H867.094ZM870.891 301V307H869.969V301H870.891ZM873.497 305.641L876.387 301H877.45V307H876.528V302.359L873.653 307H872.575V301H873.497V305.641ZM880.06 305.641L882.951 301H884.013V307H883.091V302.359L880.216 307H879.138V301H880.06V305.641ZM882.341 299H883.201C883.201 299.422 883.055 299.767 882.763 300.035C882.472 300.303 882.076 300.437 881.576 300.437C881.083 300.437 880.692 300.303 880.4 300.035C880.111 299.767 879.966 299.422 879.966 299H880.826C880.826 299.203 880.882 299.382 880.994 299.535C881.108 299.689 881.302 299.766 881.576 299.766C881.849 299.766 882.044 299.689 882.162 299.535C882.281 299.382 882.341 299.203 882.341 299Z" fill="black"/>
<rect x="1066.61" y="589.131" width="60.2006" height="2.15479" fill="#C7D1F1"/>
<rect x="1092.68" y="589.131" width="8.06795" height="106.746" fill="#C7D1F1"/>
<rect x="1066.61" y="597.933" width="60.2006" height="2.15479" fill="#C7D1F1"/>
<rect x="1066.61" y="606.734" width="60.2006" height="2.15479" fill="#C7D1F1"/>
<rect x="1066.61" y="615.536" width="60.2006" height="2.15479" fill="#C7D1F1"/>
<rect x="1066.61" y="624.338" width="60.2006" height="2.15479" fill="#C7D1F1"/>
<rect x="1066.61" y="633.14" width="60.2006" height="2.15479" fill="#C7D1F1"/>
<rect x="1066.61" y="641.941" width="60.2006" height="2.15479" fill="#C7D1F1"/>
<rect x="1066.61" y="650.743" width="60.2006" height="2.15479" fill="#C7D1F1"/>
<rect x="1066.61" y="659.545" width="60.2006" height="2.15479" fill="#C7D1F1"/>
<rect x="1066.61" y="668.347" width="60.2006" height="2.15479" fill="#C7D1F1"/>
<rect x="1066.61" y="677.148" width="60.2006" height="2.15479" fill="#C7D1F1"/>
<rect x="1066.61" y="685.95" width="60.2006" height="2.15479" fill="#C7D1F1"/>
<rect x="1066.61" y="694.752" width="60.2006" height="2.15479" fill="#C7D1F1"/>
<path d="M914.193 230.596C914.193 227.383 916.798 224.778 920.011 224.778H937.07C940.283 224.778 942.888 227.383 942.888 230.596V235.664C942.888 236.492 942.216 237.164 941.388 237.164H915.693C914.865 237.164 914.193 236.492 914.193 235.664V230.596Z" fill="#F3F6FF" stroke="#8A8A8A"/>
<path d="M916.488 232.548C916.488 229.358 919.074 226.771 922.264 226.771C925.454 226.771 928.04 229.358 928.04 232.548V233.252C928.04 234.081 927.369 234.752 926.54 234.752H917.988C917.159 234.752 916.488 234.081 916.488 233.252V232.548Z" fill="#F3F6FF" stroke="#8A8A8A"/>
<path d="M921.443 232.01C921.443 231.556 921.811 231.188 922.264 231.188C922.718 231.188 923.086 231.556 923.086 232.01V236.343C923.086 236.796 922.718 237.164 922.264 237.164C921.811 237.164 921.443 236.796 921.443 236.343V232.01Z" fill="#F3F6FF" stroke="#8A8A8A"/>
<path d="M929.041 232.548C929.041 229.358 931.627 226.771 934.817 226.771C938.007 226.771 940.593 229.358 940.593 232.548V233.252C940.593 234.081 939.922 234.752 939.093 234.752H930.541C929.712 234.752 929.041 234.081 929.041 233.252V232.548Z" fill="#F3F6FF" stroke="#8A8A8A"/>
<path d="M933.996 232.01C933.996 231.556 934.363 231.188 934.817 231.188C935.271 231.188 935.638 231.556 935.638 232.01V236.343C935.638 236.796 935.271 237.164 934.817 237.164C934.363 237.164 933.996 236.796 933.996 236.343V232.01Z" fill="#F3F6FF" stroke="#8A8A8A"/>
<path d="M942.888 253.965C942.888 257.178 940.283 259.782 937.07 259.782L920.011 259.782C916.798 259.782 914.193 257.178 914.193 253.965L914.193 248.896C914.193 248.068 914.865 247.396 915.693 247.396L941.388 247.396C942.216 247.396 942.888 248.068 942.888 248.896L942.888 253.965Z" fill="#F3F6FF" stroke="#8A8A8A"/>
<path d="M940.593 252.013C940.593 255.203 938.007 257.789 934.817 257.789C931.627 257.789 929.041 255.203 929.041 252.013L929.041 251.308C929.041 250.48 929.712 249.808 930.541 249.808L939.093 249.808C939.922 249.808 940.593 250.48 940.593 251.308L940.593 252.013Z" fill="#F3F6FF" stroke="#8A8A8A"/>
<path d="M935.638 252.551C935.638 253.004 935.27 253.372 934.817 253.372C934.363 253.372 933.996 253.004 933.996 252.551L933.996 248.218C933.996 247.764 934.363 247.396 934.817 247.396C935.27 247.396 935.638 247.764 935.638 248.218L935.638 252.551Z" fill="#F3F6FF" stroke="#8A8A8A"/>
<path d="M928.041 252.013C928.041 255.203 925.454 257.789 922.264 257.789C919.074 257.789 916.488 255.203 916.488 252.013L916.488 251.308C916.488 250.48 917.159 249.808 917.988 249.808L926.541 249.808C927.369 249.808 928.041 250.48 928.041 251.308L928.041 252.013Z" fill="#F3F6FF" stroke="#8A8A8A"/>
<path d="M923.085 252.551C923.085 253.004 922.718 253.372 922.264 253.372C921.811 253.372 921.443 253.004 921.443 252.551L921.443 248.218C921.443 247.764 921.811 247.396 922.264 247.396C922.718 247.396 923.085 247.764 923.085 248.218L923.085 252.551Z" fill="#F3F6FF" stroke="#8A8A8A"/>
<path d="M48.356 698.456C48.356 695.243 50.9606 692.639 54.1736 692.639L58.6461 692.639C61.8591 692.639 64.4638 695.243 64.4638 698.456L64.4638 703.524C64.4638 704.353 63.7922 705.024 62.9638 705.024L49.856 705.024C49.0275 705.024 48.356 704.353 48.356 703.524L48.356 698.456Z" fill="#F3F6FF" stroke="#8A8A8A"/>
<path d="M50.6338 700.408C50.6338 697.218 53.2199 694.632 56.4101 694.632C59.6003 694.632 62.1865 697.218 62.1865 700.408L62.1865 701.113C62.1865 701.941 61.5149 702.613 60.6865 702.613L52.1338 702.613C51.3054 702.613 50.6338 701.941 50.6338 701.113L50.6338 700.408Z" fill="#F3F6FF" stroke="#8A8A8A"/>
<path d="M55.5889 699.87C55.5889 699.417 55.9566 699.049 56.4102 699.049C56.8638 699.049 57.2315 699.417 57.2315 699.87L57.2315 704.203C57.2315 704.657 56.8638 705.024 56.4102 705.024C55.9566 705.024 55.5889 704.657 55.5889 704.203L55.5889 699.87Z" fill="#F3F6FF" stroke="#8A8A8A"/>
</svg>
