<svg width="1328" height="720" viewBox="0 0 1328 720" fill="none" xmlns="http://www.w3.org/2000/svg">
<rect x="0.118164" y="95.9902" width="12.6797" height="295.863" fill="#2B365A"/>
<rect x="0.118164" y="418.889" width="12.6797" height="152.891" fill="#2B365A"/>
<rect x="7.05957" y="509.426" width="12.6797" height="43.1738" fill="#2B365A"/>
<rect x="7.05957" y="518.746" width="95.7676" height="14.7363" fill="#2B365A"/>
<rect x="90.1475" y="504.01" width="202.949" height="14.7363" fill="#2B365A"/>
<rect x="316.798" y="504.01" width="183.506" height="14.7363" fill="#2B365A"/>
<rect x="525.368" y="504.01" width="45.2383" height="15.2852" fill="#2B365A"/>
<rect x="0.118164" y="617.42" width="12.6797" height="32.6875" fill="#2B365A"/>
<rect x="83.8076" y="518.746" width="12.6797" height="131.361" fill="#2B365A"/>
<rect x="83.8076" y="676.285" width="12.6797" height="36.4785" fill="#2B365A"/>
<rect x="90.1475" y="697.018" width="12.6797" height="15.7461" fill="#2B365A"/>
<rect x="90.1475" y="333.131" width="12.6797" height="176.295" fill="#2B365A"/>
<rect x="249.884" y="320.145" width="12.6797" height="189.281" fill="#2B365A"/>
<rect x="12.7979" y="650.107" width="12.6797" height="24.5137" transform="rotate(-90 12.7979 650.107)" fill="#2B365A"/>
<rect x="57.0498" y="650.107" width="12.6797" height="39.4375" transform="rotate(-90 57.0498 650.107)" fill="#2B365A"/>
<rect x="0.118164" y="676.285" width="12.6797" height="42.8184" fill="#2B365A"/>
<rect x="7.05957" y="719.104" width="12.6797" height="129.244" transform="rotate(-90 7.05957 719.104)" fill="#2B365A"/>
<rect x="136.304" y="719.104" width="12.6797" height="52.7949" transform="rotate(-90 136.304 719.104)" fill="#8B98C3"/>
<rect x="277.888" y="719.104" width="12.6797" height="54.3281" transform="rotate(-90 277.888 719.104)" fill="#8B98C3"/>
<rect x="372.585" y="719.104" width="12.6797" height="52.4883" transform="rotate(-90 372.585 719.104)" fill="#8B98C3"/>
<rect x="459.62" y="719.104" width="12.6797" height="52.4883" transform="rotate(-90 459.62 719.104)" fill="#8B98C3"/>
<rect x="552.784" y="719.104" width="12.6797" height="52.4883" transform="rotate(-90 552.784 719.104)" fill="#8B98C3"/>
<rect x="639.224" y="719.104" width="12.6797" height="52.4883" transform="rotate(-90 639.224 719.104)" fill="#8B98C3"/>
<rect x="720.31" y="719.104" width="12.6797" height="52.4883" transform="rotate(-90 720.31 719.104)" fill="#8B98C3"/>
<rect x="805.438" y="719.104" width="12.6797" height="52.4883" transform="rotate(-90 805.438 719.104)" fill="#8B98C3"/>
<rect x="976.036" y="719.104" width="12.6797" height="52.4883" transform="rotate(-90 976.036 719.104)" fill="#8B98C3"/>
<rect x="921.909" y="719.104" width="12.6797" height="22.8887" transform="rotate(-90 921.909 719.104)" fill="#8B98C3"/>
<rect x="1074.1" y="719.104" width="12.6797" height="52.4883" transform="rotate(-90 1074.1 719.104)" fill="#8B98C3"/>
<rect x="189.099" y="719.104" width="12.6797" height="88.7891" transform="rotate(-90 189.099 719.104)" fill="#2B365A"/>
<rect x="332.216" y="719.104" width="12.6797" height="40.3691" transform="rotate(-90 332.216 719.104)" fill="#2B365A"/>
<rect x="425.073" y="719.104" width="12.6797" height="34.5469" transform="rotate(-90 425.073 719.104)" fill="#2B365A"/>
<rect x="512.108" y="719.104" width="12.6797" height="40.6758" transform="rotate(-90 512.108 719.104)" fill="#2B365A"/>
<rect x="605.272" y="719.104" width="12.6797" height="33.9512" transform="rotate(-90 605.272 719.104)" fill="#2B365A"/>
<rect x="771.487" y="719.104" width="12.6797" height="33.9512" transform="rotate(-90 771.487 719.104)" fill="#2B365A"/>
<rect x="691.712" y="719.104" width="12.6797" height="28.5977" transform="rotate(-90 691.712 719.104)" fill="#2B365A"/>
<rect x="857.927" y="719.104" width="12.6797" height="63.9824" transform="rotate(-90 857.927 719.104)" fill="#2B365A"/>
<rect x="944.798" y="719.104" width="12.6797" height="31.2383" transform="rotate(-90 944.798 719.104)" fill="#2B365A"/>
<rect x="1028.52" y="719.104" width="12.6797" height="45.5801" transform="rotate(-90 1028.52 719.104)" fill="#2B365A"/>
<rect x="613.899" y="719.104" width="26.1875" height="19.6719" transform="rotate(-90 613.899 719.104)" fill="#2B365A"/>
<rect x="780.114" y="719.104" width="26.1875" height="19.6719" transform="rotate(-90 780.114 719.104)" fill="#2B365A"/>
<rect x="0.118164" y="571.779" width="12.6797" height="45.6406" fill="#8B98C3"/>
<rect x="0.118164" y="0.255859" width="12.6797" height="71.2012" fill="#2B365A"/>
<rect x="83.958" y="0.255859" width="18.4727" height="73.9414" fill="#2B365A"/>
<rect x="83.958" y="93.8691" width="18.4727" height="22.5703" fill="#2B365A"/>
<rect x="66.5908" y="182.105" width="44.082" height="22.5703" fill="#2B365A"/>
<rect x="254.604" y="187.482" width="20.6328" height="17.1934" fill="#2B365A"/>
<rect x="83.958" y="140.947" width="18.4727" height="63.7285" fill="#2B365A"/>
<rect x="631.868" y="9.28809" width="12.6797" height="167.765" fill="#2B365A"/>
<rect x="0.118164" y="12.9355" width="12.6797" height="120.748" transform="rotate(-90 0.118164 12.9355)" fill="#2B365A"/>
<rect x="642.39" y="177.053" width="12.6797" height="14.6836" transform="rotate(-90 642.39 177.053)" fill="#2B365A"/>
<rect x="694.222" y="177.053" width="12.6797" height="528.67" transform="rotate(-90 694.222 177.053)" fill="#2B365A"/>
<rect x="1315.2" y="338.148" width="12.6797" height="22.4805" fill="#2B365A"/>
<rect x="1123.63" y="348.275" width="32.7051" height="12.3535" fill="#2B365A"/>
<rect x="1315.2" y="247.385" width="12.6797" height="39.8965" fill="#2B365A"/>
<rect x="1315.2" y="522.686" width="12.6797" height="29.2148" fill="#2B365A"/>
<rect x="1297.33" y="522.686" width="24.0195" height="8.13086" fill="#2B365A"/>
<rect x="1297.33" y="353.539" width="24.0195" height="8.13086" fill="#2B365A"/>
<rect x="1315.2" y="602.768" width="12.6797" height="116.336" fill="#2B365A"/>
<rect x="1303" y="628.367" width="12.6797" height="90.7363" fill="#2B365A"/>
<rect x="1259.59" y="719.104" width="30.4238" height="68.293" transform="rotate(-90 1259.59 719.104)" fill="#2B365A"/>
<rect x="1259.59" y="646.111" width="17.7441" height="67.5703" transform="rotate(-90 1259.59 646.111)" fill="#2B365A"/>
<rect x="1126.59" y="719.104" width="12.6797" height="133.487" transform="rotate(-90 1126.59 719.104)" fill="#2B365A"/>
<rect x="657.073" y="177.053" width="12.6797" height="37.1484" transform="rotate(-90 657.073 177.053)" fill="#8B98C3"/>
<rect x="1222.89" y="177.053" width="12.6797" height="79.0391" transform="rotate(-90 1222.89 177.053)" fill="#8B98C3"/>
<rect x="1315.2" y="195.285" width="12.6797" height="52.0996" fill="#8B98C3"/>
<rect x="1315.2" y="287.281" width="12.6797" height="50.8672" fill="#8B98C3"/>
<rect x="1315.2" y="551.9" width="12.6797" height="50.8672" fill="#8B98C3"/>
<rect x="610.3" y="195.285" width="18.2324" height="26.4648" transform="rotate(-90 610.3 195.285)" fill="#2B365A"/>
<rect x="775.563" y="195.285" width="18.2324" height="26.4648" transform="rotate(-90 775.563 195.285)" fill="#2B365A"/>
<rect x="605.403" y="22.0518" width="18.2324" height="26.4648" transform="rotate(-90 605.403 22.0518)" fill="#2B365A"/>
<rect x="451.944" y="22.0518" width="18.2324" height="26.4648" transform="rotate(-90 451.944 22.0518)" fill="#2B365A"/>
<rect x="258.491" y="22.0518" width="18.2324" height="26.4648" transform="rotate(-90 258.491 22.0518)" fill="#2B365A"/>
<rect x="0.118164" y="22.0518" width="18.2324" height="26.4648" transform="rotate(-90 0.118164 22.0518)" fill="#2B365A"/>
<rect x="0.118164" y="350.004" width="25.9883" height="32.6797" transform="rotate(-90 0.118164 350.004)" fill="#2B365A"/>
<rect x="82.6084" y="350.004" width="16.873" height="20.2188" transform="rotate(-90 82.6084 350.004)" fill="#2B365A"/>
<rect x="779.661" y="367.77" width="22.75" height="51.4004" transform="rotate(-90 779.661 367.77)" fill="#2B365A"/>
<rect x="541.397" y="549.025" width="45.0156" height="50" transform="rotate(-90 541.397 549.025)" fill="#2B365A"/>
<rect x="175.177" y="529.533" width="20.1074" height="16.4453" transform="rotate(-90 175.177 529.533)" fill="#2B365A"/>
<rect x="246.069" y="712.764" width="19.8477" height="26.3652" transform="rotate(-90 246.069 712.764)" fill="#2B365A"/>
<rect x="429.165" y="712.764" width="19.8477" height="26.3652" transform="rotate(-90 429.165 712.764)" fill="#2B365A"/>
<rect x="620.798" y="367.77" width="14.125" height="15.9668" transform="rotate(-90 620.798 367.77)" fill="#2B365A"/>
<rect x="615.925" y="549.025" width="21.7266" height="15.9668" transform="rotate(-90 615.925 549.025)" fill="#2B365A"/>
<rect x="615.925" y="538.074" width="10.7754" height="92.5254" transform="rotate(-90 615.925 538.074)" fill="#2B365A"/>
<rect x="853.808" y="367.77" width="22.75" height="106.17" transform="rotate(-90 853.808 367.77)" fill="#2B365A"/>
<rect x="347.487" y="199.803" width="22.75" height="106.17" transform="rotate(-90 347.487 199.803)" fill="#2B365A"/>
<rect x="0.118164" y="333.131" width="22.75" height="91.8496" transform="rotate(-90 0.118164 333.131)" fill="#2B365A"/>
<rect x="945.325" y="195.285" width="18.2324" height="26.4648" transform="rotate(-90 945.325 195.285)" fill="#2B365A"/>
<rect x="1123.63" y="195.285" width="25.0952" height="32.7051" transform="rotate(-90 1123.63 195.285)" fill="#2B365A"/>
<rect x="1301.93" y="195.285" width="30.9121" height="25.9512" transform="rotate(-90 1301.93 195.285)" fill="#2B365A"/>
<rect x="615.925" y="367.77" width="172.484" height="4.87305" transform="rotate(-90 615.925 367.77)" fill="#2B365A"/>
<rect x="615.925" y="534.361" width="123.373" height="4.87305" transform="rotate(-90 615.925 534.361)" fill="#2B365A"/>
<rect x="703.577" y="444.316" width="33.3281" height="4.87305" transform="rotate(-90 703.577 444.316)" fill="#2B365A"/>
<rect x="703.577" y="537.125" width="33.3281" height="4.87305" transform="rotate(-90 703.577 537.125)" fill="#2B365A"/>
<rect x="703.577" y="515.385" width="80.5" height="4.87305" transform="rotate(-90 703.577 515.385)" fill="#2B365A"/>
<rect x="541.397" y="712.764" width="166.246" height="4.87305" transform="rotate(-90 541.397 712.764)" fill="#2B365A"/>
<rect x="434.368" y="712.764" width="197.379" height="4.87305" transform="rotate(-90 434.368 712.764)" fill="#2B365A"/>
<rect x="41.9502" y="712.764" width="36.4785" height="4.87305" transform="rotate(-90 41.9502 712.764)" fill="#2B365A"/>
<rect x="18.0596" y="681.158" width="14.8574" height="4.87305" transform="rotate(180 18.0596 681.158)" fill="#2B365A"/>
<rect x="55.54" y="681.158" width="18.582" height="4.87305" transform="rotate(180 55.54 681.158)" fill="#2B365A"/>
<rect x="93.5068" y="681.158" width="18.582" height="4.87305" transform="rotate(180 93.5068 681.158)" fill="#2B365A"/>
<rect x="792.798" y="367.77" width="172.484" height="4.87305" transform="rotate(-90 792.798 367.77)" fill="#2B365A"/>
<rect x="1005.73" y="361.67" width="189.049" height="4.87305" transform="rotate(-90 1005.73 361.67)" fill="#2B365A"/>
<rect x="1137.54" y="360.629" width="115.637" height="4.87305" transform="rotate(-90 1137.54 360.629)" fill="#2B365A"/>
<rect x="1076.8" y="361.67" width="68.6348" height="4.87305" transform="rotate(-180 1076.8 361.67)" fill="#2B365A"/>
<rect x="1327.88" y="361.67" width="226.703" height="4.87305" transform="rotate(-180 1327.88 361.67)" fill="#2B365A"/>
<rect x="1267.5" y="398.039" width="36.3457" height="4.87305" transform="rotate(-90 1267.5 398.039)" fill="#C7D1F1"/>
<rect x="1323.01" y="408.807" width="47.1367" height="4.87305" transform="rotate(-90 1323.01 408.807)" fill="#C7D1F1"/>
<rect x="1323.01" y="522.686" width="48.9844" height="4.87305" transform="rotate(-90 1323.01 522.686)" fill="#C7D1F1"/>
<rect x="1267.5" y="527.559" width="37.4102" height="4.87305" transform="rotate(-90 1267.5 527.559)" fill="#C7D1F1"/>
<rect x="1267.5" y="522.686" width="59.6641" height="4.87305" fill="#2B365A"/>
<rect x="887.827" y="367.77" width="164.852" height="4.87305" transform="rotate(-90 887.827 367.77)" fill="#2B365A"/>
<rect x="923.796" y="367.77" width="58.3516" height="4.87305" transform="rotate(-90 923.796 367.77)" fill="#2B365A"/>
<rect x="955.407" y="314.291" width="4.67969" height="4.87305" transform="rotate(180 955.407 314.291)" fill="#2B365A"/>
<rect x="899.058" y="314.291" width="8.69727" height="4.87305" transform="rotate(180 899.058 314.291)" fill="#2B365A"/>
<rect x="933.056" y="314.291" width="13.6074" height="4.87305" transform="rotate(180 933.056 314.291)" fill="#2B365A"/>
<rect x="955.104" y="367.77" width="86.5098" height="4.87305" transform="rotate(-90 955.104 367.77)" fill="#2B365A"/>
<rect x="795.235" y="247.385" width="94.9316" height="4.87305" fill="#2B365A"/>
<rect x="828.681" y="209.234" width="43.0234" height="4.87305" transform="rotate(90 828.681 209.234)" fill="#2B365A"/>
<rect x="862.591" y="209.234" width="43.0234" height="4.87305" transform="rotate(90 862.591 209.234)" fill="#2B365A"/>
<rect x="887.827" y="185.064" width="10.1973" height="4.87305" transform="rotate(-90 887.827 185.064)" fill="#2B365A"/>
<rect x="955.104" y="261.596" width="18.4082" height="4.87305" transform="rotate(-90 955.104 261.596)" fill="#2B365A"/>
<rect x="831.343" y="214.107" width="10.1973" height="4.87305" transform="rotate(180 831.343 214.107)" fill="#2B365A"/>
<rect x="866.085" y="214.107" width="14.4492" height="4.87305" transform="rotate(180 866.085 214.107)" fill="#2B365A"/>
<rect x="972.983" y="244.693" width="80.2832" height="4.87305" transform="rotate(180 972.983 244.693)" fill="#2B365A"/>
<rect x="1008.17" y="244.693" width="15.7207" height="4.87305" transform="rotate(180 1008.17 244.693)" fill="#2B365A"/>
<rect x="892.7" y="214.107" width="7.32031" height="4.87305" transform="rotate(180 892.7 214.107)" fill="#2B365A"/>
<rect x="802.028" y="214.107" width="7.32031" height="4.87305" transform="rotate(180 802.028 214.107)" fill="#2B365A"/>
<rect x="749.091" y="367.77" width="128.777" height="4.87305" transform="rotate(180 749.091 367.77)" fill="#2B365A"/>
<rect x="656.073" y="415.861" width="40.1484" height="4.87305" transform="rotate(180 656.073 415.861)" fill="#2B365A"/>
<rect x="868.804" y="415.861" width="188.666" height="4.87305" transform="rotate(180 868.804 415.861)" fill="#2B365A"/>
<rect x="964.638" y="415.861" width="71.9375" height="4.87305" transform="rotate(180 964.638 415.861)" fill="#2B365A"/>
<rect x="1058.37" y="534.361" width="98.3887" height="4.87305" transform="rotate(180 1058.37 534.361)" fill="#2B365A"/>
<rect x="1052.7" y="415.861" width="46.9727" height="4.87305" transform="rotate(180 1052.7 415.861)" fill="#2B365A"/>
<rect x="983.251" y="415.861" width="46.9727" height="4.87305" transform="rotate(180 983.251 415.861)" fill="#2B365A"/>
<rect x="964.638" y="415.861" width="237" height="4.87305" transform="rotate(90 964.638 415.861)" fill="#2B365A"/>
<rect x="964.638" y="674.711" width="44.3926" height="4.87305" transform="rotate(90 964.638 674.711)" fill="#2B365A"/>
<rect x="970.216" y="692.916" width="26.1875" height="16.0293" transform="rotate(90 970.216 692.916)" fill="#2B365A"/>
<rect x="708.446" y="529.488" width="38.2969" height="4.87305" transform="rotate(90 708.446 529.488)" fill="#2B365A"/>
<rect x="708.446" y="591.904" width="119.58" height="4.87305" transform="rotate(90 708.446 591.904)" fill="#2B365A"/>
<rect x="1052.7" y="415.861" width="25.3145" height="4.87305" transform="rotate(90 1052.7 415.861)" fill="#2B365A"/>
<rect x="1270.36" y="398.039" width="41.1255" height="2.86132" transform="rotate(90 1270.36 398.039)" fill="#C7D1F1"/>
<rect x="1327.88" y="404.811" width="21.2344" height="2.86132" transform="rotate(90 1327.88 404.811)" fill="#C7D1F1"/>
<rect x="1327.88" y="422.554" width="51.147" height="2.86132" transform="rotate(90 1327.88 422.554)" fill="#C7D1F1"/>
<rect x="1270.36" y="420.449" width="72.2505" height="2.86132" transform="rotate(90 1270.36 420.449)" fill="#C7D1F1"/>
<rect x="1052.7" y="502.506" width="29.4199" height="4.87305" transform="rotate(90 1052.7 502.506)" fill="#2B365A"/>
<rect x="1057.57" y="513.99" width="197.494" height="4.87305" transform="rotate(90 1057.57 513.99)" fill="#2B365A"/>
<rect x="1140.68" y="513.99" width="197.494" height="4.87305" transform="rotate(90 1140.68 513.99)" fill="#2B365A"/>
<rect x="831.062" y="367.77" width="58.2637" height="4.87305" transform="rotate(180 831.062 367.77)" fill="#2B365A"/>
<rect x="795.235" y="294.848" width="48.4961" height="4.87305" transform="rotate(180 795.235 294.848)" fill="#2B365A"/>
<rect x="746.739" y="293.803" width="12.7624" height="4.87305" transform="rotate(-135 746.739 293.803)" fill="#2B365A"/>
<rect x="723.556" y="270.619" width="12.7624" height="4.87305" transform="rotate(-135 723.556 270.619)" fill="#2B365A"/>
<rect x="737.715" y="284.778" width="20.0241" height="4.87305" transform="rotate(-135 737.715 284.778)" fill="#C7D1F1"/>
<rect x="714.53" y="261.596" width="91.0801" height="4.87305" transform="rotate(-90 714.53 261.596)" fill="#2B365A"/>
<rect x="311.565" y="204.676" width="212.682" height="4.87305" transform="rotate(180 311.565 204.676)" fill="#2B365A"/>
<rect x="102.431" y="116.439" width="92.1113" height="8.38282" transform="rotate(180 102.431 116.439)" fill="#2B365A"/>
<rect x="52.7705" y="201.041" width="42.4512" height="8.38282" transform="rotate(180 52.7705 201.041)" fill="#2B365A"/>
<rect x="44.3877" y="196.85" width="55.9023" height="8.38282" transform="rotate(-90 44.3877 196.85)" fill="#2B365A"/>
<rect x="83.585" y="313.834" width="76.8789" height="8.38282" transform="rotate(-90 83.585 313.834)" fill="#2B365A"/>
<rect x="83.585" y="215.393" width="33.2871" height="8.38282" transform="rotate(-90 83.585 215.393)" fill="#2B365A"/>
<rect x="38.583" y="60.5684" width="32.125" height="4.87305" transform="rotate(180 38.583 60.5684)" fill="#2B365A"/>
<rect x="92.6182" y="60.5684" width="32.125" height="4.87305" transform="rotate(180 92.6182 60.5684)" fill="#2B365A"/>
<rect x="353.728" y="204.676" width="19.8242" height="4.87305" transform="rotate(180 353.728 204.676)" fill="#2B365A"/>
<rect x="537.495" y="181.926" width="86.8457" height="4.87305" transform="rotate(180 537.495 181.926)" fill="#2B365A"/>
<rect x="560.261" y="181.926" width="22.7656" height="4.87305" transform="rotate(180 560.261 181.926)" fill="#C7D1F1"/>
<rect x="333.903" y="204.676" width="22.3379" height="4.87305" transform="rotate(180 333.903 204.676)" fill="#C7D1F1"/>
<rect x="87.0947" y="236.955" width="21.5625" height="4.87305" transform="rotate(-90 87.0947 236.955)" fill="#C7D1F1"/>
<rect x="102.431" y="116.439" width="24.5078" height="4.87305" transform="rotate(90 102.431 116.439)" fill="#C7D1F1"/>
<rect x="52.7705" y="116.439" width="24.5078" height="4.87305" transform="rotate(90 52.7705 116.439)" fill="#C7D1F1"/>
<rect x="12.7979" y="71.457" width="24.5332" height="4.87305" transform="rotate(90 12.7979 71.457)" fill="#C7D1F1"/>
<rect x="4.99121" y="391.854" width="27.0352" height="4.87305" transform="rotate(90 4.99121 391.854)" fill="#C7D1F1"/>
<rect x="102.431" y="74.1973" width="19.6719" height="4.87305" transform="rotate(90 102.431 74.1973)" fill="#C7D1F1"/>
<rect x="38.7432" y="55.6953" width="21.75" height="4.87305" fill="#C7D1F1"/>
<rect x="772.798" y="367.77" width="23.707" height="4.87305" transform="rotate(180 772.798 367.77)" fill="#C7D1F1"/>
<rect x="853.808" y="367.77" width="22.7461" height="4.87305" transform="rotate(180 853.808 367.77)" fill="#C7D1F1"/>
<rect x="680.138" y="415.861" width="24.0645" height="4.87305" transform="rotate(180 680.138 415.861)" fill="#C7D1F1"/>
<rect x="525.368" y="508.883" width="25.0645" height="4.87305" transform="rotate(180 525.368 508.883)" fill="#C7D1F1"/>
<rect x="316.798" y="508.883" width="23.7012" height="4.87305" transform="rotate(180 316.798 508.883)" fill="#C7D1F1"/>
<rect x="80.6475" y="676.285" width="26.1777" height="4.87305" transform="rotate(-90 80.6475 676.285)" fill="#C7D1F1"/>
<rect x="0.118164" y="676.285" width="26.1777" height="4.87305" transform="rotate(-90 0.118164 676.285)" fill="#C7D1F1"/>
<rect x="55.54" y="676.285" width="19.3848" height="4.87305" fill="#C7D1F1"/>
<rect x="18.0596" y="676.285" width="18.8984" height="4.87305" fill="#C7D1F1"/>
<rect x="37.3115" y="645.234" width="19.7383" height="4.87305" fill="#C7D1F1"/>
<rect x="615.925" y="508.883" width="24.5273" height="4.87305" transform="rotate(180 615.925 508.883)" fill="#C7D1F1"/>
<rect x="892.868" y="415.861" width="24.0645" height="4.87305" transform="rotate(180 892.868 415.861)" fill="#C7D1F1"/>
<rect x="959.765" y="676.926" width="24.0645" height="4.87305" transform="rotate(-90 959.765 676.926)" fill="#C7D1F1"/>
<rect x="1081.34" y="513.99" width="40.1387" height="4.87305" fill="#C7D1F1"/>
<rect x="1259.59" y="646.111" width="43.4082" height="42.5684" fill="#C7D1F1"/>
<rect x="1101.18" y="361.693" width="24.3809" height="4.87305" transform="rotate(180 1101.18 361.693)" fill="#C7D1F1"/>
<rect x="992.444" y="244.693" width="19.4609" height="4.87305" transform="rotate(180 992.444 244.693)" fill="#C7D1F1"/>
<rect x="885.38" y="214.107" width="19.2949" height="4.87305" transform="rotate(180 885.38 214.107)" fill="#C7D1F1"/>
<rect x="851.636" y="214.107" width="20.293" height="4.87305" transform="rotate(180 851.636 214.107)" fill="#C7D1F1"/>
<rect x="821.146" y="214.107" width="19.1172" height="4.87305" transform="rotate(180 821.146 214.107)" fill="#C7D1F1"/>
<rect x="887.827" y="202.918" width="17.8535" height="4.87305" transform="rotate(-90 887.827 202.918)" fill="#C7D1F1"/>
<rect x="959.978" y="261.596" width="19.6641" height="4.87305" transform="rotate(90 959.978 261.596)" fill="#C7D1F1"/>
<rect x="950.728" y="314.291" width="17.6719" height="4.87305" transform="rotate(-180 950.728 314.291)" fill="#C7D1F1"/>
<rect x="919.448" y="314.291" width="20.3906" height="4.87305" transform="rotate(-180 919.448 314.291)" fill="#C7D1F1"/>
<rect x="631.868" y="181.926" width="71.6074" height="4.87305" transform="rotate(180 631.868 181.926)" fill="#2B365A"/>
<rect x="347.487" y="180.072" width="169.076" height="4.87305" transform="rotate(-90 347.487 180.072)" fill="#2B365A"/>
<rect x="448.784" y="199.803" width="188.807" height="4.87305" transform="rotate(-90 448.784 199.803)" fill="#2B365A"/>
<rect x="257.69" y="320.145" width="46.1797" height="4.87305" transform="rotate(-90 257.69 320.145)" fill="#C7D1F1"/>
<rect x="257.69" y="248.41" width="43.7344" height="4.87305" transform="rotate(-90 257.69 248.41)" fill="#C7D1F1"/>
<rect x="249.731" y="286.502" width="46.1719" height="4.87305" transform="rotate(-90 249.731 286.502)" fill="#C7D1F1"/>
<rect x="249.618" y="12.9355" width="12.6797" height="394.93" transform="rotate(-90 249.618 12.9355)" fill="#2B365A"/>
<rect x="180.806" y="12.9355" width="12.6797" height="8.87305" transform="rotate(-90 180.806 12.9355)" fill="#2B365A"/>
<rect x="120.866" y="12.9355" width="12.6797" height="59.9395" transform="rotate(-90 120.866 12.9355)" fill="#8B98C4"/>
<rect x="189.679" y="12.9355" width="12.6797" height="59.9395" transform="rotate(-90 189.679 12.9355)" fill="#8B98C4"/>
<rect x="1121.48" y="513.99" width="28.6426" height="28.6426" fill="#2B365A"/>
<rect x="1138.24" y="687.229" width="22.7129" height="31.875" fill="#2B365A"/>
<rect x="1052.7" y="513.99" width="28.6426" height="28.6426" fill="#2B365A"/>
<path d="M903.066 328.251C903.066 325.737 905.104 323.699 907.618 323.699C910.131 323.699 912.169 325.737 912.169 328.251V333.834C912.169 334.663 911.497 335.334 910.669 335.334H904.566C903.738 335.334 903.066 334.663 903.066 333.834V328.251Z" fill="#F3F6FF" stroke="#8A8A8A"/>
<path d="M903.066 335.888C903.066 335.612 903.29 335.388 903.566 335.388H911.669C911.945 335.388 912.169 335.612 912.169 335.888V336.671C912.169 336.947 911.945 337.171 911.669 337.171H903.566C903.29 337.171 903.066 336.947 903.066 336.671V335.888Z" fill="#F3F6FF" stroke="#8A8A8A"/>
<path d="M902.027 339.692C902.027 338.311 903.146 337.192 904.527 337.192H910.709C912.09 337.192 913.209 338.311 913.209 339.692V341.011C913.209 341.84 912.538 342.511 911.709 342.511H903.527C902.698 342.511 902.027 341.84 902.027 341.011V339.692Z" fill="#F3F6FF" stroke="#8A8A8A"/>
<circle cx="907.618" cy="339.851" r="0.5" fill="#D9D9D9" stroke="#8A8A8A" stroke-width="0.534302"/>
<path d="M936.965 328.251C936.965 325.737 939.003 323.699 941.517 323.699C944.03 323.699 946.068 325.737 946.068 328.251V333.834C946.068 334.663 945.396 335.334 944.568 335.334H938.465C937.637 335.334 936.965 334.663 936.965 333.834V328.251Z" fill="#F3F6FF" stroke="#8A8A8A"/>
<path d="M936.965 335.888C936.965 335.612 937.189 335.388 937.465 335.388H945.568C945.844 335.388 946.068 335.612 946.068 335.888V336.671C946.068 336.947 945.844 337.171 945.568 337.171H937.465C937.189 337.171 936.965 336.947 936.965 336.671V335.888Z" fill="#F3F6FF" stroke="#8A8A8A"/>
<path d="M935.926 339.692C935.926 338.311 937.045 337.192 938.426 337.192H944.608C945.989 337.192 947.108 338.311 947.108 339.692V341.011C947.108 341.84 946.436 342.511 945.608 342.511H937.426C936.597 342.511 935.926 341.84 935.926 341.011V339.692Z" fill="#F3F6FF" stroke="#8A8A8A"/>
<circle cx="941.517" cy="339.851" r="0.5" fill="#D9D9D9" stroke="#8A8A8A" stroke-width="0.534302"/>
<path d="M870.344 230.678C870.344 228.165 872.381 226.127 874.895 226.127C877.409 226.127 879.446 228.165 879.446 230.678V236.262C879.446 237.091 878.775 237.762 877.946 237.762H871.844C871.015 237.762 870.344 237.091 870.344 236.262V230.678Z" fill="#F3F6FF" stroke="#8A8A8A"/>
<path d="M870.344 238.315C870.344 238.039 870.568 237.815 870.844 237.815H878.946C879.223 237.815 879.446 238.039 879.446 238.315V239.099C879.446 239.375 879.223 239.599 878.946 239.599H870.844C870.568 239.599 870.344 239.375 870.344 239.099V238.315Z" fill="#F3F6FF" stroke="#8A8A8A"/>
<path d="M869.304 242.12C869.304 240.739 870.423 239.62 871.804 239.62H877.986C879.367 239.62 880.486 240.739 880.486 242.12V243.439C880.486 244.267 879.815 244.939 878.986 244.939H870.804C869.975 244.939 869.304 244.267 869.304 243.439V242.12Z" fill="#F3F6FF" stroke="#8A8A8A"/>
<circle cx="874.895" cy="242.279" r="0.5" fill="#D9D9D9" stroke="#8A8A8A" stroke-width="0.534302"/>
<path d="M838.15 230.678C838.15 228.165 840.188 226.127 842.701 226.127C845.215 226.127 847.253 228.165 847.253 230.678V236.262C847.253 237.091 846.581 237.762 845.753 237.762H839.65C838.821 237.762 838.15 237.091 838.15 236.262V230.678Z" fill="#F3F6FF" stroke="#8A8A8A"/>
<path d="M838.15 238.315C838.15 238.039 838.374 237.815 838.65 237.815H846.753C847.029 237.815 847.253 238.039 847.253 238.315V239.099C847.253 239.375 847.029 239.599 846.753 239.599H838.65C838.374 239.599 838.15 239.375 838.15 239.099V238.315Z" fill="#F3F6FF" stroke="#8A8A8A"/>
<path d="M837.11 242.12C837.11 240.739 838.229 239.62 839.61 239.62H845.792C847.173 239.62 848.292 240.739 848.292 242.12V243.439C848.292 244.267 847.621 244.939 846.792 244.939H838.61C837.781 244.939 837.11 244.267 837.11 243.439V242.12Z" fill="#F3F6FF" stroke="#8A8A8A"/>
<circle cx="842.701" cy="242.279" r="0.5" fill="#D9D9D9" stroke="#8A8A8A" stroke-width="0.534302"/>
<path d="M805.957 230.678C805.957 228.165 807.994 226.127 810.508 226.127C813.022 226.127 815.059 228.165 815.059 230.678V236.262C815.059 237.091 814.388 237.762 813.559 237.762H807.457C806.628 237.762 805.957 237.091 805.957 236.262V230.678Z" fill="#F3F6FF" stroke="#8A8A8A"/>
<path d="M805.957 238.315C805.957 238.039 806.18 237.815 806.457 237.815H814.559C814.835 237.815 815.059 238.039 815.059 238.315V239.099C815.059 239.375 814.835 239.599 814.559 239.599H806.457C806.18 239.599 805.957 239.375 805.957 239.099V238.315Z" fill="#F3F6FF" stroke="#8A8A8A"/>
<path d="M804.917 242.12C804.917 240.739 806.036 239.62 807.417 239.62H813.599C814.98 239.62 816.099 240.739 816.099 242.12V243.439C816.099 244.267 815.427 244.939 814.599 244.939H806.417C805.588 244.939 804.917 244.267 804.917 243.439V242.12Z" fill="#F3F6FF" stroke="#8A8A8A"/>
<circle cx="810.508" cy="242.279" r="0.5" fill="#D9D9D9" stroke="#8A8A8A" stroke-width="0.534302"/>
<path d="M67.9092 692.592C65.3956 692.592 63.3579 690.554 63.3579 688.04C63.3579 685.527 65.3956 683.489 67.9092 683.489L73.4932 683.489C74.3216 683.489 74.9932 684.161 74.9932 684.989L74.9932 691.092C74.9932 691.92 74.3216 692.592 73.4932 692.592L67.9092 692.592Z" fill="#F3F6FF" stroke="#8A8A8A"/>
<path d="M75.5464 692.592C75.2702 692.592 75.0464 692.368 75.0464 692.092L75.0464 683.989C75.0464 683.713 75.2702 683.489 75.5464 683.489L76.3296 683.489C76.6057 683.489 76.8296 683.713 76.8296 683.989L76.8296 692.092C76.8296 692.368 76.6057 692.592 76.3296 692.592L75.5464 692.592Z" fill="#F3F6FF" stroke="#8A8A8A"/>
<path d="M79.3506 693.632C77.9699 693.632 76.8506 692.513 76.8506 691.132L76.8506 684.949C76.8506 683.569 77.9699 682.449 79.3506 682.449L80.6699 682.449C81.4983 682.449 82.1699 683.121 82.1699 683.949L82.1699 692.132C82.1699 692.96 81.4983 693.632 80.6699 693.632L79.3506 693.632Z" fill="#F3F6FF" stroke="#8A8A8A"/>
<circle cx="79.5098" cy="688.04" r="0.5" transform="rotate(-90 79.5098 688.04)" fill="#D9D9D9" stroke="#8A8A8A" stroke-width="0.534302"/>
<rect x="1066.61" y="589.131" width="60.2006" height="2.15479" fill="#C7D1F1"/>
<rect x="1092.68" y="589.131" width="8.06795" height="106.746" fill="#C7D1F1"/>
<rect x="1066.61" y="597.933" width="60.2006" height="2.15479" fill="#C7D1F1"/>
<rect x="1066.61" y="606.734" width="60.2006" height="2.15479" fill="#C7D1F1"/>
<rect x="1066.61" y="615.536" width="60.2006" height="2.15479" fill="#C7D1F1"/>
<rect x="1066.61" y="624.338" width="60.2006" height="2.15479" fill="#C7D1F1"/>
<rect x="1066.61" y="633.14" width="60.2006" height="2.15479" fill="#C7D1F1"/>
<rect x="1066.61" y="641.941" width="60.2006" height="2.15479" fill="#C7D1F1"/>
<rect x="1066.61" y="650.743" width="60.2006" height="2.15479" fill="#C7D1F1"/>
<rect x="1066.61" y="659.545" width="60.2006" height="2.15479" fill="#C7D1F1"/>
<rect x="1066.61" y="668.347" width="60.2006" height="2.15479" fill="#C7D1F1"/>
<rect x="1066.61" y="677.148" width="60.2006" height="2.15479" fill="#C7D1F1"/>
<rect x="1066.61" y="685.95" width="60.2006" height="2.15479" fill="#C7D1F1"/>
<rect x="1066.61" y="694.752" width="60.2006" height="2.15479" fill="#C7D1F1"/>
<rect x="359.279" y="61.499" width="82.6587" height="2.15479" fill="#C7D1F1"/>
<rect x="395.069" y="61.499" width="11.0777" height="106.746" fill="#C7D1F1"/>
<rect x="359.279" y="70.3008" width="82.6587" height="2.15479" fill="#C7D1F1"/>
<rect x="359.279" y="79.1025" width="82.6587" height="2.15479" fill="#C7D1F1"/>
<rect x="359.279" y="87.9043" width="82.6587" height="2.15479" fill="#C7D1F1"/>
<rect x="359.279" y="96.7061" width="82.6587" height="2.15479" fill="#C7D1F1"/>
<rect x="359.279" y="105.508" width="82.6587" height="2.15479" fill="#C7D1F1"/>
<rect x="359.279" y="114.31" width="82.6587" height="2.15479" fill="#C7D1F1"/>
<rect x="359.279" y="123.111" width="82.6587" height="2.15479" fill="#C7D1F1"/>
<rect x="359.279" y="131.913" width="82.6587" height="2.15479" fill="#C7D1F1"/>
<rect x="359.279" y="140.715" width="82.6587" height="2.15479" fill="#C7D1F1"/>
<rect x="359.279" y="149.517" width="82.6587" height="2.15479" fill="#C7D1F1"/>
<rect x="359.279" y="158.318" width="82.6587" height="2.15479" fill="#C7D1F1"/>
<rect x="359.279" y="167.12" width="82.6587" height="2.15479" fill="#C7D1F1"/>
<path d="M914.193 230.596C914.193 227.383 916.798 224.778 920.011 224.778H937.07C940.283 224.778 942.888 227.383 942.888 230.596V235.664C942.888 236.492 942.216 237.164 941.388 237.164H915.693C914.865 237.164 914.193 236.492 914.193 235.664V230.596Z" fill="#F3F6FF" stroke="#8A8A8A"/>
<path d="M916.488 232.548C916.488 229.358 919.074 226.771 922.264 226.771C925.454 226.771 928.04 229.358 928.04 232.548V233.252C928.04 234.081 927.369 234.752 926.54 234.752H917.988C917.159 234.752 916.488 234.081 916.488 233.252V232.548Z" fill="#F3F6FF" stroke="#8A8A8A"/>
<path d="M921.443 232.01C921.443 231.556 921.811 231.188 922.264 231.188C922.718 231.188 923.086 231.556 923.086 232.01V236.343C923.086 236.796 922.718 237.164 922.264 237.164C921.811 237.164 921.443 236.796 921.443 236.343V232.01Z" fill="#F3F6FF" stroke="#8A8A8A"/>
<path d="M929.041 232.548C929.041 229.358 931.627 226.771 934.817 226.771C938.007 226.771 940.593 229.358 940.593 232.548V233.252C940.593 234.081 939.922 234.752 939.093 234.752H930.541C929.712 234.752 929.041 234.081 929.041 233.252V232.548Z" fill="#F3F6FF" stroke="#8A8A8A"/>
<path d="M933.996 232.01C933.996 231.556 934.363 231.188 934.817 231.188C935.271 231.188 935.638 231.556 935.638 232.01V236.343C935.638 236.796 935.271 237.164 934.817 237.164C934.363 237.164 933.996 236.796 933.996 236.343V232.01Z" fill="#F3F6FF" stroke="#8A8A8A"/>
<path d="M942.888 253.965C942.888 257.178 940.283 259.782 937.07 259.782L920.011 259.782C916.798 259.782 914.193 257.178 914.193 253.965L914.193 248.896C914.193 248.068 914.865 247.396 915.693 247.396L941.388 247.396C942.216 247.396 942.888 248.068 942.888 248.896L942.888 253.965Z" fill="#F3F6FF" stroke="#8A8A8A"/>
<path d="M940.594 252.013C940.594 255.203 938.007 257.789 934.817 257.789C931.627 257.789 929.041 255.203 929.041 252.013L929.041 251.308C929.041 250.48 929.712 249.808 930.541 249.808L939.094 249.808C939.922 249.808 940.594 250.48 940.594 251.308L940.594 252.013Z" fill="#F3F6FF" stroke="#8A8A8A"/>
<path d="M935.638 252.551C935.638 253.004 935.271 253.372 934.817 253.372C934.364 253.372 933.996 253.004 933.996 252.551L933.996 248.218C933.996 247.764 934.364 247.396 934.817 247.396C935.271 247.396 935.638 247.764 935.638 248.218L935.638 252.551Z" fill="#F3F6FF" stroke="#8A8A8A"/>
<path d="M928.041 252.013C928.041 255.203 925.455 257.789 922.264 257.789C919.074 257.789 916.488 255.203 916.488 252.013L916.488 251.308C916.488 250.48 917.16 249.808 917.988 249.808L926.541 249.808C927.369 249.808 928.041 250.48 928.041 251.308L928.041 252.013Z" fill="#F3F6FF" stroke="#8A8A8A"/>
<path d="M923.086 252.551C923.086 253.004 922.718 253.372 922.264 253.372C921.811 253.372 921.443 253.004 921.443 252.551L921.443 248.218C921.443 247.764 921.811 247.396 922.264 247.396C922.718 247.396 923.086 247.764 923.086 248.218L923.086 252.551Z" fill="#F3F6FF" stroke="#8A8A8A"/>
<path d="M48.3557 698.456C48.3557 695.243 50.9604 692.639 54.1733 692.639L58.6459 692.639C61.8589 692.639 64.4635 695.243 64.4635 698.456L64.4635 703.524C64.4635 704.353 63.792 705.024 62.9635 705.024L49.8557 705.024C49.0273 705.024 48.3557 704.353 48.3557 703.524L48.3557 698.456Z" fill="#F3F6FF" stroke="#8A8A8A"/>
<path d="M50.6333 700.408C50.6333 697.218 53.2195 694.632 56.4096 694.632C59.5998 694.632 62.186 697.218 62.186 700.408L62.186 701.113C62.186 701.941 61.5144 702.613 60.686 702.613L52.1333 702.613C51.3049 702.613 50.6333 701.941 50.6333 701.113L50.6333 700.408Z" fill="#F3F6FF" stroke="#8A8A8A"/>
<path d="M55.5884 699.87C55.5884 699.417 55.9561 699.049 56.4097 699.049C56.8633 699.049 57.231 699.417 57.231 699.87L57.231 704.203C57.231 704.657 56.8633 705.024 56.4097 705.024C55.9561 705.024 55.5884 704.657 55.5884 704.203L55.5884 699.87Z" fill="#F3F6FF" stroke="#8A8A8A"/>
</svg>
