<svg width="51" height="70" viewBox="0 0 51 70" fill="none" xmlns="http://www.w3.org/2000/svg">
<path fill-rule="evenodd" clip-rule="evenodd" d="M23.3252 70H29.3367C29.4408 69.3832 29.3493 68.7441 29.2589 68.1129C29.2189 67.8338 29.1792 67.5562 29.1567 67.2828C29.0911 66.7727 29.0353 66.2645 28.9795 65.7554C28.9579 65.5586 28.9363 65.3616 28.9141 65.1644C28.7938 64.1603 28.7109 63.1488 28.6282 62.1409L28.6261 62.1165C32.0517 62.0412 35.4963 61.7816 38.8196 61.0779C42.0936 60.7619 45.3184 60.1109 48.3574 58.8165C48.5962 58.7789 48.7781 58.6359 48.8425 58.4665C49.1722 58.222 49.032 57.8118 47.9633 57.1119C45.5381 55.4557 43.3797 53.4706 41.22 51.4843C39.6407 50.0319 38.0608 48.5788 36.3754 47.2533C37.5577 47.3963 43.2039 47.5092 43.0182 45.7934C42.856 45.3665 42.4788 45.0751 42.1075 44.7882C41.9321 44.6527 41.758 44.5183 41.6086 44.371L41.5512 44.3229C40.5016 43.4434 39.45 42.5621 38.4861 41.5865C36.1539 39.1656 34.2291 36.4129 32.307 33.6641C31.9586 33.1659 31.6103 32.6679 31.2598 32.172C33.5107 32.4993 35.807 32.552 38.0352 32.029C39.6487 31.6592 38.5704 30.715 37.7227 29.9728C37.4834 29.7633 37.2625 29.5699 37.1257 29.41C35.8373 28.142 34.6058 26.8175 33.4462 25.4365C31.6856 23.3435 30.1289 21.0913 28.5718 18.8386C27.4948 17.2804 26.4175 15.722 25.2725 14.2158C25.1973 14.1385 25.1349 14.034 25.0719 13.9283C24.9475 13.72 24.8205 13.507 24.5867 13.4896C24.4995 13.4105 24.3783 13.3691 24.2456 13.403C23.903 13.5961 23.6919 14.0279 23.4845 14.4523C23.3524 14.7225 23.2217 14.9898 23.0595 15.1904C20.1986 19.6756 16.7237 23.7621 13.0745 27.6302C12.8021 27.9101 12.5268 28.1856 12.2512 28.4613C12.086 28.6266 11.9206 28.792 11.7558 28.9585C11.6655 29.0633 11.5609 29.1622 11.4555 29.2618C11.1937 29.5091 10.9275 29.7607 10.8653 30.1175C11.0321 31.8258 15.4884 32.2736 16.9018 32.409C15.189 35.645 12.6766 38.4295 10.2098 41.1199C9.40268 41.9531 8.54725 42.7355 7.69323 43.5166C7.53278 43.6634 7.37238 43.8101 7.21236 43.9571L7.19434 43.9739C6.94093 44.2106 6.65497 44.4776 6.64017 44.8451C6.94285 46.3582 10.3145 45.8654 11.8724 45.6377C12.0309 45.6146 12.1706 45.5942 12.2863 45.5789C10.0089 48.5214 7.49278 51.3097 4.75684 53.8458C3.79813 54.7113 2.77879 55.5127 1.72155 56.2615C1.54048 56.4292 1.30963 56.5721 1.07594 56.7168C0.585854 57.0203 0.0832817 57.3315 0.00117275 57.8946C-0.0708062 59.0525 3.18671 59.6412 5.32257 60.0273C5.9978 60.1493 6.56093 60.2511 6.87132 60.3442C12.0779 61.3714 17.3755 61.8832 22.6806 62.0864C22.6941 62.2666 22.7135 62.4473 22.733 62.6287C22.7628 62.9056 22.7927 63.1839 22.8019 63.4636C22.837 63.9259 22.8708 64.3885 22.9045 64.8511C23.0053 66.2334 23.1061 67.6163 23.2452 68.9949C23.2827 69.1564 23.2926 69.3773 23.3033 69.6148C23.309 69.7407 23.3149 69.8712 23.3252 70Z" fill="#57E8DF"/>
<path d="M21.032 14.2195C20.3423 13.6927 21.4147 11.4915 21.5739 10.7239C20.9638 10.2912 20.3726 9.82833 19.7815 9.37679C19.4177 9.14726 19.6943 8.55649 20.1036 8.68067C20.2438 8.42479 20.8653 8.45866 21.4412 8.49253C21.7861 8.51134 22.1158 8.53392 22.309 8.49253C22.6576 7.45775 22.9343 6.4004 23.2412 5.35433C24.2302 3.83039 24.9767 7.67976 25.2913 8.26299C25.8445 8.18774 26.3182 8.10872 26.8411 8.05228C27.3451 7.94692 27.94 8.30438 27.7354 8.86881C27.4398 9.56493 26.7691 10.0278 26.1855 10.4793C26.5759 11.3861 27.023 12.2666 27.4133 13.1697C27.815 15.1452 24.4083 12.7144 23.8172 12.3344C23.3511 12.6504 21.8543 14.2835 21.2025 14.2835C21.1343 14.2835 21.0775 14.2685 21.032 14.2308V14.2195Z" fill="white"/>
<path d="M15.8073 25.5305C15.8073 25.5305 15.8149 25.5305 15.8187 25.5305C15.8338 25.5267 15.8452 25.523 15.8603 25.5192C15.8603 25.5192 15.8679 25.5192 15.8717 25.5154C15.849 25.523 15.83 25.5305 15.8073 25.5342V25.5305ZM30.9951 30.076C27.5392 29.7712 24.178 28.8117 20.904 27.7167C19.0624 27.0281 17.1487 26.3169 15.4587 25.3612C15.3147 25.1053 15.6102 24.7817 15.8755 24.9096C16.4742 25.158 17.0426 25.4703 17.6414 25.7224C19.6232 26.6179 21.6695 27.3667 23.765 27.9537C26.8117 28.8493 29.972 29.5454 33.1589 29.5341C34.2654 29.5266 35.406 29.4212 36.4935 29.282C36.7133 29.218 37.0013 29.2331 37.0543 29.5003C37.1036 29.7298 36.899 29.9066 36.6792 29.8991C36.1146 29.9781 35.55 30.0346 34.9816 30.0873C34.3563 30.1475 33.7311 30.1738 33.1058 30.1738C32.401 30.1738 31.6962 30.1399 30.9951 30.076Z" fill="#2B365A"/>
<path d="M16.4581 23.9389C16.2763 23.5137 16.7689 23.4234 17.0834 23.4084C17.4169 23.3594 17.7465 23.2955 18.08 23.239C19.069 23.0509 20.0694 22.923 21.0471 22.6821C22.2938 22.336 23.5329 21.9371 24.7304 21.4442C25.9884 20.8835 27.1707 20.1723 28.4288 19.6079C28.8002 19.4198 29.1033 19.9842 28.7282 20.1799C27.2276 20.8572 25.8255 21.7452 24.2794 22.3171C22.6955 22.8966 21.0774 23.4121 19.4063 23.6567C18.6674 23.7809 17.9322 23.9276 17.1895 24.0443C17.0531 24.0518 16.8939 24.1082 16.7499 24.1082C16.6362 24.1082 16.5301 24.0706 16.4657 23.9389H16.4581Z" fill="#2B365A"/>
<path d="M11.2255 40.6081C11.2255 40.6081 11.2369 40.6081 11.2444 40.6044C11.2596 40.5968 11.271 40.5931 11.2861 40.5855C11.2861 40.5855 11.2937 40.5818 11.2975 40.578C11.2748 40.5893 11.2558 40.6006 11.2331 40.6081H11.2255ZM11.0701 40.6194C10.7063 40.5667 10.7177 39.9948 11.0967 39.9722C11.2482 39.9722 11.3998 39.9722 11.5552 39.9722C11.7901 39.9722 12.0288 39.976 12.26 39.9722C13.4915 39.9158 14.7041 39.6336 15.8902 39.3175C17.8607 38.7455 19.7213 37.8763 21.597 37.0598C24.4997 35.8181 27.372 34.4785 30.0663 32.8266C30.377 32.6309 30.6991 32.4466 30.9947 32.2246C31.3281 31.98 31.726 32.4955 31.3774 32.7514C31.2637 32.8379 31.1387 32.9132 31.0174 32.9922C28.0238 34.9075 24.7915 36.39 21.5288 37.7898C18.376 39.1971 15.0755 40.6269 11.5703 40.6269C11.4036 40.6269 11.2369 40.6269 11.0701 40.6156V40.6194Z" fill="#2B365A"/>
<path d="M27.1029 46.0153C21.4567 45.56 15.7764 44.4612 10.5395 42.2637C10.3008 42.1546 10.0734 42.0267 9.84224 41.9025C9.42919 41.7256 9.72098 41.0822 10.1378 41.3193C10.2439 41.387 10.3538 41.4472 10.4637 41.5074C12.8131 42.6362 15.3596 43.3023 17.8719 43.957C23.1809 45.1348 28.6413 45.8948 34.0602 45.0971C36.2315 44.7848 38.4331 44.322 40.3846 43.2947C40.7446 42.9523 41.2221 43.5769 40.7636 43.8215C39.1417 44.7133 37.319 45.1611 35.5153 45.5186C33.4008 45.8873 31.256 46.0679 29.1112 46.0679C28.4405 46.0679 27.7698 46.0491 27.1029 46.0153Z" fill="#2B365A"/>
<path d="M33.3816 55.159H33.3892C26.2841 54.6886 19.0653 53.0142 13.1425 48.9428C12.3808 48.3972 11.5964 47.8365 10.9939 47.1216C10.8424 46.7754 11.3426 46.4857 11.5661 46.8018C12.2596 47.5506 13.0857 48.1413 13.9307 48.702C15.9732 49.9738 18.099 51.1365 20.3651 51.9606C24.5978 53.4507 29.1072 54.2559 33.5749 54.5381C36.5116 54.6849 39.4825 54.5155 42.3321 53.7667C42.6769 53.6764 43.018 53.5899 43.3628 53.4958C43.5333 53.4507 43.719 53.5523 43.7645 53.7216C43.81 53.8834 43.7114 54.0866 43.5371 54.1204C43.0142 54.2371 42.5064 54.3914 41.9835 54.508C39.8652 55.016 37.6901 55.2192 35.5112 55.2192C34.7988 55.2192 34.0864 55.1966 33.374 55.159H33.3816Z" fill="#2B365A"/>
<path d="M26.2913 60.1372C22.7217 60.0431 19.1521 59.6443 15.6961 58.7337C13.1383 58.1128 10.6904 57.1307 8.19317 56.3142C6.91615 55.9228 5.6505 55.46 4.54021 54.7074C4.4 54.6849 4.28632 54.5607 4.2598 54.4177C4.23327 54.2785 4.31664 54.1242 4.44927 54.0678C4.74105 53.9511 4.9722 54.2559 5.21093 54.3726C5.76418 54.7037 6.34396 54.9934 6.95026 55.2154C11.2588 56.6528 15.5143 58.331 20.0388 58.9745C24.1275 59.5239 28.2996 59.7233 32.4149 59.3658C35.2304 59.0272 38.0686 58.4364 40.7364 57.4957C42.218 56.9538 43.6504 56.2954 45.0676 55.603C45.2988 55.5127 45.4769 55.2756 45.7308 55.2719C46.0263 55.2907 46.14 55.7159 45.871 55.8702C43.8474 57.0065 41.6686 57.8908 39.4518 58.5944C36.9015 59.2906 34.3247 59.8625 31.6911 60.0695C30.721 60.1485 29.7472 60.1748 28.7733 60.1748C27.9472 60.1748 27.1211 60.156 26.295 60.1334L26.2913 60.1372Z" fill="#2B365A"/>
<path d="M16.4698 23.7282C16.3827 23.3331 16.8412 23.3067 17.114 23.2315C17.6635 23.0885 18.2167 22.953 18.7738 22.8251C20.6874 22.3736 22.5745 21.8016 24.3631 20.9776C25.7462 20.3492 27.2014 19.86 28.467 19.0058C28.7247 18.8892 29.0165 19.1789 28.8952 19.4348C28.8611 19.5101 28.8005 19.5703 28.7285 19.6041C28.4973 19.7396 28.2737 19.8901 28.0388 20.0256C27.2468 20.4846 26.3828 20.8045 25.5416 21.1657C23.5332 22.1102 21.4415 22.8552 19.2815 23.367C18.4744 23.5551 17.6749 23.762 16.8715 23.9539C16.845 23.9615 16.8185 23.9615 16.7919 23.9615C16.6479 23.9615 16.5115 23.8712 16.4736 23.7244L16.4698 23.7282Z" fill="#2B365A"/>
<path d="M34.2201 30.4523C33.773 30.4448 33.3296 30.4372 32.8901 30.4523C31.3213 30.4335 29.7487 30.3356 28.1988 30.0873C25.9934 29.6696 23.8713 28.8794 21.719 28.2887C19.5022 27.7017 17.4029 26.7158 15.3831 25.6547C14.9966 25.4553 15.3036 24.8758 15.6939 25.094C16.0122 25.2709 16.3646 25.459 16.6791 25.6133C17.8349 26.1476 18.9793 26.7083 20.1805 27.1335C21.3059 27.5737 22.5185 27.792 23.6516 28.1946C25.1029 28.6424 26.5656 29.0864 28.051 29.41C29.0514 29.5906 30.1428 29.6847 31.1356 29.7486C31.9427 29.8051 32.7537 29.8051 33.5646 29.8013C33.9814 29.8013 34.402 29.8013 34.8189 29.8088C35.4668 29.8088 36.0694 29.7976 36.6946 29.6847C36.8841 29.6621 37.0584 29.5417 37.2516 29.5793C37.5283 29.6433 37.5889 30.0497 37.3312 30.1814C36.562 30.4147 35.7662 30.4598 34.9629 30.4598C34.7166 30.4598 34.4665 30.456 34.2164 30.4523H34.2201Z" fill="#2B365A"/>
<path d="M10.6458 41.1838C10.6458 41.1838 10.6345 41.1838 10.6269 41.1838C10.4185 41.1838 10.3124 41.022 10.3086 40.864C10.3086 40.7022 10.4147 40.5366 10.6383 40.5441C10.7406 40.5517 10.8429 40.5441 10.9263 40.5441C12.3586 40.5027 13.738 40.2732 15.1173 39.9346C18.1981 39.3062 21.0174 37.9177 23.8708 36.6609C26.2695 35.5471 28.7742 34.5199 30.7826 32.7664C31.0024 32.6196 31.1199 32.2584 31.442 32.4014C31.9118 32.6949 31.4154 33.0937 31.1426 33.312C28.9789 35.1671 26.2884 36.2432 23.7268 37.4285C21.9609 38.1924 20.2254 39.0277 18.4141 39.6749C15.9093 40.4952 13.2946 41.1462 10.6458 41.1838Z" fill="#2B365A"/>
<path d="M28.9445 46.3465C27.4705 46.3201 25.9888 46.3314 24.5223 46.1583C21.8432 45.8573 19.2134 45.259 16.5912 44.6457C14.3858 44.1189 12.2258 43.4002 10.153 42.4821C9.82334 42.2901 9.00483 42.1585 9.31177 41.6467C9.3724 41.5677 9.46714 41.5225 9.56945 41.5188C9.6945 41.5112 9.7665 41.5978 9.86881 41.6467C10.1151 41.7671 10.369 41.8725 10.6191 41.9854C12.169 42.6702 13.7757 43.212 15.3975 43.6749C18.3153 44.4274 21.2635 45.0972 24.2571 45.4773C25.9926 45.7068 27.7433 45.6767 29.4902 45.703C31.8434 45.7294 34.2004 45.4773 36.5119 45.0521C37.7965 44.7586 39.066 44.3672 40.2634 43.8254C40.4226 43.7576 40.5704 43.6448 40.7295 43.577C40.7219 43.5808 40.7144 43.5846 40.7068 43.5921C40.7144 43.5846 40.7257 43.5808 40.7371 43.5733C40.7901 43.5507 40.847 43.5356 40.9038 43.5281C41.1426 43.5168 41.3169 43.8103 41.1842 44.0098C41.1198 44.1339 40.9834 44.1678 40.8659 44.2355C40.5022 44.4462 40.1118 44.608 39.7178 44.7586C38.8689 45.0671 38.0125 45.3568 37.1372 45.5713C34.6627 46.1056 32.1238 46.3502 29.5925 46.3502C29.3727 46.3502 29.1568 46.3502 28.937 46.3465H28.9445Z" fill="#2B365A"/>
<path d="M40.7373 43.5776C40.7373 43.5776 40.7605 43.566 40.7759 43.5582C40.7759 43.5582 40.7798 43.5582 40.7837 43.5582C40.7721 43.5621 40.7566 43.5698 40.745 43.5776C40.745 43.5776 40.7412 43.5776 40.7373 43.5776Z" fill="#2C2D2F"/>
<path d="M10.5508 40.864C10.3273 40.7097 10.4144 40.4275 10.5887 40.2732C10.7403 40.0474 10.8919 39.833 11.1837 40.006C11.4792 40.2243 11.2253 40.5554 11.0397 40.7473C10.9752 40.8564 10.8578 40.9204 10.7403 40.9204C10.6759 40.9204 10.6115 40.9016 10.5546 40.8602L10.5508 40.864Z" fill="#2B365A"/>
<path d="M10.2295 40.8979C10.2295 40.7248 10.3735 40.5668 10.5516 40.5668C10.7297 40.5668 10.8813 40.706 10.8851 40.8866C10.8851 41.0597 10.7411 41.2177 10.563 41.2177C10.3849 41.2177 10.2333 41.0785 10.2295 40.8979Z" fill="#2B365A"/>
<path d="M9.3531 41.9288C9.15984 41.7482 9.26974 41.4848 9.46299 41.3531C9.53878 41.2854 9.57289 41.2365 9.64488 41.1838C9.79646 41.086 10.0087 41.1424 10.0996 41.2929C10.2171 41.481 10.1034 41.673 9.94803 41.7896C9.84193 41.91 9.70551 42.0191 9.56531 42.0191C9.4971 42.0191 9.4251 41.9928 9.3531 41.9326V41.9288Z" fill="#2B365A"/>
<path d="M37.4561 54.9595C31.9653 54.8654 26.3683 54.4515 21.2224 52.397C20.0173 51.9116 18.7858 51.4827 17.5921 50.9672C15.8452 50.2108 14.2196 49.1986 12.7 48.0585C12.2302 47.7048 11.7603 47.3436 11.3169 46.9598C11.082 46.7528 11.2828 46.3163 11.6125 46.3991C12.3401 46.9109 13.0032 47.5167 13.7497 48.0171C15.5534 49.3379 17.5618 50.3501 19.6687 51.1064C23.0223 52.5099 26.5351 53.5259 30.1615 53.8984C32.0789 54.1355 34.0115 54.207 35.9403 54.286C38.4299 54.4478 40.9082 54.2295 43.2917 53.5033C43.682 53.3791 43.8942 54 43.4774 54.1204C41.685 54.6397 39.832 54.9746 37.96 54.9746C37.7933 54.9746 37.6266 54.9746 37.4599 54.967L37.4561 54.9595Z" fill="#2B365A"/>
<path d="M12.8521 58.1391C11.3022 57.6989 9.72965 57.3376 8.23663 56.7281C6.81941 56.1712 5.36807 55.6594 4.04558 54.8956C3.78411 54.7074 3.94327 54.2597 4.27673 54.3048C4.55336 54.4102 4.80346 54.5983 5.08387 54.715C6.00469 55.1891 6.98235 55.5428 7.94485 55.9266C10.1389 56.8522 12.4921 57.285 14.7316 58.0864C16.6074 58.6659 18.449 59.268 20.3778 59.6292C21.9352 59.9265 23.5078 60.0394 25.088 60.0657C27.1153 60.0318 29.1464 60.077 31.1662 59.9189C34.4857 59.633 37.8165 59.0535 40.9541 57.9246C42.1023 57.5183 43.2505 57.0931 44.3381 56.5362C44.9444 56.2314 45.5241 55.8701 46.0508 55.4449C46.3616 55.1778 46.8049 55.7008 46.4563 55.9529C44.3987 57.5446 41.8409 58.3197 39.3891 59.1024C36.7744 59.9114 34.0385 60.2877 31.3177 60.5511C29.2828 60.7279 27.2366 60.6677 25.1979 60.7129C25.0956 60.7129 24.9895 60.7129 24.8872 60.7129C20.734 60.7129 16.7438 59.4599 12.8521 58.1429V58.1391Z" fill="#2B365A"/>
<path d="M21.8134 60.2086C21.5064 60.1898 21.2033 60.1522 20.9039 60.0958C20.4871 59.9942 20.6387 59.362 21.0593 59.4598C21.4837 59.5539 21.9233 59.5652 22.359 59.5878C23.1586 59.6367 23.9544 59.6781 24.7539 59.6894C25.1859 59.6894 25.1973 60.3366 24.7653 60.3441C23.7801 60.3253 22.7948 60.2651 21.8096 60.2086H21.8134Z" fill="#2B365A"/>
</svg>
