<?xml version="1.0" standalone="no"?>
<!DOCTYPE svg PUBLIC "-//W3C//DTD SVG 20010904//EN"
 "http://www.w3.org/TR/2001/REC-SVG-20010904/DTD/svg10.dtd">
<svg version="1.0" xmlns="http://www.w3.org/2000/svg"
 width="700.000000pt" height="700.000000pt" viewBox="0 0 700.000000 700.000000"
 preserveAspectRatio="xMidYMid meet">
<metadata>
Created by potrace 1.14, written by Peter Selinger 2001-2017
</metadata>
<g transform="translate(0.000000,700.000000) scale(0.100000,-0.100000)"
fill="#000000" stroke="none">
<path d="M132 6974 c-56 -28 -92 -67 -117 -127 -13 -32 -15 -218 -15 -1597 l0
-1560 940 0 c593 0 977 4 1038 11 183 19 398 82 552 159 139 70 252 156 575
439 222 195 331 284 355 291 73 20 148 -20 187 -99 17 -33 18 -91 23 -798 l5
-763 198 205 c112 116 236 233 285 270 158 119 354 206 577 256 100 23 101 23
1183 26 l1082 4 -2 1573 -3 1573 -30 49 c-19 30 -49 60 -79 79 l-49 30 -3327
3 -3326 2 -52 -26z m3488 -1406 c186 -80 232 -328 88 -475 -182 -186 -501 -54
-501 207 0 215 214 354 413 268z"/>
<path d="M3240 3940 c-199 -177 -310 -267 -401 -327 -237 -155 -542 -261 -840
-293 -55 -6 -492 -10 -1047 -10 l-952 0 2 -1573 3 -1574 30 -49 c19 -30 49
-60 79 -79 l49 -30 3337 0 3337 0 49 30 c30 19 60 49 79 79 l30 49 3 1574 2
1573 -1013 0 c-639 0 -1044 -4 -1097 -10 -199 -25 -406 -105 -548 -212 -41
-31 -229 -216 -418 -412 -376 -387 -378 -389 -462 -367 -42 12 -94 60 -114
106 -10 24 -14 198 -18 815 l-5 785 -85 -75z"/>
</g>
</svg>
