<svg width="18" height="18" viewBox="0 0 18 18" fill="none" xmlns="http://www.w3.org/2000/svg">
<path d="M5.96484 0C2.78921 0 0.214844 2.57436 0.214844 5.75V12.8569C0.214844 13.2711 0.55063 13.6069 0.964844 13.6069C1.37906 13.6069 1.71484 13.2711 1.71484 12.8569V5.75C1.71484 3.40279 3.61763 1.5 5.96484 1.5H12.9777C13.3919 1.5 13.7277 1.16421 13.7277 0.75C13.7277 0.335786 13.3919 0 12.9777 0H5.96484Z" fill="#57E8DF"/>
<path fill-rule="evenodd" clip-rule="evenodd" d="M15.3674 3.54326C12.1264 3.18104 8.80327 3.18104 5.56232 3.54326C4.63905 3.64645 3.89711 4.37304 3.78829 5.30348C3.4039 8.58996 3.4039 11.91 3.78829 15.1965C3.89711 16.127 4.63904 16.8535 5.56232 16.9567C8.80328 17.319 12.1264 17.319 15.3674 16.9567C16.2907 16.8535 17.0326 16.127 17.1414 15.1965C17.5258 11.91 17.5258 8.58996 17.1414 5.30348C17.0326 4.37304 16.2907 3.64645 15.3674 3.54326ZM5.72893 5.03398C8.85915 4.68413 12.0706 4.68413 15.2008 5.03398C15.4381 5.0605 15.6247 5.24821 15.6516 5.47773C16.0224 8.64843 16.0224 11.8516 15.6516 15.0223C15.6247 15.2518 15.4381 15.4395 15.2008 15.466C12.0706 15.8159 8.85916 15.8159 5.72893 15.466C5.49158 15.4395 5.30498 15.2518 5.27813 15.0223C4.90729 11.8516 4.90729 8.64844 5.27813 5.47773C5.30498 5.24821 5.49158 5.0605 5.72893 5.03398Z" fill="#57E8DF"/>
</svg>
