<svg width="18" height="18" viewBox="0 0 18 18" fill="none" xmlns="http://www.w3.org/2000/svg">
<g id="thumbs-up" clip-path="url(#clip0_4133_3168)">
<path id="Icon" d="M12.75 1.49902L12.75 9.74902M16.5 8.24902L16.5 2.99902C16.5 2.1706 15.8284 1.49902 15 1.49902L4.93032 1.49902C3.81979 1.49902 2.87535 2.30927 2.70648 3.40689L1.89879 8.65689C1.68911 10.0198 2.74363 11.249 4.12263 11.249L6.75 11.249C7.16421 11.249 7.5 11.5848 7.5 11.999L7.5 14.6496C7.5 15.671 8.328 16.499 9.34938 16.499C9.593 16.499 9.81377 16.3556 9.91271 16.1329L12.552 10.1944C12.6724 9.92357 12.941 9.74902 13.2374 9.74902L15 9.74902C15.8284 9.74902 16.5 9.07745 16.5 8.24902Z" stroke="#57E8DF" stroke-width="1.5" stroke-linecap="round" stroke-linejoin="round"/>
</g>
<defs>
<clipPath id="clip0_4133_3168">
<rect width="18" height="18" fill="white" transform="translate(18 17.999) rotate(-180)"/>
</clipPath>
</defs>
</svg>
