<svg width="16" height="16" viewBox="0 0 16 16" fill="none" xmlns="http://www.w3.org/2000/svg">
<g id="Camera 2">
<path id="Vector" d="M2.63049 14.4973L3.02237 13.8578L2.63049 14.4973ZM1.50318 13.37L2.14266 12.9781L1.50318 13.37ZM14.1554 13.37L13.5159 12.9781L14.1554 13.37ZM13.028 14.4973L12.6362 13.8578L13.028 14.4973ZM13.9085 6.07366V9.19561H15.4085V6.07366H13.9085ZM8.85366 14.2505H6.80488V15.7505H8.85366V14.2505ZM1.75 9.19561V6.07366H0.25V9.19561H1.75ZM10.1524 2.19561V2.31756H11.6524V2.19561H10.1524ZM5.5061 2.31756V2.19561H4.0061V2.31756H5.5061ZM5.5061 2.19561C5.5061 1.94978 5.70539 1.75049 5.95122 1.75049V0.250488C4.87696 0.250488 4.0061 1.12135 4.0061 2.19561H5.5061ZM9.70732 1.75049C9.95315 1.75049 10.1524 1.94978 10.1524 2.19561H11.6524C11.6524 1.12135 10.7816 0.250488 9.70732 0.250488V1.75049ZM3.68293 4.14073C4.68984 4.14073 5.5061 3.32447 5.5061 2.31756H4.0061C4.0061 2.49604 3.86141 2.64073 3.68293 2.64073V4.14073ZM6.80488 14.2505C5.6726 14.2505 4.87606 14.2497 4.25828 14.191C3.65166 14.1333 3.29528 14.0251 3.02237 13.8578L2.23862 15.1368C2.78682 15.4727 3.39988 15.6161 4.1163 15.6842C4.82155 15.7513 5.70164 15.7505 6.80488 15.7505V14.2505ZM0.25 9.19561C0.25 10.2988 0.249209 11.1789 0.316265 11.8842C0.384382 12.6006 0.527759 13.2137 0.8637 13.7619L2.14266 12.9781C1.97542 12.7052 1.86721 12.3488 1.80953 11.7422C1.75079 11.1244 1.75 10.3279 1.75 9.19561H0.25ZM3.02237 13.8578C2.66383 13.6381 2.36237 13.3367 2.14266 12.9781L0.8637 13.7619C1.2071 14.3222 1.67824 14.7934 2.23862 15.1368L3.02237 13.8578ZM13.9085 9.19561C13.9085 10.3279 13.9077 11.1244 13.849 11.7422C13.7913 12.3488 13.6831 12.7052 13.5159 12.9781L14.7948 13.7619C15.1308 13.2137 15.2742 12.6006 15.3423 11.8842C15.4093 11.1789 15.4085 10.2988 15.4085 9.19561H13.9085ZM8.85366 15.7505C9.95689 15.7505 10.837 15.7513 11.5422 15.6842C12.2587 15.6161 12.8717 15.4727 13.4199 15.1368L12.6362 13.8578C12.3633 14.0251 12.0069 14.1333 11.4003 14.191C10.7825 14.2497 9.98594 14.2505 8.85366 14.2505V15.7505ZM13.5159 12.9781C13.2962 13.3367 12.9947 13.6381 12.6362 13.8578L13.4199 15.1368C13.9803 14.7934 14.4514 14.3222 14.7948 13.7619L13.5159 12.9781ZM15.4085 6.07366C15.4085 4.17771 13.8716 2.64073 11.9756 2.64073V4.14073C13.0431 4.14073 13.9085 5.00613 13.9085 6.07366H15.4085ZM11.9756 2.64073C11.7971 2.64073 11.6524 2.49604 11.6524 2.31756H10.1524C10.1524 3.32447 10.9687 4.14073 11.9756 4.14073V2.64073ZM1.75 6.07366C1.75 5.00613 2.6154 4.14073 3.68293 4.14073V2.64073C1.78697 2.64073 0.25 4.17771 0.25 6.07366H1.75ZM4.34756 8.85415C4.34756 10.777 5.90637 12.3359 7.82927 12.3359V10.8359C6.7348 10.8359 5.84756 9.94861 5.84756 8.85415H4.34756ZM7.82927 12.3359C9.75216 12.3359 11.311 10.777 11.311 8.85415H9.81098C9.81098 9.94861 8.92374 10.8359 7.82927 10.8359V12.3359ZM11.311 8.85415C11.311 6.93125 9.75216 5.37244 7.82927 5.37244V6.87244C8.92374 6.87244 9.81098 7.75968 9.81098 8.85415H11.311ZM7.82927 5.37244C5.90637 5.37244 4.34756 6.93125 4.34756 8.85415H5.84756C5.84756 7.75968 6.7348 6.87244 7.82927 6.87244V5.37244ZM5.95122 1.75049H9.70732V0.250488H5.95122V1.75049Z" fill="#57E8DF"/>
<path id="Vector_2" d="M11.2441 6.12238C11.2441 6.49955 11.5499 6.80531 11.9271 6.80531C12.3042 6.80531 12.61 6.49955 12.61 6.12238C12.61 5.74521 12.3042 5.43945 11.9271 5.43945C11.5499 5.43945 11.2441 5.74521 11.2441 6.12238Z" fill="#57E8DF"/>
</g>
</svg>
