<svg width="175" height="40" viewBox="0 0 175 40" fill="none" xmlns="http://www.w3.org/2000/svg">
<g id="Group 1250">
<path id="Vector" d="M66.6301 17.0938C65.9581 16.2513 65.0278 15.6723 63.8389 15.3467C65.3379 14.8608 66.444 14.1475 67.1625 13.2016C67.881 12.2609 68.2376 11.1444 68.2376 9.85739C68.2376 8.89599 68.0309 8.02245 67.6225 7.23162C67.209 6.44078 66.6094 5.80501 65.8186 5.33465C65.0278 4.85911 64.0612 4.54382 62.924 4.38358C62.2366 4.2802 61.0322 4.22852 59.3162 4.22852H51.3872L46.5284 27.4263H57.4657C59.8847 27.4263 61.7869 27.1524 63.1773 26.6045C64.5729 26.0566 65.6635 25.1572 66.4544 23.9063C67.2452 22.6606 67.6432 21.3374 67.6432 19.947C67.638 18.877 67.302 17.9311 66.6301 17.0938ZM62.1539 22.0869C61.7559 22.6555 61.2286 23.0638 60.5722 23.3119C59.9106 23.56 58.6184 23.6841 56.6852 23.6841H52.0798L53.3462 17.621H59.0422C60.3706 17.621 61.3217 17.8743 61.8954 18.3705C62.464 18.8719 62.7483 19.5076 62.7483 20.2778C62.7483 20.9136 62.5519 21.5183 62.1539 22.0869ZM62.9654 12.1007C62.6087 12.6279 62.0712 13.0104 61.3527 13.2378C60.6342 13.4704 59.4609 13.5841 57.8224 13.5841H54.1835L55.3413 8.08965H59.0422C60.3706 8.08965 61.2131 8.12066 61.5595 8.18785C62.1797 8.31191 62.6604 8.56518 63.0016 8.94767C63.3375 9.325 63.5081 9.81087 63.5081 10.4001C63.5081 11.01 63.3272 11.5735 62.9654 12.1007Z" fill="#009698"/>
<path id="Vector_2" d="M93.379 17.3877C93.379 15.0772 92.6864 13.2371 91.2908 11.8725C89.9004 10.508 87.9621 9.82568 85.481 9.82568C82.6227 9.82568 80.3173 10.7509 78.5548 12.6014C76.7974 14.457 75.9238 16.9328 75.9238 20.0497C75.9238 21.3781 76.2288 22.6238 76.8232 23.7816C77.428 24.9446 78.3377 25.8388 79.5627 26.4745C80.7877 27.1051 82.1936 27.4256 83.7701 27.4256C86.6905 27.4256 89.0269 26.4332 90.7636 24.4484C92.5107 22.4635 93.379 20.1065 93.379 17.3877ZM87.0679 22.3085C86.2253 23.3732 85.1761 23.9056 83.9355 23.9056C82.9431 23.9056 82.1213 23.5541 81.4648 22.846C80.8084 22.143 80.4828 21.1868 80.4828 19.9825C80.4828 19.0107 80.6947 17.9459 81.1134 16.7933C81.5372 15.6355 82.1264 14.7568 82.8863 14.152C83.6461 13.5473 84.5196 13.2423 85.4965 13.2423C86.489 13.2423 87.3005 13.5628 87.9259 14.214C88.5513 14.8653 88.8666 15.7233 88.8666 16.8036C88.8718 18.9642 88.2722 20.7992 87.0679 22.3085Z" fill="#009698"/>
<path id="Vector_3" d="M75.6033 10.6172H71.0599L67.545 27.4211H72.0885L75.6033 10.6172Z" fill="#009698"/>
<path id="Vector_4" d="M76.9317 4.22266H72.3883L71.5354 8.33706H76.0788L76.9317 4.22266Z" fill="#009698"/>
<path id="Vector_5" d="M113.253 15.3409C114.752 14.855 115.858 14.1417 116.577 13.1958C117.295 12.255 117.652 11.1386 117.652 9.85153C117.652 8.89013 117.445 8.01659 117.037 7.22576C116.623 6.43492 116.024 5.79916 115.233 5.32879C114.442 4.85326 113.475 4.53796 112.338 4.37772C111.651 4.27435 110.446 4.22266 108.73 4.22266H100.801L95.9426 27.4205H106.88C109.299 27.4205 111.201 27.1465 112.591 26.5986C113.987 26.0507 115.078 25.1513 115.869 23.9005C116.659 22.6548 117.057 21.3315 117.057 19.9411C117.057 18.8867 116.721 17.9356 116.055 17.0983C115.377 16.2506 114.447 15.6717 113.253 15.3409ZM111.568 22.0862C111.17 22.6548 110.643 23.0631 109.986 23.3112C109.325 23.5593 108.033 23.6834 106.099 23.6834H101.494L102.76 17.6203H108.456C109.785 17.6203 110.736 17.8736 111.31 18.3698C111.878 18.8712 112.162 19.5069 112.162 20.2771C112.162 20.9129 111.966 21.5176 111.568 22.0862ZM112.385 12.1C112.028 12.6272 111.491 13.0097 110.772 13.2371C110.054 13.4697 108.88 13.5834 107.242 13.5834H103.603L104.761 8.08895H108.462C109.79 8.08895 110.632 8.11997 110.979 8.18716C111.599 8.31122 112.08 8.56449 112.421 8.94698C112.757 9.32431 112.927 9.81018 112.927 10.3994C112.922 11.0094 112.741 11.5728 112.385 12.1Z" fill="#009698"/>
<path id="Vector_6" d="M155.09 16.783C155.09 14.5139 154.558 12.7875 153.493 11.5987C152.428 10.415 151.007 9.82057 149.234 9.82057C148.381 9.82057 147.59 9.95496 146.866 10.2237C146.143 10.4977 145.362 10.9474 144.53 11.578L146.158 3.82471H141.599L136.766 27.0277H140.901L141.486 24.2572C142.612 26.3661 144.38 27.4205 146.784 27.4205C147.797 27.4205 148.763 27.2034 149.688 26.7641C150.614 26.3247 151.492 25.6579 152.335 24.7534C153.172 23.8488 153.839 22.6807 154.346 21.2386C154.842 19.8016 155.09 18.313 155.09 16.783ZM150.004 20.5356C149.544 21.7399 148.97 22.6135 148.277 23.1614C147.585 23.7093 146.861 23.9832 146.101 23.9832C145.233 23.9832 144.483 23.6266 143.848 22.9236C143.212 22.2206 142.891 21.2954 142.891 20.1686C142.891 17.9305 143.455 16.0904 144.587 14.6431C145.409 13.5887 146.391 13.0614 147.533 13.0614C148.407 13.0614 149.156 13.4026 149.771 14.0849C150.386 14.762 150.696 15.6976 150.696 16.8916C150.691 18.1217 150.464 19.3313 150.004 20.5356Z" fill="#009698"/>
<path id="Vector_7" d="M170.198 9.61943L163.386 22.433H163.251L162.957 19.187L161.582 9.61943H156.863L159.907 27.5398L159.318 28.5219C158.956 29.044 158.305 29.7676 157.907 30.0002C157.349 30.362 156.594 30.424 155.844 30.424C155.224 30.424 154.666 30.2897 154.175 30.0622L153.193 33.3703C154.144 33.6649 155.188 33.8613 156.336 33.8613C157.747 33.8613 159.282 33.6287 160.429 32.8792C161.608 32.1246 162.657 30.7807 163.872 28.6511L174.912 9.61426H170.198V9.61943Z" fill="#009698"/>
<path id="Vector_8" d="M129.328 24.6399H129.396L128.899 27.152H133.298L135.515 16.3387C135.614 15.8425 135.712 15.3463 135.712 14.7829C135.712 13.6923 135.314 12.338 134.487 11.4438C133.065 9.95521 130.517 9.75879 128.93 9.75879C127.773 9.75879 126.78 9.82599 125.622 10.0586C125.193 10.1568 124.103 10.3894 122.743 10.8856L122.014 14.4263C122.841 13.9972 123.999 13.532 124.925 13.2684C125.881 13.0048 126.744 12.9066 127.535 12.9066C128.46 12.9066 129.752 13.0048 130.579 13.8008C131.21 14.3642 131.272 15.0569 131.106 15.8529L130.941 16.5817H130.543H127.995C127.235 16.5817 126.475 16.6127 125.777 16.6799C122.867 16.9435 121.311 17.8687 120.521 18.4993C118.934 19.7243 118.272 21.4766 118.272 23.0272C118.272 24.7795 119.099 25.8701 119.993 26.5007C121.218 27.3587 122.872 27.4259 123.596 27.4259C124.785 27.4259 125.814 27.2295 126.868 26.6971C127.576 26.3301 128.501 25.7305 129.328 24.6399ZM125.162 24.3763C124.733 24.3763 124.072 24.3453 123.544 23.9111C123.048 23.5131 122.981 23.0169 122.981 22.6241C122.981 22.0968 123.012 20.7374 124.868 19.9466C126.155 19.4194 127.545 19.3832 129.23 19.3832H130.388L130.29 19.8122C130.026 20.97 129.695 22.0296 128.801 22.9549C127.607 24.1799 126.186 24.3763 125.162 24.3763Z" fill="#009698"/>
<path id="Vector_9" d="M19.5264 0.703125C8.94064 0.703125 0.360352 9.28341 0.360352 19.8692C0.360352 30.455 8.94064 39.0353 19.5264 39.0353C30.1122 39.0353 38.6925 30.455 38.6925 19.8692C38.6925 9.28341 30.1122 0.703125 19.5264 0.703125ZM35.1777 16.8506C34.3972 19.5487 31.973 21.3217 29.3111 21.394C29.125 21.425 28.9027 21.425 28.6443 21.3785C28.6236 21.3734 28.6081 21.3734 28.5874 21.3682C28.4065 21.3527 28.2256 21.3268 28.0447 21.2958C25.8169 21.0736 25.1812 21.9781 24.8762 23.1824C24.8659 23.2548 24.8504 23.322 24.84 23.3944C24.5092 25.8754 26.2563 28.1497 28.7322 28.4805C32.2211 28.8217 33.1774 26.0563 32.5158 24.9554C31.9885 24.0715 30.7067 24.0095 29.9107 24.6401C29.6057 24.883 29.3989 25.2086 29.2956 25.5601C29.2542 25.4257 29.218 25.2913 29.1974 25.1518C28.9699 23.6528 30.0089 22.2521 31.5078 22.0246C31.973 21.9574 33.3273 21.9626 34.5213 23.4977C34.9451 24.0456 35.157 25.3689 35.0795 26.2889C34.6246 29.7314 31.3166 31.6387 27.8741 31.1787C25.4293 30.853 23.5013 29.168 22.7518 26.9816C22.7105 26.9144 22.6691 26.842 22.6329 26.7645C21.7697 25.0329 20.2036 24.9502 18.3996 25.8341C18.3738 25.8496 18.3428 25.8651 18.3169 25.8806C16.1977 27.209 15.5568 30.0053 16.8852 32.1246C18.8493 35.0294 21.5836 34.0009 22.0127 32.7965C22.359 31.8248 21.5888 30.8013 20.5964 30.5894C20.2139 30.5067 19.8314 30.5584 19.4954 30.7031C19.573 30.5894 19.6557 30.4757 19.7487 30.3671C20.7618 29.2352 22.4985 29.1421 23.6305 30.1552C23.9768 30.4654 24.84 31.5198 24.4162 33.4168C24.2663 34.0939 23.3824 35.0966 22.6226 35.629C19.6763 37.4743 16.1047 36.1408 14.2594 33.1997C13.2566 31.6025 13.0654 29.7262 13.5668 28.0515C13.5771 27.8086 13.5926 27.5501 13.6288 27.271C13.8821 25.3534 14.2749 24.3248 14.1819 23.5856C12.5175 22.0505 9.92789 21.9626 8.16531 23.4771C5.58089 25.8496 7.00749 28.403 8.26352 28.6459C9.27662 28.8423 10.176 27.9326 10.2329 26.9144C10.2535 26.5215 10.1502 26.1545 9.9589 25.8444C10.083 25.9013 10.207 25.9685 10.3259 26.046C11.5923 26.8782 11.9489 28.5839 11.1116 29.8503C10.8531 30.2431 9.9434 31.251 7.99991 31.1115C7.30728 31.0649 6.18564 30.3361 5.54988 29.6642C3.29109 27.0281 4.07675 23.291 6.71287 21.0322C7.87586 20.0346 9.29212 19.5384 10.7136 19.5177L10.7239 19.5074C10.7239 19.5074 10.7394 19.5126 10.7601 19.5177C11.3648 19.5126 11.9696 19.5953 12.5485 19.7658C12.8638 19.7503 13.1533 19.6935 13.3703 19.5591C13.4169 19.5281 13.4582 19.4971 13.4892 19.4609C10.1191 18.67 7.46752 16.0753 7.00749 12.6897C6.3924 8.18762 9.87103 3.99568 14.7814 3.32373C19.6918 2.65178 24.1732 5.75309 24.7883 10.2552C24.9331 11.3044 24.8504 12.333 24.5867 13.3048H24.6023C24.6023 13.3048 23.9768 16.7524 24.8297 17.6156C25.7497 18.546 26.7732 18.882 27.6777 18.944C28.2566 18.9388 28.7683 18.8871 29.0475 18.851C29.1198 18.8354 29.1922 18.8199 29.2646 18.8044L29.2439 18.7631C30.81 18.4168 32.1488 17.2434 32.6243 15.5946C33.4823 12.1935 30.8876 10.8392 29.7039 11.3303C28.7528 11.7231 28.4996 12.9791 29.0061 13.8578C29.2025 14.199 29.492 14.4471 29.8228 14.6022C29.6884 14.6228 29.5488 14.6383 29.4041 14.6383C27.8845 14.6383 26.6543 13.4082 26.6543 11.8885C26.6543 11.4181 26.861 10.0794 28.5616 9.12318C29.1663 8.78203 30.5051 8.7717 31.4045 8.98879C34.7435 9.96053 36.1391 13.5115 35.1777 16.8506Z" fill="#009698"/>
<path id="Vector_10" d="M16.2339 14.2568C15.6446 14.2568 15.1898 14.7014 15.1846 15.2854C15.1794 15.885 15.6395 16.3554 16.2339 16.3502C16.8076 16.3451 17.2728 15.8799 17.2728 15.3009C17.278 14.7169 16.818 14.2568 16.2339 14.2568Z" fill="#009698"/>
<path id="Vector_11" d="M21.3562 14.571C21.9403 14.571 22.3952 14.1161 22.3952 13.532C22.3952 12.9531 21.9352 12.4827 21.3614 12.4776C20.7773 12.4724 20.2915 12.9583 20.3018 13.5372C20.3121 14.1161 20.7773 14.571 21.3562 14.571Z" fill="#009698"/>
<path id="Vector_12" d="M22.1108 16.3853C22.3124 17.7292 21.3923 18.9904 20.0484 19.2074C19.1077 19.3573 18.2083 18.9645 17.6708 18.2512C17.6708 18.2615 17.6708 18.2719 17.6759 18.2822C17.893 19.6365 19.1749 20.5617 20.5291 20.3446C21.8834 20.1275 22.8086 18.8456 22.5915 17.4914C22.5192 17.0727 22.3486 16.7006 22.1108 16.3853Z" fill="#009698"/>
</g>
</svg>
