<svg width="24" height="26" viewBox="0 0 24 26" fill="none" xmlns="http://www.w3.org/2000/svg">
<path d="M8.89661 22.4432L8.53271 21.5117L8.89661 22.4432ZM3.10548 23.5552L2.60548 24.4212L2.60548 24.4212L3.10548 23.5552ZM1.17298 17.9839L0.184381 18.1345L1.17298 17.9839ZM1.87296 14.2688L2.73898 14.7688L1.87296 14.2688ZM1.03899 16.0352L0.0562837 15.85H0.0562836L1.03899 16.0352ZM11.764 19.9794L12.6301 20.4794L11.764 19.9794ZM10.6513 21.5848L11.303 22.3433L10.6513 21.5848ZM7.29581 4.87612L6.42978 4.37612L7.29581 4.87612ZM23 25.2007C23.5523 25.2007 24 24.753 24 24.2007C24 23.6484 23.5523 23.2007 23 23.2007V25.2007ZM14.4341 23.2007C13.8818 23.2007 13.4341 23.6484 13.4341 24.2007C13.4341 24.753 13.8818 25.2007 14.4341 25.2007V23.2007ZM16.3209 10.0867L10.898 19.4794L12.6301 20.4794L18.0529 11.0867L16.3209 10.0867ZM2.73898 14.7688L8.16184 5.37612L6.42978 4.37612L1.00693 13.7688L2.73898 14.7688ZM8.53271 21.5117C6.96939 22.1225 5.89768 22.5386 5.06855 22.7323C4.26556 22.9199 3.88367 22.8498 3.60548 22.6892L2.60548 24.4212C3.51577 24.9468 4.49522 24.9201 5.52357 24.6798C6.52578 24.4457 7.7554 23.9626 9.26052 23.3746L8.53271 21.5117ZM0.184381 18.1345C0.427685 19.732 0.624167 21.0384 0.92249 22.0234C1.22859 23.0341 1.69519 23.8957 2.60548 24.4212L3.60548 22.6892C3.32729 22.5286 3.07565 22.2329 2.83663 21.4437C2.58982 20.6288 2.41429 19.4926 2.16158 17.8334L0.184381 18.1345ZM1.00693 13.7688C0.54507 14.5687 0.185134 15.1661 0.0562837 15.85L2.0217 16.2203C2.07292 15.9485 2.20894 15.6868 2.73898 14.7688L1.00693 13.7688ZM2.16158 17.8334C2.00197 16.7853 1.97048 16.4922 2.0217 16.2203L0.0562836 15.85C-0.072566 16.5339 0.0452992 17.2213 0.184381 18.1345L2.16158 17.8334ZM10.898 19.4794C10.368 20.3975 10.2094 20.6461 9.99958 20.8263L11.303 22.3433C11.8308 21.8898 12.1682 21.2794 12.6301 20.4794L10.898 19.4794ZM9.26052 23.3746C10.1209 23.0384 10.7752 22.7968 11.303 22.3433L9.99958 20.8263C9.78976 21.0066 9.52011 21.126 8.53271 21.5117L9.26052 23.3746ZM14.5967 3.65192C15.7868 4.33905 16.5912 4.80595 17.1467 5.23463C17.6793 5.64557 17.8601 5.93103 17.9339 6.20612L19.8657 5.68849C19.6333 4.82117 19.0783 4.19893 18.3686 3.65127C17.6819 3.12134 16.7378 2.57873 15.5967 1.91986L14.5967 3.65192ZM18.0529 11.0867C18.7118 9.94554 19.2581 9.00359 19.5878 8.20131C19.9286 7.37219 20.0981 6.5558 19.8657 5.68849L17.9339 6.20612C18.0076 6.48122 17.9937 6.81887 17.7379 7.44102C17.4712 8.09002 17.008 8.89658 16.3209 10.0867L18.0529 11.0867ZM15.5967 1.91986C14.4555 1.261 13.5135 0.714708 12.7112 0.384971C11.8821 0.0442005 11.0657 -0.125332 10.1984 0.107064L10.716 2.03892C10.9911 1.96521 11.3288 1.97912 11.9509 2.23482C12.5999 2.50156 13.4065 2.96478 14.5967 3.65192L15.5967 1.91986ZM8.16184 5.37612C8.84897 4.18596 9.31587 3.38153 9.74455 2.82603C10.1555 2.2935 10.441 2.11263 10.716 2.03892L10.1984 0.107064C9.33109 0.339461 8.70885 0.894474 8.16119 1.60415C7.63126 2.29085 7.08865 3.23493 6.42978 4.37612L8.16184 5.37612ZM17.6869 9.72071L7.79581 4.01009L6.79581 5.74215L16.6869 11.4528L17.6869 9.72071ZM23 23.2007H14.4341V25.2007H23V23.2007Z" fill="#2B365A"/>
</svg>
