<svg width="18" height="18" viewBox="0 0 18 18" fill="none" xmlns="http://www.w3.org/2000/svg">
<path d="M17.0806 4.15165C17.9731 3.25909 17.9731 1.81197 17.0806 0.919418C16.188 0.0268607 14.7409 0.0268607 13.8483 0.919418L9 5.76777L4.15165 0.919418C3.25909 0.0268636 1.81197 0.0268636 0.919417 0.919418C0.0268611 1.81198 0.0268611 3.2591 0.919417 4.15165L5.76777 9L0.919417 13.8484C0.0268611 14.7409 0.0268611 16.188 0.919417 17.0806C1.81197 17.9731 3.25909 17.9731 4.15165 17.0806L9 12.2322L13.8484 17.0806C14.7409 17.9731 16.188 17.9731 17.0806 17.0806C17.9731 16.188 17.9731 14.7409 17.0806 13.8484L12.2322 9L17.0806 4.15165Z" fill="white"/>
</svg>
